<svg xmlns="http://www.w3.org/2000/svg" width="34.631" height="36.328" viewBox="0 0 34.631 36.328">
  <path id="Caminho_1839" data-name="Caminho 1839" d="M17.189,0C6.877,0,0,7.794,0,18.062S6.877,36.078,17.189,36.078s17.191-7.747,17.191-18.015S27.505,0,17.189,0m0,34.29c-9.121,0-15.31-6.967-15.31-16.228,0-9.306,6.189-16.275,15.31-16.275C26.36,1.788,32.5,8.756,32.5,18.062c0,9.26-6.142,16.228-15.313,16.228M11.552,8.253V6.464a20,20,0,0,1,5.409-.779c3.76,0,6.19,1.971,6.19,5.73,0,2.155-.918,3.439-2.8,5.364l-.825.825a4.1,4.1,0,0,0-1.422,3.209v2.017h-1.97V20.721c0-1.65.275-2.7,2.018-4.538l.824-.825C20.537,13.708,21,13.02,21,11.461c0-2.75-1.6-3.9-4.446-3.9a20.619,20.619,0,0,0-5,.689m3.989,20.078c0-1.054.549-1.513,1.6-1.513,1.146,0,1.6.458,1.6,1.513s-.458,1.559-1.6,1.559a1.4,1.4,0,0,1-1.6-1.559" transform="translate(0.125 0.125)" fill="#fff" stroke="#656666" stroke-width="0.25"/>
</svg>
