<?xml version="1.0" encoding="UTF-8"?>
<svg xmlns="http://www.w3.org/2000/svg" version="1.1" viewBox="0 0 28.9 21.9">
  <g class="mostrar">
    <path fill="#888b8d" d="M14.5,19.5c-4.5,0-8.1-3.8-8-8.3,0-4.5,3.5-8.2,8-8.3,4.5,0,8.1,3.8,8,8.3,0,4.5-3.5,8.2-8,8.3M14.5,4.9c-3.4,0-6.1,2.9-6.1,6.3,0,3.4,2.7,6.3,6.1,6.3,3.4,0,6.1-2.9,6.1-6.3,0-3.4-2.7-6.3-6.1-6.3"/>
    <path fill="#888b8d" d="M14.6,19.6c-4.9,0-9.8-2.6-14.4-7.6l-.3-.3v-1l.2-.3c.2-.3,5.4-7.2,13.4-7.7,5.2-.3,10.3,2.3,15.1,7.6l.3.3v1l-.2.3c-.2.3-5.4,7.2-13.4,7.7-.3,0-.5,0-.8,0M2,11.1c4.3,4.6,8.8,6.8,13.3,6.5,6-.3,10.4-4.9,11.7-6.5-4.3-4.6-8.8-6.8-13.3-6.5-6,.3-10.4,4.9-11.7,6.5"/>
  </g>
  <g class="esconder">
    <path fill="#888b8d" d="M0,12v-1.6C4,5.7,9.3,3,14.5,3c.9,0,1.8,0,2.7.3l-1.2,1.6c-.5,0-1-.1-1.5-.1-3.7,0-6,2.5-6,6.5,0,1,.1,1.9.4,2.8l-1.2,1.5c-.7-1.3-1.1-2.8-1-4.3,0-1.9.5-3.8,1.7-5.2-2.6,1.3-5,3-6.9,5.2,1.8,1.8,3.8,3.4,6,4.8l-1.1,1.3c-2.4-1.4-4.6-3.2-6.4-5.3M21.9,0l1.4,1.1L7.4,21.9l-1.4-1.1L21.9,0ZM14.5,17.7c3.7,0,6-2.5,6-6.5,0-1-.2-2-.5-2.9l1.2-1.5c.8,1.3,1.1,2.9,1.1,4.4,0,1.8-.5,3.6-1.5,5.1,2.5-1.3,4.8-3,6.7-5.1-1.8-1.9-3.8-3.5-6-4.8l1-1.3c2.5,1.4,4.7,3.2,6.5,5.3v1.6c-4,4.7-9.3,7.4-14.5,7.4-.9,0-1.9,0-2.8-.3l1.2-1.6c.5.1,1,.2,1.6.2"/>
  </g>
</svg>