<svg xmlns="http://www.w3.org/2000/svg" width="21" height="21" viewBox="0 0 21 21">
  <path id="União_16" data-name="União 16" d="M-5650,20V16.868h1.035v2.1h2.123V20Zm16.818,0V18.963h2.122v-2.1h1.035V20Zm-1.035-4.222c-.708-2.959-2.9-4.222-5.808-4.222-2.88,0-5.077,1.263-5.784,4.222h-1.161a5.972,5.972,0,0,1,4.747-4.9,4.249,4.249,0,0,1-1.54-3.514c0-2.453,1.415-4.2,3.763-4.2,2.4,0,3.762,1.744,3.762,4.2a4.2,4.2,0,0,1-1.515,3.514,6.007,6.007,0,0,1,4.7,4.9Zm-8.435-8.419c0,1.871.884,3.211,2.652,3.211,1.818,0,2.651-1.34,2.651-3.211s-.833-3.212-2.651-3.212C-5641.768,4.146-5642.652,5.486-5642.652,7.358Zm11.592-4.2V1.037h-2.1V0H-5630V3.161Zm-18.94,0V0h3.158V1.036h-2.123V3.157Z" transform="translate(5650.5 0.5)" stroke="rgba(0,0,0,0)" stroke-miterlimit="10" stroke-width="1"/>
</svg>
