<svg xmlns="http://www.w3.org/2000/svg" xmlns:xlink="http://www.w3.org/1999/xlink" width="61.436" height="45.386" viewBox="0 0 61.436 45.386">
  <defs>
    <clipPath id="clip-path">
      <rect id="Retângulo_1918" data-name="Retângulo 1918" width="61.436" height="45.386" fill="none"/>
    </clipPath>
  </defs>
  <g id="Grupo_4545" data-name="Grupo 4545" transform="translate(0 0)">
    <g id="Grupo_4544" data-name="Grupo 4544" transform="translate(0 0)" clip-path="url(#clip-path)">
      <path id="Caminho_1812" data-name="Caminho 1812" d="M49.033,0C42.65,0,38.267,3.324,37.011,8.921H0V45.386H50.554V24.736c6.779-.6,10.882-5.233,10.882-12.333,0-7.685-4.718-12.4-12.4-12.4M36.664,11.549c-.013.284-.034.562-.034.854A14.033,14.033,0,0,0,37.947,18.6a145.537,145.537,0,0,1-12.67,9.2A146.1,146.1,0,0,1,4.516,11.549ZM47.858,40.938,35.927,29.074l-2.089,1.82,12,11.864H4.718l12-11.864-2.089-1.82L2.7,40.938V13.571A149.818,149.818,0,0,0,24.267,30.49h2.022A142.582,142.582,0,0,0,39.474,20.9a11.779,11.779,0,0,0,8.384,3.859Zm2.7-18.922a13.257,13.257,0,0,1-1.521.094c-.4,0-.793-.02-1.175-.052A9,9,0,0,1,41.6,19.119a8.325,8.325,0,0,1-1.427-2.372,11.623,11.623,0,0,1-.776-4.344c0-.292.015-.573.032-.854a11.728,11.728,0,0,1,.447-2.629C41.035,4.975,44.294,2.7,49.033,2.7c6,0,9.64,3.64,9.64,9.707,0,5.532-3.036,9.037-8.119,9.613" transform="translate(0 0)" fill="#1d1d1b"/>
      <path id="Caminho_1813" data-name="Caminho 1813" d="M37.9,8.326c-.751,1.326-1.486,2.56-2.262,3.8-.741-1.213-1.415-2.359-2.089-3.5L32.4,9.454l-1.081.786c.143.246.282.472.421.7.466.771.944,1.508,1.494,2.31.372.539.769,1.105,1.253,1.772h2.359c.375-.583.718-1.125,1.049-1.657,1.279-2.053,2.348-3.9,4.007-6.9L39.61,5.185c-.6,1.143-1.161,2.164-1.714,3.141" transform="translate(12.658 2.096)" fill="#1d1d1b"/>
    </g>
  </g>
</svg>
