<svg xmlns="http://www.w3.org/2000/svg" xmlns:xlink="http://www.w3.org/1999/xlink" width="38.16" height="38.03" viewBox="0 0 38.16 38.03">
  <defs>
    <clipPath id="clip-path">
      <rect id="Retângulo_1955" data-name="Retângulo 1955" width="38.16" height="38.03" fill="none"/>
    </clipPath>
  </defs>
  <g id="Grupo_4652" data-name="Grupo 4652" transform="translate(0 0)">
    <g id="Grupo_4651" data-name="Grupo 4651" transform="translate(0 0)" clip-path="url(#clip-path)">
      <path id="Caminho_1851" data-name="Caminho 1851" d="M19.079,0C30.8,0,38.159,7.359,38.159,19.016c0,11.591-7.423,19.016-19.079,19.016S0,30.607,0,19.016C0,7.359,7.423,0,19.079,0m0,2.6C8.922,2.6,2.67,8.858,2.67,19.016c0,10.092,6.317,16.411,16.41,16.411,10.158,0,16.411-6.319,16.411-16.411C35.491,8.858,29.237,2.6,19.079,2.6M32.624,14.131c0,5.471-2.344,7.685-5.665,7.685-3.386,0-5.406-.977-6.513-7.685H17.582c-1.107,6.643-3.06,7.685-6.446,7.685C7.814,21.816,5.6,19.6,5.6,14.131V11.657c4.557-.13,8.92-.13,13.543-.13,4.689,0,8.857,0,13.48.13ZM24.681,24.55,26.242,26.5a9.225,9.225,0,0,1-7.162,3.322A9.112,9.112,0,0,1,11.917,26.5l1.561-1.953a7.325,7.325,0,0,0,11.2,0" transform="translate(0 0)" fill="#1d1d1b"/>
    </g>
  </g>
</svg>
