<svg xmlns="http://www.w3.org/2000/svg" width="38.406" height="42.406" viewBox="0 0 38.406 42.406">
  <path id="Caminho_1051" data-name="Caminho 1051" d="M646.224,125.8a94.185,94.185,0,0,1-9.6,4.862l-1.108-.739c.923-3.876,1.477-6.215,2.585-9.847a17.84,17.84,0,0,1-4.8-12.618c0-11.818,7.448-19.2,19.2-19.2,11.878,0,19.2,7.508,19.2,19.325,0,11.7-7.262,19.081-18.9,19.081A28.915,28.915,0,0,1,646.224,125.8Zm-7.387,1.169a47.651,47.651,0,0,0,6.956-3.877A22.917,22.917,0,0,0,653,124.2c10.032,0,16.187-6.092,16.187-16.618s-6.34-16.863-16.68-16.863c-10.156,0-16.681,6.279-16.681,16.741a18.739,18.739,0,0,0,4.925,12.125C640.13,121.923,639.516,124.14,638.838,126.97Zm4.8-24.25a2.063,2.063,0,1,1,2.031,2.031A2.048,2.048,0,0,1,643.64,102.72Zm0,9.539a2.024,2.024,0,0,1,2.031-2.092,2.062,2.062,0,1,1,0,4.123A2.009,2.009,0,0,1,643.64,112.259Zm10.586-3.508h-5.416v-2.523h5.416Zm1.54-9.91,1.908-1.231a15.915,15.915,0,0,1,3.877,9.725,15.671,15.671,0,0,1-3.877,9.787l-1.908-1.169a12.954,12.954,0,0,0,3.262-8.617A12.764,12.764,0,0,0,655.765,98.842Z" transform="translate(-633.299 -88.256)" fill="#1d1d1b"/>
</svg>
