<?xml version="1.0" encoding="UTF-8"?>
<svg xmlns="http://www.w3.org/2000/svg" width="35" height="35" version="1.1" viewBox="0 0 35 35">
  <g class="off">
    <path fill="#656666" d="M.2,21.2l2.9-1,18-12.1,5.8,16-9.6,1,.2,1.1v.6c0,2-2.2,2.9-4.4,2.9s-3.4-.8-3.5-2.8v-.9l-4.2.4-2.9,1L.2,21.2ZM4.9,25.1l-1.3-3.6-1.5.5,1.3,3.6,1.5-.5ZM6.4,24.8l18.4-2-4.5-12.4-15.4,10.4,1.4,4h0ZM13,28.2c1.5,0,3-.2,3-1.6v-1.4c-.1,0-4.9.5-4.9.5v.8c.2,1.3.9,1.6,2,1.6M25.8,11.2l-1.1-1,3.9-4.9,1.2,1-3.9,4.9h-.1ZM26.8,16l-.5-1.4,5.9-2.1.5,1.4s-5.9,2.1-5.9,2.1ZM34.5,21.5l-6.2-1.3.3-1.5,6.2,1.3-.4,1.5h.1Z"/>
  </g>
  <g class="on">
    <path fill="#000000" d="M.2,21.2l2.9-1,18-12.1,5.8,16-9.6,1,.2,1.1v.6c0,2-2.2,2.9-4.4,2.9s-3.4-.8-3.5-2.8v-.9l-4.2.4-2.9,1L.2,21.2ZM4.9,25.1l-1.3-3.6-1.5.5,1.3,3.6,1.5-.5ZM13,28.2c1.5,0,3-.2,3-1.5v-1.4c-.1,0-4.9.5-4.9.5v.8c.2,1.3.9,1.6,2,1.6M25.8,11.2l-1.1-1,3.9-4.9,1.2,1-3.9,4.9h-.1ZM26.8,16l-.5-1.4,5.9-2.1.5,1.4s-5.9,2.1-5.9,2.1ZM34.5,21.5l-6.2-1.3.3-1.5,6.2,1.3-.4,1.5h.1Z"/>
  </g>
</svg>