<?xml version="1.0" encoding="UTF-8"?>
<svg xmlns="http://www.w3.org/2000/svg" width="35" height="35" version="1.1" viewBox="0 0 35 35">
  <g class="off">
    <path fill="#656666" stroke="#656666" stroke-width=".2px" d="M17.5,4.7c-7.3,0-12.2,5.5-12.2,12.8s4.9,12.8,12.2,12.8,12.2-5.5,12.2-12.8-4.9-12.8-12.2-12.8M17.5,29c-6.5,0-10.9-4.9-10.9-11.5s4.4-11.5,10.9-11.5,10.9,4.9,10.9,11.5-4.4,11.5-10.9,11.5M13.5,10.6v-1.3c1.2-.4,2.5-.5,3.8-.6,2.7,0,4.4,1.4,4.4,4.1s-.7,2.4-2,3.8l-.6.6c-.7.6-1,1.4-1,2.3v1.4h-1.4v-1.5c0-1.2.5-2.4,1.4-3.2l.6-.6c1.1-1.2,1.4-1.7,1.4-2.8,0-1.9-1.1-2.8-3.2-2.8-1.2,0-2.4.2-3.5.5M16.3,24.8c0-.7.4-1.1,1.1-1.1s1.1.3,1.1,1.1-.3,1.1-1.1,1.1c-.5,0-1-.3-1.1-.8,0,0,0-.2,0-.3"/>
  </g>
  <g class="on">
    <path fill="#000000" d="M17.5,4.7c-7.3,0-12.2,5.5-12.2,12.8s4.9,12.8,12.2,12.8,12.2-5.5,12.2-12.8-4.9-12.8-12.2-12.8M17.5,25.9c-.5,0-1-.3-1.1-.8,0,0,0-.2,0-.3,0-.8.4-1.1,1.1-1.1s1.1.3,1.1,1.1-.3,1.1-1.1,1.1M19.7,16.6l-.6.6c-.7.6-1,1.4-1,2.3v1.4h-1.4v-1.5c0-1.2.5-2.4,1.4-3.2l.6-.6c1.1-1.2,1.4-1.7,1.4-2.8,0-1.9-1.1-2.8-3.2-2.8-1.2,0-2.4.2-3.5.5v-1.3c1.2-.4,2.5-.5,3.8-.6,2.7,0,4.4,1.4,4.4,4.1s-.6,2.4-2,3.8"/>
  </g>
</svg>