<svg id="Grupo_4643" data-name="Grupo 4643" xmlns="http://www.w3.org/2000/svg" xmlns:xlink="http://www.w3.org/1999/xlink" width="42.41" height="40.25" viewBox="0 0 42.41 40.25">
  <defs>
    <clipPath id="clip-path">
      <rect id="Retângulo_1951" data-name="Retângulo 1951" width="42.41" height="40.25" fill="none"/>
    </clipPath>
  </defs>
  <g id="Grupo_4642" data-name="Grupo 4642" transform="translate(0 0)" clip-path="url(#clip-path)">
    <path id="Caminho_1840" data-name="Caminho 1840" d="M38.9,17.343H3.509A3.518,3.518,0,0,0,0,20.851V31.011a3.517,3.517,0,0,0,3.509,3.506H38.9a3.517,3.517,0,0,0,3.509-3.508V20.851A3.517,3.517,0,0,0,38.9,17.343m1.212,3.508V31.008a1.222,1.222,0,0,1-1.218,1.216H3.51A1.222,1.222,0,0,1,2.291,31.01V20.852a1.223,1.223,0,0,1,1.218-1.218H38.9a1.223,1.223,0,0,1,1.214,1.216" transform="translate(0 5.734)"/>
    <path id="Caminho_1841" data-name="Caminho 1841" d="M4.259,14.61a1.147,1.147,0,0,0,1.3.166L8.93,13.019,11.9,14.753a1.144,1.144,0,0,0,1.147,0l2.937-1.694,2.287,1.623a1.138,1.138,0,0,0,.672.224h4.137a10.42,10.42,0,0,0,9.088,5.581h0A10.244,10.244,0,1,0,32.145,0h0a10.263,10.263,0,0,0-8.8,5.823H5.02a1.156,1.156,0,0,0-.737.269L.407,9.365a1.152,1.152,0,0,0-.134,1.622ZM2.874,10.274l2.572-2.16H24.115A1.133,1.133,0,0,0,25.2,7.35a7.888,7.888,0,0,1,6.976-5.059,7.951,7.951,0,0,1,.009,15.9,8.2,8.2,0,0,1-7.318-4.9,1.14,1.14,0,0,0-1.033-.681H19.306l-2.6-1.851a1.155,1.155,0,0,0-1.233-.057l-3,1.728L9.53,10.716a1.142,1.142,0,0,0-1.107-.007L5.2,12.391Z" transform="translate(0 0)"/>
    <path id="Caminho_1842" data-name="Caminho 1842" d="M10.763,23.674H9.64l.546-.945a.964.964,0,0,0-1-1.477,1,1,0,0,0-.656.487l-.563.971L7.4,21.726a.96.96,0,0,0-.6-.431.942.942,0,0,0-.728.121A.972.972,0,0,0,5.74,22.7l.56.97H5.179a.964.964,0,1,0,0,1.928H6.3l-.562.975a.963.963,0,0,0,.343,1.3.989.989,0,0,0,1.327-.346l.562-.971.563.973a.968.968,0,0,0,.833.482.922.922,0,0,0,.483-.132.967.967,0,0,0,.351-1.312L9.64,25.6h1.123a.964.964,0,1,0,0-1.928" transform="translate(1.393 7.02)"/>
    <path id="Caminho_1843" data-name="Caminho 1843" d="M19.841,23.674H18.717l.546-.945a.964.964,0,0,0-1-1.477.868.868,0,0,0-.548.335l-.671,1.123-.57-.985a.964.964,0,0,0-1.661.978l.562.97H14.257a.964.964,0,1,0,0,1.928h1.122l-.564.977a.968.968,0,0,0,.345,1.3.991.991,0,0,0,1.327-.346l.562-.971.563.973a.97.97,0,0,0,.834.482.919.919,0,0,0,.484-.133.968.968,0,0,0,.349-1.311l-.56-.971H19.84a.964.964,0,0,0,0-1.928" transform="translate(4.395 7.02)"/>
    <path id="Caminho_1844" data-name="Caminho 1844" d="M28.917,23.674H27.793l.546-.945a.964.964,0,0,0-1-1.477.868.868,0,0,0-.548.335l-.669,1.123-.57-.987a.965.965,0,0,0-1.661.981l.56.97H23.333a.964.964,0,1,0,0,1.928h1.122l-.562.975a.965.965,0,0,0,.342,1.3.991.991,0,0,0,1.328-.346l.562-.97.562.971a.97.97,0,0,0,.834.482A.919.919,0,0,0,28,27.885a.97.97,0,0,0,.35-1.311l-.562-.971h1.123a.964.964,0,1,0,0-1.928" transform="translate(7.395 7.02)"/>
  </g>
</svg>
