<svg xmlns="http://www.w3.org/2000/svg" xmlns:xlink="http://www.w3.org/1999/xlink" width="32" height="24.917" viewBox="0 0 32 24.917">
  <defs>
    <clipPath id="clip-path">
      <rect id="Retângulo_1377" data-name="Retângulo 1377" width="32" height="24.917" fill="#fff"/>
    </clipPath>
  </defs>
  <g id="Grupo_3821" data-name="Grupo 3821" transform="translate(0 0)">
    <g id="Grupo_3601" data-name="Grupo 3601" transform="translate(0 0)" clip-path="url(#clip-path)">
      <path id="Caminho_1333" data-name="Caminho 1333" d="M0,0H32V24.917H0ZM30.251,1.707H1.749v21.5h28.5ZM5.974,10.88l.043-1.621c2-.043,2.944-.085,4.1-.129l-7-4.437L3.925,3.37,10.88,7.68C10.453,6.7,10.069,5.8,9.259,4.1l1.451-.768A44.618,44.618,0,0,1,12.97,9.045l-.9,1.408a54.493,54.493,0,0,1-6.1.427m4.736,10.709-1.451-.768c.811-1.707,1.195-2.6,1.621-3.584L3.925,21.547l-.811-1.323,7-4.437c-1.152-.043-2.091-.086-4.1-.129l-.043-1.621a54.707,54.707,0,0,1,6.1.427l.9,1.408a44.516,44.516,0,0,1-2.261,5.718M26.069,10.88a54.493,54.493,0,0,1-6.1-.427l-.9-1.408a44.617,44.617,0,0,1,2.261-5.718l1.451.768C21.973,5.8,21.589,6.7,21.163,7.68l6.955-4.31.811,1.323-7,4.437c1.152.044,2.09.086,4.1.129ZM21.333,21.589a44.515,44.515,0,0,1-2.261-5.718l.9-1.408a54.707,54.707,0,0,1,6.1-.427l-.043,1.621c-2.005.043-2.944.086-4.1.129l7,4.437-.811,1.323-6.955-4.309c.427.981.811,1.877,1.621,3.584Z" transform="translate(0 0)" fill="#fff"/>
    </g>
  </g>
</svg>
