<svg xmlns="http://www.w3.org/2000/svg" xmlns:xlink="http://www.w3.org/1999/xlink" width="49.866" height="35.97" viewBox="0 0 49.866 35.97">
  <defs>
    <clipPath id="clip-path">
      <rect id="Retângulo_1953" data-name="Retângulo 1953" width="49.866" height="35.97" fill="none"/>
    </clipPath>
  </defs>
  <g id="Grupo_4647" data-name="Grupo 4647" transform="translate(0 0)">
    <g id="Grupo_4646" data-name="Grupo 4646" transform="translate(0 0)" clip-path="url(#clip-path)">
      <path id="Caminho_1846" data-name="Caminho 1846" d="M0,0H49.866V35.97H0ZM4.654,33.377H45.213l-11.835-11.7,2.061-1.8,11.769,11.7V4.587A147.683,147.683,0,0,1,25.93,21.276H23.935A147.677,147.677,0,0,1,2.659,4.587V31.582l11.769-11.7,2.061,1.8ZM24.932,18.617A145.192,145.192,0,0,0,45.411,2.593H4.454A144.027,144.027,0,0,0,24.932,18.617" transform="translate(0 0)" fill="#1d1d1b"/>
    </g>
  </g>
</svg>
