<?xml version="1.0" encoding="UTF-8"?>
<svg id="Camada_1" xmlns="http://www.w3.org/2000/svg" version="1.1" xmlns:xlink="http://www.w3.org/1999/xlink" viewBox="0 0 27 27">
  <!-- Generator: Adobe Illustrator 29.0.1, SVG Export Plug-In . SVG Version: 2.1.0 Build 192)  -->
  <defs>
    <style>
      .st0 {
        fill: none;
      }

      .st1 {
        fill: #bbbcbc;
      }

      .st2 {
        clip-path: url(#clippath);
      }
    </style>
    <clipPath id="clippath">
      <rect class="st0" x="4.9" y="1.8" width="17.3" height="23.5"/>
    </clipPath>
  </defs>
  <g id="Grupo_2600">
    <g class="st2">
      <g id="Grupo_2593">
        <path id="Caminho_850" class="st1" d="M22.1,10.3c0,4.7-2.7,9.6-7.9,14.9h-1.5c-5.2-5.4-7.9-10.2-7.9-14.9S8.3,1.8,13.5,1.8s8.6,3.3,8.6,8.6M13.5,24c4.9-5.6,6.9-9.7,6.9-13.7s-2.6-7-6.9-7-6.9,3-6.9,7,2,8,6.9,13.7M13.5,6.5c2.1-.1,3.8,1.5,3.9,3.6,0,.1,0,.2,0,.4,0,2.1-1.5,3.8-3.6,3.9-.1,0-.2,0-.3,0-2.1,0-3.8-1.5-3.9-3.6,0-.1,0-.2,0-.3-.1-2.1,1.5-3.8,3.5-3.9.1,0,.2,0,.3,0M13.5,8c-1.3,0-2.3,1-2.3,2.2,0,0,0,.1,0,.2,0,1.2.8,2.3,2.1,2.4,0,0,.1,0,.2,0,1.3,0,2.3-.9,2.4-2.2,0,0,0-.1,0-.2,0-1.3-.9-2.4-2.2-2.4,0,0-.1,0-.2,0"/>
      </g>
    </g>
  </g>
</svg>