<svg id="Grupo_2647" data-name="Grupo 2647" xmlns="http://www.w3.org/2000/svg" xmlns:xlink="http://www.w3.org/1999/xlink" width="24.002" height="28.083" viewBox="0 0 24.002 28.083">
  <defs>
    <clipPath id="clip-path">
      <rect id="Retângulo_771" data-name="Retângulo 771" width="24.002" height="28.083"/>
    </clipPath>
  </defs>
  <g id="Grupo_2646" data-name="Grupo 2646" clip-path="url(#clip-path)">
    <path id="Caminho_909" data-name="Caminho 909" d="M5.136,6.96C5.136,2.593,7.68,0,12,0s6.864,2.64,6.864,6.96c0,2.977-1.3,5.137-3.552,6.193v-.624C20.977,13.585,24,17.522,24,24.242v3.841H22.034V24.339c0-6.674-3.553-10.226-10.033-10.226-6.433,0-10.034,3.6-10.034,10.226v3.744H0V24.242c0-6.673,3.072-10.657,8.688-11.713v.624C6.432,12.1,5.136,9.937,5.136,6.96m11.761,0c0-3.215-1.729-5.039-4.9-5.039-3.121,0-4.9,1.824-4.9,5.039C7.1,10.129,8.88,11.9,12,11.9s4.9-1.824,4.9-4.945" transform="translate(0 0)"/>
  </g>
</svg>
