<?xml version="1.0" encoding="UTF-8"?>
<svg id="Camada_1" xmlns="http://www.w3.org/2000/svg" version="1.1" xmlns:xlink="http://www.w3.org/1999/xlink" viewBox="0 0 50 50">
  <!-- Generator: Adobe Illustrator 29.0.1, SVG Export Plug-In . SVG Version: 2.1.0 Build 192)  -->
  <defs>
    <style>
      .st0 {
        fill: none;
      }

      .st1 {
        clip-path: url(#clippath);
      }
    </style>
    <clipPath id="clippath">
      <rect class="st0" x="4" y="4.6" width="42" height="40.7"/>
    </clipPath>
  </defs>
  <g id="Grupo_4200">
    <g class="st1">
      <g id="Grupo_4200-2">
        <path id="União_8" d="M30.3,45.4c-2.2,0-3.2-1-3.2-3.2v-25.8c0-2.2,1-3.2,3.2-3.2h12.5c2.2,0,3.2,1,3.2,3.2v25.8c0,2.2-1,3.2-3.2,3.2h-12.5ZM28.9,16.6v25.2c0,1.2.4,1.7,1.3,1.7h12.7c.9,0,1.3-.5,1.3-1.7v-25.2c0-1.2-.4-1.7-1.3-1.7h-12.7c-.9,0-1.3.5-1.3,1.7ZM35,39.6c0-.7.4-1.4,1.2-1.5.1,0,.2,0,.3,0,.7-.1,1.4.4,1.5,1.1,0,.1,0,.2,0,.4,0,.7-.4,1.4-1.2,1.5-.1,0-.2,0-.3,0-.8,0-1.4-.5-1.5-1.2,0,0,0-.2,0-.3h0ZM8.8,33c-2.6,0-4.8-.5-4.8-2.6,0-.3,0-.6,0-.9l1.9-7.7V7.9c0-2.2,1.1-3.2,3.2-3.2h23.8c2.2,0,3.2,1,3.2,3.2v3.4h-1.8v-3.1c0-1.2-.2-1.7-1.4-1.7H9.3c-1.2,0-1.4.5-1.4,1.7v13.5h17.3v1.8H7.4l-1.4,5.9c0,.3-.1.5-.1.8,0,.9,1,1,2.6,1h16.8v1.9H8.8ZM18.1,29.2c-.6,0-.9,0-.8-.5l.5-2.9c0-.4.3-.5.8-.5h5.1c.5,0,.7,0,.8.5l.5,2.9c0,.4-.2.5-.8.5h-6.1ZM34.2,18.8v-1.9h4.7v1.9h-4.7Z"/>
      </g>
    </g>
  </g>
</svg>