<svg id="Componente_153_56" data-name="Componente 153 – 56" xmlns="http://www.w3.org/2000/svg" width="23.488" height="23.349" viewBox="0 0 23.488 23.349">
  <path id="Caminho_753" data-name="Caminho 753" d="M18.832,9.59a9.181,9.181,0,0,1-2.119,5.941l6.776,6.776L22.48,23.349l-6.81-6.81A9.486,9.486,0,0,1,0,9.243,9.224,9.224,0,0,1,9.381,0a9.363,9.363,0,0,1,9.451,9.59M9.346,1.46A7.676,7.676,0,0,0,1.459,9.208a8.039,8.039,0,0,0,8.026,8.165,7.677,7.677,0,0,0,7.887-7.748A8,8,0,0,0,9.346,1.46" fill="#656666"/>
</svg>
