<svg xmlns="http://www.w3.org/2000/svg" width="19.613" height="16" viewBox="0 0 19.613 16">
  <path id="Caminho_1397" data-name="Caminho 1397" d="M6.968,0a.567.567,0,0,0-.46.282l-.9,1.782H2.065A2.072,2.072,0,0,0,0,4.129v9.806A2.072,2.072,0,0,0,2.065,16H17.548a2.072,2.072,0,0,0,2.065-2.065V4.129a2.072,2.072,0,0,0-2.065-2.065H14L13.1.282A.528.528,0,0,0,12.645,0Zm.315,1.032h5.048l.887,1.774a.527.527,0,0,0,.46.29h3.871a1.019,1.019,0,0,1,1.032,1.032v9.806a1.019,1.019,0,0,1-1.032,1.032H2.065a1.019,1.019,0,0,1-1.032-1.032V4.129A1.019,1.019,0,0,1,2.065,3.1H5.935a.527.527,0,0,0,.46-.29ZM9.806,4.645a4.387,4.387,0,1,0,4.387,4.387A4.395,4.395,0,0,0,9.806,4.645m0,1.032A3.355,3.355,0,1,1,6.452,9.032,3.347,3.347,0,0,1,9.806,5.677"/>
</svg>
