<?xml version="1.0" encoding="UTF-8"?>
<svg id="Grupo_2647" xmlns="http://www.w3.org/2000/svg" version="1.1" xmlns:xlink="http://www.w3.org/1999/xlink" viewBox="0 0 27 27">
  <!-- Generator: Adobe Illustrator 29.0.1, SVG Export Plug-In . SVG Version: 2.1.0 Build 192)  -->
  <defs>
    <style>
      .st0 {
        fill: none;
      }

      .st1 {
        clip-path: url(#clippath);
      }
    </style>
    <clipPath id="clippath">
      <rect class="st0" x="2" width="23.1" height="27"/>
    </clipPath>
  </defs>
  <g class="st1">
    <g id="Grupo_2646">
      <path id="Caminho_909" d="M6.9,6.7C6.9,2.5,9.3,0,13.5,0s6.6,2.5,6.6,6.7-1.2,4.9-3.4,6v-.6c5.4,1,8.4,4.8,8.4,11.3v3.7h-1.9v-3.6c0-6.4-3.4-9.8-9.6-9.8s-9.6,3.5-9.6,9.8v3.6h-1.9v-3.7c0-6.4,3-10.2,8.4-11.3v.6c-2.2-1-3.4-3.1-3.4-6M18.2,6.7c0-3.1-1.7-4.8-4.7-4.8s-4.7,1.8-4.7,4.8c0,3,1.7,4.7,4.7,4.7s4.7-1.8,4.7-4.8"/>
    </g>
  </g>
</svg>