<?xml version="1.0" encoding="UTF-8"?>
<svg id="Camada_1" xmlns="http://www.w3.org/2000/svg" version="1.1" viewBox="0 0 27 27">
  <!-- Generator: Adobe Illustrator 29.0.1, SVG Export Plug-In . SVG Version: 2.1.0 Build 192)  -->
  <defs>
    <style>
      .st0 {
        fill: #bbbcbc;
      }
    </style>
  </defs>
  <g id="Grupo_2586">
    <g id="Grupo_2588">
      <path id="Caminho_848" class="st0" d="M1.6,7.8c0-3,1.8-5,4.8-6.2l5.9,5.9-3.2,3,7.4,7.4,3.1-3.2,5.9,5.9c-1.2,3-3.4,4.8-6.2,4.8-3.3,0-6.6-1.9-11.1-6.5S1.6,11,1.6,7.8M19.3,23.8c1.8,0,3.5-1.2,4.2-2.9l-4-4-3.2,3.2L6.8,10.5l3.2-3-4-4c-1.7.7-2.8,2.3-2.9,4.1,0,2.8,1.8,5.9,6,10.1,4.2,4.2,7.4,6,10.1,6"/>
    </g>
  </g>
</svg>