<svg xmlns="http://www.w3.org/2000/svg" xmlns:xlink="http://www.w3.org/1999/xlink" width="11.442" height="21" viewBox="0 0 11.442 21">
  <defs>
    <clipPath id="clip-path">
      <rect id="Retângulo_1890" data-name="Retângulo 1890" width="11.442" height="21" fill="#1e8fce"/>
    </clipPath>
  </defs>
  <g id="Grupo_4233" data-name="Grupo 4233" transform="translate(0 0)">
    <g id="Grupo_4232" data-name="Grupo 4232" transform="translate(0 0)" clip-path="url(#clip-path)">
      <path id="Caminho_1626" data-name="Caminho 1626" d="M4.273,0H7.168a4.117,4.117,0,0,1,4.274,4.342c0,1.582-.606,2.726-3.332,5.283-.538.505-.639.639-.639.876s.1.37.639.874c2.726,2.558,3.332,3.7,3.332,5.284A4.117,4.117,0,0,1,7.168,21H4.273A4.116,4.116,0,0,1,0,16.658c0-1.582.605-2.726,3.331-5.284.538-.5.639-.639.639-.874s-.1-.37-.639-.876C.605,7.067,0,5.923,0,4.342A4.116,4.116,0,0,1,4.273,0M7,19.654a3.01,3.01,0,0,0,2.962-3.063c0-1.447-.4-2.12-2.827-4.543A2.241,2.241,0,0,1,6.259,10.5a2.243,2.243,0,0,1,.876-1.549c2.423-2.423,2.827-3.1,2.827-4.543A3.011,3.011,0,0,0,7,1.346H4.442A3.011,3.011,0,0,0,1.48,4.409c0,1.447.4,2.12,2.827,4.543A2.245,2.245,0,0,1,5.182,10.5a2.242,2.242,0,0,1-.875,1.548c-2.424,2.423-2.827,3.1-2.827,4.543a3.011,3.011,0,0,0,2.962,3.063Zm1.448-3.2a1.759,1.759,0,0,1-1.919,1.817H4.913a1.759,1.759,0,0,1-1.919-1.817c0-1.212,1.111-2.424,2.726-3.871,1.616,1.447,2.726,2.658,2.726,3.871M3.264,5.62H8.178A10.359,10.359,0,0,1,5.721,8.447,10.355,10.355,0,0,1,3.264,5.62" transform="translate(0 0)" fill="#1e8fce"/>
    </g>
  </g>
</svg>
