<?xml version="1.0" encoding="UTF-8"?>
<svg xmlns="http://www.w3.org/2000/svg" width="35" height="35" version="1.1" viewBox="0 0 35 35">
  <g class="on">
    <path fill="#656666" d="M30.6,14.5l-.8-.2c-2.5-.7-3.5-1.7-3.5-3.4,0-.8.2-1.7.4-2.4l.2-.7c-1.7-1.2-3.4-2.3-5.3-3.2l-.5.6c-.8,1.2-2.2,1.9-3.6,2-1.4,0-2.8-.8-3.6-2l-.5-.6c-1.9.9-3.6,1.9-5.3,3.2l.2.7c.3.8.4,1.6.4,2.4,0,1.7-1,2.7-3.5,3.4l-.8.2c0,2.2,0,3.9,0,6.1l.8.2c2.5.7,3.5,1.7,3.5,3.4,0,.8-.2,1.7-.4,2.5l-.2.7c1.7,1.2,3.4,2.3,5.3,3.2l.5-.6c.8-1.2,2.2-1.9,3.6-2,1.5,0,2.8.8,3.6,2l.5.6c1.9-.9,3.6-1.9,5.3-3.2l-.2-.7c-.3-.8-.4-1.6-.4-2.5,0-1.7,1-2.7,3.5-3.4l.8-.2c0-2.1,0-3.9,0-6.1M29,19.4c-3.2.7-4.4,2.5-4.4,4.8,0,.8.1,1.7.4,2.5-1,.7-2,1.3-3.1,1.9-1.6-1.7-2.8-2.2-4.4-2.2s-2.8.5-4.4,2.2c-1.1-.5-2.1-1.2-3.1-1.9.2-.8.3-1.6.4-2.5,0-2.2-1.1-4-4.4-4.8v-3.8c3.2-.8,4.4-2.5,4.4-4.7,0-.8-.1-1.7-.4-2.5,1-.7,2-1.4,3.1-1.9,1.6,1.7,2.8,2.2,4.3,2.2s2.8-.5,4.3-2.1c1.1.5,2.2,1.1,3.2,1.9-.2.8-.3,1.6-.4,2.5,0,2.2,1.1,3.9,4.4,4.7v3.8Z"/>
    <path fill="#656666" d="M17.5,12.6c-3.1,0-5,1.8-5,4.9s1.9,5,5,5,4.9-1.9,4.9-5-1.8-4.9-4.9-4.9M17.5,20.9c-1.7.2-3.2-1.1-3.4-2.8,0-.2,0-.4,0-.6-.2-1.7,1.1-3.2,2.8-3.3.2,0,.4,0,.6,0,1.7-.2,3.2,1.1,3.3,2.7,0,.2,0,.4,0,.6.2,1.7-1,3.2-2.7,3.4-.2,0-.4,0-.6,0"/>
  </g>
  <g class="off">
    <path fill="#000000" d="M30.6,14.5l-.8-.2c-2.5-.7-3.5-1.7-3.5-3.4,0-.8.2-1.7.4-2.5l.2-.7c-1.7-1.2-3.4-2.3-5.3-3.2l-.5.6c-.8,1.2-2.2,1.9-3.6,2-1.4,0-2.8-.8-3.6-2l-.5-.6c-1.9.9-3.6,1.9-5.3,3.2l.2.7c.3.8.4,1.6.4,2.5,0,1.7-1,2.7-3.5,3.4l-.8.2c0,2.2,0,3.9,0,6.1l.8.2c2.5.7,3.5,1.7,3.5,3.4,0,.8-.2,1.7-.4,2.5l-.2.7c1.7,1.2,3.4,2.3,5.3,3.2l.5-.5c.8-1.2,2.2-1.9,3.6-2,1.5,0,2.8.8,3.6,2l.5.5c1.9-.9,3.6-1.9,5.3-3.1l-.2-.7c-.3-.8-.4-1.6-.4-2.5,0-1.7,1-2.7,3.5-3.4l.8-.2c0-2.1,0-3.9,0-6.1M18.1,20.9c-.2,0-.4,0-.6,0-1.7.2-3.2-1.1-3.4-2.8,0,0,0,0,0,0,0-.2,0-.4,0-.6-.2-1.7,1.1-3.2,2.7-3.3,0,0,0,0,0,0,.2,0,.4,0,.6,0,1.7-.2,3.1,1.1,3.3,2.7,0,0,0,0,0,0,0,.2,0,.4,0,.6.2,1.7-1,3.2-2.7,3.4"/>
  </g>
</svg>