<?xml version="1.0" encoding="UTF-8"?>
<svg id="Camada_1" xmlns="http://www.w3.org/2000/svg" version="1.1" viewBox="0 0 27 27">
  <!-- Generator: Adobe Illustrator 29.0.1, SVG Export Plug-In . SVG Version: 2.1.0 Build 192)  -->
  <defs>
    <style>
      .st0 {
        fill: #bbbcbc;
      }
    </style>
  </defs>
  <g id="Grupo_2594">
    <g id="Grupo_2595">
      <path id="Caminho_847" class="st0" d="M13.5.3C6.2.3,1.6,4.9,1.6,12.3c0,2.9,1,5.7,3,7.8-.7,2.3-1,3.7-1.6,6.1l.7.5c2-.9,4-1.9,6-3,1.3.3,2.7.5,4.1.5,7.2,0,11.7-4.6,11.7-11.8,0-7.3-4.5-12-11.9-12M13.8,22.6c-1.5,0-3-.2-4.5-.7-1.4.9-2.8,1.7-4.3,2.4.4-1.8.8-3.1,1.2-4.6-1.9-2.1-3-4.7-3.1-7.5C3.2,5.8,7.2,1.9,13.5,1.9s10.3,3.9,10.3,10.5-3.8,10.3-10,10.3"/>
    </g>
  </g>
</svg>