<svg id="Grupo_2225" data-name="Grupo 2225" xmlns="http://www.w3.org/2000/svg" xmlns:xlink="http://www.w3.org/1999/xlink" width="30" height="28.476" viewBox="0 0 30 28.476">
  <defs>
    <clipPath id="clip-path">
      <rect id="Retângulo_408" data-name="Retângulo 408" width="30" height="28.476" fill="#fff"/>
    </clipPath>
  </defs>
  <g id="Grupo_2127" data-name="Grupo 2127" clip-path="url(#clip-path)">
    <path id="Caminho_730" data-name="Caminho 730" d="M24.379,8.2l1.786,6.568A15.766,15.766,0,0,0,30,21.962v2.154H20.6c-.264,2.784-2.313,4.36-5.57,4.36S9.72,26.9,9.457,24.116H0V21.962a15.766,15.766,0,0,0,3.835-7.2L5.621,8.2C7.2,2.469,9.929,0,15.026,0S22.8,2.312,24.379,8.2m-16.6.42L5.989,15.079a19.28,19.28,0,0,1-3.152,6.883H27.163a19.28,19.28,0,0,1-3.152-6.883L22.225,8.617c-1.313-4.729-3.206-6.463-7.2-6.463S9.037,3.888,7.776,8.617m3.625,3.73-2.154-.473,1-3.73c.735-2.732,2.049-3.73,4.938-3.73V6.568c-1.839,0-2.364.315-2.837,2.1Zm6.987,11.769H11.663c.159,1.576,1.367,2.312,3.363,2.312s3.206-.735,3.362-2.312" transform="translate(0 0)" fill="#fff"/>
  </g>
</svg>
