<svg xmlns="http://www.w3.org/2000/svg" xmlns:xlink="http://www.w3.org/1999/xlink" width="32" height="34.367" viewBox="0 0 32 34.367">
  <defs>
    <clipPath id="clip-path">
      <rect id="Retângulo_2091" data-name="Retângulo 2091" width="32" height="34.367" fill="#fff"/>
    </clipPath>
  </defs>
  <g id="Grupo_4949" data-name="Grupo 4949" transform="translate(0 0)">
    <g id="Grupo_4948" data-name="Grupo 4948" transform="translate(0 0)" clip-path="url(#clip-path)">
      <path id="Caminho_1960" data-name="Caminho 1960" d="M5.766,16.486A1.857,1.857,0,0,1,3.682,18.57,1.856,1.856,0,0,1,1.6,16.486,1.856,1.856,0,0,1,3.682,14.4a1.857,1.857,0,0,1,2.085,2.085" transform="translate(0.385 3.467)"/>
      <path id="Caminho_1961" data-name="Caminho 1961" d="M5.766,26.423a1.857,1.857,0,0,1-2.085,2.085A1.856,1.856,0,0,1,1.6,26.423a1.856,1.856,0,0,1,2.085-2.085,1.857,1.857,0,0,1,2.085,2.085" transform="translate(0.385 5.86)"/>
      <rect id="Retângulo_2088" data-name="Retângulo 2088" width="19.894" height="2.442" transform="translate(12.106 6.254)"/>
      <rect id="Retângulo_2089" data-name="Retângulo 2089" width="19.894" height="2.442" transform="translate(12.106 18.702)"/>
      <rect id="Retângulo_2090" data-name="Retângulo 2090" width="19.894" height="2.442" transform="translate(12.106 31.031)"/>
      <path id="Caminho_1962" data-name="Caminho 1962" d="M5.3,8.7H2.8A42.933,42.933,0,0,1,0,4.467L2.025,3.215C2.681,4.288,3.335,5.3,4.048,6.373A67.724,67.724,0,0,0,7.684,0L9.767,1.132c-1.787,3.276-2.8,5-4.467,7.564" transform="translate(0 0)" fill="#efdf00"/>
    </g>
  </g>
</svg>
