<svg id="Grupo_3771" data-name="Grupo 3771" xmlns="http://www.w3.org/2000/svg" xmlns:xlink="http://www.w3.org/1999/xlink" width="20" height="20" viewBox="0 0 20 20">
  <defs>
    <clipPath id="clip-path">
      <rect id="Retângulo_1447" data-name="Retângulo 1447" width="20" height="20" fill="#fff"/>
    </clipPath>
  </defs>
  <g id="Grupo_3771-2" data-name="Grupo 3771" transform="translate(0 0)" clip-path="url(#clip-path)">
    <path id="Caminho_1358" data-name="Caminho 1358" d="M15.887,4.5a1.12,1.12,0,1,1-1.12-1.12,1.12,1.12,0,0,1,1.12,1.12M14.492,9.519A4.706,4.706,0,1,1,9.786,4.814a4.711,4.711,0,0,1,4.706,4.706m-1.691,0a3.014,3.014,0,1,0-3.014,3.014A3.018,3.018,0,0,0,12.8,9.519m6.51-3.78A5.739,5.739,0,0,0,13.571,0H5.739A5.739,5.739,0,0,0,0,5.739v7.832A5.739,5.739,0,0,0,5.739,19.31h7.832a5.739,5.739,0,0,0,5.739-5.739Zm-1.884,7.746a3.942,3.942,0,0,1-3.942,3.942H5.826a3.942,3.942,0,0,1-3.942-3.942V5.825A3.942,3.942,0,0,1,5.826,1.884h7.658a3.942,3.942,0,0,1,3.942,3.942Z" transform="translate(0.345 0.345)" fill="#fff"/>
  </g>
</svg>
