<?xml version="1.0" encoding="UTF-8"?>
<svg id="aplausos" xmlns="http://www.w3.org/2000/svg" width="24" height="24" version="1.1" viewBox="0 0 24 24">
  <g id="off">
    <path id="Caminho_1529" d="M23,18.2l.2-.7c.2-.6.4-1.2.4-1.8,0-.9-.3-1.7-.7-2.5h0s-.9-1.9-.9-1.9c0,0,0,0,0,0l-1.6-3.2-.5-1.1c-.2-.6-.9-1-1.6-1-.5,0-1,.3-1.2.7l-.5-.9c-.2-.6-.9-1-1.6-1-.5,0-1,.3-1.2.7l-.4-.8c-.2-.6-.9-1-1.6-1-.9,0-1.6.6-1.7,1.5,0,0,0,0,0,0,0,.2,0,.5.1.7-.9,0-1.7.7-1.7,1.6,0,.3,0,.6.2.9l3.5,7.2-1.9-1.2c-.4-.2-.8-.4-1.2-.4-.9,0-1.6.8-1.6,1.7,0,.6.3,1.1.8,1.4l6.9,4.8,1.1,2.3,1-.5-1.2-2.6-7.1-4.8c-.3-.2-.4-.4-.4-.6,0-.3.2-.5.5-.5,0,0,0,0,0,0,.2,0,.4.1.5.2l3.4,2.1.9-.8-4.1-8.6c0-.1,0-.2,0-.3,0-.3.4-.5.7-.5.2,0,.4,0,.5.3l3,5.9,1-.5-2.9-5.8-.7-1.3c0,0,0-.2,0-.3,0-.3.3-.6.7-.5.2,0,.4,0,.5.3l3.8,7.5,1-.5-2.7-5.4c0,0,0-.2,0-.3,0-.3.3-.6.7-.5.2,0,.4,0,.5.3l.5,1h0l2.5,4.9.9-.5h0s0,0,0,0l-1.8-3.6c-.2-.3,0-.6.2-.8.1,0,.3,0,.4,0,.2,0,.4,0,.5.3l2.6,5.2c.6,1,.9,2.1,1,3.2,0,.6-.1,1.2-.4,1.7l-.3.9,1.1,2.2,1-.5-.9-1.9Z"/>
    <path id="Caminho_1530" d="M1.7,13.9c-.3-.2-.4-.4-.4-.6,0-.3.2-.5.5-.5,0,0,0,0,0,0,.2,0,.4.1.5.2l3.5,2.1.9-.8L2.5,5.6c0-.1,0-.2,0-.3,0-.3.4-.5.7-.5.2,0,.4,0,.5.3l3,5.9,1-.5-2.9-5.8-.7-1.3c0,0,0-.2,0-.3,0-.3.3-.6.7-.5.2,0,.4,0,.5.3l2.3,4.6c0-.5.2-1.1.5-1.5l-.7-1.5c0,0,0-.2,0-.3,0-.3.3-.6.7-.5.2,0,.4,0,.5.3l.5,1h0v.2c.1,0,.2,0,.2,0,0-.5.2-.9.4-1.3v-.3c-.4-.6-1-1-1.7-1-.5,0-1,.3-1.2.7l-.4-.8c-.2-.6-.9-1-1.6-1-.9,0-1.6.6-1.7,1.5,0,0,0,0,0,0,0,.2,0,.5.1.7-.9,0-1.7.7-1.7,1.6,0,.3,0,.6.2.8l3.5,7.2-1.9-1.2c-.4-.2-.8-.4-1.2-.4-.9,0-1.6.8-1.6,1.7,0,.6.3,1.1.8,1.4l6.9,4.8,1.1,2.3,1-.5-1.2-2.6L1.7,13.9Z"/>
    <path id="Caminho_1536" d="M14.4,2.6l-1.3-2.6-1,.5,1.3,2.6,1-.5Z"/>
    <path id="Caminho_1537" d="M20.7,3.4l-.5-1-2.6,1.3.5,1,2.6-1.3Z"/>
    <rect id="Ret창ngulo_1800" x="15" y="1.2" width="2.9" height="1.1" transform="translate(9.6 16.8) rotate(-71.6)"/>
  </g>
  <g id="on">
    <path id="Caminho_1532" d="M22.9,18.2l.2-.7c.2-.6.4-1.2.4-1.8,0-.9-.3-1.7-.7-2.5h0s-.9-1.9-.9-1.9c0,0,0,0,0,0l-1.6-3.2-.5-1.1c-.2-.6-.9-1-1.6-1-.5,0-1,.3-1.2.7l-.5-.9c-.2-.6-.9-1-1.6-1-.5,0-1,.3-1.2.7l-.4-.8c-.2-.6-.9-1-1.6-1-.9,0-1.6.6-1.7,1.5,0,0,0,0,0,0,0,.2,0,.5.1.7-.9,0-1.7.7-1.7,1.6,0,.3,0,.6.2.8l3.4,7.2-1.9-1.2c-.4-.2-.8-.4-1.2-.4-.9,0-1.6.8-1.6,1.7,0,.6.3,1.1.8,1.4l6.9,4.8,1.1,2.3,1-.5-1.2-2.6-7.1-4.8c-.3-.2-.4-.4-.4-.6,0-.3.2-.5.5-.5,0,0,0,0,0,0,.2,0,.4.1.5.2l3.5,2.1.9-.8-4.1-8.6c0-.1,0-.2,0-.3,0-.3.4-.5.7-.5.2,0,.4,0,.5.3l3,5.9,1-.5-2.9-5.8-.7-1.3c0,0,0-.2,0-.3,0-.3.3-.6.7-.5.2,0,.4,0,.5.3l3.8,7.5,1-.5-2.7-5.4c0,0,0-.2,0-.3,0-.3.3-.6.7-.5.2,0,.4,0,.5.3l.5,1h0l2.5,4.9.9-.5h0s0,0,0,0l-1.8-3.6c-.2-.3,0-.6.2-.8.1,0,.3,0,.4,0,.2,0,.4,0,.5.3l2.6,5.2c.5,1,.9,2.1,1,3.2,0,.6-.1,1.2-.4,1.7l-.3.9,1.1,2.2,1-.5-.9-1.9Z"/>
    <path id="Caminho_1533" d="M14.4,2.6L13.1,0l-1,.5,1.3,2.6,1-.5Z"/>
    <path id="Caminho_1534" d="M20.7,3.4l-.5-1-2.6,1.3.5,1,2.6-1.3Z"/>
    <rect id="Ret창ngulo_1798" x="15" y="1.2" width="2.9" height="1.1" transform="translate(9.6 16.8) rotate(-71.6)"/>
    <path id="Caminho_1535" d="M7.6,17.9c-.8-.5-1.2-1.4-1.3-2.3,0-1.5,1.2-2.8,2.7-2.8.2,0,.4,0,.6,0l-1.9-4.1c-.2-.4-.3-.9-.3-1.3,0-1,.6-2,1.6-2.4,0-.5.2-.9.4-1.3v-.3c-.4-.6-1-1-1.7-1-.5,0-1,.3-1.2.7l-.4-.8c-.2-.6-.9-1-1.6-1-.9,0-1.6.6-1.7,1.5,0,0,0,0,0,0,0,.2,0,.5.1.7-.9,0-1.7.7-1.7,1.6,0,.3,0,.6.2.8l3.4,7.2-1.9-1.2c-.4-.2-.8-.4-1.2-.4-.9,0-1.6.8-1.6,1.7,0,.6.3,1.1.8,1.4l6.9,4.8,1.1,2.3,1-.5h0s1.5-.8,1.5-.8l-3.9-2.6ZM9.1,19.4h0s0,0,0,0h0Z"/>
    <path id="Caminho_15361" data-name="Caminho_1536" d="M14.4,2.6L13.1,0l-1,.5,1.3,2.6,1-.5Z"/>
    <path id="Caminho_15371" data-name="Caminho_1537" d="M20.7,3.4l-.5-1-2.6,1.3.5,1,2.6-1.3Z"/>
    <rect id="Ret창ngulo_18001" data-name="Ret창ngulo_1800" x="15" y="1.2" width="2.9" height="1.1" transform="translate(9.6 16.8) rotate(-71.6)"/>
  </g>
</svg>