<svg id="Grupo_4212" data-name="Grupo 4212" xmlns="http://www.w3.org/2000/svg" xmlns:xlink="http://www.w3.org/1999/xlink" width="21" height="21.051" viewBox="0 0 21 21.051">
  <defs>
    <clipPath id="clip-path">
      <rect id="Retângulo_1884" data-name="Retângulo 1884" width="21" height="21.051" fill="none"/>
    </clipPath>
  </defs>
  <g id="Grupo_4211" data-name="Grupo 4211" clip-path="url(#clip-path)">
    <path id="Caminho_1618" data-name="Caminho 1618" d="M19.1,16.528a1.745,1.745,0,0,0-1.489-.336c-.387.158-.634.764-.884,1.073a.372.372,0,0,1-.48.1,6.745,6.745,0,0,1-3.366-2.884.412.412,0,0,1,.052-.563,2.275,2.275,0,0,0,.612-.993,2.173,2.173,0,0,0-.274-1.175,2.782,2.782,0,0,0-.867-1.307,1.189,1.189,0,0,0-1.291.192,2.621,2.621,0,0,0-.908,2.076,2.965,2.965,0,0,0,.082.659,5.449,5.449,0,0,0,.632,1.456,11.415,11.415,0,0,0,.66,1,10.18,10.18,0,0,0,2.862,2.657,8.671,8.671,0,0,0,1.784.849,3.96,3.96,0,0,0,2.077.328,2.513,2.513,0,0,0,1.883-1.4,1.213,1.213,0,0,0,.087-.715c-.107-.492-.774-.785-1.172-1.024" transform="translate(-4.626 -4.685)" fill="#fff"/>
    <path id="Caminho_1619" data-name="Caminho 1619" d="M10.6,0A10.382,10.382,0,0,0,1.51,15.42L0,21.051l5.66-1.516A10.394,10.394,0,1,0,10.6,0m0,18.829a8.414,8.414,0,0,1-4.3-1.192l-.356-.213-3.162.847.842-3.144L3.4,14.769a8.425,8.425,0,1,1,7.2,4.06" transform="translate(0 0)" fill="#fff"/>
  </g>
</svg>
