<?xml version="1.0" encoding="UTF-8"?>
<svg id="Grupo_4701" xmlns="http://www.w3.org/2000/svg" version="1.1" viewBox="0 0 50 50">
  <!-- Generator: Adobe Illustrator 29.0.1, SVG Export Plug-In . SVG Version: 2.1.0 Build 192)  -->
  <g id="Grupo_2790">
    <path id="Caminho_979" d="M21.9,28.5c.6-.9.9-1.9.9-3,0-2.8-1.5-4.6-4.5-4.6s-4.5,1.8-4.5,4.6c0,1.1.3,2.1.9,3-2.7.9-4.7,3.2-5.1,6.1h2.6c.6-2.8,2.2-4.5,6-4.5s5.4,1.7,6,4.5h2.6c-.4-2.8-2.4-5.2-5.1-6.1M18.4,27.9c-1.5,0-2.3-.9-2.3-2.4s.7-2.4,2.3-2.4,2.3.9,2.3,2.4-.7,2.4-2.3,2.4M41.1,14.4h-12.1v-5.1h-8.1v5.1h-12c-2.6,0-3.8,1.2-3.8,3.9v18.5c0,2.6,1.2,3.9,3.8,3.9h32.3c2.6,0,3.8-1.2,3.8-3.9v-18.5c0-2.6-1.2-3.9-3.8-3.9M23.1,11.5h3.7v3.5c0,1.4-.4,2.4-1.9,2.4s-1.9-.9-1.9-2.4v-3.5ZM42.7,36.5c0,1.4-.6,2-2,2H9.3c-1.4,0-2-.5-2-2v-17.9c0-1.4.6-2,2-2h11.8c.3,1.8,1.9,3,3.7,2.9h.4c1.8.1,3.4-1.1,3.7-2.9h11.8c1.4,0,2,.6,2,2v17.9ZM27.2,28.4h9v-2.2h-9v2.2ZM27.2,23.7h12.3v-2.2h-12.3v2.2Z"/>
  </g>
</svg>