<?xml version="1.0" encoding="UTF-8"?>
<svg xmlns="http://www.w3.org/2000/svg" width="24" height="24" version="1.1" viewBox="0 0 24 24">
  <g class="on">
    <path d="M12.1,6.1c-.3.6-.5,1.1-1,2.1-.7,0-1.2.2-2.4.3.5.6,1.1,1.1,1.7,1.7-.2.6-.2,1.1-.4,2.2,1-.5,1.5-.8,2.1-1.1.6.4,1.3.8,2,1.1-.2-1-.3-1.6-.4-2.1.8-.8,1.2-1.2,1.7-1.7-1.1-.2-1.7-.2-2.3-.3-.3-.7-.6-1.4-1-2.1"/>
    <path d="M17.7,0H6.3C4.8,0,4,.8,4,2.3v21.3l1.1.5,6.8-4.3,6.8,4.3,1.1-.4V2.3c0-1.5-.8-2.3-2.3-2.3M14.9,10.6c.3,1.1.5,2.1.6,3.2l-.6.4c-1.3-.6-2-1-3-1.4-.9.5-1.7.8-3,1.4l-.6-.4c.2-1.1.4-2.1.6-3.2-.8-.7-1.3-1.2-2.3-2.3l.2-.8c1.4-.2,2.2-.4,3.2-.5.5-1,.9-1.8,1.6-3.1h.5c.7,1.2,1.1,2.1,1.6,3.1,1,0,1.7.2,3.1.5l.2.8c-1,1-1.5,1.6-2.3,2.3"/>
  </g>
  <g class="off">
  <path d="M12,19.7l-6.8,4.3-1.1-.5V2.3c0-1.5.8-2.3,2.3-2.3h11.4c1.5,0,2.3.8,2.3,2.3v21.3l-1.1.4-6.8-4.3h0ZM18.7,22.3V2.5c0-.8-.3-1.2-1.1-1.2H6.5c-.8,0-1.1.4-1.1,1.2v19.7l6.7-4.2,6.7,4.2ZM14.9,14.1c-1.3-.6-2-1-3-1.4-.9.5-1.7.8-3,1.4l-.6-.4c.2-1.1.4-2.1.6-3.2-.8-.7-1.3-1.2-2.3-2.3l.2-.8c1.4-.2,2.2-.4,3.2-.5.5-1,.9-1.8,1.6-3.1h.5c.7,1.2,1.1,2.1,1.6,3.1,1,0,1.7.2,3.1.5l.2.8c-1,1-1.5,1.6-2.3,2.3.3,1.1.5,2.1.6,3.2l-.6.4s.2,0,.2,0ZM9.9,12.4c1-.5,1.5-.8,2.1-1.1.6.4,1.3.8,2,1.1-.2-1-.3-1.6-.4-2.1.8-.8,1.2-1.2,1.7-1.7-1.1-.2-1.7-.2-2.3-.3-.3-.7-.6-1.4-1-2.1-.3.6-.5,1.1-1,2.1-.7,0-1.2.2-2.4.3.5.6,1.1,1.1,1.7,1.7-.2.6-.2,1.1-.4,2.2"/>
  </g>
</svg>