<?xml version="1.0" encoding="UTF-8"?>
<svg xmlns="http://www.w3.org/2000/svg" width="35" height="35" version="1.1" xmlns:xlink="http://www.w3.org/1999/xlink" viewBox="0 0 35 35">
    <path class="off" fill="#656666" d="M20,26.5c-.5,1.1-1,2.1-1.7,3h-1.6c-.7-.9-1.2-1.9-1.7-3h-6.2c-1.3,0-2.5-.9-2.6-2.2,0-.1,0-.2,0-.3v-15.9c0-1.3,1-2.5,2.3-2.5,0,0,.2,0,.3,0h17.4c1.2-.2,2.4.7,2.6,1.9,0,.2,0,.4,0,.6v15.9c0,1.3-.9,2.5-2.2,2.6-.1,0-.3,0-.4,0h-6.1ZM17.5,28.2c.6-1,1.1-2.1,1.5-3.1h7c.6,0,1.2-.4,1.3-1,0,0,0-.2,0-.3v-15.6c0-.6-.4-1.2-1-1.3,0,0-.2,0-.3,0H9c-.6,0-1.2.4-1.3,1.1,0,0,0,.1,0,.2v15.7c0,.7.5,1.2,1.1,1.3,0,0,0,0,.1,0h7.1c.4,1.1.9,2.1,1.5,3.1M13.8,13h4.4v7.6h3v1.4h-7.4v-1.4h2.9v-6.1h-2.9v-1.4ZM18.7,10.2c0,.9-.4,1.2-1.2,1.2s-1.2-.3-1.2-1.2.4-1.2,1.2-1.2,1.2.3,1.2,1.2"/>
    <path class="on" d="M26.8,5.5H8.5c-.2,0-.3,0-.5,0,0,0-.2,0-.3.1,0,0-.1,0-.1,0,0,0-.2,0-.2.1,0,0,0,0-.1,0,0,0-.2.1-.2.2-.2.2-.4.4-.5.6,0,0,0,.2-.1.3,0,0,0,0,0,.1,0,.1,0,.2,0,.3,0,0,0,0,0,0,0,.1,0,.3,0,.4v16.4c0,1.3,1.2,2.3,2.6,2.2h6.2c.5,1.1,1,2.1,1.7,3h1.6c.7-.9,1.2-1.9,1.7-3h6.1c.1,0,.3,0,.4,0,.1,0,.2,0,.4,0h0s0,0,0,0c.1,0,.3,0,.4-.1,0,0,0,0,.1,0,0,0,0,0,.1,0,0,0,.1,0,.2-.1,0,0,.2-.1.2-.2,0,0,0,0,0-.1,0,0,0-.1.1-.2,0,0,0,0,0-.1,0-.1.1-.2.2-.3,0,0,0-.2.1-.3,0,0,0,0,0-.1h0c0-.1,0-.2,0-.4V7.4c-.1-1-1-1.8-2-2M21.3,22h-7.4v-1.4h2.9v-6.1h-2.9v-1.4h4.4v7.6h3v1.4ZM16.3,10.2c0-.9.4-1.2,1.2-1.2s1.2.3,1.2,1.2-.4,1.2-1.2,1.2-1.2-.3-1.2-1.2"/>
</svg>