<?xml version="1.0" encoding="UTF-8"?>
<svg id="amei" xmlns="http://www.w3.org/2000/svg" width="24" height="24" version="1.1" viewBox="0 0 24 24">
  <path id="off" d="M11.5,20c-4.9-3-8.1-7.1-8.1-11.1s1.7-4.9,4.4-4.9c1.7,0,3.3.9,4.2,2.3.9-1.4,2.5-2.3,4.2-2.3,2.7,0,4.4,1.8,4.4,4.9s-3.2,8.1-8.1,11.1h-.9ZM7.8,5.2c-2,0-3.2,1.3-3.2,3.7s2.9,7.1,7.4,9.9c4.5-2.8,7.4-6.6,7.4-9.9s-1.2-3.7-3.2-3.7-2.9,1-4.2,3.2c-1.2-2.2-2.5-3.2-4.2-3.2"/>
  <path id="on" d="M11.5,20c-4.9-3-8.1-7.1-8.1-11.1s1.7-4.9,4.4-4.9c1.7,0,3.3.9,4.2,2.3.9-1.4,2.5-2.3,4.2-2.3,2.7,0,4.4,1.8,4.4,4.9s-3.2,8.1-8.1,11.1h-.9Z"/>
</svg>