<?xml version="1.0" encoding="UTF-8"?>
<svg id="Camada_1" xmlns="http://www.w3.org/2000/svg" version="1.1" viewBox="0 0 50 50">
  <!-- Generator: Adobe Illustrator 29.0.1, SVG Export Plug-In . SVG Version: 2.1.0 Build 192)  -->
  <g id="Grupo_4022">
    <g id="Grupo_2784">
      <path id="Caminho_977" d="M15.6,12.2c0-2.2,1-3.2,3.2-3.2h12.4c2.2,0,3.2,1,3.2,3.2v25.6c0,2.2-1,3.2-3.2,3.2h-12.4c-2.2,0-3.2-1-3.2-3.2V12.2ZM18.7,39.1h12.6c.9,0,1.3-.5,1.3-1.7V12.5c0-1.2-.4-1.7-1.3-1.7h-12.6c-.9,0-1.3.5-1.3,1.7v25c0,1.2.4,1.7,1.3,1.7M27.4,14.7h-4.7v-1.9h4.7v1.9ZM26.5,35.3c0,.7-.4,1.4-1.2,1.5-.1,0-.2,0-.3,0-.7,0-1.4-.5-1.5-1.2,0,0,0-.2,0-.3,0-.7.4-1.4,1.2-1.5.1,0,.2,0,.3,0,.7-.1,1.4.4,1.5,1.1,0,.1,0,.2,0,.4"/>
    </g>
  </g>
</svg>