<?xml version="1.0" encoding="UTF-8"?>
<svg xmlns="http://www.w3.org/2000/svg" width="35" height="35" version="1.1" viewBox="0 0 35 35">
  <g class="on">
    <path fill="#000000" d="M17.5,9.7c-.4.8-.7,1.4-1.3,2.8-.9,0-1.6.2-3.1.4.7.8,1.4,1.5,2.2,2.2-.2.8-.3,1.5-.5,2.9,1.3-.6,2-1,2.7-1.5.8.5,1.7,1,2.6,1.4-.3-1.3-.4-2.1-.5-2.8,1.1-1,1.6-1.6,2.3-2.2-1.4-.2-2.2-.3-3-.4-.4-.9-.8-1.9-1.3-2.8"/>
    <path d="M24.9,1.7h-15c-2,0-3,1-3,3v28l1.5.6,9-5.6,9,5.6,1.5-.5V4.7c0-2-1-3-3-3M21.2,15.6c.4,1.4.6,2.8.8,4.2l-.8.5c-1.7-.8-2.6-1.3-3.9-1.9-1.2.6-2.2,1.1-3.9,1.9l-.8-.5c.2-1.4.5-2.8.8-4.2-1-.9-1.7-1.6-3-3l.2-1c1.8-.3,2.9-.5,4.2-.6.6-1.3,1.2-2.4,2.1-4.1h.7c.9,1.6,1.5,2.8,2.1,4.1,1.3.1,2.3.3,4.1.6l.2,1c-1.3,1.3-2,2.1-3,3"/>
  </g>
  <g class="off">
    <path fill="#656666" d="M17.5,27.7l-9,5.6-1.5-.6V4.7c0-2,1-3,3-3h15c2,0,3,1,3,3v28l-1.5.5-9-5.6h0ZM26.3,31V5c0-1.1-.4-1.6-1.5-1.6h-14.6c-1.1,0-1.5.5-1.5,1.6v26l8.8-5.5,8.8,5.5ZM21.3,20.3c-1.7-.8-2.6-1.3-3.9-1.9-1.2.6-2.2,1.1-3.9,1.9l-.8-.5c.2-1.4.5-2.8.8-4.2-1-.9-1.7-1.6-3-3l.2-1c1.8-.3,2.9-.5,4.2-.6.6-1.3,1.2-2.4,2.1-4.1h.7c.9,1.6,1.5,2.8,2.1,4.1,1.3.1,2.3.3,4.1.6l.2,1c-1.3,1.3-2,2.1-3,3,.4,1.4.6,2.8.8,4.2l-.8.5h.2ZM14.8,18c1.3-.6,2-1.1,2.7-1.5.8.5,1.7,1,2.6,1.4-.3-1.3-.4-2.1-.5-2.8,1.1-1,1.6-1.6,2.3-2.2-1.4-.2-2.2-.3-3-.4-.4-.9-.8-1.9-1.3-2.8-.4.8-.7,1.4-1.3,2.8-.9,0-1.6.2-3.1.4.7.8,1.4,1.5,2.2,2.2-.2.8-.3,1.5-.5,2.9"/>
  </g>
</svg>