<?xml version="1.0" encoding="UTF-8"?>
<svg id="Camada_1" xmlns="http://www.w3.org/2000/svg" version="1.1" xmlns:xlink="http://www.w3.org/1999/xlink" viewBox="0 0 50 50">
  <!-- Generator: Adobe Illustrator 29.0.1, SVG Export Plug-In . SVG Version: 2.1.0 Build 192)  -->
  <defs>
    <style>
      .st0 {
        fill: none;
      }

      .st1 {
        clip-path: url(#clippath);
      }

      .st2 {
        stroke: #000;
        stroke-width: .2px;
      }
    </style>
    <clipPath id="clippath">
      <rect class="st0" x="10.5" y="9" width="29.1" height="32"/>
    </clipPath>
  </defs>
  <g id="Grupo_4020">
    <g class="st1">
      <g id="Grupo_2137">
        <path id="Caminho_734" class="st2" d="M10.5,35.9c.3-2.8.8-5.5,1.6-8.2L30.7,9l8.1,8.2-18.7,18.7c-2.7.8-5.4,1.3-8.2,1.5l-1.4-1.4ZM15,35.3c1.4-.2,2.7-.5,4.1-.9-1.7-2-3.4-3.7-5.5-5.6-.4,1.3-.7,2.7-1,4.1.9.8,1.6,1.5,2.4,2.4M14.8,27.5c1.9,1.7,3.7,3.6,5.5,5.6l15.9-15.9-5.5-5.6-15.9,15.9ZM16,39.2h23.6v1.8H16v-1.8Z"/>
      </g>
    </g>
  </g>
</svg>