<?xml version="1.0" encoding="UTF-8"?>
<svg id="Camada_1" xmlns="http://www.w3.org/2000/svg" version="1.1" viewBox="0 0 50 50">
  <!-- Generator: Adobe Illustrator 29.0.1, SVG Export Plug-In . SVG Version: 2.1.0 Build 192)  -->
  <path id="Caminho_1874" d="M25.3,25c0,1.7-.3,3.3-.9,4.9-.6,1.5-1.5,2.8-2.6,3.9-1.1,1.1-2.5,1.9-3.9,2.5-1.6.6-3.2.9-4.9.9-1.7,0-3.4-.3-4.9-.9-1.5-.6-2.8-1.4-3.9-2.5-1.1-1.1-2-2.4-2.6-3.9-.6-1.5-1-3.2-.9-4.9,0-2.2.5-4.4,1.6-6.3,1-1.8,2.6-3.4,4.4-4.4,1.9-1.1,4.1-1.6,6.3-1.6,2.2,0,4.4.5,6.3,1.6,1.9,1,3.4,2.5,4.4,4.4,1.1,1.9,1.6,4.1,1.6,6.3ZM18,30.4c1.4-1.5,2.1-3.4,2-5.4,0-2-.6-4-2-5.4-1.3-1.4-3.2-2.1-5.1-2.1-1.9,0-3.8.7-5.1,2.1-1.4,1.5-2.1,3.4-2,5.4,0,2,.6,3.9,2,5.4,1.3,1.4,3.2,2.1,5.1,2,1.9,0,3.8-.7,5.1-2h0ZM27.6,13.2h5l11.9,15.4v-15.4h5v23.7h-5l-11.9-15.4v15.4h-5V13.2Z"/>
</svg>