<?xml version="1.0" encoding="UTF-8"?>
<svg id="Camada_1" xmlns="http://www.w3.org/2000/svg" version="1.1" viewBox="0 0 50 50">
  <!-- Generator: Adobe Illustrator 29.0.1, SVG Export Plug-In . SVG Version: 2.1.0 Build 192)  -->
  <g id="Grupo_4199">
    <path id="União_7" d="M7.2,46.8c-2.1,0-3.2-1-3.2-3.2v-25.3c0-2.1,1-3.2,3.2-3.2h12.3c2.1,0,3.2,1,3.2,3.2v25.3c0,2.1-1,3.2-3.2,3.2H7.2ZM5.8,18.5v24.7c0,1.2.4,1.7,1.3,1.7h12.4c.9,0,1.3-.5,1.3-1.7v-24.7c0-1.2-.4-1.7-1.3-1.7H7.1c-.9,0-1.3.5-1.3,1.7ZM11.8,41.1c0-.7.4-1.4,1.1-1.5.1,0,.2,0,.3,0,.7-.1,1.4.4,1.5,1.1,0,.1,0,.2,0,.4,0,.7-.4,1.4-1.1,1.5-.1,0-.2,0-.3,0-.7,0-1.4-.5-1.5-1.2,0,0,0-.2,0-.3h0ZM25.6,23.2c-.4-.9-.8-2-1.1-3.1v-1.8h1.4c.2,1.1.5,2.2.9,3.3,1-1,1.9-2.1,2.6-3.3h13.1c.8.1,1.5-.5,1.6-1.3,0-.1,0-.2,0-.3V6.6c0-.8-.5-1.5-1.3-1.6-.1,0-.2,0-.3,0h-21.1c-.8,0-1.5.5-1.6,1.3,0,0,0,.1,0,.2v6.7h-1.8v-6.8c0-1.7,1.2-3.1,2.9-3.1.1,0,.2,0,.3,0h21.6c1.5-.2,3,.9,3.2,2.4,0,.3,0,.5,0,.8v10.4c.1,1.6-1,3-2.7,3.2-.2,0-.4,0-.6,0h-12.4c-.8,1.2-1.8,2.2-2.8,3.2h-1.9ZM11,20.7v-1.9h4.6v1.9h-4.6ZM23.7,14.5v-1.9h13v1.9h-13ZM23.7,10.7v-1.9h16.7v1.9h-16.7Z"/>
  </g>
</svg>