<?xml version="1.0" encoding="UTF-8"?>
<svg id="Camada_1" xmlns="http://www.w3.org/2000/svg" width="35" height="35" version="1.1" viewBox="0 0 35 35">
  <path class="on" stroke="#000" stroke-width=".5px" d="M24.6,15.4c0,2.2-.7,4.3-2.1,5.9l6.8,6.8-1,1-6.8-6.8c-4,3.4-10,3-13.4-1-1.5-1.7-2.3-4-2.3-6.3,0-5.1,4.1-9.2,9.2-9.2,0,0,.1,0,.2,0,5.2,0,9.4,4.1,9.5,9.3,0,.1,0,.2,0,.3M15.1,7.3c-4.2-.1-7.8,3.2-7.9,7.5,0,0,0,.2,0,.3,0,4.4,3.5,8.1,7.9,8.2,0,0,0,0,.1,0,4.2.1,7.8-3.2,7.9-7.5,0,0,0-.2,0-.3,0-4.4-3.4-8.1-7.8-8.2,0,0-.1,0-.2,0"/>
  <path class="off" fill="#656666" d="M24.6,15.4c0,2.2-.7,4.3-2.1,5.9l6.8,6.8-1,1-6.8-6.8c-4,3.4-10,3-13.4-1-1.5-1.7-2.3-4-2.3-6.3,0-5.1,4.1-9.2,9.2-9.2,0,0,.1,0,.2,0,5.2,0,9.4,4.1,9.5,9.3,0,.1,0,.2,0,.3M15.1,7.3c-4.2-.1-7.8,3.2-7.9,7.5,0,0,0,.2,0,.3,0,4.4,3.5,8.1,7.9,8.2,0,0,0,0,.1,0,4.2.1,7.8-3.2,7.9-7.5,0,0,0-.2,0-.3,0-4.4-3.4-8.1-7.8-8.2,0,0-.1,0-.2,0"/>
</svg>