<?xml version="1.0" encoding="UTF-8"?>
<svg id="Grupo_4024" xmlns="http://www.w3.org/2000/svg" version="1.1" viewBox="0 0 50 50">
  <!-- Generator: Adobe Illustrator 29.0.1, SVG Export Plug-In . SVG Version: 2.1.0 Build 192)  -->
  <path id="Caminho_975" d="M9.3,36.5c.4-1.3,1.7-2.3,3.1-2.3,1.4,0,2.7.9,3.2,2.3h10.4c.5-1.7,2.4-2.7,4.1-2.2,1,.3,1.8,1.1,2.2,2.2h.8c1.1,0,1.4-.2,1.4-1.1,0-.9-.3-1.8-.8-2.6-.4-.5-.9-.9-1.6-1l-3.5-.9c-1.3-.4-3-2-5.2-2.8-1.7-.7-3.2-.9-6.6-.9-2,0-4,.2-6,.5l-1.9-1.2v-.5c2.7-.5,5.4-.8,8.2-.9,2.4-.1,4.8.2,7.1,1.1,2.4.9,3.8,2.5,4.8,2.8l3.4,1c1.2.2,2.2.9,3,1.9.6,1.2,1,2.6,1.1,3.9,0,1.8-1.6,2.8-3.6,2.8h-.6c-.5,1.7-2.2,2.8-4,2.3-1.1-.3-2-1.2-2.3-2.3h-10.4c-.4,1.4-1.7,2.4-3.2,2.4-1.5,0-2.8-1-3.2-2.5h0c-2.1.1-3.8-1.4-4-3.5,0,0,0-.2,0-.3v-2.5c0-1.1.3-2,2.4-4.1l1.8,1c-1.8,2-2.2,2.4-2.2,3.4v2.1c0,1.3.6,2,2.1,2h.2ZM9.4,24.2c0-1.1.4-1.9,2.5-4l1.7.9c-1.5,1.6-2,2.2-2.1,2.8l-2,.3ZM13.9,37.6c0-.8-.6-1.5-1.4-1.5,0,0,0,0,0,0-.8,0-1.4.7-1.4,1.5,0,.8.6,1.5,1.3,1.5,0,0,0,0,0,0,.8,0,1.5-.6,1.5-1.4,0,0,0,0,0-.1M36.4,23.7l-3.5-.8c-1.2-.2-3.1-2-5.2-2.8-1.7-.7-3.2-.9-6.6-.9-2,0-4,.2-6,.4l-1.9-1.1v-.5c2.7-.5,5.4-.8,8.2-.9,2.4,0,4.8.3,7.1,1.1,2.4.9,4.1,2.5,4.8,2.7l3.5.8c1.1.2,2.2.9,2.8,1.8.6,1.3,1,2.7,1.1,4.1,0,1.8-1.6,2.7-3.6,2.7h-.2c-.6-.9-1.5-1.6-2.6-2h3c1.1,0,1.5-.2,1.5-1.1,0-1-.4-1.9-.8-2.8-.3-.5-.9-.9-1.5-1M13.5,16c0-1.1.4-1.9,2.5-4l1.7.9c-1.5,1.6-2,2.2-2.1,2.8l-2,.3ZM40.6,15.5l-3.5-.8c-1.2-.3-3.1-2-5.2-2.8-1.7-.7-3.2-.9-6.6-.9-2,0-4,.2-6,.5l-1.9-1.1v-.5c2.7-.5,5.4-.7,8.2-.9,2.4,0,4.8.3,7.1,1.1,2.4.9,4.1,2.5,4.8,2.7l3.5.8c1.1.2,2.2.9,2.8,1.9.6,1.3,1,2.7,1.1,4.1,0,1.8-1.6,2.7-3.6,2.7h-.2c-.6-.9-1.5-1.6-2.6-1.9h3c1.1,0,1.5-.2,1.5-1.1,0-1-.4-1.9-.8-2.8-.3-.5-.9-.9-1.5-1M30.6,37.6c0-.8-.6-1.5-1.4-1.5,0,0,0,0,0,0-.8,0-1.4.7-1.4,1.5,0,.8.6,1.5,1.3,1.5,0,0,0,0,0,0,.8,0,1.5-.6,1.5-1.4,0,0,0,0,0-.1"/>
</svg>