<?xml version="1.0" encoding="UTF-8"?>
<svg xmlns="http://www.w3.org/2000/svg" width="24" height="24" version="1.1" xmlns:xlink="http://www.w3.org/1999/xlink" viewBox="0 0 24 24">
    <path d="M9,12.8l6.1,2.8c.7-1.5,2.2-2.3,3.9-2.3,2.2-.1,4.2,1.6,4.3,3.8,0,.2,0,.3,0,.5.1,2.2-1.5,4.2-3.8,4.3-.2,0-.3,0-.5,0-2.3.1-4.2-1.6-4.3-3.9,0-.1,0-.3,0-.4,0-.2,0-.5,0-.7l-6.1-2.9c-.7,1.4-2.2,2.3-3.8,2.2-2.3.1-4.2-1.6-4.3-3.9,0-.1,0-.3,0-.4-.1-2.3,1.6-4.2,3.9-4.3.1,0,.3,0,.4,0,1.6-.1,3.1.8,3.8,2.2l6.1-2.9c0-.2,0-.5,0-.7-.1-2.3,1.6-4.2,3.9-4.3.1,0,.3,0,.4,0,2.2-.1,4.2,1.5,4.3,3.8,0,.2,0,.3,0,.5.1,2.2-1.6,4.2-3.8,4.3-.2,0-.3,0-.5,0-1.6,0-3.1-.8-3.9-2.3l-6.1,2.8c0,.3,0,.5,0,.8,0,.3,0,.5,0,.8M4.8,14.9c1.4.2,2.7-.9,2.9-2.3,0-.2,0-.4,0-.6.2-1.4-.9-2.8-2.3-2.9-.2,0-.4,0-.6,0-1.4-.2-2.7.9-2.9,2.3,0,.2,0,.4,0,.6-.2,1.4.9,2.8,2.3,2.9.2,0,.4,0,.6,0M19,9.2c1.4.2,2.7-.9,2.9-2.3,0-.2,0-.4,0-.6.2-1.4-.9-2.8-2.3-2.9-.2,0-.4,0-.6,0-1.4-.2-2.7.9-2.9,2.3,0,.2,0,.4,0,.6-.2,1.4.9,2.8,2.3,2.9.2,0,.4,0,.6,0M19,20.6c1.4.2,2.7-.9,2.9-2.3,0-.2,0-.4,0-.6.2-1.4-.9-2.8-2.3-2.9-.2,0-.4,0-.6,0-1.4-.2-2.7.9-2.9,2.3,0,.2,0,.4,0,.6-.2,1.4.9,2.8,2.3,2.9.2,0,.4,0,.6,0"/>
</svg>