<svg id="Grupo_4222" data-name="Grupo 4222" xmlns="http://www.w3.org/2000/svg" xmlns:xlink="http://www.w3.org/1999/xlink" width="21" height="21" viewBox="0 0 21 21">
  <defs>
    <clipPath id="clip-path">
      <rect id="Retângulo_1888" data-name="Retângulo 1888" width="21" height="21" fill="none"/>
    </clipPath>
  </defs>
  <g id="Grupo_4221" data-name="Grupo 4221" clip-path="url(#clip-path)">
    <path id="Caminho_1623" data-name="Caminho 1623" d="M10.5,0A10.5,10.5,0,1,0,21,10.5,10.5,10.5,0,0,0,10.5,0m4.867,7.141c-.158,1.66-.842,5.689-1.19,7.549-.147.787-.437,1.051-.718,1.076-.61.056-1.073-.4-1.663-.79-.924-.606-1.446-.983-2.343-1.574-1.037-.683-.365-1.059.226-1.672.155-.161,2.841-2.6,2.893-2.826a.214.214,0,0,0-.049-.186.242.242,0,0,0-.217-.021q-.139.031-4.429,2.927a1.993,1.993,0,0,1-1.139.42,7.488,7.488,0,0,1-1.632-.386c-.658-.214-1.18-.327-1.135-.69q.036-.284.781-.58,4.591-2,6.123-2.638c2.916-1.213,3.522-1.424,3.917-1.431a.691.691,0,0,1,.407.122.443.443,0,0,1,.15.284,1.86,1.86,0,0,1,.017.413" fill="#fff" fill-rule="evenodd"/>
  </g>
</svg>
