<?xml version="1.0" encoding="UTF-8"?>
<svg xmlns="http://www.w3.org/2000/svg" width="35" height="35" version="1.1" viewBox="0 0 35 35">
  <g class="on">
    <path fill="#000000" d="M5.3,23.3l1.2,1.2,5.2-5.2-1.2-1.2-5.2,5.2Z"/>
    <path fill="#000000" d="M10.3,28.4l1.2,1.2,5.2-5.2-1.2-1.2s-5.2,5.2-5.2,5.2Z"/>
    <path fill="#000000" d="M5,28.6l1.2,1.2,8-7.9-1.2-1.2-8,7.9Z"/>
    <path fill="#000000" d="M8.2,13.8l17.8-6-9.9,9.9-7.9-4h0ZM28.9,5.1L6.1,12.6v1.9l9.6,5,5,9.6h1.9l7.4-22.9-1.1-1.1Z"/>
  </g>
  <path class="off" fill="#656666" d="M17.3,19l9.9-9.9-5.9,17.8-4-7.9ZM8.2,13.7l17.8-5.9-9.9,9.9s-7.9-4-7.9-4ZM28.9,5.1L6,12.6v1.9l9.6,5,5,9.6h1.9l7.5-22.9-1.1-1.1Z"/>
</svg>