<?xml version="1.0" encoding="UTF-8"?>
<svg id="Camada_1" xmlns="http://www.w3.org/2000/svg" version="1.1" xmlns:xlink="http://www.w3.org/1999/xlink" viewBox="0 0 50 50">
  <!-- Generator: Adobe Illustrator 29.0.1, SVG Export Plug-In . SVG Version: 2.1.0 Build 192)  -->
  <defs>
    <style>
      .st0 {
        fill: none;
      }

      .st1 {
        clip-path: url(#clippath);
      }
    </style>
    <clipPath id="clippath">
      <rect class="st0" x="6.4" y="11.1" width="37.2" height="27.9"/>
    </clipPath>
  </defs>
  <g class="st1">
    <g id="Grupo_2782">
      <path id="Caminho_976" d="M17.7,22.1c0-1.9-1.4-3.4-3.2-3.5,0,0-.2,0-.2,0-1.9,0-3.4,1.5-3.5,3.3,0,0,0,.1,0,.2,0,1.9,1.5,3.4,3.4,3.5,0,0,0,0,0,0,1.9,0,3.4-1.4,3.5-3.3,0,0,0-.1,0-.2M14.2,23.8c-.9,0-1.6-.5-1.7-1.4,0-.1,0-.2,0-.3-.1-.9.5-1.6,1.3-1.7.1,0,.3,0,.4,0,.8-.1,1.6.5,1.7,1.3,0,.1,0,.3,0,.4.1.9-.5,1.6-1.3,1.7-.1,0-.3,0-.4,0M6.4,38.9h33.5V14.8H6.4v24.1ZM8.2,16.6h29.8v20.5H8.2v-20.5ZM12,11.1v1.8h29.8v22.3h1.9V11.1H12ZM29.9,25.5c-1.2,2.4-2.2,4.4-3,6-1.4-3.1-2.5-5.2-4.6-9.3h-1.6c-2.7,5.2-4.2,8.3-5.4,11.2h2.1c.9-2.2,2-4.5,4.2-8.7,2,3.9,2.9,5.8,4.2,8.7h2.1c.7-1.5,1.5-3.1,2.8-5.6,1.9,3.7,2.2,4.4,2.8,5.6h2c-1.2-2.4-1.3-2.7-4-7.9h-1.6Z"/>
    </g>
  </g>
</svg>