<?xml version="1.0" encoding="UTF-8"?>
<svg id="Camada_1" xmlns="http://www.w3.org/2000/svg" version="1.1" xmlns:xlink="http://www.w3.org/1999/xlink" viewBox="0 0 27 27">
  <!-- Generator: Adobe Illustrator 29.0.1, SVG Export Plug-In . SVG Version: 2.1.0 Build 192)  -->
  <defs>
    <style>
      .st0 {
        fill: none;
      }

      .st1 {
        fill: #1d1d1b;
      }

      .st2 {
        clip-path: url(#clippath);
      }
    </style>
    <clipPath id="clippath">
      <rect class="st0" x="3.4" width="20.2" height="27"/>
    </clipPath>
  </defs>
  <g id="Grupo_4645">
    <g class="st2">
      <g id="Grupo_4644">
        <path id="Caminho_1845" class="st1" d="M23.6,11.8v15.2H3.4v-14.9c0-2.1.7-3.6,3.6-3.6h1.4v-3.4C8.4,1.8,10.2,0,13.4,0s5.2,1.8,5.2,5.1v3.4h1.4c2.5,0,3.6,1.3,3.6,3.4M7,10.1c-1.3,0-1.9.4-1.9,2v13.2h16.8v-13.2c0-1.5-.6-2-1.9-2H7ZM10.2,5.3v3.2h6.7v-3.2c0-2.4-1.5-3.6-3.5-3.6s-3.2,1.2-3.2,3.6M13.6,21v-1.7h0c-2.1,0-3.4-1.3-3.4-3.3s1.3-3.2,3.4-3.2,3.4,1.3,3.4,3.2c0,1.2-.6,2.4-1.7,2.9v3.7h-3.6v-1.7h2ZM13.5,14.4c-1.2,0-1.7.6-1.7,1.6s.5,1.6,1.7,1.6c.8.1,1.5-.4,1.7-1.2,0-.1,0-.2,0-.4,0-.8-.6-1.5-1.4-1.6,0,0-.2,0-.3,0"/>
      </g>
    </g>
  </g>
</svg>