<svg id="Componente_154_57" data-name="Componente 154 – 57" xmlns="http://www.w3.org/2000/svg" xmlns:xlink="http://www.w3.org/1999/xlink" width="22.56" height="24.043" viewBox="0 0 22.56 24.043">
  <defs>
    <clipPath id="clip-path">
      <rect id="Retângulo_1892" data-name="Retângulo 1892" width="22.56" height="24.043" fill="#656666"/>
    </clipPath>
  </defs>
  <g id="Grupo_4238" data-name="Grupo 4238" clip-path="url(#clip-path)">
    <path id="Caminho_1628" data-name="Caminho 1628" d="M13.774,21.042a18.01,18.01,0,0,1-1.7,3H10.484a18.117,18.117,0,0,1-1.7-3H2.567A2.41,2.41,0,0,1,0,18.475V2.531A2.42,2.42,0,0,1,2.567,0H19.992a2.279,2.279,0,0,1,2.568,2.567V18.475a2.4,2.4,0,0,1-2.639,2.567Zm-2.494,1.7A22.945,22.945,0,0,0,12.762,19.6h6.977a1.182,1.182,0,0,0,1.338-1.265V2.711a1.155,1.155,0,0,0-1.3-1.265H2.748a1.168,1.168,0,0,0-1.266,1.23V18.33A1.2,1.2,0,0,0,2.748,19.6H9.8a22.945,22.945,0,0,0,1.482,3.146M7.593,7.484H12v7.593H15.04v1.411H7.593V15.077h2.928V8.93H7.593Zm4.881-2.747c0,.867-.4,1.193-1.194,1.193S10.086,5.6,10.086,4.737s.4-1.193,1.194-1.193,1.194.325,1.194,1.193" transform="translate(0 0)" fill="#656666"/>
  </g>
</svg>
