<?xml version="1.0" encoding="UTF-8"?>
<svg id="curtidinha" xmlns="http://www.w3.org/2000/svg" width="24" height="24" version="1.1" viewBox="0 0 24 24">
  <g id="off">
    <path id="Caminho_1524" d="M2.8,9.4h1.3v11.6h-1.3v-11.6ZM12.6,10.7l.5-3.4c.3-1.7-.5-3.1-1.5-3.1h-.4v1.8c0,.6,0,1.2-.3,1.8l-1.4,2.7c-.7,1.2-1.5,1.5-3,1.5h-1v-1.3h.9c1,.2,1.9-.4,2.2-1.3l.9-1.8c.3-.7.5-1.5.5-2.2v-2.4h1.8c1.9,0,3,2,2.8,4.3l-.3,2.2h4.7c1,0,2,.6,2.1,1.7v.2c0,.5-.2,1-.5,1.3.3.4.5.9.5,1.4,0,.9-.6,1.7-1.5,1.8.2.2.2.5.2.8,0,.9-.6,1.7-1.5,1.8.2.2.2.5.2.8,0,1-.7,1.8-1.7,1.8h-6.8c-1.5,0-2.1-1.3-3.5-1.3h-.9v-1.3h1.4c1.5,0,2.3,1.3,3.5,1.3h6c.5,0,.8-.2.8-.6s-.3-.6-.8-.6h-.5v-1.3h1.7c.6,0,.9-.2.9-.6s-.3-.6-.9-.6h-1.7v-1.3h3c.5,0,.9-.2.9-.6s-.3-.6-.9-.6h-3v-1.3h3.1c.5,0,.8-.2.8-.6s-.3-.7-.8-.7h-6.2l-.3-.3Z"/>
  </g>
  <g id="on">
    <rect id="Retângulo_1796" x="2.9" y="9.4" width="1.3" height="11.6"/>
    <path id="Caminho_1531" d="M21.1,11.4c0-1.1-.8-1.9-1.9-1.9h-4.9l.3-2.2c.3-2.3-.8-4.3-2.8-4.3h-1.8v2.3c0,.8,0,1.5-.4,2.2l-.9,1.8c-.3.9-1.3,1.5-2.2,1.3h-.9v9h.9c1.4,0,1.9,1.3,3.5,1.3h6.6c1,0,1.8-.6,1.9-1.6v-.2c0-.3,0-.5-.2-.8.9-.2,1.5-.9,1.5-1.8s0-.5-.2-.8c.9-.1,1.6-.9,1.5-1.8,0-.5-.2-1-.5-1.4.3-.3.5-.8.5-1.3"/>
  </g>
</svg>