<?xml version="1.0" encoding="UTF-8"?>
<svg id="Camada_1" xmlns="http://www.w3.org/2000/svg" version="1.1" xmlns:xlink="http://www.w3.org/1999/xlink" viewBox="0 0 27 27">
  <!-- Generator: Adobe Illustrator 29.0.1, SVG Export Plug-In . SVG Version: 2.1.0 Build 192)  -->
  <defs>
    <style>
      .st0 {
        fill: none;
      }

      .st1 {
        fill: #bbbcbc;
      }

      .st2 {
        clip-path: url(#clippath);
      }
    </style>
    <clipPath id="clippath">
      <rect class="st0" x="1.8" y=".6" width="23.5" height="25.9"/>
    </clipPath>
  </defs>
  <g id="Grupo_3865">
    <g class="st2">
      <g id="Grupo_3864">
        <path id="Caminho_1393" class="st1" d="M1.8,22.3c.2-2.2.7-4.4,1.3-6.6L18.1.6l6.5,6.6-15.1,15.1c-2.2.6-4.4,1-6.6,1.2l-1.2-1.2ZM5.4,21.8c1.1-.2,2.2-.4,3.3-.7-1.4-1.6-2.8-3-4.4-4.5-.3,1.1-.6,2.2-.8,3.3.7.6,1.3,1.2,1.9,1.9M5.2,15.5c1.5,1.4,3,2.9,4.5,4.5l12.9-12.9-4.5-4.5L5.2,15.5ZM6.2,25h19.1v1.4H6.2v-1.4Z"/>
      </g>
    </g>
  </g>
</svg>