<?xml version="1.0" encoding="UTF-8"?>
<svg xmlns="http://www.w3.org/2000/svg" width="35" height="35" version="1.1" viewBox="0 0 35 35">
  <g class="off">
    <path fill="#656666" d="M6.1,7v21h12.9v-8.1h-1.6v6.5H7.7V8.6h9.8v6.4h1.6V7H6.1Z"/>
    <path fill="#656666" d="M22.6,22.6l-1-1.3c2.1-1.3,3.2-1.9,4.8-3h-15.4v-1.6h15.5c-1.6-1.1-2.7-1.7-4.8-3l.9-1.3c2.1,1.4,4.2,2.8,6.2,4.4v1.4c-2,1.6-4.1,3-6.2,4.4"/>
  </g>
  <g class="on">
    <path fil="#000000" d="M6.1,7v21h12.9v-8.1h-1.6v6.5H7.7V8.6h9.8v6.4h1.6V7H6.1Z"/>
    <path fil="#000000" d="M22.6,22.6l-1-1.3c2.1-1.3,3.2-1.9,4.8-3h-15.4v-1.6h15.5c-1.6-1.1-2.7-1.7-4.8-3l.9-1.3c2.1,1.4,4.2,2.8,6.2,4.4v1.4c-2,1.6-4.1,3-6.2,4.4"/>
  </g>
</svg>