<?xml version="1.0" encoding="UTF-8"?>
<svg id="Camada_1" xmlns="http://www.w3.org/2000/svg" version="1.1" xmlns:xlink="http://www.w3.org/1999/xlink" viewBox="0 0 50 50">
  <!-- Generator: Adobe Illustrator 29.0.1, SVG Export Plug-In . SVG Version: 2.1.0 Build 192)  -->
  <defs>
    <style>
      .st0 {
        fill: none;
      }

      .st1 {
        clip-path: url(#clippath);
      }
    </style>
    <clipPath id="clippath">
      <rect class="st0" x="10" y="8" width="30" height="34"/>
    </clipPath>
  </defs>
  <g id="Grupo_4198">
    <g class="st1">
      <g id="Grupo_4198-2">
        <path id="Caminho_1611" d="M10,8h2v34h-2V8ZM40,30c-2.3-.9-5.1-2-7.7-2-3.9,0-5.9,2-10.2,2s-5.4-1.2-8-2.2V8c2.6,1,5,2,7.7,2,3.9,0,5.9-2,10.2-2s5.7,1.2,8.1,2.2v19.8ZM15.9,10.8v15.6c2.4,1,4.2,1.6,6.1,1.6,4.5,0,5.9-2,10.2-2,2,0,4,.4,5.8,1.1v-15.8c-2-.8-4-1.3-6.2-1.4-4.2,0-5.9,2-10.2,2-2,0-3.9-.4-5.8-1.2M23.6,20.2h5c.4-.4.9-.7,1.4-.7.6,0,1.1.3,1.5.7h1.8c.7,0,.9-.1.9-.5v-.4c0-.5-.4-1-.9-1.2l-1.8-.6c-.7-.2-1.3-.8-2.5-1.3-1.1-.4-2.2-.6-3.3-.6-1.5,0-3.1.2-4.6.5l-1.5-1.2v-.5c1.8-.5,3.7-.8,5.6-.8,1.5,0,2.9.2,4.3.7,1.3.5,2.2,1.3,2.8,1.6l2,.8c1,.3,1.7,1.2,1.7,2.3v.7c.3,1.4-.7,2.3-2.3,2.3h-1.6c-.2,1-1,1.7-2,1.6-1,0-1.8-.7-1.9-1.6h-4c-.2,1-1,1.7-2,1.6-1,0-1.8-.7-1.9-1.6-1.2.1-2.2-.8-2.3-1.9,0-.1,0-.3,0-.4v-.7c0-.9.3-1.8.9-2.5l.4-.5c.4.4.9.9,1.3,1.2l-.2.2c-.5.4-.7,1.1-.6,1.7,0,.6.2,1,1,1,.4-.4.9-.7,1.4-.7.6,0,1.1.3,1.5.7"/>
      </g>
    </g>
  </g>
</svg>