<svg xmlns="http://www.w3.org/2000/svg" xmlns:xlink="http://www.w3.org/1999/xlink" width="23.35" height="23.321" viewBox="0 0 23.35 23.321">
  <defs>
    <clipPath id="clip-path">
      <rect id="Retângulo_1891" data-name="Retângulo 1891" width="23.35" height="23.321" fill="#fff"/>
    </clipPath>
  </defs>
  <g id="Grupo_4234" data-name="Grupo 4234" transform="translate(0 0)">
    <g id="Grupo_4234-2" data-name="Grupo 4234" transform="translate(0 0.001)" clip-path="url(#clip-path)">
      <path id="Caminho_1627" data-name="Caminho 1627" d="M11.054,7.271H2.276c-.768,0-1.065.325-1.065,1.094V9.813h11.2a5.225,5.225,0,0,0,1.211,1.212H1.211v10.02c0,.768.3,1.094,1.065,1.094H14.926c.768,0,1.063-.325,1.063-1.094V12.266H17.2v8.956a1.84,1.84,0,0,1-2.1,2.1H2.1a1.84,1.84,0,0,1-2.1-2.1V8.188a1.84,1.84,0,0,1,2.1-2.1H3.665V3.636H4.907V6.089h6.147a7.893,7.893,0,0,0,0,1.182M5.823,14.749c0,.65-.267.946-.946.946a.821.821,0,0,1-.946-.946c0-.68.3-.946.946-.946.68,0,.946.266.946.946m0,3.665c0,.65-.267.946-.946.946a.821.821,0,0,1-.946-.946c0-.68.3-.946.946-.946.68,0,.946.266.946.946m3.723-3.665c0,.65-.265.946-.946.946a.821.821,0,0,1-.946-.946c0-.68.3-.946.946-.946.68,0,.946.266.946.946m0,3.665c0,.65-.265.946-.946.946a.821.821,0,0,1-.946-.946c0-.68.3-.946.946-.946.68,0,.946.266.946.946m3.725-3.665c0,.65-.265.946-.946.946a.821.821,0,0,1-.946-.946c0-.68.3-.946.946-.946.68,0,.946.266.946.946m0,3.665c0,.65-.265.946-.946.946a.821.821,0,0,1-.946-.946c0-.68.3-.946.946-.946.68,0,.946.266.946.946m-1-12.887a5.542,5.542,0,0,1,11.084,0,5.542,5.542,0,1,1-11.084,0m9.873.059a4.331,4.331,0,1,0-4.286,4.286,4.327,4.327,0,0,0,4.286-4.286M17.2,6.148V2.453h1.212V4.966H20.9V6.148Z" transform="translate(0 0)" fill="#fff"/>
    </g>
  </g>
</svg>
