<svg xmlns="http://www.w3.org/2000/svg" xmlns:xlink="http://www.w3.org/1999/xlink" width="20" height="20" viewBox="0 0 20 20">
  <defs>
    <clipPath id="clip-path">
      <rect id="Retângulo_1343" data-name="Retângulo 1343" width="20" height="20" fill="#fff"/>
    </clipPath>
  </defs>
  <g id="Grupo_3797" data-name="Grupo 3797" transform="translate(0 20) rotate(-90)">
    <g id="Grupo_3550" data-name="Grupo 3550" transform="translate(0 0)" clip-path="url(#clip-path)">
      <path id="Caminho_1322" data-name="Caminho 1322" d="M3.6,14.212V20h-1.4V14.212A2.638,2.638,0,0,1,0,11.438,2.615,2.615,0,0,1,2.192,8.664V0H3.6V8.664a2.611,2.611,0,0,1,2.157,2.774A2.634,2.634,0,0,1,3.6,14.212M2.877,9.966A1.335,1.335,0,0,0,1.4,11.438,1.35,1.35,0,0,0,2.877,12.91a1.335,1.335,0,0,0,1.472-1.472A1.32,1.32,0,0,0,2.877,9.966m7.843-1.507V20h-1.4V8.458A2.637,2.637,0,0,1,7.123,5.684,2.614,2.614,0,0,1,9.315,2.911V0h1.4V2.911a2.61,2.61,0,0,1,2.157,2.773,2.633,2.633,0,0,1-2.157,2.774M10,4.212A1.335,1.335,0,0,0,8.528,5.684,1.351,1.351,0,0,0,10,7.157a1.335,1.335,0,0,0,1.472-1.473A1.32,1.32,0,0,0,10,4.212M17.843,17.02V20h-1.4V17.02a2.636,2.636,0,0,1-2.192-2.774,2.613,2.613,0,0,1,2.192-2.774V0h1.4V11.472A2.611,2.611,0,0,1,20,14.246a2.634,2.634,0,0,1-2.157,2.774m-.719-4.246a1.335,1.335,0,0,0-1.472,1.472,1.351,1.351,0,0,0,1.472,1.472A1.335,1.335,0,0,0,18.6,14.246a1.32,1.32,0,0,0-1.472-1.472" transform="translate(0 0)" fill="#fff"/>
    </g>
  </g>
</svg>
