<svg id="Grupo_3934" data-name="Grupo 3934" xmlns="http://www.w3.org/2000/svg" width="20" height="20.001" viewBox="0 0 20 20.001">
  <path id="Caminho_1328" data-name="Caminho 1328" d="M15.751,6.2l-.712,1.22c1.367.88,2.055,1.362,2.812,1.885l-6.878,0V9.306h-.278l0-7.266c.562.818,1.026,1.481,1.98,2.919l1.2-.716A46.655,46.655,0,0,0,10.754,0L9.317,0A38.592,38.592,0,0,0,6.2,4.278l1.227.7C8.3,3.6,8.772,2.911,9.288,2.15l.057,7.156-7.307,0c.818-.562,1.481-1.026,2.919-1.98l-.716-1.2A46.8,46.8,0,0,0,0,9.246l0,1.437A38.233,38.233,0,0,0,4.278,13.8l.7-1.226C3.6,11.7,2.911,11.228,2.149,10.712l7.207-.057,0,.164H9.352l-.07,7.13c-.555-.822-1.012-1.49-1.953-2.937l-1.2.7A46.87,46.87,0,0,0,9.2,19.984L10.641,20A38.454,38.454,0,0,0,13.8,15.752l-1.219-.712c-.88,1.367-1.362,2.055-1.886,2.812l0-6.878h.008v-.33h.123v.006l7.13.07c-.822.555-1.49,1.012-2.937,1.953l.7,1.2A46.721,46.721,0,0,0,19.983,10.8L20,9.359A38.478,38.478,0,0,0,15.751,6.2" fill="#656666"/>
</svg>
