<svg id="Grupo_4653" data-name="Grupo 4653" xmlns="http://www.w3.org/2000/svg" xmlns:xlink="http://www.w3.org/1999/xlink" width="32.484" height="39.852" viewBox="0 0 32.484 39.852">
  <defs>
    <clipPath id="clip-path">
      <rect id="Retângulo_764" data-name="Retângulo 764" width="32.484" height="39.852"/>
    </clipPath>
  </defs>
  <g id="Grupo_2630" data-name="Grupo 2630" clip-path="url(#clip-path)">
    <path id="Caminho_904" data-name="Caminho 904" d="M15.74,39.852C5.86,36.615,0,30.14,0,19.925V5.972C7.479,5.972,11.052,4.409,15.684,0H16.8c4.632,4.409,8.205,5.972,15.684,5.972V19.925c0,10.214-5.861,16.689-15.74,19.926Zm.5-2.177c8.931-3.238,13.954-8.987,13.954-17.75V8.148A20.721,20.721,0,0,1,16.241,2.679,20.823,20.823,0,0,1,2.288,8.148V19.925c0,8.763,5.023,14.512,13.952,17.75m.169-9.433h-.894A93.291,93.291,0,0,1,9.1,18.921l1.955-1.228a85.5,85.5,0,0,0,4.854,7.2,99.137,99.137,0,0,0,6.754-12.5l2.01,1a101.192,101.192,0,0,1-8.261,14.847" transform="translate(0 0)"/>
  </g>
</svg>
