<svg xmlns="http://www.w3.org/2000/svg" width="15.308" height="12.488" viewBox="0 0 15.308 12.488">
  <path id="Caminho_1397" data-name="Caminho 1397" d="M5.438,0A.443.443,0,0,0,5.08.22l-.7,1.391H1.611A1.617,1.617,0,0,0,0,3.223v7.654a1.617,1.617,0,0,0,1.611,1.611H13.7a1.617,1.617,0,0,0,1.611-1.611V3.223A1.617,1.617,0,0,0,13.7,1.611H10.927L10.228.22A.412.412,0,0,0,9.869,0Zm.246.806h3.94l.692,1.385a.411.411,0,0,0,.359.227H13.7a.8.8,0,0,1,.806.806v7.654a.8.8,0,0,1-.806.806H1.611a.8.8,0,0,1-.806-.806V3.223a.8.8,0,0,1,.806-.806H4.633a.411.411,0,0,0,.359-.227Zm1.97,2.82A3.424,3.424,0,1,0,11.078,7.05,3.43,3.43,0,0,0,7.654,3.625m0,.806A2.618,2.618,0,1,1,5.035,7.05,2.612,2.612,0,0,1,7.654,4.431" fill="#fff"/>
</svg>
