<?xml version="1.0" encoding="UTF-8"?>
<svg xmlns="http://www.w3.org/2000/svg" width="35" height="35" version="1.1" viewBox="0 0 35 35">
    <path fill="#656666" class="off" d="M28,29.6h-8.1v-9.7h-4.9v9.7h-8v-13.8c3.1-3.7,6.4-7.1,9.8-10.4h1.3c3.5,3.3,6.8,6.7,9.8,10.4v13.8h0ZM13.5,28.1v-9.7h8.1v9.7h4.9v-11.7c-2.8-3.3-5.7-6.4-8.9-9.3-3.3,2.9-6.2,6-9,9.3v11.7h4.9Z"/>
    <path fill="#000000" class="on" d="M28,29.6h-8.1v-9.7h-4.9v9.7h-8v-13.8c3.1-3.7,6.3-7.1,9.8-10.4h1.3c3.5,3.3,6.8,6.7,9.8,10.4v13.8h0Z"/>
</svg>