<svg id="reações_-_grupo" data-name="reações - grupo" xmlns="http://www.w3.org/2000/svg" xmlns:xlink="http://www.w3.org/1999/xlink" width="71.209" height="18.798" viewBox="0 0 71.209 18.798">
  <defs>
    <clipPath id="clip-path">
      <rect id="Retângulo_1908" data-name="Retângulo 1908" width="71.209" height="18.798" fill="none"/>
    </clipPath>
  </defs>
  <g id="Grupo_4261" data-name="Grupo 4261" clip-path="url(#clip-path)">
    <path id="Caminho_1655" data-name="Caminho 1655" d="M91.6,1.357c5.524,0,8.992,3.468,8.992,8.962,0,5.463-3.5,8.961-8.992,8.961s-8.992-3.5-8.992-8.961c0-5.494,3.5-8.962,8.992-8.962m0,1.227c-4.787,0-7.733,2.947-7.733,7.734,0,4.756,2.977,7.734,7.733,7.734,4.787,0,7.734-2.977,7.734-7.734,0-4.787-2.947-7.734-7.734-7.734M88.958,14.278l-.736-.921A4.219,4.219,0,0,1,91.6,11.608a4.264,4.264,0,0,1,3.376,1.749l-.736.921a3.173,3.173,0,0,0-5.278,0m1.534-6.261a1.12,1.12,0,0,1-2.24,0,1.12,1.12,0,1,1,2.24,0m4.45,0a1.12,1.12,0,0,1-2.24,0,1.12,1.12,0,1,1,2.24,0" transform="translate(-29.381 -0.483)"/>
    <path id="Caminho_1656" data-name="Caminho 1656" d="M84.884,16.794a3.529,3.529,0,1,1-7.049,0,3.529,3.529,0,1,1,7.049,0" transform="translate(-28.134 -4.725)" fill="#fff"/>
    <path id="Caminho_1657" data-name="Caminho 1657" d="M84.884,12.194a3.529,3.529,0,1,1-7.049,0,3.529,3.529,0,1,1,7.049,0" transform="translate(-28.134 -3.873)" fill="#fff"/>
    <path id="Caminho_1658" data-name="Caminho 1658" d="M57.027,6.962h1.3V18.529h-1.3Zm9.743,1.3.526-3.4c.278-1.7-.463-3.093-1.546-3.093h-.371V3.559a3.942,3.942,0,0,1-.309,1.763l-1.392,2.66c-.65,1.206-1.515,1.547-3.032,1.547H59.625v-1.3h.9A2.019,2.019,0,0,0,62.749,6.9l.9-1.794a4.51,4.51,0,0,0,.464-2.227L64.079.529h1.794c1.949,0,3.032,1.979,2.753,4.268l-.279,2.2,4.7-.031a1.906,1.906,0,0,1,2.1,1.918,1.721,1.721,0,0,1-.5,1.3,1.923,1.923,0,0,1,.5,1.361,1.754,1.754,0,0,1-1.547,1.794,1.349,1.349,0,0,1,.247.773,1.829,1.829,0,0,1-1.515,1.825,1.356,1.356,0,0,1,.247.773,1.772,1.772,0,0,1-1.948,1.825H64.017c-1.546,0-2.072-1.3-3.464-1.3h-.928V15.963h1.361c1.547,0,2.258,1.3,3.5,1.3h6c.526,0,.835-.186.835-.65,0-.433-.309-.649-.835-.649h-.526V14.694h1.733c.619,0,.9-.186.9-.649s-.278-.649-.9-.649H69.955V12.1h3.032c.526,0,.866-.155.866-.649,0-.433-.34-.649-.866-.649H69.955V9.53h3.062c.526,0,.835-.155.835-.619s-.309-.68-.835-.68Z" transform="translate(-20.283 -0.188)"/>
    <path id="Caminho_1659" data-name="Caminho 1659" d="M45.488,12.4a21.015,21.015,0,0,1-5.381,4.649c-4.733-2.938-7.733-6.866-7.733-10.392,0-2.536,1.268-3.9,3.371-3.9,1.733,0,3.062,1.021,4.361,3.341,1.33-2.32,2.66-3.341,4.361-3.341A3.031,3.031,0,0,1,47.61,4.984h1.32a4.244,4.244,0,0,0-4.463-3.5A5.25,5.25,0,0,0,40.106,3.9a5.252,5.252,0,0,0-4.361-2.412c-2.877,0-4.64,1.887-4.64,5.165,0,4.206,3.4,8.475,8.506,11.6h.99a23.989,23.989,0,0,0,4.887-3.887Z" transform="translate(-11.063 -0.53)"/>
    <path id="Caminho_1660" data-name="Caminho 1660" d="M17.473,4.176C18.4,5.2,18.865,5.723,19.577,6.4A26.624,26.624,0,0,0,19.05,9.5l.557.34c1.236-.557,2.01-.928,2.876-1.392.669.346,1.235.64,1.992,1A11.59,11.59,0,0,1,24.093,7.9c-.716-.365-1.148-.611-1.578-.88-.526.309-1.021.618-1.979,1.082.155-.99.247-1.547.371-2.1-.773-.742-1.144-1.114-1.608-1.608,1.052-.155,1.608-.248,2.258-.279.433-.99.68-1.484.959-2.072.309.588.557,1.082.99,2.072.2.011.407.026.628.048a8.145,8.145,0,0,1,.345-1.239l-.106-.015c-.464-.928-.9-1.732-1.577-2.907h-.526c-.68,1.175-1.113,1.979-1.577,2.907-.99.124-1.763.278-3.093.556Z" transform="translate(-6.215 0)"/>
    <path id="Caminho_1661" data-name="Caminho 1661" d="M9.5,17.555c.4,3,2.227,4.454,4.485,4.454s4.083-1.454,4.485-4.454l-.557-.9H10.061Zm7.671.34c-.588,2.135-1.7,2.846-3.186,2.846-1.454,0-2.6-.711-3.186-2.846Z" transform="translate(-3.38 -5.924)"/>
    <path id="Caminho_1662" data-name="Caminho 1662" d="M2.133,9.836c1.238-.557,2.011-.928,2.877-1.392.9.464,1.609.835,2.845,1.392l.557-.34A27.468,27.468,0,0,0,7.918,6.4c.711-.68,1.237-1.237,2.133-2.227l-.123-.711C8.6,3.186,7.856,3.031,6.9,2.907,6.433,1.979,6,1.175,5.32,0H4.794C4.113,1.175,3.68,1.979,3.216,2.907c-.99.124-1.763.278-3.093.557L0,4.175C.927,5.2,1.392,5.722,2.1,6.4A26.487,26.487,0,0,0,1.577,9.5ZM1.825,4.392c1.052-.155,1.608-.248,2.258-.279.433-.99.681-1.484.959-2.072.31.588.557,1.082.99,2.072a16.065,16.065,0,0,1,2.2.279c-.464.495-.866.866-1.67,1.608.123.556.216,1.113.4,2.072A21.377,21.377,0,0,1,5.041,7.021c-.526.309-1.021.618-1.979,1.082.155-.99.247-1.547.371-2.1C2.66,5.258,2.289,4.887,1.825,4.392" transform="translate(0 0)"/>
    <path id="Caminho_1663" data-name="Caminho 1663" d="M19.87,17.2l-.594-.3c-.371,3.619-3.247,6.558-7.763,6.558-4.454,0-7.361-2.939-7.763-6.526l-1.206.525c.588,4.021,3.959,7.238,8.97,7.238,4.753,0,8-2.869,8.849-6.569q-.266-.458-.491-.921" transform="translate(-0.904 -6.01)"/>
    <path id="Caminho_1664" data-name="Caminho 1664" d="M14.707,2.2a9.723,9.723,0,0,1,2.783.4l.526-1.145A11.1,11.1,0,0,0,14.707.96a10.412,10.412,0,0,0-3.186.465l.495,1.144A9.128,9.128,0,0,1,14.707,2.2" transform="translate(-4.098 -0.341)"/>
  </g>
</svg>
