<svg xmlns="http://www.w3.org/2000/svg" width="30.6" height="30.608" viewBox="0 0 30.6 30.608">
  <g id="Busca" transform="translate(0.25 0.25)">
    <path id="Caminho_1487" data-name="Caminho 1487" d="M24.053,12.322a11.839,11.839,0,0,1-2.707,7.633L30,28.662,28.712,30l-8.7-8.749A11.965,11.965,0,0,1,12.071,24.2,12.16,12.16,0,0,1,0,11.876,11.815,11.815,0,0,1,11.982,0,12,12,0,0,1,24.053,12.322M11.938,1.876A9.832,9.832,0,0,0,1.864,11.831,10.3,10.3,0,0,0,12.115,22.322a9.834,9.834,0,0,0,10.074-9.955A10.244,10.244,0,0,0,11.938,1.876" transform="translate(0)" fill="#fff" stroke="#fff" stroke-width="0.5"/>
  </g>
</svg>
