<svg xmlns="http://www.w3.org/2000/svg" xmlns:xlink="http://www.w3.org/1999/xlink" width="19.971" height="20" viewBox="0 0 19.971 20">
  <defs>
    <clipPath id="clip-path">
      <rect id="Retângulo_1901" data-name="Retângulo 1901" width="19.971" height="20"/>
    </clipPath>
  </defs>
  <g id="Grupo_4248" data-name="Grupo 4248" clip-path="url(#clip-path)">
    <path id="Caminho_1640" data-name="Caminho 1640" d="M2.129,8.725A1.866,1.866,0,0,1,0,6.6V2.129A1.866,1.866,0,0,1,2.129,0H6.6A1.866,1.866,0,0,1,8.726,2.129V6.6A1.866,1.866,0,0,1,6.6,8.725ZM2.129,20A1.866,1.866,0,0,1,0,17.872V13.4a1.866,1.866,0,0,1,2.129-2.129H6.6A1.866,1.866,0,0,1,8.726,13.4v4.468A1.866,1.866,0,0,1,6.6,20ZM7.5,6.417V2.309c0-.78-.3-1.109-1.079-1.109H2.309c-.78,0-1.079.33-1.079,1.109V6.417c0,.78.3,1.11,1.079,1.11H6.417c.78,0,1.079-.33,1.079-1.11m0,11.275V13.583c0-.78-.3-1.109-1.079-1.109H2.309c-.78,0-1.079.33-1.079,1.109v4.108c0,.78.3,1.109,1.079,1.109H6.417c.78,0,1.079-.33,1.079-1.109m5.877-8.966A1.866,1.866,0,0,1,11.245,6.6V2.129A1.866,1.866,0,0,1,13.374,0h4.468a1.866,1.866,0,0,1,2.129,2.129V6.6a1.866,1.866,0,0,1-2.129,2.129Zm0,11.275a1.866,1.866,0,0,1-2.129-2.129V13.4a1.866,1.866,0,0,1,2.129-2.129h4.468A1.866,1.866,0,0,1,19.971,13.4v4.468A1.866,1.866,0,0,1,17.842,20ZM18.742,6.417V2.309c0-.78-.3-1.109-1.08-1.109H13.554c-.78,0-1.079.33-1.079,1.109V6.417c0,.78.3,1.11,1.079,1.11h4.108c.78,0,1.08-.33,1.08-1.11m0,11.275V13.583c0-.78-.3-1.109-1.08-1.109H13.554c-.78,0-1.079.33-1.079,1.109v4.108c0,.78.3,1.109,1.079,1.109h4.108c.78,0,1.08-.33,1.08-1.109" transform="translate(0 0)"/>
  </g>
</svg>
