<?xml version="1.0" encoding="UTF-8"?>
<svg id="Camada_1" xmlns="http://www.w3.org/2000/svg" version="1.1" viewBox="0 0 50 50">
  <!-- Generator: Adobe Illustrator 29.0.1, SVG Export Plug-In . SVG Version: 2.1.0 Build 192)  -->
  <path id="Caminho_1873" d="M30.7,41.6l-5.8-10.9h-6.6v10.9h-7.3V8.4h14.1c4,0,7.2,1,9.4,3,2.3,2.1,3.6,5.1,3.4,8.3,0,2.1-.5,4.2-1.6,6-1.1,1.7-2.6,3.1-4.5,3.9l7.1,12.2h-8.4ZM25.3,14.8h-7.1v9.7h7.1c1.4,0,2.8-.4,3.9-1.3.9-.9,1.5-2.2,1.4-3.5,0-1.3-.4-2.7-1.4-3.6-1.1-.9-2.5-1.4-3.9-1.3Z"/>
</svg>