<svg xmlns="http://www.w3.org/2000/svg" xmlns:xlink="http://www.w3.org/1999/xlink" width="31.436" height="42.02" viewBox="0 0 31.436 42.02">
  <defs>
    <clipPath id="clip-path">
      <rect id="Retângulo_1952" data-name="Retângulo 1952" width="31.436" height="42.02" fill="none"/>
    </clipPath>
  </defs>
  <g id="Grupo_4645" data-name="Grupo 4645" transform="translate(0 0)">
    <g id="Grupo_4644" data-name="Grupo 4644" transform="translate(0 0)" clip-path="url(#clip-path)">
      <path id="Caminho_1845" data-name="Caminho 1845" d="M31.436,18.4V42.019H0V18.773C0,15.433,1.134,13.1,5.606,13.1H7.812V7.874C7.812,2.835,10.647,0,15.5,0c4.913,0,8.063,2.77,8.063,7.874V13.1h2.2c3.844,0,5.669,1.953,5.669,5.293M5.606,15.749c-1.953,0-2.959.692-2.959,3.087V39.373H28.853V18.836c0-2.4-1.008-3.087-2.961-3.087Zm4.915-7.56V13.1H20.978V8.189c0-3.781-2.266-5.543-5.416-5.543-3.088,0-5.041,1.827-5.041,5.543m5.291,24.442V29.986h-.063c-3.213,0-5.228-1.953-5.228-5.1,0-3.087,2.016-5.039,5.228-5.039,3.15,0,5.228,1.953,5.228,5.039A4.753,4.753,0,0,1,18.4,29.42v5.8H12.726V32.631Zm-.063-10.2c-1.827,0-2.583.945-2.583,2.457,0,1.7.756,2.52,2.583,2.52a2.282,2.282,0,0,0,2.584-2.52,2.321,2.321,0,0,0-2.584-2.457" transform="translate(0 0.001)" fill="#1d1d1b"/>
    </g>
  </g>
</svg>
