<svg xmlns="http://www.w3.org/2000/svg" width="159.84" height="43" viewBox="0 0 159.84 43">
  <g id="Grupo_3757" data-name="Grupo 3757" transform="translate(-107.433 -15.5)">
    <path id="Caminho_1329" data-name="Caminho 1329" d="M11.231,0,0,21,11.231,42H14.44L25.672,21,18.451,7.5l-1.6,3L22.463,21,12.836,39,3.209,21,14.44,0Zm6.417,0L6.417,21l7.221,13.5,1.6-3L9.626,21,19.253,3,28.88,21,17.649,42h3.209L32.089,21,20.857,0Z" transform="translate(108 16)" fill="#fff" stroke="rgba(0,0,0,0)" stroke-width="1"/>
    <path id="Caminho_1873" data-name="Caminho 1873" d="M1.2-10.242H8.531V-8.18H3.438v2.563H8.047v1.969H3.438V0H1.2Zm9.023,0H17.6v2.031H12.461v2.07h4.656V-4.2H12.461v2.164H17.6V0H10.227Zm9.32,0h7.375v2.031H21.781v2.07h4.656V-4.2H21.781v2.164h5.141V0H19.547Zm9.32,0h4.367a5.606,5.606,0,0,1,2.746.672,4.862,4.862,0,0,1,1.9,1.84,5.1,5.1,0,0,1,.68,2.613,5.121,5.121,0,0,1-.68,2.617,4.8,4.8,0,0,1-1.9,1.836A5.659,5.659,0,0,1,33.234,0H28.867ZM33.234-8.18H31.1v6.117h2.133a3,3,0,0,0,2.191-.832,2.973,2.973,0,0,0,.848-2.223,2.986,2.986,0,0,0-.848-2.227A2.988,2.988,0,0,0,33.234-8.18ZM50.492,0,47.531-4.062H44.445V0h-.852V-10.242h3.742a4.483,4.483,0,0,1,2.832.8A2.738,2.738,0,0,1,51.2-7.148a2.8,2.8,0,0,1-.715,2,3.532,3.532,0,0,1-2.02,1L51.531,0ZM47.336-9.469H44.445v4.641h2.891a3.621,3.621,0,0,0,2.2-.59,2.018,2.018,0,0,0,.8-1.73,2.018,2.018,0,0,0-.8-1.73A3.621,3.621,0,0,0,47.336-9.469Zm6.594-.773h6.734v.773H54.781v3.883h5.406v.773H54.781V-.766h5.883V0H53.93Zm9.055,0h.852l7.117,8.914v-8.914H71.8V0h-.844L63.836-8.9V0h-.852Zm16.445,0L84.086,0h-.945L81.719-3.172H76.2L74.773,0h-.9l4.656-10.242Zm-2.9,6.3h4.852L78.961-9.344ZM93.051-1a4.238,4.238,0,0,1-3.16,1.16A4.238,4.238,0,0,1,86.73-1a4.412,4.412,0,0,1-1.145-3.238v-6h.852v6a3.739,3.739,0,0,0,.9,2.7,3.388,3.388,0,0,0,2.555.93,3.4,3.4,0,0,0,2.563-.93,3.739,3.739,0,0,0,.9-2.7v-6H94.2v6A4.412,4.412,0,0,1,93.051-1ZM97.3-10.242h.852V-.766h5.406V0H97.3Zm5.133.773v-.773h8.844v.773h-4V0h-.844V-9.469Z" transform="translate(156 43)" fill="#fff"/>
  </g>
</svg>
