<?xml version="1.0" encoding="UTF-8"?>
<svg id="amei" xmlns="http://www.w3.org/2000/svg" version="1.1" width="24px" height="24px" viewBox="0 0 24 24">
  <!-- Generator: Adobe Illustrator 29.3.0, SVG Export Plug-In . SVG Version: 2.1.0 Build 146)  -->
  <defs>
    <style>
      .st0 {
        fill: #ffffff;
      }
    </style>
  </defs>
  <path class="st0" d="M11.2,21h-.2c-5.4-3.4-8.6-7.9-8.6-12.1s1.7-5.9,5.4-5.9,3.1.6,4.2,1.7c1.1-1.1,2.6-1.7,4.2-1.7,3.3,0,5.4,2.3,5.4,5.9s-3.8,9-8.6,12h-.2c0,.1-1.6.1-1.6.1Z"/>
  <path id="off" d="M11.5,20c-4.9-3-8.1-7.1-8.1-11.1s1.7-4.9,4.4-4.9,3.3.9,4.2,2.3c.9-1.4,2.5-2.3,4.2-2.3,2.7,0,4.4,1.8,4.4,4.9s-3.2,8.1-8.1,11.1h-1ZM7.8,5.2c-2,0-3.2,1.3-3.2,3.7s2.9,7.1,7.4,9.9c4.5-2.8,7.4-6.6,7.4-9.9s-1.2-3.7-3.2-3.7-2.9,1-4.2,3.2c-1.2-2.2-2.5-3.2-4.2-3.2"/>
</svg>