<?xml version="1.0" encoding="UTF-8"?>
<svg id="Camada_1" xmlns="http://www.w3.org/2000/svg" version="1.1" width="24px" height="24px" viewBox="0 0 24 24">
  <!-- Generator: Adobe Illustrator 29.3.0, SVG Export Plug-In . SVG Version: 2.1.0 Build 146)  -->
  <defs>
    <style>
      .st0 {
        fill: #ffffff;
      }
    </style>
  </defs>
  <path class="st0" d="M12,2.2C6.1,2.2,2.2,6.1,2.2,12s3.9,9.8,9.8,9.8,9.8-3.8,9.8-9.8S18,2.2,12,2.2Z"/>
  <g id="off">
    <path d="M12,3.2c5.4,0,8.8,3.4,8.8,8.8s-3.4,8.8-8.8,8.8S3.2,17.3,3.2,12,6.6,3.2,12,3.2M12,4.4c-4.7,0-7.6,2.9-7.6,7.6s2.9,7.6,7.6,7.6,7.6-2.9,7.6-7.6-2.9-7.6-7.6-7.6M9.4,15.9l-.7-.9c.8-1.1,2-1.7,3.3-1.7s2.5.7,3.3,1.7l-.7.9c-.6-.8-1.6-1.3-2.6-1.4-1,0-2,.5-2.6,1.4M10.9,9.7c0,.5-.3,1-.9,1.1h-.3c-.5,0-1-.3-1.1-.9v-.2c0-.5.3-1,.8-1.1h.3c.5,0,1,.3,1.1.8v.3M15.3,9.7c0,.5-.3,1-.9,1.1h-.3c-.5,0-1-.3-1.1-.9v-.2c0-.5.3-1,.8-1.1h.3c.5,0,1,.3,1.1.8v.3"/>
  </g>
</svg>