<?xml version="1.0" encoding="UTF-8"?>
<svg id="aplausos" xmlns="http://www.w3.org/2000/svg" version="1.1" width="24px" height="24px" viewBox="0 0 24 24">
  <!-- Generator: Adobe Illustrator 29.3.0, SVG Export Plug-In . SVG Version: 2.1.0 Build 146)  -->
  <defs>
    <style>
      .st0 {
        fill: #ffffff;
      }
    </style>
  </defs>
  <path class="st0" d="M25.4,21l-1.4-2.9v-.3c.3-.6.5-1.4.5-2.1,0-1.2-.4-2.2-.8-2.9l-.9-1.9-1.6-3.2-.5-1.1c-.2-.7-.8-1.2-1.5-1.4l2.7-1.4-1.4-2.8-2.8,1.4.8-2.5-2.9-1-.8,2.5-1.4-2.8L10.8,0l1.3,2.7c-.1,0-.2,0-.3,0-.5,0-.9.1-1.3.3-.6-.9-1.5-1.4-2.5-1.4s-.6,0-.8.2c-.5-.8-1.4-1.3-2.4-1.3-1.4,0-2.5,1-2.7,2.4h0c-.9.4-1.6,1.4-1.6,2.4s0,.9.4,1.4l2,4.2c-.2,0-.5-.1-.8-.1-1.4,0-2.6,1.2-2.6,2.7s.5,1.8,1.2,2.2l6.7,4.6,1.4,3,2.8-1.4-.8-1.8,3.6,2.5,1.4,3h.2c0,0,0,0,0,0l9.4-4.3v-.2c0,0,0,0,0,0Z"/>
  <g id="off">
    <path id="Caminho_1529" d="M23,18.2l.2-.7c.2-.6.4-1.2.4-1.8,0-.9-.3-1.7-.7-2.5h0l-.9-1.9h0l-1.6-3.2-.5-1.1c-.2-.6-.9-1-1.6-1s-1,.3-1.2.7l-.5-.9c-.2-.6-.9-1-1.6-1s-1,.3-1.2.7l-.4-.8c-.2-.6-.9-1-1.6-1s-1.6.6-1.7,1.5h0c0,.2,0,.5.1.7-.9,0-1.7.7-1.7,1.6s0,.6.2.9l3.5,7.2-1.9-1.2c-.4-.2-.8-.4-1.2-.4-.9,0-1.6.8-1.6,1.7s.3,1.1.8,1.4l6.9,4.8,1.1,2.3,1-.5-1.2-2.6-7.1-4.8c-.3-.2-.4-.4-.4-.6,0-.3.2-.5.5-.5h0c.2,0,.4.1.5.2l3.4,2.1.9-.8-4.1-8.6v-.3c0-.3.4-.5.7-.5s.4,0,.5.3l3,5.9,1-.5-2.9-5.8-.7-1.3v-.3c0-.3.3-.6.7-.5.2,0,.4,0,.5.3l3.8,7.5,1-.5-2.7-5.4v-.3c0-.3.3-.6.7-.5.2,0,.4,0,.5.3l.5,1h0l2.5,4.9.9-.5h0l-1.8-3.6c-.2-.3,0-.6.2-.8h.4c.2,0,.4,0,.5.3l2.6,5.2c.6,1,.9,2.1,1,3.2,0,.6-.1,1.2-.4,1.7l-.3.9,1.1,2.2,1-.5-.9-1.9-.2-.4Z"/>
    <path id="Caminho_1530" d="M1.7,13.9c-.3-.2-.4-.4-.4-.6,0-.3.2-.5.5-.5h0c.2,0,.4.1.5.2l3.5,2.1.9-.8L2.5,5.6v-.3c0-.3.4-.5.7-.5s.4,0,.5.3l3,5.9,1-.5-2.9-5.8-.7-1.3v-.3c0-.3.3-.6.7-.5.2,0,.4,0,.5.3l2.3,4.6c0-.5.2-1.1.5-1.5l-.7-1.5v-.3c0-.3.3-.6.7-.5.2,0,.4,0,.5.3l.5,1h0v.2h.2c0-.5.2-.9.4-1.3v-.3c-.4-.6-1-1-1.7-1s-1,.3-1.2.7l-.4-.8c-.2-.6-.9-1-1.6-1s-1.6.6-1.7,1.5h0c0,.2,0,.5,0,.7-.9,0-1.7.7-1.7,1.6s0,.6.2.8l3.5,7.2-1.9-1.2c-.4-.2-.8-.4-1.2-.4-.9,0-1.6.8-1.6,1.7s.3,1.1.8,1.4l6.9,4.8,1.1,2.3,1-.5-1.2-2.6L1.7,13.9Z"/>
    <path id="Caminho_1536" d="M14.4,2.6l-1.3-2.6-1,.5,1.3,2.6,1-.5Z"/>
    <path id="Caminho_1537" d="M20.7,3.4l-.5-1-2.6,1.3.5,1s2.6-1.3,2.6-1.3Z"/>
    <rect id="Retângulo_1800" x="15" y="1.2" width="2.9" height="1.1" transform="translate(9.6 16.8) rotate(-71.6)"/>
  </g>
</svg>