<?xml version="1.0" encoding="UTF-8"?>
<svg id="curtidinha" xmlns="http://www.w3.org/2000/svg" version="1.1" width="24px" height="24px" viewBox="0 0 24 24">
  <!-- Generator: Adobe Illustrator 29.3.0, SVG Export Plug-In . SVG Version: 2.1.0 Build 146)  -->
  <defs>
    <style>
      .st0 {
        fill: #ffffff;
      }
    </style>
  </defs>
  <path class="st0" d="M22.1,11.4v-.3c-.1-1.5-1.4-2.6-3.1-2.6h-3.6l.2-1.1c.1-1.7-.3-3.2-1.2-4.2-.7-.7-1.6-1.1-2.6-1.1h-2.8v3.4c0,.5-.2,1.2-.4,1.8l-.9,1.9h0c-.1.5-.5.7-.9.7s-.1,0-.2,0h0s-1.4,0-1.4,0v-1.3H1.8v13.6h3.3v-1.2h1.4c.4,0,.7.2,1.2.5.6.4,1.3.8,2.3.8h6.8c1.5,0,2.7-1.2,2.7-2.8s0-.1,0-.2c.8-.5,1.3-1.4,1.3-2.4s0-.1,0-.2c.8-.5,1.3-1.4,1.3-2.4s-.1-.9-.3-1.4c.2-.4.3-.9.3-1.3Z"/>
  <g id="off">
    <path id="Caminho_1524" d="M2.8,9.4h1.3v11.6h-1.3v-11.6ZM12.6,10.7l.5-3.4c.3-1.7-.5-3.1-1.5-3.1h-.4v1.8c0,.6,0,1.2-.3,1.8l-1.4,2.7c-.7,1.2-1.5,1.5-3,1.5h-1v-1.3h.9c1,.2,1.9-.4,2.2-1.3l.9-1.8c.3-.7.5-1.5.5-2.2v-2.4h1.8c1.9,0,3,2,2.8,4.3l-.3,2.2h4.7c1,0,2,.6,2.1,1.7v.2c0,.5-.2,1-.5,1.3.3.4.5.9.5,1.4,0,.9-.6,1.7-1.5,1.8.2.2.2.5.2.8,0,.9-.6,1.7-1.5,1.8.2.2.2.5.2.8,0,1-.7,1.8-1.7,1.8h-6.8c-1.5,0-2.1-1.3-3.5-1.3h-.9v-1.3h1.4c1.5,0,2.3,1.3,3.5,1.3h6c.5,0,.8-.2.8-.6s-.3-.6-.8-.6h-.5v-1.3h1.7c.6,0,.9-.2.9-.6s-.3-.6-.9-.6h-1.7v-1.3h3c.5,0,.9-.2.9-.6s-.3-.6-.9-.6h-3v-1.3h3.1c.5,0,.8-.2.8-.6s-.3-.7-.8-.7h-6.2s-.3-.3-.3-.3Z"/>
  </g>
</svg>