<?xml version="1.0" encoding="UTF-8"?>
<svg id="uau_" xmlns="http://www.w3.org/2000/svg" version="1.1" width="24px" height="24px" viewBox="0 0 24 24">
  <!-- Generator: Adobe Illustrator 29.3.0, SVG Export Plug-In . SVG Version: 2.1.0 Build 146)  -->
  <defs>
    <style>
      .st0 {
        fill: #ffffff;
      }
    </style>
  </defs>
  <path class="st0" d="M22,5.5c-.5,0-.9-.2-1.3-.2s-.7-.1-1.1-.2c-.2-.4-.5-.9-.8-1.4l-.8-1.4h-1.6s-.6.9-.7,1.1h-.3c-1.2-.5-2.3-.6-3.4-.6s-2.3.1-3.3.4l-.5.2-.6-1.1h-1.6l-.3.5c-.6.9-1,1.5-1.3,2.3-.7,0-1.4.2-2.5.4l-.8.2v1.9l.8.8c.4.5.8.9,1.1,1.2-.2.8-.3,1.6-.4,2.4v.6c0,0,.5.3.5.3l-.5.2v.7c.7,4.5,4.6,7.7,9.5,7.7s8.7-3,9.4-7.5v-.7c.1,0-.5-.4-.5-.4l.6-.4v-.6c-.2-.9-.3-1.6-.5-2.4.5-.5,1-1.1,1.6-1.8l.2-.3v-1.9h-.8Z"/>
  <path id="off" d="M9.4,12.5c-1.2-.5-1.8-.9-2.7-1.3-.8.4-1.5.8-2.7,1.3l-.5-.3c0-1,.3-1.9.5-2.9-.7-.6-1.1-1.1-2-2.1v-.7c1.4-.3,2.1-.4,3-.5.4-.9.8-1.6,1.5-2.7h.5c.6,1.1,1,1.9,1.5,2.7.9,0,1.6.3,2.8.5v.7c-.7.9-1.2,1.5-1.9,2.1.2,1,.4,1.9.5,2.9,0,0-.5.3-.5.3ZM4.7,13.5c.4,3.6,3.6,6.3,7.3,6.1,4.2,0,6.9-2.8,7.3-6.2l1.1.6c-.6,3.7-3.7,6.7-8.4,6.7s-7.9-3-8.4-6.8l1.1-.5h0ZM4.9,10.8c.9-.4,1.4-.7,1.9-1,.6.4,1.2.7,1.8,1-.2-.9-.3-1.4-.4-1.9.8-.7,1.1-1,1.6-1.5-.7,0-1.4-.2-2.1-.3-.4-.9-.6-1.4-.9-1.9-.3.6-.5,1-.9,1.9-.6,0-1.1,0-2.1.3.4.5.8.8,1.5,1.5,0,.5-.2,1-.3,2M8.3,13.3h7.4l.5.8c-.4,2.8-2.1,4.2-4.2,4.2s-3.8-1.4-4.2-4.2c0,0,.5-.8.5-.8ZM14.6,5.4c-.8-.3-1.7-.4-2.6-.4s-1.7,0-2.5.3l-.5-1.1c1-.3,2-.4,3-.4s2.1.2,3.1.5l-.5,1.1ZM14.9,14.5h-6c.6,2,1.6,2.7,3,2.7s2.4-.7,3-2.7M19.9,12.5c-1.2-.5-1.8-.9-2.7-1.3-.8.4-1.5.8-2.7,1.3l-.5-.3c.1-1,.3-1.9.5-2.9-.7-.6-1.1-1.1-2-2.1v-.7c1.4-.3,2.1-.4,3-.5.4-.9.8-1.6,1.5-2.7h.5c.6,1.1,1,1.9,1.5,2.7.9,0,1.6.3,2.8.5v.7c-.7.9-1.2,1.5-1.9,2.1.2,1,.4,1.9.5,2.9,0,0-.5.3-.5.3ZM15.4,10.8c.9-.4,1.4-.7,1.9-1,.6.4,1.2.7,1.8,1-.2-.9-.3-1.4-.4-1.9.8-.7,1.1-1,1.6-1.5-.7,0-1.4-.2-2.1-.3-.4-.9-.6-1.4-.9-1.9-.3.6-.5,1-.9,1.9-.6,0-1.1,0-2.1.3.4.5.8.8,1.5,1.5-.1.5-.2,1-.3,2"/>
</svg>