<svg xmlns="http://www.w3.org/2000/svg" width="48" height="48" viewBox="0 0 48 48"><g transform="translate(-883 -256)"><circle cx="24" cy="24" r="24" transform="translate(883 256)" fill="#ffd500"/><path d="M149.119,348.71a14.783,14.783,0,0,1-10.516-4.357,1.487,1.487,0,0,1,2.1-2.1,12.177,12.177,0,0,0,16.824,0,1.487,1.487,0,1,1,2.1,2.1A14.771,14.771,0,0,1,149.119,348.71Z" transform="translate(758.382 -56.049)" fill="#6d4c41"/><ellipse cx="3" cy="3.5" rx="3" ry="3.5" transform="translate(896 270)" fill="#6d4c41"/><ellipse cx="3" cy="3.5" rx="3" ry="3.5" transform="translate(913 270)" fill="#6d4c41"/></g></svg>