<svg xmlns="http://www.w3.org/2000/svg" width="28.971" height="30.744" viewBox="0 0 28.971 30.744"><g transform="translate(0.125 0.125)"><path d="M294.12,462.952h17.1a2.311,2.311,0,0,1,2.308,2.308v5.566a.5.5,0,0,1-1,0V465.26a1.31,1.31,0,0,0-1.308-1.308h-17.1a1.31,1.31,0,0,0-1.307,1.308v25.878a1.31,1.31,0,0,0,1.307,1.308h17.1a1.31,1.31,0,0,0,1.308-1.308v-5.566a.5.5,0,0,1,1,0v5.566a2.311,2.311,0,0,1-2.308,2.308h-17.1a2.31,2.31,0,0,1-2.307-2.308V465.26A2.31,2.31,0,0,1,294.12,462.952Z" transform="translate(-291.813 -462.952)" fill="#747474" stroke="#747474" stroke-width="0.25"/><path d="M295.559,483.23a.5.5,0,0,1-.269-.921l5.667-3.61H285.311a.5.5,0,0,1,0-1h15.646l-5.667-3.609a.5.5,0,1,1,.537-.844l7.115,4.531a.5.5,0,0,1,0,.844l-7.115,4.532A.5.5,0,0,1,295.559,483.23Z" transform="translate(-274.452 -462.952)" fill="#747474" stroke="#747474" stroke-width="0.25"/></g></svg>