<svg xmlns="http://www.w3.org/2000/svg" width="29.75" height="29.75" viewBox="0 0 29.75 29.75"><path d="M233.086,492.953H230.04a1.538,1.538,0,0,1-1.536-1.536v-1.3a.992.992,0,0,0-.676-.934,11.525,11.525,0,0,1-1.418-.593.936.936,0,0,0-1.08.17l-.948.948a1.539,1.539,0,0,1-1.086.44h0a1.538,1.538,0,0,1-1.086-.44l-2.154-2.154a1.536,1.536,0,0,1,0-2.171l.961-.961a.936.936,0,0,0,.171-1.077,11.284,11.284,0,0,1-.586-1.418.972.972,0,0,0-.919-.666h-1.335a1.537,1.537,0,0,1-1.535-1.536v-3.047a1.537,1.537,0,0,1,1.535-1.535h1.36a.974.974,0,0,0,.917-.663,11.5,11.5,0,0,1,.585-1.393.938.938,0,0,0-.169-1.082l-.985-.985a1.534,1.534,0,0,1,0-2.171l2.154-2.155a1.541,1.541,0,0,1,1.085-.439h0a1.542,1.542,0,0,1,1.086.439l1,1a.936.936,0,0,0,1.078.17,11.5,11.5,0,0,1,1.394-.578.953.953,0,0,0,.653-.9v-1.4a1.537,1.537,0,0,1,1.536-1.535h3.046a1.537,1.537,0,0,1,1.536,1.535v1.4a.953.953,0,0,0,.653.9,11.5,11.5,0,0,1,1.394.578.936.936,0,0,0,1.078-.17l1-1a1.539,1.539,0,0,1,2.172,0l2.154,2.155a1.535,1.535,0,0,1,0,2.172l-.985.984a.935.935,0,0,0-.168,1.082,11.554,11.554,0,0,1,.583,1.394.976.976,0,0,0,.917.662h1.36a1.537,1.537,0,0,1,1.536,1.535v3.047a1.538,1.538,0,0,1-1.536,1.536h-1.335a.973.973,0,0,0-.918.667,11.578,11.578,0,0,1-.586,1.417.937.937,0,0,0,.171,1.077l.961.961a1.538,1.538,0,0,1,0,2.171l-2.154,2.154a1.538,1.538,0,0,1-2.172,0l-.949-.949a.936.936,0,0,0-1.08-.17,11.447,11.447,0,0,1-1.417.593.992.992,0,0,0-.676.934v1.3A1.538,1.538,0,0,1,233.086,492.953Zm-7.1-5.393a1.89,1.89,0,0,1,.84.2,10.57,10.57,0,0,0,1.3.546,1.92,1.92,0,0,1,1.306,1.814v1.3a.606.606,0,0,0,.6.605h3.046a.606.606,0,0,0,.6-.605v-1.3A1.922,1.922,0,0,1,235,488.3a10.417,10.417,0,0,0,1.3-.545,1.867,1.867,0,0,1,2.153.345l.949.949a.608.608,0,0,0,.856,0l2.154-2.154a.607.607,0,0,0,0-.855l-.961-.961a1.865,1.865,0,0,1-.348-2.147,10.329,10.329,0,0,0,.539-1.3,1.9,1.9,0,0,1,1.8-1.3h1.335a.606.606,0,0,0,.605-.6v-3.047a.606.606,0,0,0-.605-.6h-1.36a1.905,1.905,0,0,1-1.8-1.29,10.54,10.54,0,0,0-.537-1.281,1.866,1.866,0,0,1,.344-2.155l.985-.985a.6.6,0,0,0,0-.855l-2.154-2.154a.606.606,0,0,0-.856,0l-1,1a1.867,1.867,0,0,1-2.148.347,10.65,10.65,0,0,0-1.281-.532,1.882,1.882,0,0,1-1.285-1.781v-1.4a.606.606,0,0,0-.6-.605H230.04a.606.606,0,0,0-.6.605v1.4a1.882,1.882,0,0,1-1.285,1.781,10.648,10.648,0,0,0-1.281.532,1.869,1.869,0,0,1-2.149-.347l-1-1a.6.6,0,0,0-.428-.167h0a.6.6,0,0,0-.427.167l-2.155,2.154a.6.6,0,0,0,0,.855l.985.985a1.866,1.866,0,0,1,.344,2.155,10.517,10.517,0,0,0-.537,1.281,1.905,1.905,0,0,1-1.8,1.29h-1.36a.606.606,0,0,0-.6.6v3.047a.606.606,0,0,0,.6.6h1.335a1.9,1.9,0,0,1,1.8,1.3,10.548,10.548,0,0,0,.54,1.3,1.865,1.865,0,0,1-.348,2.147l-.961.961a.6.6,0,0,0,0,.855l2.154,2.154a.606.606,0,0,0,.428.167h0a.6.6,0,0,0,.427-.167l.949-.948A1.856,1.856,0,0,1,225.986,487.56Zm5.577-1.717a7.64,7.64,0,1,1,7.641-7.64A7.649,7.649,0,0,1,231.563,485.843Zm0-14.351a6.71,6.71,0,1,0,6.71,6.711A6.718,6.718,0,0,0,231.563,471.492Z" transform="translate(-216.688 -463.328)" fill="#747474" stroke="#747474" stroke-width="0.25"/></svg>