<svg xmlns="http://www.w3.org/2000/svg" width="33.765" height="29.5" viewBox="0 0 33.765 29.5">
  <g id="Group_1513" data-name="Group 1513" transform="translate(-46.258 -406.25)">
    <path id="Path_484" data-name="Path 484" d="M79.49,431.154a.533.533,0,0,0-.533.533v2.843a1.6,1.6,0,0,1-1.6,1.6H48.924a1.6,1.6,0,0,1-1.6-1.6V413.916a1.6,1.6,0,0,1,1.6-1.6H71.671a.533.533,0,0,0,0-1.066H48.924a2.669,2.669,0,0,0-2.666,2.666V434.53a2.669,2.669,0,0,0,2.666,2.666H77.357a2.669,2.669,0,0,0,2.666-2.666v-2.843A.533.533,0,0,0,79.49,431.154Z" transform="translate(0 -1.446)" fill="#747474"/>
    <path id="Path_485" data-name="Path 485" d="M51.791,441.25a.533.533,0,0,0,0,1.066h12.8a.533.533,0,0,0,0-1.066Z" transform="translate(-1.446 -10.12)" fill="#747474"/>
    <path id="Path_486" data-name="Path 486" d="M72.228,436.783a.533.533,0,0,0-.533-.533h-19.9a.533.533,0,0,0,0,1.066h19.9A.533.533,0,0,0,72.228,436.783Z" transform="translate(-1.446 -8.675)" fill="#747474"/>
    <path id="Path_487" data-name="Path 487" d="M71.695,431.25h-19.9a.533.533,0,1,0,0,1.066h19.9a.533.533,0,1,0,0-1.066Z" transform="translate(-1.446 -7.229)" fill="#747474"/>
    <path id="Path_488" data-name="Path 488" d="M71.695,426.25h-19.9a.533.533,0,0,0,0,1.066h19.9a.533.533,0,0,0,0-1.066Z" transform="translate(-1.446 -5.783)" fill="#747474"/>
    <path id="Path_489" data-name="Path 489" d="M71.695,416.25h-19.9a.533.533,0,0,0,0,1.066h19.9a.533.533,0,0,0,0-1.066Z" transform="translate(-1.446 -2.892)" fill="#747474"/>
    <path id="Path_490" data-name="Path 490" d="M71.695,421.25h-19.9a.533.533,0,1,0,0,1.066h19.9a.533.533,0,1,0,0-1.066Z" transform="translate(-1.446 -4.337)" fill="#747474"/>
    <path id="Path_491" data-name="Path 491" d="M89.056,406.25H86.213a2.06,2.06,0,0,0-1.955,1.955v16.35h0a.544.544,0,0,0,.061.242l2.839,5.677a.533.533,0,0,0,.954,0L90.95,424.8a.509.509,0,0,0,.061-.242h0V408.2A2.059,2.059,0,0,0,89.056,406.25Zm-1.422,22.8-1.98-3.962h3.961Zm2.31-5.028h-4.62v-12.44h4.62Zm0-13.506h-4.62V408.2a1.007,1.007,0,0,1,.889-.889h2.843a1.007,1.007,0,0,1,.889.889Z" transform="translate(-10.988)" fill="#747474"/>
  </g>
</svg>
