<svg id="Grupo_2656" data-name="Grupo 2656" xmlns="http://www.w3.org/2000/svg" width="20.533" height="18" viewBox="0 0 20.533 18">
  <g id="Grupo_2652" data-name="Grupo 2652" transform="translate(0 0)">
    <path id="Caminho_863" data-name="Caminho 863" d="M7.57,9.477C6.378,8.94,5.692,8.583,4.828,8.136c-.835.447-1.579.8-2.772,1.341L1.52,9.149a25.533,25.533,0,0,1,.507-2.981C1.342,5.513.894,5.007,0,4.023l.119-.685C1.4,3.069,2.146,2.92,3.1,2.8c.446-.895.864-1.669,1.52-2.8h.506C5.782,1.132,6.2,1.907,6.646,2.8c.924.119,1.639.268,2.921.536l.119.685c-.864.954-1.371,1.491-2.056,2.146a26.185,26.185,0,0,1,.477,2.981ZM2.742,10.52a7.123,7.123,0,0,0,7.48,6.288c4.351,0,7.123-2.831,7.48-6.319l1.162.6C18.268,14.931,15.05,18,10.222,18s-8.076-3.1-8.642-6.974ZM2.95,7.808c.924-.448,1.4-.745,1.908-1.043A20.568,20.568,0,0,0,6.705,7.778c-.179-.924-.268-1.46-.387-2,.775-.715,1.162-1.073,1.609-1.55a15.353,15.353,0,0,0-2.116-.268c-.417-.954-.656-1.43-.954-2-.268.566-.507,1.042-.924,2-.626.029-1.162.119-2.175.268.447.477.8.834,1.55,1.55-.119.536-.208,1.073-.358,2.026m3.487,2.533h7.57l.536.865C14.156,14.1,12.4,15.5,10.222,15.5S6.288,14.1,5.9,11.206ZM12.9,2.176a9.376,9.376,0,0,0-2.683-.388,8.8,8.8,0,0,0-2.593.358l-.477-1.1A10.032,10.032,0,0,1,10.222.6a10.712,10.712,0,0,1,3.189.476Zm.387,9.357H7.152c.566,2.057,1.669,2.742,3.069,2.742,1.431,0,2.5-.685,3.07-2.742m5.125-2.056c-1.192-.536-1.877-.894-2.742-1.341-.834.447-1.58.8-2.771,1.341l-.537-.328a25.652,25.652,0,0,1,.507-2.981c-.686-.655-1.133-1.162-2.027-2.146l.119-.685c1.282-.268,2.027-.417,2.981-.536.447-.895.864-1.669,1.52-2.8h.506c.656,1.132,1.073,1.907,1.52,2.8.924.119,1.64.268,2.921.536l.119.685c-.864.954-1.371,1.491-2.057,2.146a26.31,26.31,0,0,1,.477,2.981ZM13.8,7.808c.924-.448,1.4-.745,1.907-1.043a20.6,20.6,0,0,0,1.848,1.013c-.179-.924-.269-1.46-.387-2,.775-.715,1.162-1.073,1.609-1.55a15.359,15.359,0,0,0-2.116-.268c-.417-.954-.656-1.43-.954-2-.268.566-.507,1.042-.924,2-.626.029-1.162.119-2.175.268.447.477.8.834,1.55,1.55-.119.536-.209,1.073-.358,2.026" transform="translate(0 0)"/>
  </g>
</svg>
