<svg xmlns="http://www.w3.org/2000/svg" xmlns:xlink="http://www.w3.org/1999/xlink" width="17.844" height="26.839" viewBox="0 0 17.844 26.839">
  <defs>
    <clipPath id="clip-path">
      <rect id="Retângulo_765" data-name="Retângulo 765" width="17.844" height="26.839"/>
    </clipPath>
  </defs>
  <g id="Grupo_2632" data-name="Grupo 2632" transform="translate(0 0)">
    <g id="Grupo_2632-2" data-name="Grupo 2632" transform="translate(0 0)" clip-path="url(#clip-path)">
      <path id="Caminho_905" fill="#000000" data-name="Caminho 905" d="M10.72,9.169c-.321.643-.607,1.213-1.106,2.356-.749.035-1.392.143-2.605.321a21.81,21.81,0,0,0,1.856,1.891c-.143.642-.25,1.284-.428,2.427,1.106-.536,1.677-.892,2.284-1.249a24.582,24.582,0,0,0,2.213,1.213c-.215-1.107-.322-1.749-.464-2.391.928-.856,1.392-1.321,1.962-1.891-1.213-.178-1.891-.286-2.569-.321A24.826,24.826,0,0,0,10.72,9.169" transform="translate(-1.798 -2.352)"/>
      <path id="Caminho_906" fill="#000000" data-name="Caminho 906" d="M15.31,0H2.534A2.221,2.221,0,0,0,0,2.534v23.8l1.248.5,7.674-4.783L16.6,26.8l1.249-.463V2.534A2.222,2.222,0,0,0,15.31,0M12.134,11.849a29.119,29.119,0,0,1,.678,3.569l-.642.392c-1.427-.642-2.249-1.071-3.283-1.606-1,.535-1.892.964-3.32,1.606l-.642-.392a28.342,28.342,0,0,1,.714-3.569C4.782,11.063,4.211,10.457,3.1,9.28l.143-.822c1.534-.285,2.427-.428,3.569-.535.535-1.106,1.034-2.07,1.82-3.462h.607c.785,1.392,1.285,2.355,1.821,3.462,1.106.107,1.962.25,3.5.535l.142.822c-1.07,1.142-1.713,1.784-2.569,2.569" transform="translate(0 0)"/>
    </g>
  </g>
</svg>
