<svg xmlns="http://www.w3.org/2000/svg" width="22.437" height="19.106" viewBox="0 0 22.437 19.106"><path d="M129.749,9.867a.863.863,0,0,0-1.2,0l-2.843,2.842V.863a.863.863,0,1,0-1.726,0V12.709l-2.842-2.842a.863.863,0,0,0-1.22,1.22l4.315,4.315a.863.863,0,0,0,1.22,0l0,0,4.315-4.315a.863.863,0,0,0-.021-1.22" transform="translate(-113.625)" fill="#000000"/><path d="M21.574,207.2a.863.863,0,0,0-.863.863v5.178a.863.863,0,0,1-.863.863H2.589a.863.863,0,0,1-.863-.863v-5.178a.863.863,0,0,0-1.726,0v5.178a2.589,2.589,0,0,0,2.589,2.589H19.848a2.589,2.589,0,0,0,2.589-2.589v-5.178a.863.863,0,0,0-.863-.863" transform="translate(0 -196.722)" fill="#000000"/></svg>