<svg xmlns="http://www.w3.org/2000/svg" xmlns:xlink="http://www.w3.org/1999/xlink" width="20.914" height="20.77" viewBox="0 0 20.914 20.77">
  <defs>
    <clipPath id="clip-path">
      <rect id="Retângulo_423" data-name="Retângulo 423" width="20.914" height="20.77" fill="#888b8d"/>
    </clipPath>
  </defs>
  <g id="Grupo_2141" data-name="Grupo 2141" transform="translate(0 0)">
    <g id="Grupo_2140" data-name="Grupo 2140" transform="translate(0 0)" clip-path="url(#clip-path)">
      <path id="Caminho_737" data-name="Caminho 737" d="M0,7.423H1.5V20.77H0Zm11.242,1.5L11.848,5c.321-1.963-.535-3.569-1.784-3.569H9.636V3.5a4.548,4.548,0,0,1-.357,2.034L7.673,8.6c-.75,1.392-1.749,1.785-3.5,1.785H3v-1.5H4.033A2.33,2.33,0,0,0,6.6,7.352L7.638,5.282a5.2,5.2,0,0,0,.535-2.569L8.137,0h2.07c2.249,0,3.5,2.284,3.177,4.925l-.322,2.534,5.425-.036a2.2,2.2,0,0,1,2.427,2.213,1.986,1.986,0,0,1-.572,1.5,2.219,2.219,0,0,1,.572,1.57,2.023,2.023,0,0,1-1.785,2.07,1.556,1.556,0,0,1,.285.892,2.11,2.11,0,0,1-1.749,2.105,1.565,1.565,0,0,1,.285.892A2.044,2.044,0,0,1,15.7,20.771H8.066c-1.784,0-2.391-1.5-4-1.5H3V17.808h1.57c1.785,0,2.605,1.5,4.033,1.5h6.924c.607,0,.964-.214.964-.75,0-.5-.357-.749-.964-.749h-.607V16.345h2c.714,0,1.035-.214,1.035-.749s-.321-.749-1.035-.749h-2v-1.5h3.5c.607,0,1-.178,1-.749,0-.5-.393-.749-1-.749h-3.5V10.385h3.534c.607,0,.964-.178.964-.714s-.356-.784-.964-.784Z" transform="translate(0 0)" fill="#888b8d"/>
    </g>
  </g>
</svg>
