<svg xmlns="http://www.w3.org/2000/svg" xmlns:xlink="http://www.w3.org/1999/xlink" width="31.317" height="27.386" viewBox="0 0 31.317 27.386"><defs><linearGradient id="a" x1="0.5" x2="0.5" y2="1" gradientUnits="objectBoundingBox"><stop offset="0" stop-color="#ffd500"/><stop offset="1" stop-color="#fab600"/></linearGradient></defs><g transform="translate(0.107 0.075)"><path d="M-2234.689,784.034a1.713,1.713,0,0,1-.424-2.843c1.614-1.7,2.321-1.83,2.277-6.005s.5-4.495,1.423-6.5,3.918-3.353,3.918-3.353.1-2.289,2.114-2.553,1.951,2.553,1.951,2.553,4.245.69,5.207,4.483-.413,7.421,1.114,9.435,2.565,2.313,2.321,3.446-.56,1.4-2.321,1.338-5.832,0-5.832,0,.071,2.983-2.25,2.917-2.592-2.917-2.592-2.917Z" transform="translate(2236.21 -762.421)" fill="url(#a)"/><path d="M32.661,26.545c-1.911-1.291-1.847-3.085-1.77-5.357a13.651,13.651,0,0,0-.38-4.569,8.11,8.11,0,0,0-5.423-5.7h0a2.383,2.383,0,1,0-4.766,0h.114a8.107,8.107,0,0,0-5.422,5.7,13.651,13.651,0,0,0-.38,4.569c.079,2.272.14,4.067-1.77,5.357a2.352,2.352,0,0,0-1,2.663,1.937,1.937,0,0,0,1.8,1.448h6.179a2.916,2.916,0,0,0,5.83,0h6.18a1.937,1.937,0,0,0,1.8-1.448A2.352,2.352,0,0,0,32.661,26.545ZM22.707,9.621a1.3,1.3,0,0,1,1.273,1.057c-.222-.032-.446-.056-.674-.07H22.219c-.267.016-.529.049-.786.09A1.3,1.3,0,0,1,22.707,9.621Zm.055,22.812c-1.019,0-1.652-.626-1.82-1.775h3.641C24.414,31.807,23.782,32.433,22.762,32.433Zm9.855-3.541a.874.874,0,0,1-.761.679H13.667a.874.874,0,0,1-.761-.679,1.25,1.25,0,0,1,.565-1.446c2.409-1.627,2.328-4,2.248-6.3a12.618,12.618,0,0,1,.335-4.213c1.028-3.346,3.473-5.264,6.707-5.264s5.679,1.919,6.707,5.264a12.627,12.627,0,0,1,.334,4.213c-.079,2.3-.163,4.668,2.248,6.3A1.249,1.249,0,0,1,32.618,28.892Z" transform="translate(-11.77 -8.534)" fill="#fff" stroke="#fff" stroke-width="0.15"/><g transform="translate(2234.21 -762.421)"><circle cx="5.743" cy="5.743" r="5.743" transform="translate(-2211.122 773.488) rotate(45)" fill="#fff"/><g transform="translate(-2211.122 778.71) rotate(45)"><line x1="3.902" y2="3.902" fill="none" stroke="#fff" stroke-linecap="round" stroke-width="1"/></g></g></g></svg>