<svg xmlns="http://www.w3.org/2000/svg" xmlns:xlink="http://www.w3.org/1999/xlink" width="17.844" height="26.839" viewBox="0 0 17.844 26.839">
  <defs>
    <clipPath id="clip-path">
      <rect id="Retângulo_424" data-name="Retângulo 424" width="17.844" height="26.839" fill="#888b8d"/>
    </clipPath>
  </defs>
  <g id="Grupo_2143" data-name="Grupo 2143" transform="translate(0 0)">
    <g id="Grupo_2142" data-name="Grupo 2142" transform="translate(0 0)" clip-path="url(#clip-path)">
      <path id="Caminho_738" data-name="Caminho 738" d="M8.922,22.056,1.249,26.838,0,26.339V2.534A2.221,2.221,0,0,1,2.534,0H15.311a2.221,2.221,0,0,1,2.534,2.534V26.339L16.6,26.8Zm7.459,2.856V2.82c0-.928-.357-1.321-1.285-1.321H2.749c-.928,0-1.285.393-1.285,1.321V24.912l7.459-4.641Zm-4.212-9.1c-1.427-.642-2.248-1.071-3.283-1.607-1,.536-1.892.964-3.32,1.607l-.642-.393a28.5,28.5,0,0,1,.714-3.569c-.856-.785-1.428-1.392-2.534-2.569l.143-.821c1.535-.285,2.427-.428,3.569-.535.535-1.106,1.035-2.07,1.82-3.462h.607c.785,1.392,1.284,2.355,1.82,3.462,1.106.107,1.963.25,3.5.535l.143.821c-1.071,1.142-1.713,1.784-2.569,2.569a29.289,29.289,0,0,1,.678,3.569Zm-5.531-2c1.106-.536,1.677-.892,2.284-1.249a24.614,24.614,0,0,0,2.213,1.213c-.214-1.106-.322-1.748-.464-2.391.928-.856,1.392-1.32,1.962-1.891-1.213-.178-1.891-.285-2.569-.32A24.736,24.736,0,0,0,8.922,6.817c-.32.642-.607,1.213-1.106,2.356-.749.035-1.392.142-2.605.32a21.6,21.6,0,0,0,1.856,1.891c-.143.643-.25,1.285-.428,2.427" transform="translate(0 0)" fill="#888b8d"/>
    </g>
  </g>
</svg>
