<svg xmlns="http://www.w3.org/2000/svg" width="20.26" height="20.251" viewBox="0 0 20.26 20.251">
  <path id="Path_724" data-name="Path 724" d="M1022.125-544.637a1.75,1.75,0,0,1,1.23.54c1.135,1.132,2.279,2.256,3.4,3.4a1.725,1.725,0,0,1-.073,2.586q-2.975,2.989-5.957,5.97-2.871,2.877-5.74,5.756a2,2,0,0,1-1.014.563c-2,.453-4,.923-6,1.387-.736.171-1.058-.154-.887-.9.467-2.021.923-4.044,1.414-6.059a1.932,1.932,0,0,1,.48-.866q5.879-5.9,11.784-11.783A1.888,1.888,0,0,1,1022.125-544.637Zm.078,6-9.57,9.57,1.62,1.618,9.6-9.535Zm-2.569-2.56-9.532,9.6,1.607,1.611,9.57-9.566Zm.95-.92,4.232,4.231c.328-.333.685-.691,1.037-1.054a.6.6,0,0,0,0-.989c-.5-.506-1-1.006-1.506-1.508-.59-.59-1.177-1.183-1.771-1.77-.3-.293-.582-.348-.834-.11C1021.328-542.929,1020.947-542.5,1020.584-542.121Zm-7.567,15.312-3.553-3.573c-.13.563-.27,1.14-.389,1.721a.382.382,0,0,0,.115.281q.913.931,1.843,1.845a.357.357,0,0,0,.251.12C1011.876-526.538,1012.464-526.681,1013.017-526.809Zm-3.311.764-1.015-1-.3,1.3Z" transform="translate(-1007.041 544.637)" fill="#747474"/>
</svg>
