<svg xmlns="http://www.w3.org/2000/svg" xmlns:xlink="http://www.w3.org/1999/xlink" width="23.533" height="20.614" viewBox="0 0 23.533 20.614">
  <defs>
    <clipPath id="clip-path">
      <rect id="Retângulo_425" data-name="Retângulo 425" width="23.533" height="20.614" fill="#888b8d"/>
    </clipPath>
  </defs>
  <g id="Grupo_2145" data-name="Grupo 2145" transform="translate(0 0)">
    <g id="Grupo_2144" data-name="Grupo 2144" transform="translate(0 0)" clip-path="url(#clip-path)">
      <path id="Caminho_739" data-name="Caminho 739" d="M8.794,11.151l6.331,2.919A4.159,4.159,0,0,1,19.1,11.749a4.191,4.191,0,0,1,4.432,4.432A4.173,4.173,0,0,1,19.1,20.614a4.21,4.21,0,0,1-4.433-4.433,5.2,5.2,0,0,1,.035-.739L8.371,12.488a4.181,4.181,0,0,1-3.939,2.251A4.209,4.209,0,0,1,0,10.307,4.21,4.21,0,0,1,4.432,5.875,4.111,4.111,0,0,1,8.371,8.126L14.7,5.171a5.2,5.2,0,0,1-.035-.739A4.21,4.21,0,0,1,19.1,0a4.173,4.173,0,0,1,4.432,4.433A4.191,4.191,0,0,1,19.1,8.865a4.16,4.16,0,0,1-3.975-2.322L8.794,9.462a7,7,0,0,1,.07.845,6.988,6.988,0,0,1-.07.844M4.432,13.332a2.717,2.717,0,0,0,2.99-3.025,2.717,2.717,0,0,0-2.99-3.025,2.717,2.717,0,0,0-2.99,3.025,2.717,2.717,0,0,0,2.99,3.025M19.1,7.458a2.717,2.717,0,0,0,2.99-3.025A2.717,2.717,0,0,0,19.1,1.408a2.717,2.717,0,0,0-2.99,3.025A2.717,2.717,0,0,0,19.1,7.458m0,11.749a2.717,2.717,0,0,0,2.99-3.026,2.717,2.717,0,0,0-2.99-3.025,2.717,2.717,0,0,0-2.99,3.025,2.717,2.717,0,0,0,2.99,3.026" transform="translate(0 0)" fill="#888b8d"/>
    </g>
  </g>
</svg>
