<?xml version="1.0" encoding="UTF-8"?>
<!DOCTYPE svg PUBLIC "-//W3C//DTD SVG 1.1//EN" "http://www.w3.org/Graphics/SVG/1.1/DTD/svg11.dtd">
<!-- Creator: CorelDRAW 2017 -->
<svg xmlns="http://www.w3.org/2000/svg" xml:space="preserve" width="35px" height="35px" version="1.1" style="shape-rendering:geometricPrecision; text-rendering:geometricPrecision; image-rendering:optimizeQuality; fill-rule:evenodd; clip-rule:evenodd"
viewBox="0 0 35 35"
 xmlns:xlink="http://www.w3.org/1999/xlink">
 <defs>
  <style type="text/css">
   <![CDATA[
    .str0 {stroke:white;stroke-width:1.18;stroke-linecap:round;stroke-miterlimit:22.9256}
    .fil2 {fill:none}
    .fil0 {fill:#747474}
    .fil1 {fill:url(#id0)}
   ]]>
  </style>
  <linearGradient id="id0" gradientUnits="userSpaceOnUse" x1="17.5" y1="7.3" x2="17.5" y2="27.59">
   <stop offset="0" style="stop-opacity:1; stop-color:#FFD500"/>
   <stop offset="1" style="stop-opacity:1; stop-color:#FAB600"/>
  </linearGradient>
 </defs>
 <g id="Layer_x0020_1">
  <metadata id="CorelCorpID_0Corel-Layer"/>
  <path class="fil0" d="M24.6 6.26c-2.55,-0.59 -5.31,0.51 -7.1,2.8 -1.78,-2.29 -4.55,-3.39 -7.09,-2.8 -2.89,0.68 -4.79,3.18 -4.85,6.38 -0.15,8.92 11.65,16.19 11.77,16.23 0.05,0.02 0.11,0.02 0.17,0.02 0.06,0 0.12,0 0.17,-0.02 0.12,-0.04 11.92,-7.33 11.77,-16.23 -0.06,-3.2 -1.96,-5.7 -4.84,-6.38z"/>
  <path class="fil1" d="M28.24 12.66c0.14,7.48 -9.3,13.98 -10.74,14.93 -1.44,-0.95 -10.87,-7.45 -10.74,-14.93 0.04,-2.64 1.58,-4.69 3.92,-5.23 0.36,-0.09 0.74,-0.13 1.12,-0.13 2,0 3.99,1.19 5.2,3.11 0.1,0.17 0.29,0.27 0.5,0.27 0.21,0 0.4,-0.1 0.51,-0.27 1.45,-2.32 3.99,-3.53 6.31,-2.98 2.34,0.54 3.88,2.59 3.92,5.23z"/>
  <circle class="fil0" transform="matrix(0.222895 0.222895 -0.222895 0.222895 27.2326 23.3715)" r="17.95"/>
  <line class="fil2 str0" x1="29.95" y1="23.23" x2="24.51" y2= "23.23" />
 </g>
</svg>
