<svg xmlns="http://www.w3.org/2000/svg" width="19.531" height="19.531" viewBox="0 0 19.531 19.531">
  <g id="Group_1869" data-name="Group 1869" transform="translate(-468.34 -274.994)">
    <g id="Group_1870" data-name="Group 1870">
      <path id="Path_713" data-name="Path 713" d="M487.288,275.169H468.923a.409.409,0,0,0-.408.409v18.364a.409.409,0,0,0,.408.409h18.364a.409.409,0,0,0,.409-.409V275.578A.409.409,0,0,0,487.288,275.169Zm-.409,5.592v12.772H469.332v-4.875l6.318-4.7,4.46,3.392a.408.408,0,0,0,.543-.044Zm0-1.125a.4.4,0,0,0-.153.1l-6.412,6.743-4.413-3.357a.41.41,0,0,0-.491,0l-6.077,4.519V275.986h17.547Z" fill="#747474" stroke="#747474" stroke-width="0.35"/>
      <path id="Path_714" data-name="Path 714" d="M479.342,289.5a1.895,1.895,0,1,0-1.895-1.895A1.9,1.9,0,0,0,479.342,289.5Zm-1.078-1.895a1.078,1.078,0,1,1,1.078,1.078A1.079,1.079,0,0,1,478.264,287.6Z" transform="translate(-6.428 -7.584)" fill="#747474" stroke="#747474" stroke-width="0.35"/>
    </g>
  </g>
</svg>
