<svg id="Grupo_2895" data-name="Grupo 2895" xmlns="http://www.w3.org/2000/svg" width="36.003" height="26.019" viewBox="0 0 36.003 26.019">
  <g id="Grupo_2897" data-name="Grupo 2897">
    <path id="Caminho_999" data-name="Caminho 999" d="M0,0H36V26.019H0ZM34.035,1.92H1.968V24.1H34.035ZM8.4,11.569A3.689,3.689,0,0,1,4.656,7.825,3.672,3.672,0,0,1,8.4,4.033a3.644,3.644,0,0,1,3.744,3.792A3.66,3.66,0,0,1,8.4,11.569m0-5.616A1.674,1.674,0,0,0,6.528,7.825,1.7,1.7,0,0,0,8.4,9.7a1.674,1.674,0,0,0,1.872-1.872A1.655,1.655,0,0,0,8.4,5.953M29.09,20.018c-.624-1.392-1.008-2.16-3.552-7.153h1.2c-1.728,3.313-2.736,5.329-3.6,7.153h-2.3C19.3,16.609,18.241,14.4,15.7,9.409h1.248c-2.736,5.328-4.032,8.017-5.136,10.609H9.6c1.343-3.024,2.976-6.385,5.856-12h1.68c2.4,4.7,3.5,6.913,5.233,10.657H21.7c.961-1.969,2.113-4.273,3.6-7.2h1.68c2.88,5.665,3.024,6,4.272,8.545Z"/>
  </g>
</svg>
