<svg xmlns="http://www.w3.org/2000/svg" width="40.096" height="26.839" viewBox="0 0 40.096 26.839">
  <g id="Grupo_2894" data-name="Grupo 2894" transform="translate(0 0)">
    <g id="Grupo_2898" data-name="Grupo 2898" transform="translate(0 0)">
      <path id="Caminho_997" data-name="Caminho 997" d="M16.5,25.218H1.662V3.406H0V26.839H18.041c0-1.054-.486-1.622-1.54-1.622m18.528-1.662.041-.041h1.621V0H23.919a4.842,4.842,0,0,0-3.871,1.664A4.841,4.841,0,0,0,16.177,0H3.405V23.515H5.026l.041.041H17.109a1.908,1.908,0,0,1,2.108,1.662h1.662a1.908,1.908,0,0,1,2.109-1.662Zm-14.15-.983V4.055L19.217,4.1V22.572a4.779,4.779,0,0,0-2.432-.639H5.067V1.622H16.5a2.491,2.491,0,0,1,2.716,2.432h1.662A2.492,2.492,0,0,1,23.6,1.622H35.029V21.933H23.312a4.785,4.785,0,0,0-2.433.639M38.434,3.406V25.218H23.6c-1.054,0-1.541.568-1.541,1.622H40.1V3.406Z" transform="translate(0 0)"/>
    </g>
  </g>
</svg>
