<svg xmlns="http://www.w3.org/2000/svg" width="23.224" height="20.38" viewBox="0 0 23.224 20.38"><path d="M23.328,9.37H21.56V7.6a.592.592,0,0,0-.588-.6H17.28a6.872,6.872,0,0,0-4.668,1.841A6.858,6.858,0,0,0,7.943,7H4.256a.592.592,0,0,0-.592.592V9.37H1.9a.9.9,0,0,0-.9.884V24.316a.9.9,0,0,0,.9.9H7.778A3.528,3.528,0,0,1,10.406,26.4l.083.09a2.985,2.985,0,0,0,.344.3c.05.038.1.071.145.1a2.862,2.862,0,0,0,.334.192l.066.031a1.685,1.685,0,0,0,.19.081,2.4,2.4,0,0,0,.249.078c.059.017.135.038.223.055a2.9,2.9,0,0,0,.391.05l.182,0a2.974,2.974,0,0,0,.583-.059c.076-.014.14-.033.173-.043a2.527,2.527,0,0,0,.275-.085l.045-.017.149-.064.055-.026h0a2.965,2.965,0,0,0,.355-.2l.121-.085a3.017,3.017,0,0,0,.384-.341l.021-.021.047-.052a3.457,3.457,0,0,1,2.607-1.164h5.9a.9.9,0,0,0,.9-.9V10.254A.9.9,0,0,0,23.328,9.37ZM17.28,8.185h3.095V21.351H17.28A6.858,6.858,0,0,0,13.2,22.7V9.929h0A5.671,5.671,0,0,1,17.28,8.185Zm-12.432,0H7.943a5.672,5.672,0,0,1,4.076,1.732h0V22.7a6.858,6.858,0,0,0-4.076-1.346H4.848ZM13.9,25.641a1.8,1.8,0,0,1-.237.2l-.071.05a1.76,1.76,0,0,1-.22.126h0l-.033.017-.1.04a1.657,1.657,0,0,1-.18.055l-.1.024a1.777,1.777,0,0,1-.348.043h-.1a1.734,1.734,0,0,1-.237-.031.5.5,0,0,1-.137-.033,1.4,1.4,0,0,1-.145-.045l-.107-.045-.043-.021a1.778,1.778,0,0,1-.206-.118l-.083-.059a1.777,1.777,0,0,1-.211-.185l-.045-.05a4.713,4.713,0,0,0-3.519-1.581H2.185V10.555H3.664v11.4a.592.592,0,0,0,.592.592H7.943a5.671,5.671,0,0,1,4.225,1.9.592.592,0,0,0,.837.047.639.639,0,0,0,.047-.047,5.673,5.673,0,0,1,4.225-1.9h3.69a.592.592,0,0,0,.592-.592v-11.4h1.479V24.039H17.446a4.642,4.642,0,0,0-3.51,1.569Z" transform="translate(-1 -7)" fill="#ffd500"/></svg>