<svg xmlns="http://www.w3.org/2000/svg" xmlns:xlink="http://www.w3.org/1999/xlink" width="23.83" height="35.841" viewBox="0 0 23.83 35.841">
  <defs>
    <clipPath id="clip-path">
      <rect id="Retângulo_630" data-name="Retângulo 630" width="23.83" height="35.841" fill="#fff"/>
    </clipPath>
  </defs>
  <g id="Grupo_2448" data-name="Grupo 2448" transform="translate(-278.132 -765.695)">
    <g id="Grupo_2449" data-name="Grupo 2449" transform="translate(278.132 765.695)" clip-path="url(#clip-path)">
      <path id="Caminho_813" data-name="Caminho 813" d="M11.915,29.454,1.668,35.84,0,35.173V3.384C0,1.1,1.1,0,3.384,0H20.446c2.288,0,3.384,1.1,3.384,3.384v31.79l-1.668.619Zm9.961,3.813V3.766C21.876,2.527,21.4,2,20.16,2H3.67c-1.239,0-1.717.525-1.717,1.764v29.5l9.961-6.2ZM16.251,21.113c-1.906-.858-3-1.43-4.384-2.145-1.334.716-2.527,1.288-4.433,2.145l-.858-.524a38.063,38.063,0,0,1,.954-4.766c-1.144-1.048-1.907-1.859-3.385-3.431l.191-1.1c2.05-.381,3.242-.572,4.766-.715.715-1.477,1.382-2.764,2.43-4.623h.811c1.048,1.859,1.715,3.145,2.43,4.623,1.476.143,2.621.334,4.67.715l.191,1.1c-1.43,1.525-2.287,2.383-3.431,3.431a39.112,39.112,0,0,1,.905,4.766ZM8.865,18.444c1.477-.716,2.24-1.191,3.05-1.668A32.87,32.87,0,0,0,14.87,18.4c-.286-1.477-.43-2.334-.62-3.193,1.239-1.143,1.859-1.763,2.62-2.526-1.619-.238-2.526-.381-3.431-.428A33.032,33.032,0,0,0,11.915,9.1c-.428.858-.81,1.62-1.477,3.146-1,.047-1.859.19-3.479.428A28.843,28.843,0,0,0,9.437,15.2c-.191.859-.334,1.716-.572,3.242" transform="translate(0 0)" fill="#fff"/>
    </g>
  </g>
</svg>
