<svg id="Grupo_2546" data-name="Grupo 2546" xmlns="http://www.w3.org/2000/svg" xmlns:xlink="http://www.w3.org/1999/xlink" width="22" height="19.271" viewBox="0 0 22 19.271">
  <defs>
    <clipPath id="clip-path">
      <rect id="Retângulo_628" data-name="Retângulo 628" width="22" height="19.271"/>
    </clipPath>
  </defs>
  <g id="Grupo_2315" data-name="Grupo 2315" transform="translate(0 0)" clip-path="url(#clip-path)">
    <path id="Caminho_778" data-name="Caminho 778" d="M8.221,10.425l5.919,2.729a3.888,3.888,0,0,1,3.716-2.17A3.918,3.918,0,0,1,22,15.127a3.9,3.9,0,0,1-4.143,4.144,3.935,3.935,0,0,1-4.144-4.144,4.856,4.856,0,0,1,.033-.691L7.826,11.674a3.909,3.909,0,0,1-3.683,2.1A3.935,3.935,0,0,1,0,9.636,3.935,3.935,0,0,1,4.143,5.492,3.843,3.843,0,0,1,7.826,7.6l5.919-2.762a4.856,4.856,0,0,1-.033-.691A3.935,3.935,0,0,1,17.856,0,3.9,3.9,0,0,1,22,4.144a3.918,3.918,0,0,1-4.143,4.144A3.889,3.889,0,0,1,14.14,6.117L8.221,8.846a6.544,6.544,0,0,1,.066.79,6.532,6.532,0,0,1-.066.789M4.143,12.464a2.54,2.54,0,0,0,2.8-2.828,2.54,2.54,0,0,0-2.8-2.828A2.54,2.54,0,0,0,1.348,9.636a2.54,2.54,0,0,0,2.795,2.828M17.856,6.972a2.54,2.54,0,0,0,2.795-2.828,2.54,2.54,0,0,0-2.795-2.828,2.54,2.54,0,0,0-2.8,2.828,2.54,2.54,0,0,0,2.8,2.828m0,10.984a2.54,2.54,0,0,0,2.795-2.829A2.54,2.54,0,0,0,17.856,12.3a2.54,2.54,0,0,0-2.8,2.828,2.54,2.54,0,0,0,2.8,2.829" transform="translate(0 0)"/>
  </g>
</svg>
