<svg id="Grupo_2960" data-name="Grupo 2960" xmlns="http://www.w3.org/2000/svg" width="18.529" height="16.223" viewBox="0 0 18.529 16.223">
  <g id="Grupo_2572" data-name="Grupo 2572" transform="translate(0 2.518)">
    <path id="Caminho_843" data-name="Caminho 843" d="M16.4,4.031H2.129A1.867,1.867,0,0,0,0,6.16v9.447a1.867,1.867,0,0,0,2.129,2.129H16.4a1.867,1.867,0,0,0,2.129-2.129V6.16A1.867,1.867,0,0,0,16.4,4.031M9.264,15.22a4.071,4.071,0,0,1-4.351-4.337A4.07,4.07,0,0,1,9.264,6.547a4.07,4.07,0,0,1,4.351,4.336A4.071,4.071,0,0,1,9.264,15.22" transform="translate(0 -4.031)" fill="#efdf00"/>
    <path id="Caminho_844" data-name="Caminho 844" d="M12.429,9.789A2.644,2.644,0,0,0,9.6,12.606a2.643,2.643,0,0,0,2.826,2.817,2.643,2.643,0,0,0,2.826-2.817,2.644,2.644,0,0,0-2.826-2.817" transform="translate(-3.164 -5.754)" fill="#efdf00"/>
  </g>
  <rect id="Retângulo_690" data-name="Retângulo 690" width="3.747" height="1.626" transform="translate(13.58)" fill="#efdf00"/>
</svg>
