<svg xmlns="http://www.w3.org/2000/svg" width="29.584" height="29.584" viewBox="0 0 29.584 29.584"><g transform="translate(-1392 -35)"><path d="M88.476,76.473c0-7.519-4.045-10.077-7.827-10.647,0-.039.008-.077.008-.123A1.787,1.787,0,0,0,78.792,64a1.76,1.76,0,0,0-1.834,1.7.624.624,0,0,0,.008.123c-3.79.578-7.858,3.143-7.858,10.663,0,8.767-2.18,9.707-5.108,12.173H93.584C90.672,86.188,88.476,85.24,88.476,76.473Z" transform="translate(1328 -29)" fill="#747474"/><path d="M208.483,408.313A3.987,3.987,0,0,0,212.466,405H204.5A3.981,3.981,0,0,0,208.483,408.313Z" transform="translate(1198.324 -343.729)" fill="#747474"/></g></svg>