<svg xmlns="http://www.w3.org/2000/svg" width="17.477" height="16.318" viewBox="0 0 17.477 16.318"><path d="M16.906,12.9a5.909,5.909,0,0,0,.571-2.553,6,6,0,0,0-5.712-5.966A5.993,5.993,0,0,0,0,5.974,5.909,5.909,0,0,0,.572,8.527L.01,11.335a.512.512,0,0,0,.6.6l2.843-.562a5.889,5.889,0,0,0,2.259.564,5.983,5.983,0,0,0,8.31,3.8c3.113.616,2.87.572,2.942.572a.512.512,0,0,0,.5-.612ZM3.758,10.383a.512.512,0,0,0-.332-.046l-2.261.447L1.61,8.557a.512.512,0,0,0-.046-.334,4.9,4.9,0,0,1-.54-2.25,4.97,4.97,0,0,1,9.683-1.556A5.981,5.981,0,0,0,5.522,10.9a4.876,4.876,0,0,1-1.764-.516m12.109,2.543.445,2.227-2.261-.447a.513.513,0,0,0-.332.046,4.9,4.9,0,0,1-2.25.54,4.95,4.95,0,1,1,4.984-4.949,4.9,4.9,0,0,1-.54,2.25.512.512,0,0,0-.046.333" transform="translate(0)" fill="#fff"/></svg>