<svg xmlns="http://www.w3.org/2000/svg" width="13.627" height="14.437" viewBox="0 0 13.627 14.437"><g transform="translate(-1482.516 -43.073)"><path d="M292.867,462.952h7.818a1.056,1.056,0,0,1,1.055,1.055v2.544a.229.229,0,1,1-.457,0v-2.544a.6.6,0,0,0-.6-.6h-7.818a.6.6,0,0,0-.6.6v11.828a.6.6,0,0,0,.6.6h7.818a.6.6,0,0,0,.6-.6v-2.544a.229.229,0,0,1,.457,0v2.544a1.056,1.056,0,0,1-1.055,1.055h-7.818a1.056,1.056,0,0,1-1.054-1.055V464.007A1.056,1.056,0,0,1,292.867,462.952Z" transform="translate(1190.953 -419.629)" fill="#747474" stroke="#747474" stroke-width="0.5"/><path d="M289.724,477.767a.228.228,0,0,1-.123-.421l2.59-1.65H285.04a.229.229,0,0,1,0-.457h7.151l-2.59-1.65a.229.229,0,1,1,.245-.386l3.252,2.071a.229.229,0,0,1,0,.386l-3.252,2.071A.226.226,0,0,1,289.724,477.767Z" transform="translate(1202.689 -425.176)" fill="#747474" stroke="#747474" stroke-width="0.5"/></g></svg>