<svg xmlns="http://www.w3.org/2000/svg" width="17.515" height="21.897" viewBox="0 0 17.515 21.897"><path d="M130.747,123.745c-.318-.663-1.308-2.611-2.146-4.132-1.15-2.084-3.2-5.516-3.436-5.829a.657.657,0,0,0-.572-.345l-.031,0c-.31-.034-1.626-.05-2.418-.05-.678,0-2.118.018-2.454.051a.688.688,0,0,0-.582.364c-.248.323-2.335,3.852-3.422,5.812-.786,1.418-2.031,3.868-2.147,4.132a1.492,1.492,0,0,0-.153.589,1.407,1.407,0,0,0,.153.589c.261.566,1.048,2.133,2.146,4.132,1.146,2.084,3.216,5.529,3.436,5.829a.669.669,0,0,0,.593.349c.319.028,1.693.05,2.429.05.794,0,2.23-.032,2.429-.05a.679.679,0,0,0,.593-.349c.208-.29,2.436-4,3.436-5.829.959-1.752,2.024-3.857,2.146-4.132a1.358,1.358,0,0,0,.153-.589A1.387,1.387,0,0,0,130.747,123.745Zm-11.829.584h0a1.7,1.7,0,0,1,.225-.634c1.121-2.411,3.731-7.353,4.823-9.188.107-.178.233-.275.315-.28s.128.012.147.036c-.369.713-1.286,2.529-1.947,4.2.981,1.816,1.836,3.511,2.654,5.247a1.629,1.629,0,0,1,.222.627h0a1.7,1.7,0,0,1-.225.634c-1.121,2.411-3.731,7.353-4.823,9.188-.107.178-.233.275-.315.28s-.128-.012-.147-.036c.369-.713,1.286-2.529,1.947-4.2-.981-1.816-1.836-3.511-2.654-5.247a1.629,1.629,0,0,1-.222-.628Z" transform="translate(-113.386 -113.386)" fill="#fff"/></svg>