<svg xmlns="http://www.w3.org/2000/svg" width="17.275" height="16.667" viewBox="0 0 17.275 16.667">
  <path id="Path_716" data-name="Path 716" d="M15.419,0A1.858,1.858,0,0,0,13.6,1.512C10.211,2.95,4.913,2.969,4.858,2.969H2.53A2.533,2.533,0,0,0,0,5.5V7.929a2.533,2.533,0,0,0,2.53,2.53H4.449l.894,4.194A2.541,2.541,0,0,0,7.82,16.667a1.362,1.362,0,0,0,1.333-1.64l-.366-1.756a3.219,3.219,0,0,0,2.076-2.127,13.01,13.01,0,0,1,2.731.774,1.856,1.856,0,0,0,3.679-.344V1.856A1.858,1.858,0,0,0,15.419,0M10.565,10.066c-.559-.1-3.426-.469-5.2-.59v-5.5a27.94,27.94,0,0,0,8.2-1.357v8.2a16.072,16.072,0,0,0-3-.749M1.012,7.929V5.5A1.52,1.52,0,0,1,2.53,3.981H4.352V9.447H2.53A1.52,1.52,0,0,1,1.012,7.929M7.82,15.655a1.525,1.525,0,0,1-1.487-1.211L5.493,10.5c.558.041,1.143.094,1.717.158l.953,4.575a.35.35,0,0,1-.343.422m.759-3.385-.31-1.49c.526.061,1.056.124,1.583.2a2.2,2.2,0,0,1-1.272,1.29m7.683-.7a.843.843,0,0,1-1.687,0V1.856a.843.843,0,1,1,1.687,0Z" fill="#fff"/>
</svg>
