<svg xmlns="http://www.w3.org/2000/svg" xmlns:xlink="http://www.w3.org/1999/xlink" width="24.114" height="24.364" viewBox="0 0 24.114 24.364"><defs><clipPath id="a"><rect width="24.114" height="24.364" fill="#747474"/></clipPath></defs><g clip-path="url(#a)"><path d="M12.051,24.362c-2.769,0-5.539.006-8.308,0A3.655,3.655,0,0,1,.084,21.425a3.733,3.733,0,0,1-.078-.772Q0,14.49.006,8.326A3.538,3.538,0,0,1,1.915,5.05Q6.091,2.733,10.294.465a3.539,3.539,0,0,1,3.53.012Q17.953,2.7,22.069,4.943a3.665,3.665,0,0,1,2.046,3.451q0,6.1,0,12.2a3.652,3.652,0,0,1-2.858,3.669,4.518,4.518,0,0,1-1,.093q-4.1.011-8.208,0m-.005-1.607q4.129,0,8.258,0a2.067,2.067,0,0,0,2.191-2.184q0-6.126,0-12.252a2.036,2.036,0,0,0-1.118-1.908q-4.16-2.268-8.327-4.524a2,2,0,0,0-2.014,0Q6.88,4.137,2.73,6.4A2.019,2.019,0,0,0,1.611,8.279q-.005,6.176,0,12.353a2.347,2.347,0,0,0,.082.618,2.053,2.053,0,0,0,2.092,1.5q4.129,0,8.258,0" transform="translate(0 0.001)" fill="#747474"/></g></svg>