<svg xmlns="http://www.w3.org/2000/svg" width="25.938" height="25.735" viewBox="0 0 25.938 25.735">
  <g id="Grupo_2701" data-name="Grupo 2701" transform="translate(-192.687 -872.56)">
    <g id="Grupo_2375" data-name="Grupo 2375" transform="translate(-2056 -1561)">
      <path id="Caminho_794" data-name="Caminho 794" d="M.288,20.912l1.269,1.269,5.394-5.355-1.268-1.27Z" transform="translate(2248.651 2431.597)"/>
      <path id="Caminho_795" data-name="Caminho 795" d="M6.33,26.955,7.6,28.224l5.394-5.355L11.725,21.6Z" transform="translate(2247.894 2430.84)"/>
      <path id="Caminho_796" data-name="Caminho 796" d="M0,26.807l1.269,1.269,8.289-8.228-1.269-1.27Z" transform="translate(2248.687 2431.219)"/>
    </g>
    <path id="Caminho_797" data-name="Caminho 797" d="M11.733,14.41,22,4.14,15.867,22.614Zm-9.466-5.4L20.739,2.877,10.47,13.146ZM23.7,0,.042,7.788l.024.535L0,9.767l9.923,5.191,5.19,9.922,1.434-.066.545.024,7.788-23.66Z" transform="translate(193.745 872.56)"/>
  </g>
</svg>
