<svg xmlns="http://www.w3.org/2000/svg" width="25.54" height="28.867" viewBox="0 0 25.54 28.867"><g transform="translate(-108.212 -757.837)"><path d="M35.49,28.984c-2.169-1.465-2.1-3.5-2.01-6.083a15.5,15.5,0,0,0-.432-5.187A9.208,9.208,0,0,0,26.89,11.24h0a2.706,2.706,0,1,0-5.412,0h.13a9.205,9.205,0,0,0-6.156,6.474,15.5,15.5,0,0,0-.432,5.187c.089,2.58.159,4.617-2.01,6.083a2.67,2.67,0,0,0-1.132,3.023,2.2,2.2,0,0,0,2.043,1.644h7.016a3.311,3.311,0,0,0,6.62,0h7.017a2.2,2.2,0,0,0,2.043-1.644A2.67,2.67,0,0,0,35.49,28.984ZM24.188,9.768a1.473,1.473,0,0,1,1.445,1.2c-.252-.036-.506-.064-.765-.08H23.634c-.3.019-.6.056-.893.1A1.471,1.471,0,0,1,24.188,9.768Zm.063,25.9c-1.157,0-1.876-.711-2.067-2.016h4.134C26.127,34.959,25.408,35.669,24.251,35.669Zm11.19-4.02a.992.992,0,0,1-.864.771H13.924a.992.992,0,0,1-.864-.771,1.419,1.419,0,0,1,.642-1.642c2.736-1.848,2.643-4.541,2.553-7.148a14.327,14.327,0,0,1,.381-4.784c1.167-3.8,3.943-5.977,7.616-5.977s6.448,2.178,7.616,5.977a14.337,14.337,0,0,1,.379,4.783c-.09,2.606-.185,5.3,2.553,7.148A1.419,1.419,0,0,1,35.441,31.649Z" transform="translate(96.73 749.553)" stroke-width="0.3" fill="#ffffff" stroke="#ffffff"/></g></svg>