<svg xmlns="http://www.w3.org/2000/svg" width="150" height="150" viewBox="0 0 150 150">
  <g id="Grupo_3253" data-name="Grupo 3253" transform="translate(-230 -767)">
    <rect id="Retângulo_1147" data-name="Retângulo 1147" width="150" height="150" transform="translate(230 767)"/>
    <path id="Caminho_1081" data-name="Caminho 1081" d="M7.005,83.877a42.709,42.709,0,0,0,30.072-8.283c-1.963-.5-3.629-.849-5.241-1.361A20.734,20.734,0,0,1,18.9,62.407c-.815-1.795-.633-1.938,1.3-1.906,1.994.032,4.025.328,6.4-.581a21.34,21.34,0,0,1-9-5.011,20.65,20.65,0,0,1-6.7-13.815c-.168-2.219.114-2.376,2.067-1.472A14.71,14.71,0,0,0,19.254,41.1c-1.494-1.74-3.11-3-4.262-4.7-4.581-6.728-5.355-13.852-2.2-21.378.842-2.007,1.179-2.081,2.6-.457A59.805,59.805,0,0,0,40.77,31.906a58.856,58.856,0,0,0,13.547,3.036c2.372.245,2.577-.014,2.3-2.372A21.773,21.773,0,0,1,67.936,11.382,20.892,20.892,0,0,1,91.5,14.247a3.666,3.666,0,0,0,3.871.937,45.09,45.09,0,0,0,9.317-3.65c.455-.245.861-.752,1.726-.429a23.138,23.138,0,0,1-7.782,10.876A40.609,40.609,0,0,0,108.786,19.2a3.3,3.3,0,0,1-1.1,2.418,36.918,36.918,0,0,1-7.154,7.314,4,4,0,0,0-1.7,3.655c.214,14.129-4.262,26.731-12.6,37.9-9.9,13.271-23.21,20.755-39.466,22.758A59.138,59.138,0,0,1,8.936,85.487c-.428-.249-.847-.526-1.252-.812a6.486,6.486,0,0,1-.678-.8" transform="translate(247.472 792.016)" fill="#fff"/>
  </g>
</svg>
