<svg xmlns="http://www.w3.org/2000/svg" width="150" height="150" viewBox="0 0 150 150">
  <g id="Grupo_3255" data-name="Grupo 3255" transform="translate(-230 -767)">
    <g id="Grupo_3253" data-name="Grupo 3253">
      <rect id="Ret창ngulo_1147" data-name="Ret창ngulo 1147" width="150" height="150" transform="translate(230 767)"/>
    </g>
    <g id="Grupo_3254" data-name="Grupo 3254" transform="translate(-187.702 -70.703)">
      <path id="Caminho_1083" data-name="Caminho 1083" d="M6.727,29.92c.767-3.974,1.477-7.963,3.64-11.5C15.309,10.361,23.033,7.264,31.942,7.047q18.214-.444,36.45,0C76.64,7.252,83.98,9.97,89,17.117a26.676,26.676,0,0,1,4.521,15.316c.175,11.672.262,23.355-.011,35.026-.213,9.4-3.481,17.422-12.287,22.2a27.8,27.8,0,0,1-13.069,3.219c-11.994.137-23.992.254-35.979-.019-8.992-.2-16.811-3.242-21.81-11.391-2.167-3.534-2.873-7.523-3.64-11.5ZM50.241,15.276c-5.963,0-11.922-.114-17.878.027-9.3.216-15.019,4.578-16.712,12.586a25.827,25.827,0,0,0-.634,5.192c-.057,11.281-.209,22.561.023,33.838.228,11.22,5.9,17.221,16.724,17.62,12.222.452,24.467.414,36.693.008,9.019-.3,14.378-4.638,16.1-12.431a20.621,20.621,0,0,0,.607-4.236c.068-12.86.767-25.735-.391-38.572-.687-7.6-5.785-12.567-13.361-13.608-7.037-.968-14.12-.281-21.172-.425" transform="translate(443.375 861.124)" fill="#fff"/>
      <path id="Caminho_1084" data-name="Caminho 1084" d="M57.284,34.812a22.532,22.532,0,0,1-45.062-.288,22.532,22.532,0,0,1,45.062.288M48.93,34.7a14.178,14.178,0,1,0-14.211,14,14.166,14.166,0,0,0,14.211-14" transform="translate(458.737 876.401)" fill="#fff"/>
      <path id="Caminho_1085" data-name="Caminho 1085" d="M28.268,10.744a5.458,5.458,0,0,1,5.5,5.382,5.476,5.476,0,0,1-10.947.049,5.407,5.407,0,0,1,5.447-5.432" transform="translate(488.365 872.074)" fill="#fff"/>
      <rect id="Ret창ngulo_1148" data-name="Ret창ngulo 1148" width="139" height="139" transform="translate(423.702 843.702)" fill="none"/>
    </g>
  </g>
</svg>
