<svg xmlns="http://www.w3.org/2000/svg" xmlns:xlink="http://www.w3.org/1999/xlink" width="150" height="150" viewBox="0 0 150 150">
  <defs>
    <clipPath id="clip-path">
      <rect id="Ret창ngulo_789" data-name="Ret창ngulo 789" width="133" height="130" transform="translate(-0.169 0.422)" fill="none"/>
    </clipPath>
  </defs>
  <g id="Grupo_3257" data-name="Grupo 3257" transform="translate(-230 -767)">
    <g id="Grupo_3255" data-name="Grupo 3255">
      <g id="Grupo_3253" data-name="Grupo 3253">
        <rect id="Ret창ngulo_1147" data-name="Ret창ngulo 1147" width="150" height="150" transform="translate(230 767)"/>
      </g>
    </g>
    <g id="Grupo_3256" data-name="Grupo 3256" transform="translate(467.387 796.199)">
      <g id="Grupo_2663" data-name="Grupo 2663" transform="translate(-228.218 -19.621)" clip-path="url(#clip-path)">
        <path id="Caminho_924" data-name="Caminho 924" d="M66.149,132.3h0A66.149,66.149,0,1,1,132.3,66.149,66.148,66.148,0,0,1,66.149,132.3" transform="translate(0.545 0.224)"/>
        <path id="Caminho_925" data-name="Caminho 925" d="M50.671,21.958h7.367V5.925l-11.1-.011c-15.721,0-23.182,9.354-23.182,22.673V41.2H11.452V56.441H23.76V95.184H42.227V56.441H54.535l3.5-15.229h-15.8V30.81c0-4.26,2.325-8.852,8.444-8.852" transform="translate(30.757 15.826)" fill="#fff"/>
      </g>
    </g>
  </g>
</svg>
