<svg xmlns="http://www.w3.org/2000/svg" width="22.874" height="19.588" viewBox="0 0 22.874 19.588"><g transform="translate(-552.986 -168.218)"><path d="M827.559,399.873q0,3.761,0,7.522a1.454,1.454,0,0,1-2.457,1.092q-1.641-1.42-3.279-2.842c-.692-.6-1.382-1.2-2.08-1.8a.513.513,0,0,0-.3-.108c-.659-.01-1.318,0-1.977-.006a1.453,1.453,0,0,1-1.537-1.539q0-2.341,0-4.681a1.45,1.45,0,0,1,1.523-1.529c.651,0,1.3.007,1.954-.007a.649.649,0,0,0,.38-.143q2.677-2.305,5.343-4.623a1.416,1.416,0,0,1,1.726-.17,1.4,1.4,0,0,1,.709,1.287Q827.559,396.1,827.559,399.873Zm-.966-.015q0-3.659,0-7.318c0-.269.018-.544-.282-.685s-.512.051-.722.233q-2.642,2.294-5.283,4.589a1.037,1.037,0,0,1-.758.279c-.689-.017-1.378-.007-2.068-.006-.4,0-.59.183-.591.579q0,2.33,0,4.659c0,.4.188.578.59.579.72,0,1.439.008,2.159,0a.865.865,0,0,1,.615.233q2.124,1.851,4.255,3.694c.412.357.823.716,1.237,1.071a.492.492,0,0,0,.546.113.511.511,0,0,0,.3-.495c0-.068,0-.136,0-.2Z" transform="translate(-261.687 -221.335)" stroke="#000" stroke-width="0.5"/><path d="M298.61,106.765a.618.618,0,1,0-.658,1.046,7.4,7.4,0,0,1,0,12.544.618.618,0,0,0,.658,1.046,8.633,8.633,0,0,0,0-14.637Z" transform="translate(273.196 63.915)"/><path d="M256.7,181.457a.618.618,0,0,0-.738.991,2.446,2.446,0,0,1,0,3.951.618.618,0,0,0,.738.991,3.682,3.682,0,0,0,0-5.933Z" transform="translate(312.722 -6.425)"/><path d="M827.559,399.873q0,3.761,0,7.522a1.454,1.454,0,0,1-2.457,1.092q-1.641-1.42-3.279-2.842c-.692-.6-1.382-1.2-2.08-1.8a.513.513,0,0,0-.3-.108c-.659-.01-1.318,0-1.977-.006a1.453,1.453,0,0,1-1.537-1.539q0-2.341,0-4.681a1.45,1.45,0,0,1,1.523-1.529c.651,0,1.3.007,1.954-.007a.649.649,0,0,0,.38-.143q2.677-2.305,5.343-4.623a1.416,1.416,0,0,1,1.726-.17,1.4,1.4,0,0,1,.709,1.287Q827.559,396.1,827.559,399.873Zm-.966-.015q0-3.659,0-7.318c0-.269.018-.544-.282-.685s-.512.051-.722.233q-2.642,2.294-5.283,4.589a1.037,1.037,0,0,1-.758.279c-.689-.017-1.378-.007-2.068-.006-.4,0-.59.183-.591.579q0,2.33,0,4.659c0,.4.188.578.59.579.72,0,1.439.008,2.159,0a.865.865,0,0,1,.615.233q2.124,1.851,4.255,3.694c.412.357.823.716,1.237,1.071a.492.492,0,0,0,.546.113.511.511,0,0,0,.3-.495c0-.068,0-.136,0-.2Z" transform="translate(-262.687 -222.335)" fill="#fff" stroke="#fff" stroke-width="0.5"/><path d="M298.61,106.765a.618.618,0,1,0-.658,1.046,7.4,7.4,0,0,1,0,12.544.618.618,0,0,0,.658,1.046,8.633,8.633,0,0,0,0-14.637Z" transform="translate(272.196 62.915)" fill="#fff"/><path d="M256.7,181.457a.618.618,0,0,0-.738.991,2.446,2.446,0,0,1,0,3.951.618.618,0,0,0,.738.991,3.682,3.682,0,0,0,0-5.933Z" transform="translate(311.722 -7.425)" fill="#fff"/></g></svg>