<svg xmlns="http://www.w3.org/2000/svg" width="13.115" height="14.796" viewBox="0 0 13.115 14.796"><g transform="translate(-532.75 -170.738)"><path d="M12.768,5.3,3.808.2A1.23,1.23,0,0,0,1.889,1.323V11.968a1.177,1.177,0,0,0,1.136,1.316,1.5,1.5,0,0,0,.781-.24l9-5.509a1.318,1.318,0,0,0,.7-1.129A1.314,1.314,0,0,0,12.768,5.3ZM12.2,6.551l-9,5.508a.573.573,0,0,1-.141.065.6.6,0,0,1-.018-.156V1.323a.855.855,0,0,1,.02-.179.452.452,0,0,1,.175.065l8.958,5.1c.11.063.143.118.154.106A.387.387,0,0,1,12.2,6.551Z" transform="translate(532.111 172)" stroke="#000" stroke-width="0.5"/><path d="M12.768,5.3,3.808.2A1.23,1.23,0,0,0,1.889,1.323V11.968a1.177,1.177,0,0,0,1.136,1.316,1.5,1.5,0,0,0,.781-.24l9-5.509a1.318,1.318,0,0,0,.7-1.129A1.314,1.314,0,0,0,12.768,5.3ZM12.2,6.551l-9,5.508a.573.573,0,0,1-.141.065.6.6,0,0,1-.018-.156V1.323a.855.855,0,0,1,.02-.179.452.452,0,0,1,.175.065l8.958,5.1c.11.063.143.118.154.106A.387.387,0,0,1,12.2,6.551Z" transform="translate(531.111 171)" fill="#fff" stroke="#fff" stroke-width="0.5"/></g></svg>