<svg xmlns="http://www.w3.org/2000/svg" width="54" height="54" viewBox="0 0 54 54">
  <g id="Group_2118" data-name="Group 2118" transform="translate(876 249)">
    <rect id="preview" width="54" height="54" rx="27" transform="translate(-876 -249)" fill="#fff"/>
    <g id="Group_2046" data-name="Group 2046" transform="translate(-872.686 -246.732)">
      <path id="Path_695" data-name="Path 695" d="M965.609-642.545a1.091,1.091,0,0,1,.6,1.107c-.021,1.8-.007,3.606-.009,5.409,0,.855-.271,1.122-1.124,1.126-.544,0-1.088,0-1.662,0v34.176c.58,0,1.154,0,1.728,0,.763.006,1.055.29,1.057,1.047q.007,2.777,0,5.554c0,.742-.286,1.037-1.011,1.039q-2.656.008-5.313,0c-.693,0-1-.31-1.011-1.005-.01-.623,0-1.247,0-1.893h-32.68c0,.617,0,1.208,0,1.8-.005.817-.288,1.1-1.11,1.1q-2.584,0-5.168,0c-.772,0-1.057-.281-1.058-1.041q-.005-2.777,0-5.554c0-.755.3-1.04,1.058-1.046.561,0,1.123,0,1.721,0V-634.9c-.559,0-1.132,0-1.7,0-.789-.005-1.074-.288-1.076-1.077,0-1.819.012-3.639-.009-5.457a1.091,1.091,0,0,1,.6-1.107h6.183a1.185,1.185,0,0,1,.572,1.179c-.023.572-.005,1.145-.005,1.714h32.68c0-.593.019-1.154-.005-1.713a1.19,1.19,0,0,1,.572-1.181Zm-39.429,44.808h32.68c0-.674-.008-1.315,0-1.956.012-.722.318-1.022,1.039-1.03.576-.006,1.151,0,1.748,0V-634.9c-.591,0-1.136,0-1.682,0-.809,0-1.1-.3-1.107-1.11,0-.623,0-1.245,0-1.889H926.245c-.026.052-.051.079-.051.107-.006.612,0,1.223-.015,1.834-.012.748-.317,1.05-1.062,1.057-.575.005-1.149,0-1.737,0v34.113c.064.028.093.052.121.052.531.006,1.062.007,1.593.012.779.008,1.076.3,1.084,1.083C926.186-599.017,926.181-598.392,926.181-597.737Zm-1.722-38.852v-4.249h-3.911v4.249Zm40.059-4.253h-3.928v4.238h3.928Zm-43.971,41.8v4.24h3.915v-4.24Zm40.03,4.253H964.5v-4.244h-3.923Z" transform="translate(-918.834 642.545)" fill="#EFDF00"/>
      <path id="Path_696" data-name="Path 696" d="M1028.551-544.637a2.5,2.5,0,0,1,1.754.771c1.619,1.614,3.25,3.217,4.845,4.854a2.46,2.46,0,0,1-.1,3.687q-4.242,4.262-8.495,8.513-4.094,4.1-8.185,8.208a2.846,2.846,0,0,1-1.447.8c-2.853.646-5.7,1.316-8.55,1.978-1.05.244-1.509-.22-1.264-1.279.666-2.881,1.317-5.767,2.016-8.64a2.758,2.758,0,0,1,.684-1.235q8.384-8.419,16.8-16.8A2.692,2.692,0,0,1,1028.551-544.637Zm.111,8.55-13.647,13.646,2.309,2.307,13.69-13.6Zm-3.664-3.65-13.592,13.7,2.291,2.3,13.647-13.641Zm1.355-1.312,6.035,6.034c.467-.474.976-.985,1.479-1.5a.849.849,0,0,0,0-1.411c-.711-.721-1.431-1.434-2.147-2.151-.841-.842-1.679-1.687-2.525-2.524-.422-.418-.831-.5-1.189-.157C1027.414-542.2,1026.871-541.59,1026.354-541.049Zm-10.79,21.834-5.066-5.095c-.185.8-.386,1.625-.555,2.455a.545.545,0,0,0,.164.4q1.3,1.328,2.628,2.631a.509.509,0,0,0,.357.171C1013.936-518.828,1014.774-519.032,1015.564-519.215Zm-4.722,1.089-1.447-1.421-.421,1.859Z" transform="translate(-997.779 554.918)"/>
    </g>
  </g>
</svg>
