<svg xmlns="http://www.w3.org/2000/svg" width="42.73" height="40" viewBox="0 0 42.73 40">
  <g id="Group_2117" data-name="Group 2117" transform="translate(-235.458 -197.213)">
    <g id="Group_2082" data-name="Group 2082" transform="translate(214.958 175.488)">
      <path id="Path_706" data-name="Path 706" d="M37.668,32.736a.957.957,0,0,0,1.387,0l7.594-7.528V51.556a.991.991,0,0,0,1.981,0V25.208l7.528,7.528a.981.981,0,1,0,1.387-1.387L48.3,22.1l-.066-.066a.065.065,0,0,0-.066-.066h0a.837.837,0,0,0-1.189,0h0a.065.065,0,0,1-.066.066l-.066.066L37.6,31.349A1.193,1.193,0,0,0,37.668,32.736Z" transform="translate(-5.744)" fill="#fff"/>
      <path id="Path_707" data-name="Path 707" d="M62.3,57.2a1.016,1.016,0,0,0-.991.991v13.6H22.481v-13.6a.991.991,0,1,0-1.981,0V72.784a1.016,1.016,0,0,0,.991.991H62.233a1.016,1.016,0,0,0,.991-.991V58.191A.919.919,0,0,0,62.3,57.2Z" transform="translate(0 -12.05)" fill="#fff"/>
    </g>
  </g>
</svg>
