<svg xmlns="http://www.w3.org/2000/svg" width="10.812" height="18.452" viewBox="0 0 10.812 18.452">
  <g id="Group_2114" data-name="Group 2114" transform="translate(-23.8 -5.2)">
    <path id="Path_719" data-name="Path 719" d="M26.848,23.611l.124.041h.082L31.5,21.757a.206.206,0,0,0,.124-.185V19h.227a.206.206,0,0,0,.206-.206,11.986,11.986,0,0,1,1.174-5.148l1.359-2.821a.2.2,0,0,0,.021-.082V5.406a.206.206,0,0,0-.412,0v5.128H24.212V5.406a.206.206,0,0,0-.412,0V10.74a.2.2,0,0,0,.021.082l1.359,2.821a11.986,11.986,0,0,1,1.174,5.148A.206.206,0,0,0,26.56,19h.227v4.448A.205.205,0,0,0,26.848,23.611Zm4.366-2.2-4.036,1.73V19.018h4.036ZM25.53,13.458l-1.194-2.512h9.72l-1.194,2.512a12.4,12.4,0,0,0-1.215,5.128h-4.9A12.4,12.4,0,0,0,25.53,13.458Z" fill="#fff"/>
  </g>
</svg>
