<svg xmlns="http://www.w3.org/2000/svg" width="34.047" height="17.55" viewBox="0 0 34.047 17.55">
  <path id="Path_723" data-name="Path 723" d="M11.691-17.28H7.776L.432,0H4.374L5.886-3.672h7.533L14.931,0h4.1ZM7.263-7.047l2.4-5.8,2.376,5.8ZM34.479,0V-13.5H31.86l-.7,1.377a5.723,5.723,0,0,0-4.131-1.647,6.718,6.718,0,0,0-6.669,7.02A6.718,6.718,0,0,0,27.027.27a5.723,5.723,0,0,0,4.131-1.647L31.86,0ZM31.05-6.75a3.443,3.443,0,0,1-3.483,3.726A3.428,3.428,0,0,1,24.084-6.75,3.451,3.451,0,0,1,27.567-10.5,3.466,3.466,0,0,1,31.05-6.75Z" transform="translate(-0.432 17.28)" fill="#fff"/>
</svg>
