<svg xmlns="http://www.w3.org/2000/svg" width="21" height="14" viewBox="0 0 21 14">
  <g id="Group_2118" data-name="Group 2118" transform="translate(-71)">
    <g id="Group_2117" data-name="Group 2117">
      <g id="Path_721" data-name="Path 721" transform="translate(71)" fill="#fff">
        <path d="M 7 13.75 C 3.278039932250977 13.75 0.25 10.72196006774902 0.25 7 C 0.25 3.278039932250977 3.278039932250977 0.25 7 0.25 C 10.72196006774902 0.25 13.75 3.278039932250977 13.75 7 C 13.75 10.72196006774902 10.72196006774902 13.75 7 13.75 Z" stroke="none"/>
        <path d="M 7 0.5 C 3.415889739990234 0.5 0.5 3.415889739990234 0.5 7 C 0.5 10.58411026000977 3.415889739990234 13.5 7 13.5 C 10.58411026000977 13.5 13.5 10.58411026000977 13.5 7 C 13.5 3.415889739990234 10.58411026000977 0.5 7 0.5 M 7 0 C 10.86598968505859 0 14 3.134010314941406 14 7 C 14 10.86598968505859 10.86598968505859 14 7 14 C 3.134010314941406 14 0 10.86598968505859 0 7 C 0 3.134010314941406 3.134010314941406 0 7 0 Z" stroke="none" fill="#fff"/>
      </g>
      <g id="Path_720" data-name="Path 720" transform="translate(78)" fill="#2e2e2e">
        <path d="M 7 13.75 C 3.278039932250977 13.75 0.25 10.72196006774902 0.25 7 C 0.25 3.278039932250977 3.278039932250977 0.25 7 0.25 C 10.72196006774902 0.25 13.75 3.278039932250977 13.75 7 C 13.75 10.72196006774902 10.72196006774902 13.75 7 13.75 Z" stroke="none"/>
        <path d="M 7 0.5 C 3.415889739990234 0.5 0.5 3.415889739990234 0.5 7 C 0.5 10.58411026000977 3.415889739990234 13.5 7 13.5 C 10.58411026000977 13.5 13.5 10.58411026000977 13.5 7 C 13.5 3.415889739990234 10.58411026000977 0.5 7 0.5 M 7 0 C 10.86598968505859 0 14 3.134010314941406 14 7 C 14 10.86598968505859 10.86598968505859 14 7 14 C 3.134010314941406 14 0 10.86598968505859 0 7 C 0 3.134010314941406 3.134010314941406 0 7 0 Z" stroke="none" fill="#fff"/>
      </g>
    </g>
  </g>
</svg>
