<svg xmlns="http://www.w3.org/2000/svg" width="29.954" height="33.074" viewBox="0 0 29.954 33.074">
  <path id="Caminho_1014" data-name="Caminho 1014" d="M643.38,117.538a73.459,73.459,0,0,1-7.489,3.792l-.864-.576c.72-3.023,1.152-4.847,2.016-7.68a13.914,13.914,0,0,1-3.744-9.841c0-9.217,5.809-14.977,14.978-14.977,9.264,0,14.976,5.856,14.976,15.072,0,9.122-5.664,14.882-14.737,14.882A22.552,22.552,0,0,1,643.38,117.538Zm-5.761.912a37.161,37.161,0,0,0,5.425-3.024,17.873,17.873,0,0,0,5.617.863c7.824,0,12.625-4.751,12.625-12.961s-4.945-13.152-13.009-13.152c-7.921,0-13.01,4.9-13.01,13.057a14.615,14.615,0,0,0,3.841,9.457C638.627,114.514,638.148,116.243,637.619,118.45Zm3.745-18.913a1.609,1.609,0,1,1,1.584,1.584A1.6,1.6,0,0,1,641.364,99.537Zm0,7.44a1.579,1.579,0,0,1,1.584-1.632,1.608,1.608,0,1,1,0,3.216A1.567,1.567,0,0,1,641.364,106.977Zm8.256-2.736H645.4v-1.968h4.224Zm1.2-7.729,1.488-.96a12.413,12.413,0,0,1,3.024,7.585,12.223,12.223,0,0,1-3.024,7.633l-1.488-.912a10.1,10.1,0,0,0,2.544-6.721A9.955,9.955,0,0,0,650.821,96.512Z" transform="translate(-633.299 -88.256)" fill="#1d1d1b"/>
</svg>
