<svg xmlns="http://www.w3.org/2000/svg" width="28.131" height="28.035" viewBox="0 0 28.131 28.035">
  <g id="Grupo_2975" data-name="Grupo 2975" transform="translate(-708.053 -155.423)">
    <path id="Caminho_1010" data-name="Caminho 1010" d="M722.118,155.423c-8.592,0-14.065,5.425-14.065,14.018,0,8.545,5.473,14.017,14.065,14.017s14.066-5.472,14.066-14.017C736.184,160.848,730.759,155.423,722.118,155.423Zm0,26.115c-7.44,0-12.1-4.657-12.1-12.1,0-7.489,4.608-12.1,12.1-12.1s12.1,4.609,12.1,12.1C734.215,176.881,729.608,181.538,722.118,181.538Z" fill="#1d1d1b"/>
    <path id="Caminho_1011" data-name="Caminho 1011" d="M726.247,171.36,727.4,172.8a6.485,6.485,0,0,1-5.281,2.688,6.416,6.416,0,0,1-5.28-2.688l1.152-1.441a5.024,5.024,0,0,0,8.257,0Z" fill="#1d1d1b"/>
    <path id="Caminho_1012" data-name="Caminho 1012" d="M720.391,165.84a1.753,1.753,0,1,1-1.777-1.776A1.563,1.563,0,0,1,720.391,165.84Z" fill="#1d1d1b"/>
    <path id="Caminho_1013" data-name="Caminho 1013" d="M725.6,164.718a5.439,5.439,0,0,0-2.711.684l1.3,1.587a3.463,3.463,0,0,1,2.833,0l1.3-1.587A5.449,5.449,0,0,0,725.6,164.718Z" fill="#1d1d1b"/>
  </g>
</svg>
