<svg xmlns="http://www.w3.org/2000/svg" xmlns:xlink="http://www.w3.org/1999/xlink" width="28.131" height="28.035" viewBox="0 0 28.131 28.035">
  <defs>
    <clipPath id="clip-path">
      <rect id="Retângulo_768" data-name="Retângulo 768" width="28.131" height="28.035" transform="translate(0 0)"/>
    </clipPath>
  </defs>
  <g id="Grupo_2645" data-name="Grupo 2645" transform="translate(0 0)">
    <g id="Grupo_2644" data-name="Grupo 2644" clip-path="url(#clip-path)">
      <path id="Caminho_908" data-name="Caminho 908" d="M14.066,0c8.64,0,14.065,5.425,14.065,14.018,0,8.544-5.473,14.017-14.065,14.017S0,22.562,0,14.018C0,5.425,5.473,0,14.066,0m0,1.92c-7.489,0-12.1,4.609-12.1,12.1,0,7.44,4.656,12.1,12.1,12.1,7.488,0,12.1-4.657,12.1-12.1,0-7.489-4.608-12.1-12.1-12.1M9.937,20.21,8.785,18.77a6.6,6.6,0,0,1,5.281-2.737,6.67,6.67,0,0,1,5.28,2.737l-1.152,1.44C16.85,18.722,15.65,18,14.066,18s-2.785.72-4.129,2.208m2.4-9.793a1.563,1.563,0,0,1-1.776,1.729,1.568,1.568,0,0,1-1.728-1.729,1.562,1.562,0,0,1,1.728-1.776,1.557,1.557,0,0,1,1.776,1.776m6.961,0a1.563,1.563,0,0,1-1.776,1.729,1.568,1.568,0,0,1-1.728-1.729,1.562,1.562,0,0,1,1.728-1.776A1.557,1.557,0,0,1,19.3,10.417"/>
    </g>
  </g>
</svg>
