<svg xmlns="http://www.w3.org/2000/svg" xmlns:xlink="http://www.w3.org/1999/xlink" width="32.11" height="32" viewBox="0 0 32.11 32">
  <defs>
    <clipPath id="clip-path">
      <rect id="Retângulo_684" data-name="Retângulo 684" width="32.11" height="32" fill="none"/>
    </clipPath>
  </defs>
  <g id="Grupo_2551" data-name="Grupo 2551" transform="translate(0 0)">
    <g id="Grupo_2550" data-name="Grupo 2550" transform="translate(0 0)" clip-path="url(#clip-path)">
      <path id="Caminho_842" data-name="Caminho 842" d="M16.055,0C25.917,0,32.11,6.192,32.11,16c0,9.752-6.247,16-16.054,16S0,25.753,0,16C0,6.192,6.247,0,16.055,0m0,2.192C7.507,2.192,2.247,7.452,2.247,16c0,8.492,5.314,13.808,13.808,13.808,8.548,0,13.807-5.316,13.807-13.808,0-8.548-5.259-13.809-13.807-13.809m4.712,16,1.315,1.645A7.4,7.4,0,0,1,16.055,22.9a7.326,7.326,0,0,1-6.028-3.068l1.316-1.645c1.533,1.754,2.9,2.467,4.712,2.467s3.178-.712,4.712-2.467m-6.684-6.3a1.784,1.784,0,0,1-2.027,1.974,1.791,1.791,0,0,1-1.974-1.974,1.783,1.783,0,0,1,1.974-2.027,1.778,1.778,0,0,1,2.027,2.027m7.944,0A1.784,1.784,0,0,1,20,13.864a1.79,1.79,0,0,1-1.972-1.974A1.783,1.783,0,0,1,20,9.863a1.778,1.778,0,0,1,2.027,2.027" transform="translate(0 0)" fill="#1d1d1b"/>
    </g>
  </g>
</svg>
