<svg xmlns="http://www.w3.org/2000/svg" width="66.784" height="10.517" viewBox="0 0 66.784 10.517"><g transform="translate(4945 -1243.75)"><path d="M8.267,3,9.894,6.3l3.639.532L10.9,9.394l.621,3.624L8.267,11.306,5.012,13.017l.621-3.624L3,6.829,6.639,6.3Z" transform="translate(-4948 1241)" fill="#ffd500"/><path d="M8.267,3,9.894,6.3l3.639.532L10.9,9.394l.621,3.624L8.267,11.306,5.012,13.017l.621-3.624L3,6.829,6.639,6.3Z" transform="translate(-4934 1241)" fill="#ffd500"/><path d="M8.267,3,9.894,6.3l3.639.532L10.9,9.394l.621,3.624L8.267,11.306,5.012,13.017l.621-3.624L3,6.829,6.639,6.3Z" transform="translate(-4920 1241)" fill="#ffd500"/><path d="M8.267,3,9.894,6.3l3.639.532L10.9,9.394l.621,3.624L8.267,11.306,5.012,13.017l.621-3.624L3,6.829,6.639,6.3Z" transform="translate(-4906 1241)" fill="#ffd500"/><path d="M8.267,3,9.894,6.3l3.639.532L10.9,9.394l.621,3.624L8.267,11.306,5.012,13.017l.621-3.624L3,6.829,6.639,6.3Z" transform="translate(-4892 1241)" fill="none" stroke="#656565" stroke-linecap="round" stroke-linejoin="round" stroke-width="0.5"/></g></svg>