<?xml version="1.0" encoding="UTF-8"?>
<!DOCTYPE svg PUBLIC "-//W3C//DTD SVG 1.1//EN" "http://www.w3.org/Graphics/SVG/1.1/DTD/svg11.dtd">
<!-- Creator: CorelDRAW 2017 -->
<svg xmlns="http://www.w3.org/2000/svg" xml:space="preserve" width="15px" height="15px" version="1.1" style="shape-rendering:geometricPrecision; text-rendering:geometricPrecision; image-rendering:optimizeQuality; fill-rule:evenodd; clip-rule:evenodd"
viewBox="0 0 15 15"
 xmlns:xlink="http://www.w3.org/1999/xlink">
 <defs>
  <style type="text/css">
   <![CDATA[
    .fil0 {fill:#FFD500}
    .fil1 {fill:#FFD500;fill-rule:nonzero}
   ]]>
  </style>
 </defs>
 <g id="Layer_x0020_1">
  <metadata id="CorelCorpID_0Corel-Layer"/>
  <g>
   <polygon id="Icon_feather-star" class="fil0" points="7.5,2.94 8.98,5.94 12.29,6.43 9.9,8.76 10.46,12.06 7.5,10.5 4.54,12.06 5.1,8.76 2.71,6.43 6.02,5.94 " data-name="Icon feather-star"/>
   <path id="1" class="fil1" d="M8.78 6.04l-1.48 -3 0.4 -0.2 1.48 3.01 -0.23 0.32 -0.17 -0.13zm0.4 -0.19c0.06,0.1 0.01,0.24 -0.1,0.3 -0.11,0.05 -0.25,0 -0.3,-0.11l0.4 -0.19zm3.08 0.8l-3.31 -0.48 0.06 -0.45 3.31 0.49 0.13 0.38 -0.19 0.06zm0.06 -0.44c0.12,0.01 0.21,0.13 0.19,0.25 -0.01,0.12 -0.13,0.21 -0.25,0.19l0.06 -0.44zm-2.58 2.39l2.4 -2.33 0.31 0.32 -2.4 2.33 -0.38 -0.12 0.07 -0.2zm0.31 0.32c-0.09,0.08 -0.23,0.08 -0.32,0 -0.08,-0.09 -0.08,-0.24 0.01,-0.32l0.31 0.32zm0.19 3.18l-0.57 -3.3 0.45 -0.08 0.56 3.3 -0.32 0.24 -0.12 -0.16zm0.44 -0.08c0.02,0.12 -0.06,0.24 -0.18,0.26 -0.12,0.02 -0.24,-0.06 -0.26,-0.18l0.44 -0.08zm-3.08 -1.72l2.97 1.56 -0.21 0.4 -2.96 -1.56 0 -0.4 0.2 0zm-0.2 0.4c-0.11,-0.06 -0.16,-0.2 -0.1,-0.3 0.06,-0.11 0.2,-0.16 0.3,-0.1l-0.2 0.4zm-2.97 1.16l2.97 -1.56 0.2 0.4 -2.96 1.55 -0.32 -0.23 0.11 -0.16zm0.21 0.39c-0.11,0.06 -0.24,0.02 -0.3,-0.09 -0.06,-0.11 -0.01,-0.25 0.09,-0.3l0.21 0.39zm0.69 -3.45l-0.57 3.29 -0.44 -0.07 0.56 -3.3 0.38 -0.12 0.07 0.2zm-0.45 -0.08c0.02,-0.12 0.14,-0.2 0.26,-0.18 0.12,0.02 0.21,0.13 0.19,0.26l-0.45 -0.08zm-2.02 -2.45l2.4 2.33 -0.31 0.32 -2.4 -2.33 0.13 -0.39 0.18 0.07zm-0.31 0.32c-0.09,-0.09 -0.09,-0.23 0,-0.32 0.08,-0.09 0.23,-0.09 0.31,0l-0.31 0.32zm3.5 -0.42l-3.31 0.48 -0.06 -0.45 3.31 -0.48 0.23 0.32 -0.17 0.13zm-0.06 -0.45c0.12,-0.01 0.24,0.07 0.25,0.19 0.02,0.12 -0.07,0.24 -0.19,0.26l-0.06 -0.45zm1.71 -2.68l-1.48 3 -0.4 -0.19 1.48 -3.01 0.4 0 0 0.2zm-0.4 -0.2c0.05,-0.11 0.19,-0.15 0.3,-0.1 0.11,0.06 0.16,0.19 0.1,0.3l-0.4 -0.2z"/>
  </g>
 </g>
</svg>
