<svg xmlns="http://www.w3.org/2000/svg" width="34.953" height="34.953" viewBox="0 0 34.953 34.953"><g transform="translate(-316.083 -406.075)"><g transform="translate(328.63 409.245)"><path d="M340.807,419.8a5.657,5.657,0,0,1-1.82-.678c-.278-.129-.642-.3-.817-.366-.174.066-.54.237-.816.366a5.657,5.657,0,0,1-1.82.678.807.807,0,0,1-.39-.12c-.381-.277-.342-.767-.154-2.276.037-.3.087-.7.1-.888-.117-.146-.391-.439-.6-.661-1.037-1.111-1.359-1.485-1.214-1.932s.624-.56,2.116-.848c.3-.058.694-.134.873-.184.1-.155.3-.507.446-.774.735-1.329.99-1.751,1.461-1.751s.727.422,1.461,1.751c.149.267.343.618.446.774.181.05.575.126.875.184,1.493.288,1.971.4,2.116.849s-.175.821-1.214,1.931c-.209.223-.482.516-.6.661.009.187.058.586.1.891.187,1.507.227,2-.152,2.273a.8.8,0,0,1-.391.121ZM334.6,414.35c.215.25.5.554.686.754.623.667.788.859.854,1.064a3.632,3.632,0,0,1-.065,1.366c-.034.272-.086.686-.113,1.016.3-.127.679-.3.928-.421a1.926,1.926,0,0,1,2.558,0c.249.116.625.292.93.42-.028-.329-.079-.739-.112-1.01a3.691,3.691,0,0,1-.067-1.369c.067-.206.233-.4.857-1.064.186-.2.471-.506.687-.755-.322-.076-.73-.154-1-.206a3.708,3.708,0,0,1-1.321-.359c-.175-.127-.306-.345-.748-1.144-.133-.24-.333-.6-.5-.887-.171.282-.373.646-.506.887-.441.8-.573,1.016-.748,1.144a3.694,3.694,0,0,1-1.319.359C335.329,414.2,334.921,414.274,334.6,414.35Z" transform="translate(-333.242 -410.361)" fill="#747474" stroke="#747474" stroke-linecap="round" stroke-linejoin="round" stroke-width="0.35"/></g><g transform="translate(317.715 413.535)"><path d="M349.4,437.74a.547.547,0,0,1-.546-.546V418.982a1.642,1.642,0,0,0-1.639-1.639.546.546,0,0,1,0-1.093,2.735,2.735,0,0,1,2.732,2.732v18.212A.547.547,0,0,1,349.4,437.74Zm-30.6,0a.547.547,0,0,1-.546-.546V418.982a2.736,2.736,0,0,1,2.732-2.732.546.546,0,0,1,0,1.093,1.642,1.642,0,0,0-1.639,1.639v18.212A.547.547,0,0,1,318.8,437.74Z" transform="translate(-318.258 -416.25)" fill="#747474" stroke="#747474" stroke-linecap="round" stroke-linejoin="round" stroke-width="0.35"/></g><g transform="translate(322.086 406.25)"><path d="M328.447,427.012a.557.557,0,0,1-.228-.05.549.549,0,0,1-.318-.5v-3.825h-.911a2.736,2.736,0,0,1-2.732-2.732V408.982a2.736,2.736,0,0,1,2.732-2.732h17.484a2.735,2.735,0,0,1,2.732,2.732v10.927a2.735,2.735,0,0,1-2.732,2.732H333.748L328.8,426.88A.542.542,0,0,1,328.447,427.012Zm-1.457-19.669a1.642,1.642,0,0,0-1.639,1.639v10.927a1.642,1.642,0,0,0,1.639,1.639h1.457a.547.547,0,0,1,.546.546v3.183l4.2-3.6a.546.546,0,0,1,.355-.132h10.927a1.642,1.642,0,0,0,1.639-1.639V408.982a1.642,1.642,0,0,0-1.639-1.639Z" transform="translate(-324.258 -406.25)" fill="#747474" stroke="#747474" stroke-linecap="round" stroke-linejoin="round" stroke-width="0.35"/></g><g transform="translate(316.258 434.661)"><path d="M348.858,451.442h-30.6a2.111,2.111,0,0,1-2-2V445.8a.547.547,0,0,1,.546-.546h33.51a.547.547,0,0,1,.546.546v3.642A2.11,2.11,0,0,1,348.858,451.442Zm-31.507-5.1v3.1a1.032,1.032,0,0,0,.911.911h30.6a1.032,1.032,0,0,0,.911-.911v-3.1Z" transform="translate(-316.258 -445.25)" fill="#747474" stroke="#747474" stroke-linecap="round" stroke-linejoin="round" stroke-width="0.35"/></g><g transform="translate(329.371 434.661)"><path d="M342.089,448.528H334.8a.547.547,0,0,1-.546-.546V445.8a.546.546,0,0,1,1.093,0v1.639h6.192V445.8a.546.546,0,0,1,1.093,0v2.185A.547.547,0,0,1,342.089,448.528Z" transform="translate(-334.258 -445.25)" fill="#747474" stroke="#747474" stroke-linecap="round" stroke-linejoin="round" stroke-width="0.35"/></g></g></svg>