<svg xmlns="http://www.w3.org/2000/svg" width="19.195" height="33.944" viewBox="0 0 19.195 33.944"><g transform="translate(-1334.243 -370.357)"><path d="M1350.688,370.357h-13.695a2.754,2.754,0,0,0-2.75,2.75v28.444a2.754,2.754,0,0,0,2.75,2.75h13.695a2.753,2.753,0,0,0,2.75-2.75V373.107A2.753,2.753,0,0,0,1350.688,370.357Zm-13.695,1.5h13.695a1.251,1.251,0,0,1,1.25,1.25v2.027h-16.195v-2.027A1.252,1.252,0,0,1,1336.993,371.857Zm14.945,4.777v20.234h-16.195V376.634Zm-1.25,26.167h-13.695a1.252,1.252,0,0,1-1.25-1.25v-3.183h16.195v3.183A1.251,1.251,0,0,1,1350.688,402.8Z" fill="#747474"/><circle cx="1.39" cy="1.39" r="1.39" transform="translate(1342.451 399.31)" fill="#747474"/><path d="M1337.442,392.425h12.8a.617.617,0,0,0,.617-.616V381.7a.617.617,0,0,0-.612-.623h-12.8a.617.617,0,0,0-.616.616v10.116A.617.617,0,0,0,1337.442,392.425Zm6.286-4.073,2.233-1.36,3.662,2.3V391.2l-11.566-.005v-3.44l2.441-1.759,2.494,2.283A.614.614,0,0,0,1343.728,388.352Zm1.908-2.609-2.154,1.312-2.521-2.31a.62.62,0,0,0-.776-.054l-2.127,1.532v-3.911h11.566v5.523l-3.341-2.092a.625.625,0,0,0-.326-.093A.6.6,0,0,0,1345.636,385.743Zm4.6-4.4Z" fill="#747474"/><path d="M1346.661,384.791a1.011,1.011,0,0,0,.28.519,1.022,1.022,0,0,0,.726.3h0a1.025,1.025,0,0,0-.01-2.049h-.008a1.031,1.031,0,0,0-1.016,1.029l.006.2Z" fill="#747474"/></g></svg>