<svg xmlns="http://www.w3.org/2000/svg" xmlns:xlink="http://www.w3.org/1999/xlink" width="28.131" height="28.035" viewBox="0 0 28.131 28.035">
  <defs>
    <clipPath id="clip-path">
      <rect id="Retângulo_761" data-name="Retângulo 761" width="28.131" height="28.035" transform="translate(0 0)" fill="none"/>
    </clipPath>
  </defs>
  <g id="Grupo_2625" data-name="Grupo 2625" transform="translate(0 0)">
    <g id="Grupo_2624" data-name="Grupo 2624" clip-path="url(#clip-path)">
      <path id="Caminho_901" data-name="Caminho 901" d="M14.065,0C22.706,0,28.13,5.425,28.13,14.018c0,8.545-5.472,14.018-14.065,14.018S0,22.563,0,14.018C0,5.425,5.472,0,14.065,0m0,1.92c-7.488,0-12.1,4.61-12.1,12.1,0,7.44,4.657,12.1,12.1,12.1,7.488,0,12.1-4.658,12.1-12.1,0-7.488-4.61-12.1-12.1-12.1m9.985,8.5c0,4.033-1.728,5.665-4.176,5.665-2.5,0-3.985-.72-4.8-5.665H12.961c-.816,4.9-2.256,5.665-4.752,5.665-2.449,0-4.08-1.632-4.08-5.665V8.593c3.359-.1,6.576-.1,9.984-.1,3.457,0,6.529,0,9.937.1ZM18.194,18.1l1.151,1.44a6.8,6.8,0,0,1-5.28,2.449,6.717,6.717,0,0,1-5.28-2.449L9.936,18.1a5.4,5.4,0,0,0,8.258,0" fill="#1d1d1b"/>
    </g>
  </g>
</svg>
