<svg xmlns="http://www.w3.org/2000/svg" xmlns:xlink="http://www.w3.org/1999/xlink" width="20" height="20" viewBox="0 0 20 20">
  <defs>
    <clipPath id="clip-path">
      <rect id="Ret창ngulo_518" data-name="Ret창ngulo 518" width="13" height="13"/>
    </clipPath>
  </defs>
  <g id="Grupo_2246" data-name="Grupo 2246" transform="translate(-96 -689)">
    <g id="Ret창ngulo_515" data-name="Ret창ngulo 515" transform="translate(97 690)" fill="#fff" stroke="#d9d9d6" stroke-width="1">
      <rect width="18" height="18" stroke="none"/>
      <rect x="-0.5" y="-0.5" width="19" height="19" fill="none"/>
    </g>
    <g id="Grupo_2239" data-name="Grupo 2239" transform="translate(99.5 692.5)">
      <g id="Grupo_2238" data-name="Grupo 2238" transform="translate(0 0)" clip-path="url(#clip-path)">
        <path id="Caminho_759" data-name="Caminho 759" d="M10.238,4.033l-.463.793c.889.572,1.336.885,1.828,1.225l-4.471,0v0H6.951V1.326c.365.532.667.963,1.287,1.9l.779-.465A30.326,30.326,0,0,0,6.99,0L6.056,0A25.085,25.085,0,0,0,4.032,2.781l.8.455C5.393,2.342,5.7,1.892,6.037,1.4l.037,4.652H1.325c.532-.365.963-.667,1.9-1.287l-.465-.779A30.421,30.421,0,0,0,0,6.01l0,.934A24.851,24.851,0,0,0,2.78,8.968l.455-.8C2.342,7.607,1.892,7.3,1.4,6.963l4.685-.037v.106h0l-.045,4.635c-.36-.535-.658-.969-1.269-1.909l-.783.458a30.465,30.465,0,0,0,2,2.775L6.917,13a25,25,0,0,0,2.051-2.762l-.793-.463c-.572.889-.886,1.336-1.226,1.828l0-4.471h0V6.918h.08v0l4.635.045c-.535.36-.969.658-1.909,1.269l.458.783a30.423,30.423,0,0,0,2.774-2L13,6.083a25.01,25.01,0,0,0-2.762-2.051" transform="translate(0 0)"/>
      </g>
    </g>
  </g>
</svg>
