<svg xmlns="http://www.w3.org/2000/svg" width="34.372" height="32.018" viewBox="0 0 34.372 32.018">
  <path id="Caminho_1002" data-name="Caminho 1002" d="M208.645,120.13H176l-.865-1.007c5.521-11.377,9.122-18.05,16.61-31.011H192.9c7.536,12.961,11.089,19.634,16.61,31.011Zm-1.727-1.919c-4.946-10.129-8.593-16.754-14.594-27.363-6,10.609-9.648,17.234-14.593,27.363Zm-13.01-4.129a1.584,1.584,0,1,1-1.584-1.584A1.463,1.463,0,0,1,193.908,114.082Zm-2.592-16.417h2.065v7.344l-.145,5.521H191.46l-.144-5.521Z" transform="translate(-175.138 -88.112)" fill="#1d1d1b"/>
</svg>
