<svg xmlns="http://www.w3.org/2000/svg" width="30.305" height="15.598" viewBox="0 0 30.305 15.598">
  <path id="Caminho_1067" data-name="Caminho 1067" d="M-5.584-15.363.814,0H-3.451L-4.6-2.859h-6.2L-11.947,0h-4.125l6.4-15.363Zm-3.82,9h3.41l-1.711-4.242ZM14.232,0h-.937l-.187-2.379A5.433,5.433,0,0,1,11.051-.457,5.846,5.846,0,0,1,8.232.234,5.565,5.565,0,0,1,4.084-1.453,5.907,5.907,0,0,1,2.432-5.766a5.907,5.907,0,0,1,1.652-4.312,5.565,5.565,0,0,1,4.148-1.687,5.774,5.774,0,0,1,2.813.7,5.583,5.583,0,0,1,2.063,1.928l.188-2.379h.938ZM11.766-2.238a4.831,4.831,0,0,0,1.342-3.527,4.811,4.811,0,0,0-1.342-3.521,4.557,4.557,0,0,0-3.393-1.365A4.5,4.5,0,0,0,4.992-9.293,4.854,4.854,0,0,0,3.674-5.766,4.874,4.874,0,0,0,4.992-2.232,4.494,4.494,0,0,0,8.373-.867,4.547,4.547,0,0,0,11.766-2.238Z" transform="translate(16.072 15.363)" fill="#707070"/>
</svg>
