<svg id="Grupo_2256" data-name="Grupo 2256" xmlns="http://www.w3.org/2000/svg" width="31.971" height="18.002" viewBox="0 0 31.971 18.002">
  <path id="Caminho_765" data-name="Caminho 765" d="M1.968,1.92H30V16.082H1.968ZM0,18H31.971V0H0Z" fill="#707070"/>
  <rect id="Retângulo_531" data-name="Retângulo 531" width="1.968" height="1.969" transform="translate(3.984 4.032)" fill="#707070"/>
  <rect id="Retângulo_532" data-name="Retângulo 532" width="3.984" height="1.969" transform="translate(3.984 12.001)" fill="#707070"/>
  <rect id="Retângulo_533" data-name="Retângulo 533" width="3.936" height="1.969" transform="translate(6.001 8.017)" fill="#707070"/>
  <rect id="Retângulo_534" data-name="Retângulo 534" width="3.984" height="1.969" transform="translate(7.969 4.032)" fill="#707070"/>
  <rect id="Retângulo_535" data-name="Retângulo 535" width="12.001" height="1.969" transform="translate(9.985 12.001)" fill="#707070"/>
  <rect id="Retângulo_536" data-name="Retângulo 536" width="3.937" height="1.969" transform="translate(12.001 8.017)" fill="#707070"/>
  <rect id="Retângulo_537" data-name="Retângulo 537" width="4.032" height="1.969" transform="translate(13.969 4.032)" fill="#707070"/>
  <rect id="Retângulo_538" data-name="Retângulo 538" width="3.936" height="1.969" transform="translate(18.05 8.017)" fill="#707070"/>
  <rect id="Retângulo_539" data-name="Retângulo 539" width="3.937" height="1.969" transform="translate(20.018 4.032)" fill="#707070"/>
  <rect id="Retângulo_540" data-name="Retângulo 540" width="2.016" height="1.969" transform="translate(24.002 8.017)" fill="#707070"/>
  <rect id="Retângulo_541" data-name="Retângulo 541" width="3.984" height="1.969" transform="translate(24.002 12.001)" fill="#707070"/>
  <rect id="Retângulo_542" data-name="Retângulo 542" width="1.968" height="1.969" transform="translate(25.97 4.032)" fill="#707070"/>
</svg>
