<svg id="Grupo_2447" data-name="Grupo 2447" xmlns="http://www.w3.org/2000/svg" xmlns:xlink="http://www.w3.org/1999/xlink" width="11.802" height="17.75" viewBox="0 0 11.802 17.75">
  <defs>
    <clipPath id="clip-path">
      <rect id="Retângulo_424" data-name="Retângulo 424" width="11.802" height="17.75" fill="#fff"/>
    </clipPath>
  </defs>
  <g id="Grupo_2142" data-name="Grupo 2142" transform="translate(0 0)" clip-path="url(#clip-path)">
    <path id="Caminho_738" data-name="Caminho 738" d="M5.9,14.587.826,17.75,0,17.42V1.676A1.469,1.469,0,0,1,1.676,0h8.45A1.469,1.469,0,0,1,11.8,1.676V17.42l-.826.306Zm4.933,1.889V1.865c0-.614-.236-.874-.85-.874H1.818c-.614,0-.85.26-.85.874V16.476L5.9,13.407ZM8.049,10.457c-.944-.425-1.487-.708-2.171-1.063-.661.355-1.251.638-2.2,1.063l-.425-.26A18.851,18.851,0,0,1,3.73,7.836c-.566-.519-.945-.92-1.676-1.7l.094-.543c1.015-.189,1.605-.283,2.361-.354.354-.732.684-1.369,1.2-2.289h.4c.519.92.849,1.558,1.2,2.289.731.071,1.3.165,2.313.354l.094.543c-.708.755-1.133,1.18-1.7,1.7A19.371,19.371,0,0,1,8.474,10.2ZM4.39,9.135C5.122,8.78,5.5,8.545,5.9,8.309a16.279,16.279,0,0,0,1.464.8c-.142-.732-.213-1.156-.307-1.581.614-.566.92-.873,1.3-1.251-.8-.118-1.251-.189-1.7-.212A16.359,16.359,0,0,0,5.9,4.508c-.212.425-.4.8-.732,1.558-.5.023-.92.094-1.723.212A14.285,14.285,0,0,0,4.674,7.529c-.094.425-.165.85-.283,1.605" transform="translate(0 0)" fill="#fff"/>
  </g>
</svg>
