<svg id="Grupo_2593" data-name="Grupo 2593" xmlns="http://www.w3.org/2000/svg" xmlns:xlink="http://www.w3.org/1999/xlink" width="32.044" height="43.609" viewBox="0 0 32.044 43.609">
  <defs>
    <clipPath id="clip-path">
      <rect id="Retângulo_707" data-name="Retângulo 707" width="32.044" height="43.609" fill="none"/>
    </clipPath>
  </defs>
  <g id="Grupo_2593-2" data-name="Grupo 2593" transform="translate(0 0)" clip-path="url(#clip-path)">
    <path id="Caminho_850" data-name="Caminho 850" d="M32.044,15.883c0,8.708-5.015,17.764-14.7,27.726H14.629C5.015,33.646,0,24.591,0,15.883,0,6.06,6.339,0,16.022,0S32.044,6.06,32.044,15.883M16.022,41.239C25.148,30.791,28.91,23.2,28.91,15.883c0-7.453-4.877-13.027-12.888-13.027S3.134,8.43,3.134,15.883c0,7.315,3.763,14.908,12.888,25.356m-.07-32.462a6.984,6.984,0,0,1,7.314,7.315,6.966,6.966,0,0,1-7.314,7.244,6.931,6.931,0,0,1-7.174-7.244,6.95,6.95,0,0,1,7.174-7.315m0,2.788A4.211,4.211,0,0,0,11.7,16.092a4.153,4.153,0,0,0,4.249,4.458,4.224,4.224,0,0,0,4.388-4.458,4.281,4.281,0,0,0-4.388-4.528" transform="translate(0 0)" fill="#1d1d1b"/>
  </g>
</svg>
