<svg xmlns="http://www.w3.org/2000/svg" width="51.139" height="26.792" viewBox="0 0 51.139 26.792">
  <path id="Caminho_1048" data-name="Caminho 1048" d="M-13.808.452a12.06,12.06,0,0,1-9.069-3.622,13,13,0,0,1-3.5-9.44,13.935,13.935,0,0,1,3.559-9.937,12.322,12.322,0,0,1,9.431-3.794,11.759,11.759,0,0,1,8.97,3.631A13.388,13.388,0,0,1-1-13.134a13.712,13.712,0,0,1-3.55,9.846A12.184,12.184,0,0,1-13.808.452Zm.253-21.77a5.874,5.874,0,0,0-4.878,2.3,9.6,9.6,0,0,0-1.807,6.1,9.428,9.428,0,0,0,1.807,6.088A5.789,5.789,0,0,0-13.7-4.589,5.847,5.847,0,0,0-8.912-6.766a9.324,9.324,0,0,0,1.771-6.043,10.1,10.1,0,0,0-1.716-6.269A5.6,5.6,0,0,0-13.555-21.318ZM24.756,0h-5.89L8.19-16.278a23.539,23.539,0,0,1-1.3-2.15H6.816q.145,1.373.145,4.191V0H1.451V-25.907H7.738l10.28,15.772q.7,1.066,1.3,2.114h.072a27.7,27.7,0,0,1-.145-3.559V-25.907h5.51Z" transform="translate(26.382 26.341)"/>
</svg>
