<svg id="Grupo_2605" data-name="Grupo 2605" xmlns="http://www.w3.org/2000/svg" width="8.4" height="8.4" viewBox="0 0 8.4 8.4">
  <g id="Grupo_2607" data-name="Grupo 2607">
    <path id="Caminho_853" data-name="Caminho 853" d="M6.615,2.606l-.3.512c.574.369.863.572,1.181.792l-2.889,0v0H4.491V.857c.236.343.431.622.832,1.226l.5-.3A19.6,19.6,0,0,0,4.516,0l-.6,0A16.208,16.208,0,0,0,2.605,1.8l.515.294c.364-.578.564-.868.78-1.188l.024,3.006H.856c.343-.236.622-.431,1.226-.832l-.3-.5A19.656,19.656,0,0,0,0,3.883v.6A16.057,16.057,0,0,0,1.8,5.795l.294-.515C1.513,4.915,1.223,4.716.9,4.5L3.93,4.475v.069h0L3.9,7.538c-.233-.345-.425-.626-.82-1.234l-.506.3A19.685,19.685,0,0,0,3.866,8.393l.6.007A16.15,16.15,0,0,0,5.794,6.616l-.512-.3c-.37.574-.572.863-.792,1.181l0-2.889h0V4.47h.052v0L7.538,4.5c-.345.233-.626.425-1.234.82l.3.506A19.622,19.622,0,0,0,8.393,4.534l.007-.6A16.16,16.16,0,0,0,6.615,2.606" fill="#fff"/>
  </g>
</svg>
