<svg id="Grupo_2586" data-name="Grupo 2586" xmlns="http://www.w3.org/2000/svg" width="42.528" height="42.39" viewBox="0 0 42.528 42.39">
  <g id="Grupo_2588" data-name="Grupo 2588" transform="translate(0 0)">
    <path id="Caminho_848" data-name="Caminho 848" d="M0,11.049C0,5.628,3.2,2.154,8.478,0L18.972,10.493l-5.7,5.42,13.2,13.2,5.489-5.767L42.528,33.911c-2.154,5.352-6.046,8.548-11.117,8.478-5.839-.071-11.815-3.474-19.875-11.536S0,16.816,0,11.049M31.619,39.608c3.127,0,5.766-1.946,7.5-5.142l-7.089-7.087-5.628,5.7L9.312,15.913l5.7-5.42L7.923,3.4c-3.2,1.669-5.142,4.238-5.142,7.367,0,5,3.266,10.561,10.77,18.067,7.435,7.435,13.134,10.77,18.068,10.77" transform="translate(0)"/>
  </g>
</svg>
