<svg xmlns="http://www.w3.org/2000/svg" xmlns:xlink="http://www.w3.org/1999/xlink" width="22.218" height="23.315" viewBox="0 0 22.218 23.315">
  <defs>
    <clipPath id="clip-path">
      <rect id="Retângulo_1038" data-name="Retângulo 1038" width="22.218" height="23.315" fill="#fff"/>
    </clipPath>
  </defs>
  <g id="Grupo_3032" data-name="Grupo 3032" transform="translate(0 0)">
    <g id="Grupo_3031" data-name="Grupo 3031" transform="translate(0 0)" clip-path="url(#clip-path)">
      <path id="Caminho_1034" data-name="Caminho 1034" d="M11.109,23.315C4.443,23.315,0,18.309,0,11.673S4.443,0,11.109,0,22.218,5.036,22.218,11.673,17.775,23.315,11.109,23.315M6.191,11.05a26.156,26.156,0,0,1,.475-4.858c-1.482.118-2.933.267-4.385.5A11.347,11.347,0,0,0,1.215,11.05Zm.475,6.044a25.823,25.823,0,0,1-.475-4.829H1.215a11.876,11.876,0,0,0,1.037,4.326c1.452.236,2.933.385,4.414.5m1.955,4.77a8.974,8.974,0,0,1-1.689-3.585C5.6,18.19,4.3,18.071,2.962,17.893a9.214,9.214,0,0,0,5.659,3.97M2.991,5.392c1.3-.178,2.607-.3,3.94-.386A8.633,8.633,0,0,1,8.591,1.452a9.161,9.161,0,0,0-5.6,3.94m4.918.74a27.363,27.363,0,0,0-.5,4.918h7.407a27.3,27.3,0,0,0-.5-4.918q-1.6-.088-3.2-.088t-3.2.088m6.4,11.022a27.25,27.25,0,0,0,.5-4.888H7.406a27.309,27.309,0,0,0,.5,4.888q1.6.088,3.2.088t3.2-.088m-3.762-16c-1.007.385-1.808,1.808-2.34,3.762.948-.029,1.925-.059,2.9-.059s1.956.03,2.9.059c-.533-1.954-1.333-3.377-2.34-3.762H10.546ZM8.206,18.367c.533,2.015,1.392,3.466,2.428,3.792h.919c1.066-.326,1.926-1.777,2.459-3.792-.947.03-1.925.059-2.9.059s-1.955-.03-2.9-.059m5.391,3.5a9.053,9.053,0,0,0,5.659-3.97c-1.3.178-2.636.3-3.97.385A8.982,8.982,0,0,1,13.6,21.863M19.256,5.392a9.222,9.222,0,0,0-5.628-3.94,9.042,9.042,0,0,1,1.658,3.555c1.334.089,2.637.208,3.97.386M21,11.05a11.926,11.926,0,0,0-1.037-4.355c-1.481-.236-2.933-.385-4.414-.5a26.209,26.209,0,0,1,.475,4.858Zm-5.452,6.044c1.481-.118,2.963-.267,4.414-.5A11.914,11.914,0,0,0,21,12.265H16.027a25.875,25.875,0,0,1-.475,4.829" transform="translate(0 0)" fill="#fff"/>
    </g>
  </g>
</svg>
