<svg xmlns="http://www.w3.org/2000/svg" width="24.24" height="24.241" viewBox="0 0 24.24 24.241">
  <path id="Caminho_840" data-name="Caminho 840" d="M12.12,0C19.7,0,24.24,4.915,24.24,12.121c0,7.164-4.539,12.12-12.12,12.12S0,19.285,0,12.121C0,4.915,4.54,0,12.12,0m0,1.708C5.5,1.708,1.708,5.915,1.708,12.121c0,6.165,3.79,10.413,10.413,10.413s10.413-4.248,10.413-10.413c0-6.206-3.791-10.413-10.413-10.413M4.873,12.121a1.355,1.355,0,0,1,1.5-1.541,1.368,1.368,0,0,1,1.541,1.541,1.355,1.355,0,0,1-1.541,1.5,1.343,1.343,0,0,1-1.5-1.5m5.747,0a1.355,1.355,0,0,1,1.5-1.541,1.368,1.368,0,0,1,1.541,1.541,1.355,1.355,0,0,1-1.541,1.5,1.343,1.343,0,0,1-1.5-1.5m5.748,0a1.355,1.355,0,0,1,1.5-1.541,1.367,1.367,0,0,1,1.54,1.541,1.354,1.354,0,0,1-1.54,1.5,1.343,1.343,0,0,1-1.5-1.5"/>
</svg>
