<svg xmlns="http://www.w3.org/2000/svg" xmlns:xlink="http://www.w3.org/1999/xlink" width="19.26" height="21.194" viewBox="0 0 19.26 21.194">
  <defs>
    <clipPath id="clip-path">
      <rect id="Retângulo_418" data-name="Retângulo 418" width="19.26" height="21.194" stroke="#000" stroke-width="0.5"/>
    </clipPath>
  </defs>
  <g id="Grupo_2177" data-name="Grupo 2177" transform="translate(0 0)">
    <g id="Grupo_2137" data-name="Grupo 2137" transform="translate(0 0)" clip-path="url(#clip-path)">
      <path id="Caminho_734" data-name="Caminho 734" d="M0,17.845a29.643,29.643,0,0,1,1.068-5.4L13.4,0l5.342,5.429L6.381,17.786A27.4,27.4,0,0,1,.953,18.8Zm2.974-.434a26.231,26.231,0,0,0,2.686-.577c-1.155-1.3-2.282-2.425-3.638-3.7a22.655,22.655,0,0,0-.635,2.714c.577.52,1.039.982,1.588,1.559m-.115-5.139c1.241,1.155,2.454,2.368,3.667,3.7L17.065,5.429,13.4,1.732Zm.779,7.738H19.259v1.184H3.638Z" transform="translate(0 0)" stroke="#000" stroke-width="0.5"/>
    </g>
  </g>
</svg>
