<svg id="Grupo_2580" data-name="Grupo 2580" xmlns="http://www.w3.org/2000/svg" width="22.254" height="19.484" viewBox="0 0 22.254 19.484">
  <g id="Grupo_2572" data-name="Grupo 2572" transform="translate(0 3.025)">
    <path id="Caminho_843" data-name="Caminho 843" d="M19.7,4.031H2.558A2.242,2.242,0,0,0,0,6.588V17.934a2.242,2.242,0,0,0,2.558,2.557H19.7a2.242,2.242,0,0,0,2.558-2.557V6.588A2.242,2.242,0,0,0,19.7,4.031M11.127,17.47A4.889,4.889,0,0,1,5.9,12.261a4.889,4.889,0,0,1,5.226-5.208,4.889,4.889,0,0,1,5.226,5.208,4.889,4.889,0,0,1-5.226,5.209" transform="translate(0 -4.031)"/>
    <path id="Caminho_844" data-name="Caminho 844" d="M13,9.789A3.175,3.175,0,0,0,9.6,13.172,3.175,3.175,0,0,0,13,16.555a3.175,3.175,0,0,0,3.394-3.383A3.175,3.175,0,0,0,13,9.789" transform="translate(-1.87 -4.942)"/>
  </g>
  <rect id="Retângulo_690" data-name="Retângulo 690" width="4.501" height="1.953" transform="translate(16.311)"/>
</svg>
