<svg xmlns="http://www.w3.org/2000/svg" xmlns:xlink="http://www.w3.org/1999/xlink" width="29.954" height="33.987" viewBox="0 0 29.954 33.987">
  <defs>
    <clipPath id="clip-path">
      <rect id="Retângulo_443" data-name="Retângulo 443" width="29.954" height="33.987"/>
    </clipPath>
  </defs>
  <g id="Grupo_2158" data-name="Grupo 2158" transform="translate(0 0)">
    <g id="Grupo_2157" data-name="Grupo 2157" transform="translate(0 0)" clip-path="url(#clip-path)">
      <path id="Caminho_743" data-name="Caminho 743" d="M0,0H1.968V33.987H0ZM29.954,21.938c-2.3-.864-5.137-1.968-7.728-1.968-3.889,0-5.857,1.968-10.225,1.968-2.689,0-5.377-1.248-8.017-2.208V0c2.592.96,5.04,2.016,7.681,2.016,3.888,0,5.856-1.968,10.225-1.968,2.4,0,5.712,1.2,8.064,2.16ZM5.9,2.784v15.6c2.4.96,4.176,1.632,6.1,1.632,4.464,0,5.856-1.968,10.225-1.968a18.225,18.225,0,0,1,5.808,1.1V3.408a21.3,21.3,0,0,0-6.144-1.44c-4.225,0-5.857,1.969-10.225,1.969A17.025,17.025,0,0,1,5.9,2.784m7.681,9.409h4.992a1.87,1.87,0,0,1,1.441-.672,2.154,2.154,0,0,1,1.488.672H23.33c.672,0,.911-.1.863-.48l-.047-.384a1.167,1.167,0,0,0-.865-1.152l-1.824-.624c-.672-.24-1.344-.816-2.544-1.3A8.923,8.923,0,0,0,15.6,7.681a22.425,22.425,0,0,0-4.56.528L9.553,7.057v-.48a20.223,20.223,0,0,1,5.616-.817,12.271,12.271,0,0,1,4.272.673c1.344.528,2.208,1.344,2.832,1.584l1.968.768a2.483,2.483,0,0,1,1.729,2.256l.1.72c.193,1.44-.815,2.256-2.4,2.256H22.033a2.022,2.022,0,0,1-2.015,1.633A1.963,1.963,0,0,1,18.1,14.017H14.113A2.023,2.023,0,0,1,12.1,15.65a1.961,1.961,0,0,1-1.92-1.633,2.134,2.134,0,0,1-2.3-2.352v-.72a3.292,3.292,0,0,1,.912-2.5l.433-.48a15.216,15.216,0,0,0,1.344,1.248l-.241.24A1.813,1.813,0,0,0,9.7,11.185c0,.624.193,1.008.96,1.008a1.947,1.947,0,0,1,1.441-.672,2.152,2.152,0,0,1,1.488.672" transform="translate(0 0)"/>
    </g>
  </g>
</svg>
