<svg xmlns="http://www.w3.org/2000/svg" xmlns:xlink="http://www.w3.org/1999/xlink" width="16.357" height="18" viewBox="0 0 16.357 18">
  <defs>
    <clipPath id="clip-path">
      <rect id="Retângulo_418" data-name="Retângulo 418" width="16.357" height="18" fill="#efdf00"/>
    </clipPath>
  </defs>
  <g id="Grupo_2137" data-name="Grupo 2137" clip-path="url(#clip-path)">
    <path id="Caminho_734" data-name="Caminho 734" d="M0,15.156A25.176,25.176,0,0,1,.907,10.57L11.378,0l4.537,4.61-10.5,10.5a23.267,23.267,0,0,1-4.61.859Zm2.526-.368a22.278,22.278,0,0,0,2.281-.49c-.981-1.1-1.938-2.06-3.09-3.139a19.241,19.241,0,0,0-.539,2.3c.49.441.883.834,1.349,1.324m-.1-4.365c1.054.981,2.084,2.011,3.114,3.139L14.493,4.61,11.378,1.471Zm.662,6.572H16.357V18H3.09Z" transform="translate(0 0)" fill="#efdf00"/>
  </g>
</svg>
