<svg id="Grupo_2955" data-name="Grupo 2955" xmlns="http://www.w3.org/2000/svg" xmlns:xlink="http://www.w3.org/1999/xlink" width="20.349" height="22.394" viewBox="0 0 20.349 22.394">
  <defs>
    <clipPath id="clip-path">
      <rect id="Retângulo_413" data-name="Retângulo 413" width="20.349" height="22.393"/>
    </clipPath>
  </defs>
  <g id="Grupo_2131" data-name="Grupo 2131" transform="translate(0 0)" clip-path="url(#clip-path)">
    <path id="Caminho_733" data-name="Caminho 733" d="M0,18.855a31.321,31.321,0,0,1,1.129-5.705L14.155,0,19.8,5.736,6.742,18.793a28.945,28.945,0,0,1-5.736,1.068ZM3.142,18.4a27.715,27.715,0,0,0,2.838-.61c-1.22-1.373-2.411-2.562-3.844-3.9a23.937,23.937,0,0,0-.671,2.868c.61.549,1.1,1.037,1.678,1.647m-.121-5.43c1.311,1.22,2.593,2.5,3.874,3.9L18.03,5.736,14.155,1.83Zm.823,8.176h16.5v1.251H3.844Z" transform="translate(0 0)"/>
  </g>
</svg>
