<svg id="Grupo_2534" data-name="Grupo 2534" xmlns="http://www.w3.org/2000/svg" width="39.89" height="31.362" viewBox="0 0 39.89 31.362">
  <path id="Caminho_835" data-name="Caminho 835" d="M16.885,19.147a5,5,0,0,0,.886-3.026c0-2.806-1.54-4.621-4.456-4.621s-4.456,1.816-4.456,4.621a5,5,0,0,0,.885,3.026A7.533,7.533,0,0,0,4.676,25.2H7.318c.6-2.751,2.2-4.457,6-4.457s5.392,1.707,6,4.457h2.641a7.529,7.529,0,0,0-5.067-6.053m-3.57-.605c-1.542,0-2.257-.88-2.257-2.421s.715-2.421,2.257-2.421,2.256.88,2.256,2.421-.715,2.421-2.256,2.421M36.093,5.117h-12.1V0H15.846V5.117H3.8C1.155,5.117,0,6.327,0,8.968V27.51c0,2.641,1.155,3.851,3.8,3.851h32.3c2.642,0,3.8-1.21,3.8-3.851V8.968c0-2.641-1.155-3.851-3.8-3.851M18.047,2.2h3.741V5.668c0,1.43-.385,2.365-1.871,2.365S18.047,7.1,18.047,5.668ZM37.69,27.18c0,1.43-.606,1.981-2.037,1.981H4.236c-1.43,0-2.036-.55-2.036-1.981V9.3c0-1.43.605-1.981,2.036-1.981H15.991A3.536,3.536,0,0,0,19.7,10.179h.439a3.537,3.537,0,0,0,3.707-2.862H35.653c1.43,0,2.037.55,2.037,1.981ZM22.174,19.092h8.968v-2.2H22.174Zm0-4.676H34.443v-2.2H22.174Z"/>
</svg>
