<svg xmlns="http://www.w3.org/2000/svg" xmlns:xlink="http://www.w3.org/1999/xlink" width="27.084" height="22" viewBox="0 0 27.084 22">
  <defs>
    <clipPath id="clip-path">
      <rect id="Retângulo_466" data-name="Retângulo 466" width="27.084" height="22" fill="#888b8d"/>
    </clipPath>
  </defs>
  <g id="Grupo_2167" data-name="Grupo 2167" transform="translate(0 0)">
    <g id="Grupo_2166" data-name="Grupo 2166" transform="translate(0 0)" clip-path="url(#clip-path)">
      <path id="Caminho_746" data-name="Caminho 746" d="M0,19.113V3.376H8.418A4.479,4.479,0,0,1,12.078,4.8l2.969,2.928h5.774c1.952,0,2.887.935,2.887,2.887v8.5c0,1.952-.935,2.887-2.887,2.887H2.887C.935,22,0,21.065,0,19.113m3.131,1.22H20.577c1.057,0,1.465-.447,1.465-1.5V10.9c0-1.057-.407-1.5-1.465-1.5H14.355L11.183,6.221A3.583,3.583,0,0,0,8.337,5.042H1.667V18.828c0,1.057.407,1.5,1.464,1.5m22.285-1.708V6.588c0-1.057-.407-1.5-1.465-1.5H16.429L14.274,2.846a3.583,3.583,0,0,0-2.847-1.179H3.375V0h8.133a4.483,4.483,0,0,1,3.66,1.423l1.952,1.992H24.2c1.953,0,2.888,1.017,2.888,3.132V18.625Z" transform="translate(0 0)" fill="#888b8d"/>
    </g>
  </g>
</svg>
