<svg xmlns="http://www.w3.org/2000/svg" xmlns:xlink="http://www.w3.org/1999/xlink" width="38.02" height="31.971" viewBox="0 0 38.02 31.971">
  <defs>
    <clipPath id="clip-path">
      <rect id="Retângulo_445" data-name="Retângulo 445" width="38.02" height="31.971"/>
    </clipPath>
  </defs>
  <g id="Grupo_2162" data-name="Grupo 2162" transform="translate(0 0)">
    <g id="Grupo_2161" data-name="Grupo 2161" transform="translate(0 0)" clip-path="url(#clip-path)">
      <path id="Caminho_745" data-name="Caminho 745" d="M16.033,31.538v-.576c0-5.376-2.256-7.968-7.055-7.968-4.7,0-7.009,2.64-7.009,7.968v1.009H0V30.962C0,25.826,1.824,22.8,5.568,21.65a4.835,4.835,0,0,1-2.111-4.273c0-3.312,2.111-5.424,5.521-5.424S14.5,14.065,14.5,17.377a4.968,4.968,0,0,1-2.063,4.273c2.736.864,4.752,2.784,5.376,6.72l3.7-6.528,1.633.912L18,31.971ZM12.577,17.377a3.257,3.257,0,0,0-3.6-3.5,3.258,3.258,0,0,0-3.6,3.5c0,2.352,1.3,3.7,3.6,3.7s3.6-1.344,3.6-3.7m3.841.576H34.323c1.248,0,1.729-.528,1.729-1.776V3.7c0-1.248-.481-1.776-1.729-1.776H15.746c-1.249,0-1.728.528-1.728,1.776v8.017a4.934,4.934,0,0,0-1.968-1.248V3.409C12.05,1.1,13.153,0,15.458,0H34.611c2.3,0,3.409,1.1,3.409,3.409V16.465c0,2.305-1.1,3.408-3.409,3.408H16.033a4.577,4.577,0,0,0,.385-1.92M18,5.952H32.02V7.969H18Zm0,4.033H28.035V12H18Z" transform="translate(0 0)"/>
    </g>
  </g>
</svg>
