<svg xmlns="http://www.w3.org/2000/svg" xmlns:xlink="http://www.w3.org/1999/xlink" width="34.61" height="33.276" viewBox="0 0 34.61 33.276">
  <defs>
    <clipPath id="clip-path">
      <rect id="Retângulo_444" data-name="Retângulo 444" width="34.61" height="33.276"/>
    </clipPath>
  </defs>
  <g id="Grupo_2160" data-name="Grupo 2160" transform="translate(0 0)">
    <g id="Grupo_2159" data-name="Grupo 2159" transform="translate(0 0)" clip-path="url(#clip-path)">
      <path id="Caminho_744" data-name="Caminho 744" d="M3.216,31.788,1.2,33.277,0,31.788,2.016,30.3a10.031,10.031,0,0,1,6.529-2.4c3.408,0,6.576,1.584,11.569,1.68l11.905-8.16c.48-.337.672-.625.672-.961a1.086,1.086,0,0,0-1.1-1.1,1.535,1.535,0,0,0-.912.336l-5.329,3.552a2.981,2.981,0,0,1-2.88,1.873H15.505V23.2h6.961c.817,0,1.1-.336,1.1-1.057s-.288-1.056-1.1-1.056H9.649c-3.264,0-4.609.432-6.864,2.209L1.2,24.54.048,23l1.584-1.248c2.641-2.065,4.561-2.593,8.065-2.593H22.466A3.052,3.052,0,0,1,25.3,20.939l4.561-3.024a2.649,2.649,0,0,1,1.632-.528,3.049,3.049,0,0,1,3.12,3.121c0,.96-.528,1.775-1.92,2.735l-12,8.305c-5.185,0-8.5-1.728-12.049-1.728a7.845,7.845,0,0,0-5.425,1.968M3.985,3.082l.864-1.488C6.336-.95,10.225-.23,14.5,2.218c4.033,2.3,5.665,4.752,4.225,7.249l5.952,3.408L23.666,14.6l-5.9-3.456c-1.633,2.64-4.465,2.256-8.4,0C5.088,8.7,2.4,5.818,3.985,3.082m2.5-.48-.817,1.44C4.8,5.482,7.057,7.594,10.321,9.514c2.928,1.68,4.848,2.161,5.76.528L16.9,8.65c.912-1.536-.384-3.072-3.313-4.752-3.36-1.92-6.288-2.688-7.1-1.3M8.305,6.154a1.464,1.464,0,0,1-.576-1.872,1.44,1.44,0,0,1,1.92-.432,1.2,1.2,0,0,1,.432,1.824,1.194,1.194,0,0,1-1.776.48" transform="translate(0 0)"/>
    </g>
  </g>
</svg>
