<svg xmlns="http://www.w3.org/2000/svg" width="22.025" height="11.698" viewBox="0 0 22.025 11.698">
  <path id="Caminho_1073" data-name="Caminho 1073" d="M-4.953-11.522.189,0H-1.34L-2.782-3.261h-5.88L-10.085,0h-1.477l5.15-11.522ZM-8.125-4.5h4.808L-5.708-9.976ZM10.463,0H9.479L9.242-1.512A4.015,4.015,0,0,1,7.774-.264,4.262,4.262,0,0,1,5.84.176,4.228,4.228,0,0,1,2.711-1.1,4.458,4.458,0,0,1,1.446-4.377a4.878,4.878,0,0,1,.343-1.837A4.3,4.3,0,0,1,2.72-7.66a4.265,4.265,0,0,1,1.4-.932A4.417,4.417,0,0,1,5.84-8.93a4.228,4.228,0,0,1,1.934.444A4.055,4.055,0,0,1,9.242-7.233l.237-1.512h.984ZM8.3-1.96a3.313,3.313,0,0,0,.91-2.417A3.313,3.313,0,0,0,8.3-6.794,3.077,3.077,0,0,0,6-7.726a3.034,3.034,0,0,0-2.285.932,3.341,3.341,0,0,0-.9,2.417,3.341,3.341,0,0,0,.9,2.417A3.034,3.034,0,0,0,6-1.028,3.077,3.077,0,0,0,8.3-1.96Z" transform="translate(11.562 11.522)" fill="#707070"/>
</svg>
