<svg xmlns="http://www.w3.org/2000/svg" width="22.324" height="11.698" viewBox="0 0 22.324 11.698">
  <path id="Caminho_1071" data-name="Caminho 1071" d="M-4.526-11.522.457,0H-1.775L-2.944-2.786h-5.4L-9.51,0h-2.145l4.983-11.522Zm-3.041,6.9h3.85L-5.643-9.158ZM10.67,0H9.229l-.36-1.151A3.826,3.826,0,0,1,5.845.176,4.374,4.374,0,0,1,3.634-.4,4.293,4.293,0,0,1,2.021-2.039a4.774,4.774,0,0,1-.606-2.408,4.774,4.774,0,0,1,.606-2.408A4.293,4.293,0,0,1,3.634-8.495a4.374,4.374,0,0,1,2.21-.576A3.826,3.826,0,0,1,8.868-7.743l.36-1.151H10.67ZM8.055-2.382a2.837,2.837,0,0,0,.76-2.065,2.853,2.853,0,0,0-.76-2.07A2.568,2.568,0,0,0,6.126-7.3,2.55,2.55,0,0,0,4.2-6.517a2.872,2.872,0,0,0-.751,2.07A2.856,2.856,0,0,0,4.2-2.382,2.558,2.558,0,0,0,6.126-1.6,2.575,2.575,0,0,0,8.055-2.382Z" transform="translate(11.654 11.522)" fill="#707070"/>
</svg>
