<svg xmlns="http://www.w3.org/2000/svg" xmlns:xlink="http://www.w3.org/1999/xlink" width="23.954" height="32.019" viewBox="0 0 23.954 32.019">
  <defs>
    <clipPath id="clip-path">
      <rect id="Retângulo_762" data-name="Retângulo 762" width="23.954" height="32.019" transform="translate(0 0)"/>
    </clipPath>
  </defs>
  <g id="Grupo_2627" data-name="Grupo 2627" transform="translate(0 0)">
    <g id="Grupo_2626" data-name="Grupo 2626" clip-path="url(#clip-path)">
      <path id="Caminho_902" data-name="Caminho 902" d="M23.954,14.017v18H0V14.305C0,11.76.864,9.984,4.272,9.984H5.953V6c0-3.84,2.16-6,5.857-6,3.744,0,6.144,2.111,6.144,6V9.984h1.68c2.929,0,4.32,1.488,4.32,4.033M4.272,12c-1.488,0-2.255.527-2.255,2.352V30H21.986V14.353c0-1.825-.768-2.352-2.256-2.352ZM8.017,6.24V9.984h7.968V6.24c0-2.881-1.727-4.224-4.127-4.224-2.353,0-3.841,1.392-3.841,4.224m4.032,18.625V22.849H12a3.656,3.656,0,0,1-3.984-3.888A3.644,3.644,0,0,1,12,15.121a3.668,3.668,0,0,1,3.984,3.84,3.622,3.622,0,0,1-1.967,3.457v4.416H9.7V24.865ZM12,17.089c-1.392,0-1.968.72-1.968,1.872,0,1.3.576,1.92,1.968,1.92a1.739,1.739,0,0,0,1.969-1.92A1.769,1.769,0,0,0,12,17.089"/>
    </g>
  </g>
</svg>
