<svg xmlns="http://www.w3.org/2000/svg" width="19.087" height="19.087" viewBox="0 0 19.087 19.087">
  <g id="Grupo_2540" data-name="Grupo 2540" transform="translate(-80.963 -385.867)">
    <path id="Retângulo_682" data-name="Retângulo 682" d="M1.605,0H13.116a1.6,1.6,0,0,1,1.6,1.6v11.51a1.606,1.606,0,0,1-1.606,1.606H1.606A1.606,1.606,0,0,1,0,13.115V1.605A1.605,1.605,0,0,1,1.605,0Z" transform="translate(81.713 389.483)" fill="none" stroke="#000" stroke-miterlimit="10" stroke-width="1.5"/>
    <path id="Caminho_838" data-name="Caminho 838" d="M19.865,15.784a.92.92,0,0,0,.92-.92V1.984a.92.92,0,0,0-.92-.921H6.984a.92.92,0,0,0-.92.921" transform="translate(78.515 385.554)" fill="none" stroke="#000" stroke-miterlimit="10" stroke-width="1.5"/>
  </g>
</svg>
