<svg xmlns="http://www.w3.org/2000/svg" width="130.271" height="34.282" viewBox="0 0 130.271 34.282">
  <path id="logo-nav" d="M7.494,34.282a7.29,7.29,0,1,1,0-14.575,7.29,7.29,0,1,1,0,14.575Zm0-11.748A4.155,4.155,0,0,0,3.2,26.994a4.141,4.141,0,0,0,4.295,4.444,4.123,4.123,0,0,0,4.274-4.444A4.136,4.136,0,0,0,7.494,22.534Zm12.8-2.606,7.174,9.187V19.928h3.02V34.061H27.47L20.3,24.9v9.165H17.276V19.928Zm22.908,0c4.34,0,7.456,3.055,7.456,7.067,0,4.041-3.11,7.067-7.456,7.067H37.1V19.928Zm-2.975,2.849v8.436H43.2a4.008,4.008,0,0,0,4.251-4.219A4.007,4.007,0,0,0,43.2,22.777Zm23-2.849v2.8H56.044v2.848h6.51v2.7h-6.51v2.98h7.182v2.8H52.913V19.928Zm5.748,4.86-.844,9.274H65.109l1.276-14.133h3.981l3.222,9.12,3.2-9.12h3.871l1.284,14.132H78.766l-.872-9.54L74.985,32.89H71.921Zm29.569,9.273h-3.4l-1.253-3h-6.24l-1.254,3H83.129l6.086-14.133h3.244ZM92.748,28.3l-1.969-4.748L88.789,28.3Zm10.627-8.369,7.174,9.187V19.928h3.019V34.061h-3.012L103.382,24.9v9.165h-3.02V19.928Zm19.44,0c4.339,0,7.456,3.055,7.456,7.067,0,4.041-3.11,7.067-7.456,7.067h-6.107V19.928Zm-2.976,2.849v8.436h2.976a4.008,4.008,0,0,0,4.251-4.219,4.007,4.007,0,0,0-4.251-4.217ZM6.661,9.523H3.819v4.61H.688V.006H6.772c3.468,0,5.526,1.766,5.526,4.77A4.346,4.346,0,0,1,9.7,8.972l3.041,5.161h-3.6ZM3.819,2.747v4.13H6.862A1.982,1.982,0,0,0,9.121,4.823,1.982,1.982,0,0,0,6.862,2.74ZM25.161.008v2.8H17.987V5.663H24.5V8.357h-6.51v2.977h7.174v2.8H14.848V.006Zm5.526,0L37.862,9.2V.006h3.02V14.133h-3.02L30.687,4.968v9.165h-3.02V.006ZM58.119,14.142h-3.4l-1.253-3h-6.24l-1.259,3H42.694L48.78,0h3.244ZM52.325,8.377,50.355,3.63,48.365,8.377Zm6.734-.243V.006h3.132V8c0,2.361,1.163,3.51,3.356,3.51,2.169,0,3.355-1.148,3.355-3.51V.006h3.132V8.132c0,4.019-2.348,6.228-6.487,6.228-4.167,0-6.494-2.209-6.494-6.228ZM77.984.008V11.289H84.83v2.844H74.852V.006Zm5.839,0h13V2.856H91.9V14.133H88.766V2.854H83.822Z"/>
</svg>
