<svg id="Grupo_2750" data-name="Grupo 2750" xmlns="http://www.w3.org/2000/svg" width="22.319" height="37.986" viewBox="0 0 22.319 37.986">
  <g id="Grupo_2749" data-name="Grupo 2749" transform="translate(0 0)">
    <path id="Caminho_965" data-name="Caminho 965" d="M0,3.809C0,1.234,1.233,0,3.809,0h14.7c2.575,0,3.809,1.234,3.809,3.809V34.177c0,2.575-1.234,3.809-3.809,3.809H3.809C1.233,37.986,0,36.752,0,34.177ZM3.7,35.787H18.619c1.072,0,1.5-.59,1.5-1.985V4.131c0-1.395-.43-1.986-1.5-1.986H3.7c-1.073,0-1.5.591-1.5,1.986V33.8c0,1.395.429,1.985,1.5,1.985M13.949,6.759H8.424V4.505h5.525ZM12.931,31.226A1.586,1.586,0,0,1,11.159,33a1.61,1.61,0,0,1-1.77-1.77,1.587,1.587,0,0,1,1.77-1.772,1.565,1.565,0,0,1,1.772,1.772" transform="translate(0 0)" fill="#1d1d1b"/>
  </g>
</svg>
