<svg xmlns="http://www.w3.org/2000/svg" width="18.648" height="18.522" viewBox="0 0 18.648 18.522">
  <path id="Caminho_1258" data-name="Caminho 1258" d="M491.386,738.742l7.3-3.884a3.9,3.9,0,0,0-5.244-.976,3.854,3.854,0,0,0-2.061,4.86m9.145,7.71c-4.745,2.523-9.936,1.119-12.526-3.75s-.975-9.893,3.707-12.383c4.526-2.406,9.416-1.042,12.056,3.921.2.374.416.86.6,1.282l-11.519,6.125a4.187,4.187,0,0,0,5.772,1.215c1.842-.979,2.424-2.37,2.17-3.676l4.245-2.257c1.228,3.591-.541,7.415-4.506,9.524" transform="translate(-486.774 -729.162)" fill="#fff57b"/>
</svg>
