<svg id="Grupo_2745" data-name="Grupo 2745" xmlns="http://www.w3.org/2000/svg" width="40.989" height="33.07" viewBox="0 0 40.989 33.07">
  <path id="Caminho_963" data-name="Caminho 963" d="M4.3,28.463A3.435,3.435,0,0,1,7.5,26.082a3.45,3.45,0,0,1,3.261,2.381H21.529a3.388,3.388,0,0,1,6.47,0h.828c1.138,0,1.4-.207,1.4-1.088a6.864,6.864,0,0,0-.776-2.639A2.378,2.378,0,0,0,27.842,23.7l-3.621-.931c-1.347-.362-3.106-2.018-5.331-2.9-1.708-.673-3.26-.931-6.779-.931a51.865,51.865,0,0,0-6.159.466l-1.966-1.19L3.934,17.7a63.944,63.944,0,0,1,8.488-.881,19.263,19.263,0,0,1,7.348,1.088c2.432.931,3.882,2.536,4.917,2.846l3.519.983a5.031,5.031,0,0,1,3.053,1.915,10.058,10.058,0,0,1,1.087,4.088c0,1.864-1.6,2.847-3.726,2.847H28a3.348,3.348,0,0,1-6.47,0H10.766A3.284,3.284,0,0,1,7.5,33.07a3.463,3.463,0,0,1-3.26-2.537h-.1A3.864,3.864,0,0,1,0,26.651V24.064c0-1.087.31-2.07,2.433-4.192l1.811.984c-1.863,2.018-2.226,2.431-2.226,3.466v2.123c0,1.293.622,2.018,2.123,2.018Zm.052-12.731c0-1.087.414-1.967,2.536-4.088l1.708.88c-1.5,1.6-2.018,2.224-2.173,2.9ZM9.058,29.55A1.524,1.524,0,0,0,7.5,28,1.5,1.5,0,0,0,6.056,29.55,1.473,1.473,0,0,0,7.5,31.1,1.5,1.5,0,0,0,9.058,29.55M32.294,15.215l-3.622-.777c-1.19-.258-3.158-2.018-5.382-2.9-1.708-.673-3.261-.931-6.832-.931a51.614,51.614,0,0,0-6.158.465L8.334,9.937l-.053-.519a64.044,64.044,0,0,1,8.488-.88,19.409,19.409,0,0,1,7.3,1.138c2.431.881,4.243,2.588,4.968,2.743l3.622.829a4.445,4.445,0,0,1,2.9,1.914,10.869,10.869,0,0,1,1.137,4.244c0,1.863-1.6,2.8-3.726,2.8H32.76a4.9,4.9,0,0,0-2.639-2.019h3.054c1.137,0,1.5-.207,1.5-1.087a7.963,7.963,0,0,0-.827-2.846,2.246,2.246,0,0,0-1.554-1.035M8.643,7.193c0-1.087.415-1.966,2.536-4.088l1.708.88c-1.5,1.6-2.018,2.225-2.172,2.9ZM36.59,6.675,32.967,5.9c-1.19-.26-3.157-2.02-5.382-2.9-1.708-.673-3.26-.931-6.832-.931a51.891,51.891,0,0,0-6.159.465L12.629,1.4,12.576.879A64.119,64.119,0,0,1,21.063,0a19.4,19.4,0,0,1,7.3,1.137c2.432.881,4.243,2.588,4.968,2.743l3.623.829a4.44,4.44,0,0,1,2.9,1.915,10.864,10.864,0,0,1,1.138,4.244c0,1.862-1.6,2.794-3.726,2.794h-.208a4.9,4.9,0,0,0-2.639-2.018H37.47c1.138,0,1.5-.208,1.5-1.087a7.984,7.984,0,0,0-.828-2.847A2.253,2.253,0,0,0,36.59,6.675M26.291,29.55A1.524,1.524,0,0,0,24.739,28,1.5,1.5,0,0,0,23.29,29.55,1.472,1.472,0,0,0,24.739,31.1a1.5,1.5,0,0,0,1.552-1.552"/>
</svg>
