<svg xmlns="http://www.w3.org/2000/svg" width="21.762" height="11.698" viewBox="0 0 21.762 11.698">
  <path id="Caminho_1074" data-name="Caminho 1074" d="M-5.216-11.522.022,0H-1.042l-1.6-3.568H-8.855L-10.455,0h-1.011l5.238-11.522ZM-8.477-4.43h5.458l-2.725-6.082ZM10.3,0h-.7L9.453-1.784A4.074,4.074,0,0,1,7.91-.343,4.385,4.385,0,0,1,5.8.176,4.174,4.174,0,0,1,2.685-1.09,4.43,4.43,0,0,1,1.446-4.324,4.43,4.43,0,0,1,2.685-7.559,4.174,4.174,0,0,1,5.8-8.824,4.33,4.33,0,0,1,7.906-8.3,4.187,4.187,0,0,1,9.453-6.855L9.593-8.64h.7ZM8.446-1.679A3.623,3.623,0,0,0,9.453-4.324,3.608,3.608,0,0,0,8.446-6.965,3.418,3.418,0,0,0,5.9-7.989,3.378,3.378,0,0,0,3.366-6.97a3.64,3.64,0,0,0-.989,2.646,3.656,3.656,0,0,0,.989,2.65A3.371,3.371,0,0,0,5.9-.65,3.41,3.41,0,0,0,8.446-1.679Z" transform="translate(11.465 11.522)" fill="#707070"/>
</svg>
