<svg xmlns="http://www.w3.org/2000/svg" xmlns:xlink="http://www.w3.org/1999/xlink" width="19.713" height="7.969" viewBox="0 0 19.713 7.969">
  <defs>
    <clipPath id="clip-path">
      <rect id="Ret창ngulo_775" data-name="Ret창ngulo 775" width="19.713" height="7.969" transform="translate(0 0)"/>
    </clipPath>
  </defs>
  <g id="Grupo_2649" data-name="Grupo 2649" transform="translate(0 0)">
    <g id="Grupo_2648" data-name="Grupo 2648" clip-path="url(#clip-path)">
      <path id="Caminho_910" data-name="Caminho 910" d="M0,3.984A3.645,3.645,0,0,0,3.841,7.968,3.656,3.656,0,0,0,7.729,3.984V3.936H17.745V6.288h1.969V1.967H7.3A3.619,3.619,0,0,0,3.841,0,3.669,3.669,0,0,0,0,3.984m5.761,0c0,1.392-.625,1.968-1.92,1.968-1.152,0-1.872-.576-1.872-1.968A1.769,1.769,0,0,1,3.841,2.015a1.739,1.739,0,0,1,1.92,1.969"/>
      <rect id="Ret창ngulo_774" data-name="Ret창ngulo 774" width="1.988" height="4.248" transform="translate(13.725 2.04)"/>
    </g>
  </g>
</svg>
