<svg xmlns="http://www.w3.org/2000/svg" width="26.355" height="26.745" viewBox="0 0 26.355 26.745">
  <path id="Caminho_766" data-name="Caminho 766" d="M15.194,1.66a1.252,1.252,0,0,1-.383.766,9.931,9.931,0,0,0-2.2-.192c-6.607,0-11.3,4.629-11.3,11.045,0,6,5.2,11.65,9.416,11.65,1.4,0,2.586-.7,2.586-1.755,0-2.011-2.65-4.341-2.65-6.416,0-1.692,1.117-2.873,3.065-3.224l.287,1.277c-1.308.287-2.043.7-2.043,1.947,0,1.787,2.65,4.053,2.65,6.416,0,1.883-1.756,3.032-3.894,3.032C5.65,26.206,0,20.2,0,13.279,0,6.032,5.235.957,12.64.957a10.175,10.175,0,0,1,2.234.191.581.581,0,0,1,.32.511M3.9,14.332a1.465,1.465,0,0,1,1.436-1.4,1.424,1.424,0,0,1,1.436,1.4,1.391,1.391,0,0,1-1.436,1.436A1.391,1.391,0,0,1,3.9,14.332m.733-5.363a1.466,1.466,0,0,1,1.436-1.4A1.423,1.423,0,0,1,7.5,8.969a1.391,1.391,0,0,1-1.437,1.437A1.391,1.391,0,0,1,4.629,8.969M6,19.343a1.465,1.465,0,0,1,1.436-1.4,1.423,1.423,0,0,1,1.436,1.4,1.391,1.391,0,0,1-1.436,1.436A1.39,1.39,0,0,1,6,19.343M8.842,5.681a1.466,1.466,0,0,1,1.436-1.4,1.423,1.423,0,0,1,1.436,1.4,1.436,1.436,0,1,1-2.872,0m12.289,6.512a3.181,3.181,0,0,1,.223,1.149,5.536,5.536,0,0,1-.031.67l-.862,7.533a1.983,1.983,0,0,1-2.075,1.979,2.008,2.008,0,0,1-2.106-1.979l-.958-7.533a7.037,7.037,0,0,1-.063-.7,3.283,3.283,0,0,1,.255-1.118l1.5-4.213h2.681ZM18.2,6.671c-1.4,0-2.682-.7-2.682-2.17,0-1.118,1.245-1.948,1.245-2.809a1.638,1.638,0,0,0-.319-.957L17.269,0C19.918,1.053,21.1,2.681,21.1,4.117a2.8,2.8,0,0,1-2.9,2.553m-1.533,6.1a10.066,10.066,0,0,0,1.692.128,9.94,9.94,0,0,0,1.66-.128,4.865,4.865,0,0,0-.128-.478L18.8,9.256h-.862l-1.181,3.1a.885.885,0,0,0-.1.415m.032,1.309.766,7.374a.788.788,0,0,0,.894.8c.511,0,.8-.159.862-.8l.765-7.374a11.939,11.939,0,0,1-1.628.128,12.44,12.44,0,0,1-1.66-.128m1.34-12.289C17.907,3,16.79,3.862,16.79,4.468c0,.543.638.926,1.372.926.83,0,1.66-.511,1.66-1.308,0-.735-.511-1.469-1.787-2.3M22.5,6.319c-.319-.382-.543-.67-.543-.926s.223-.478.8-.766a10.11,10.11,0,0,1,3.1,7.086,5.273,5.273,0,0,1-3.479,5.171l.16-1.564a3.639,3.639,0,0,0,2.011-3.543A8.319,8.319,0,0,0,22.5,6.319" transform="translate(0.25 0.289)" fill="#707070" stroke="#707070" stroke-width="0.5"/>
</svg>
