<svg xmlns="http://www.w3.org/2000/svg" width="22.966" height="11.698" viewBox="0 0 22.966 11.698">
  <path id="Caminho_1069" data-name="Caminho 1069" d="M-4.034-11.522.765,0h-3.2L-3.3-2.145H-7.945L-8.807,0H-11.9l4.8-11.522ZM-6.9-4.772h2.558L-5.625-7.954ZM11.065,0H9.026L8.42-.791A3.323,3.323,0,0,1,5.968.176,4.313,4.313,0,0,1,4.276-.167a4.6,4.6,0,0,1-1.433-.945,4.384,4.384,0,0,1-.989-1.5,5.052,5.052,0,0,1-.369-1.942,5.061,5.061,0,0,1,.369-1.938A4.423,4.423,0,0,1,2.843-8a4.562,4.562,0,0,1,1.433-.949A4.313,4.313,0,0,1,5.968-9.29a3.325,3.325,0,0,1,2.452.976l.606-.791h2.039ZM7.8-2.975a2.179,2.179,0,0,0,.563-1.578A2.211,2.211,0,0,0,7.8-6.139a1.878,1.878,0,0,0-1.424-.593,1.864,1.864,0,0,0-1.419.593A2.221,2.221,0,0,0,4.4-4.553a2.19,2.19,0,0,0,.558,1.578,1.878,1.878,0,0,0,1.419.584A1.892,1.892,0,0,0,7.8-2.975Z" transform="translate(11.9 11.522)" fill="#707070"/>
</svg>
