<svg xmlns="http://www.w3.org/2000/svg" xmlns:xlink="http://www.w3.org/1999/xlink" width="36.003" height="25.97" viewBox="0 0 36.003 25.97">
  <defs>
    <clipPath id="clip-path">
      <rect id="Retângulo_763" data-name="Retângulo 763" width="36.003" height="25.97" transform="translate(0 0)"/>
    </clipPath>
  </defs>
  <g id="Grupo_2629" data-name="Grupo 2629" transform="translate(0 0)">
    <g id="Grupo_2628" data-name="Grupo 2628" clip-path="url(#clip-path)">
      <path id="Caminho_903" data-name="Caminho 903" d="M0,0H36V25.97H0ZM3.36,24.1H32.643L24.1,15.649l1.488-1.3,8.5,8.449V3.312A106.626,106.626,0,0,1,18.721,15.361h-1.44A106.621,106.621,0,0,1,1.92,3.312V22.8l8.5-8.449,1.488,1.3ZM18,13.441A104.827,104.827,0,0,0,32.786,1.872H3.216A103.986,103.986,0,0,0,18,13.441"/>
    </g>
  </g>
</svg>
