<svg xmlns="http://www.w3.org/2000/svg" width="25.634" height="25.985" viewBox="0 0 25.634 25.985">
  <path id="Caminho_1003" data-name="Caminho 1003" d="M450.641,108.16l1.444-.625c1.639,3.941,5.618,6.633,10.691,6.633,6.944,0,11.2-4.955,11.2-11.432,0-6.554-4.526-11.432-11.2-11.432a10.741,10.741,0,0,0-9.988,6.008c1.131-.546,2.068-.936,3.434-1.677l.584,1.443c-1.951.859-2.926,1.288-5.112,2.147l-1.248-.546a36.519,36.519,0,0,1-.507-5.813l1.522-.079c0,1.561-.039,2.536,0,3.59a12.215,12.215,0,0,1,11.316-6.633c7.647,0,12.8,5.619,12.8,12.992s-4.878,12.993-12.8,12.993C456.962,115.73,452.514,112.686,450.641,108.16Z" transform="translate(-449.938 -89.744)" fill="#fff"/>
</svg>
