<svg xmlns="http://www.w3.org/2000/svg" width="22.148" height="11.698" viewBox="0 0 22.148 11.698">
  <path id="Caminho_1072" data-name="Caminho 1072" d="M-4.847-11.522.25,0H-1.5L-2.852-3.111H-8.591L-9.945,0h-1.67L-6.5-11.522ZM-7.958-4.535h4.5l-2.25-5.2ZM10.534,0H9.4L9.136-1.389A3.973,3.973,0,0,1,7.7-.229a4.256,4.256,0,0,1-1.863.4A4.412,4.412,0,0,1,4.131-.158a4.269,4.269,0,0,1-1.4-.927,4.3,4.3,0,0,1-.94-1.455,4.914,4.914,0,0,1-.347-1.854,4.914,4.914,0,0,1,.347-1.854A4.3,4.3,0,0,1,2.733-7.7a4.269,4.269,0,0,1,1.4-.927A4.412,4.412,0,0,1,5.84-8.965a4.256,4.256,0,0,1,1.863.4A3.973,3.973,0,0,1,9.136-7.4L9.4-8.78h1.134ZM8.24-2.092a3.168,3.168,0,0,0,.861-2.3,3.153,3.153,0,0,0-.861-2.3,2.926,2.926,0,0,0-2.188-.883,2.883,2.883,0,0,0-2.175.883,3.18,3.18,0,0,0-.848,2.3A3.183,3.183,0,0,0,3.88-2.087,2.887,2.887,0,0,0,6.051-1.2,2.919,2.919,0,0,0,8.24-2.092Z" transform="translate(11.615 11.522)" fill="#707070"/>
</svg>
