<svg xmlns="http://www.w3.org/2000/svg" xmlns:xlink="http://www.w3.org/1999/xlink" width="43.009" height="32.231" viewBox="0 0 43.009 32.231">
  <defs>
    <clipPath id="clip-path">
      <rect id="Retângulo_898" data-name="Retângulo 898" width="43.009" height="32.231" fill="none"/>
    </clipPath>
  </defs>
  <g id="Grupo_2748" data-name="Grupo 2748" transform="translate(0 0)">
    <g id="Grupo_2747" data-name="Grupo 2747" transform="translate(0 0)" clip-path="url(#clip-path)">
      <path id="Caminho_964" data-name="Caminho 964" d="M13.047,12.738A3.915,3.915,0,0,0,9.025,8.663,3.945,3.945,0,0,0,5,12.738,3.964,3.964,0,0,0,9.025,16.76a3.932,3.932,0,0,0,4.022-4.022M9.025,14.749a1.821,1.821,0,0,1-2.011-2.011,1.8,1.8,0,0,1,2.011-2.012,1.778,1.778,0,0,1,2.011,2.012,1.8,1.8,0,0,1-2.011,2.011M0,32.23H38.677V4.331H0ZM2.114,6.394H36.563V30.065H2.114ZM6.447,0V2.114h34.4V27.9h2.165V0Zm20.73,16.657c-1.412,2.778-2.541,5.032-3.5,6.977-1.665-3.582-2.858-5.962-5.27-10.691h-1.8c-3.095,6.034-4.848,9.645-6.292,12.892h2.372c1.091-2.562,2.36-5.217,4.845-10.082,2.261,4.46,3.342,6.737,4.85,10.082h2.475c.814-1.718,1.747-3.6,3.216-6.431,2.161,4.243,2.565,5.062,3.179,6.431h2.32c-1.341-2.733-1.5-3.094-4.589-9.179Z" transform="translate(0 0.001)" fill="#1d1d1b"/>
    </g>
  </g>
</svg>
