<svg xmlns="http://www.w3.org/2000/svg" xmlns:xlink="http://www.w3.org/1999/xlink" width="22.124" height="21" viewBox="0 0 22.124 21">
  <defs>
    <clipPath id="clip-path">
      <rect id="Retângulo_408" data-name="Retângulo 408" width="22.124" height="21" transform="translate(0 0)" fill="#fff"/>
    </clipPath>
  </defs>
  <g id="Grupo_2567" data-name="Grupo 2567" transform="translate(-309 -15)">
    <g id="Grupo_2225" data-name="Grupo 2225" transform="translate(309 15)">
      <g id="Grupo_2127" data-name="Grupo 2127" clip-path="url(#clip-path)">
        <path id="Caminho_730" data-name="Caminho 730" d="M17.978,6.045,19.3,10.888A11.627,11.627,0,0,0,22.124,16.2v1.588H15.189C14.994,19.838,13.483,21,11.081,21s-3.913-1.162-4.107-3.216H0V16.2a11.627,11.627,0,0,0,2.828-5.308L4.145,6.045C5.308,1.821,7.322,0,11.081,0s5.734,1.7,6.9,6.045m-12.243.31L4.417,11.12A14.218,14.218,0,0,1,2.092,16.2H20.031a14.218,14.218,0,0,1-2.325-5.076L16.39,6.355c-.969-3.488-2.364-4.766-5.309-4.766S6.665,2.867,5.735,6.355M8.408,9.105,6.819,8.757l.736-2.751C8.1,3.991,9.067,3.255,11.2,3.255V4.844c-1.356,0-1.743.232-2.092,1.55Zm5.153,8.679H8.6c.117,1.162,1.008,1.7,2.48,1.7s2.364-.542,2.48-1.7" fill="#fff"/>
      </g>
    </g>
  </g>
</svg>
