<svg xmlns="http://www.w3.org/2000/svg" xmlns:xlink="http://www.w3.org/1999/xlink" width="21.888" height="22" viewBox="0 0 21.888 22">
  <defs>
    <clipPath id="clip-path">
      <rect id="Retângulo_511" data-name="Retângulo 511" width="21.888" height="22" fill="#888b8d"/>
    </clipPath>
  </defs>
  <g id="Grupo_2231" data-name="Grupo 2231" transform="translate(0 0)">
    <g id="Grupo_2230" data-name="Grupo 2230" transform="translate(0 0)" clip-path="url(#clip-path)">
      <path id="Caminho_754" data-name="Caminho 754" d="M21.887,3.622v15.7A2.348,2.348,0,0,1,19.208,22H2.679A2.348,2.348,0,0,1,0,19.321V2.679A2.348,2.348,0,0,1,2.679,0H18.264a27.38,27.38,0,0,1,3.622,3.622M20.377,19.057V4.226a25.271,25.271,0,0,0-2.641-2.679h-.528V6.264H4.641V1.547H2.868c-.981,0-1.358.415-1.358,1.4V19.057c0,.981.377,1.4,1.358,1.4H19.019c.981,0,1.358-.415,1.358-1.4M15.7,1.547H6.226V4.755H15.7ZM10.943,9.4a3.7,3.7,0,0,1,4,4.037,3.7,3.7,0,0,1-4,4.038,3.7,3.7,0,0,1-4-4.038,3.7,3.7,0,0,1,4-4.037m0,1.547a2.272,2.272,0,0,0-2.453,2.49,2.289,2.289,0,0,0,2.453,2.49,2.271,2.271,0,0,0,2.453-2.49,2.254,2.254,0,0,0-2.453-2.49" transform="translate(0 0)" fill="#888b8d"/>
    </g>
  </g>
</svg>
