<svg xmlns="http://www.w3.org/2000/svg" width="27.081" height="27.121" viewBox="0 0 27.081 27.121">
  <path id="Caminho_1033" data-name="Caminho 1033" d="M453.114,100.04c-1.952,0-2.887-.935-2.887-2.887V91.095c0-1.952.935-2.887,2.887-2.887h6.059c1.952,0,2.887.935,2.887,2.887v6.059c0,1.952-.935,2.887-2.887,2.887Zm0,15.289c-1.952,0-2.887-.936-2.887-2.887v-6.06c0-1.951.935-2.887,2.887-2.887h6.059c1.952,0,2.887.936,2.887,2.887v6.06c0,1.951-.935,2.887-2.887,2.887Zm7.279-18.42v-5.57c0-1.058-.407-1.505-1.464-1.505h-5.571c-1.057,0-1.464.447-1.464,1.505v5.57c0,1.057.407,1.5,1.464,1.5h5.571C459.986,98.414,460.392,97.967,460.392,96.91Zm0,15.289v-5.572c0-1.057-.407-1.5-1.464-1.5h-5.571c-1.057,0-1.464.446-1.464,1.5V112.2c0,1.057.407,1.5,1.464,1.5h5.571C459.986,113.7,460.392,113.256,460.392,112.2Zm7.97-12.158c-1.952,0-2.887-.935-2.887-2.887V91.095c0-1.952.934-2.887,2.887-2.887h6.059c1.952,0,2.887.935,2.887,2.887v6.059c0,1.952-.935,2.887-2.887,2.887Zm0,15.289c-1.952,0-2.887-.936-2.887-2.887v-6.06c0-1.951.934-2.887,2.887-2.887h6.059c1.952,0,2.887.936,2.887,2.887v6.06c0,1.951-.935,2.887-2.887,2.887Zm7.279-18.42v-5.57c0-1.058-.407-1.505-1.465-1.505h-5.57c-1.057,0-1.464.447-1.464,1.505v5.57c0,1.057.407,1.5,1.464,1.5h5.57C475.233,98.414,475.641,97.967,475.641,96.91Zm0,15.289v-5.572c0-1.057-.407-1.5-1.465-1.5h-5.57c-1.057,0-1.464.446-1.464,1.5V112.2c0,1.057.407,1.5,1.464,1.5h5.57C475.233,113.7,475.641,113.256,475.641,112.2Z" transform="translate(-450.227 -88.208)" fill="#1d1d1b"/>
</svg>
