<svg id="Grupo_2585" data-name="Grupo 2585" xmlns="http://www.w3.org/2000/svg" xmlns:xlink="http://www.w3.org/1999/xlink" width="42.494" height="46.92" viewBox="0 0 42.494 46.92">
  <defs>
    <clipPath id="clip-path">
      <rect id="Retângulo_703" data-name="Retângulo 703" width="42.494" height="46.92" fill="none"/>
    </clipPath>
  </defs>
  <g id="Grupo_2585-2" data-name="Grupo 2585" transform="translate(0 0)" clip-path="url(#clip-path)">
    <path id="Caminho_847" data-name="Caminho 847" d="M21.247,0C8.239,0,0,8.171,0,21.246A19.73,19.73,0,0,0,5.311,35.206C4.086,39.226,3.473,41.813,2.45,46.1l1.226.817A104.254,104.254,0,0,0,14.3,41.539a31.993,31.993,0,0,0,7.285.955c12.873,0,20.908-8.173,20.908-21.112C42.494,8.306,34.391,0,21.247,0m.545,39.769a25.341,25.341,0,0,1-7.967-1.224,52.589,52.589,0,0,1-7.7,4.289c.749-3.131,1.43-5.582,2.111-8.171-3.064-3.61-5.449-8.1-5.449-13.416C2.79,9.669,10.01,2.724,21.247,2.724,32.688,2.724,39.7,9.738,39.7,21.382s-6.811,18.387-17.91,18.387" transform="translate(0 0)" fill="#1d1d1b"/>
  </g>
</svg>
