<svg xmlns="http://www.w3.org/2000/svg" xmlns:xlink="http://www.w3.org/1999/xlink" width="33.074" height="28.995" viewBox="0 0 33.074 28.995">
  <defs>
    <clipPath id="clip-path">
      <rect id="Retângulo_760" data-name="Retângulo 760" width="33.074" height="28.995" transform="translate(0 0)"/>
    </clipPath>
  </defs>
  <g id="Grupo_2621" data-name="Grupo 2621" transform="translate(0 0)">
    <g id="Grupo_2620" data-name="Grupo 2620" clip-path="url(#clip-path)">
      <path id="Caminho_900" data-name="Caminho 900" d="M12.193,15.265c-1.92-.864-3.025-1.44-4.416-2.16-1.345.72-2.544,1.3-4.465,2.16l-.864-.528a41.129,41.129,0,0,1,.816-4.8C2.161,8.881,1.44,8.065,0,6.48l.192-1.1c2.064-.432,3.264-.672,4.8-.863C5.712,3.072,6.384,1.824,7.441,0h.815C9.313,1.824,9.985,3.072,10.7,4.513c1.488.191,2.64.431,4.7.863l.191,1.1c-1.392,1.536-2.208,2.4-3.312,3.456a42.178,42.178,0,0,1,.768,4.8ZM4.416,16.946c.624,5.569,5.137,10.129,12.049,10.129,7.009,0,11.473-4.56,12.049-10.178l1.872.961C29.426,24.05,24.242,29,16.465,29S3.456,24,2.544,17.762Zm.336-4.369c1.489-.721,2.256-1.2,3.073-1.68A33.131,33.131,0,0,0,10.8,12.529c-.288-1.488-.432-2.352-.624-3.216,1.248-1.152,1.872-1.728,2.592-2.5a24.73,24.73,0,0,0-3.408-.432c-.672-1.537-1.056-2.3-1.536-3.216-.432.912-.817,1.679-1.489,3.216-1.008.047-1.872.192-3.5.432.72.768,1.3,1.344,2.5,2.5-.192.864-.335,1.728-.576,3.264m5.617,4.08H22.562l.864,1.393c-.624,4.656-3.456,6.912-6.961,6.912S10.129,22.706,9.5,18.05ZM20.786,3.505a15.1,15.1,0,0,0-4.321-.625,14.167,14.167,0,0,0-4.176.576l-.768-1.775A16.159,16.159,0,0,1,16.465.96a17.256,17.256,0,0,1,5.137.767Zm.624,15.072H11.521c.912,3.313,2.688,4.417,4.944,4.417,2.305,0,4.032-1.1,4.945-4.417m8.256-3.312c-1.92-.864-3.024-1.44-4.416-2.16-1.344.72-2.545,1.3-4.464,2.16l-.865-.528a41.32,41.32,0,0,1,.817-4.8c-1.105-1.055-1.825-1.871-3.265-3.456l.192-1.1c2.065-.432,3.265-.672,4.8-.863.72-1.441,1.392-2.689,2.449-4.513h.815c1.057,1.824,1.728,3.072,2.448,4.513,1.488.191,2.641.431,4.7.863l.192,1.1c-1.392,1.536-2.208,2.4-3.313,3.456a42.38,42.38,0,0,1,.769,4.8Zm-7.44-2.688c1.488-.721,2.256-1.2,3.072-1.68a33.177,33.177,0,0,0,2.977,1.632c-.288-1.488-.433-2.352-.624-3.216,1.248-1.152,1.872-1.728,2.592-2.5a24.741,24.741,0,0,0-3.409-.432c-.672-1.537-1.056-2.3-1.536-3.216-.432.912-.816,1.679-1.488,3.216-1.008.047-1.872.192-3.5.432.72.768,1.3,1.344,2.5,2.5-.192.864-.336,1.728-.576,3.264"/>
    </g>
  </g>
</svg>
