<svg xmlns="http://www.w3.org/2000/svg" width="22.693" height="11.698" viewBox="0 0 22.693 11.698">
  <path id="Caminho_1070" data-name="Caminho 1070" d="M-4.293-11.522.6,0H-2.131L-3.142-2.452H-8.169L-9.171,0H-11.8l4.9-11.522ZM-7.247-4.7h3.182L-5.647-8.569ZM10.894,0H9.145L8.679-.914A3.74,3.74,0,0,1,5.919.176a4.3,4.3,0,0,1-1.7-.343,4.493,4.493,0,0,1-1.415-.94,4.359,4.359,0,0,1-.967-1.481A5.012,5.012,0,0,1,1.481-4.5a5.012,5.012,0,0,1,.36-1.912,4.359,4.359,0,0,1,.967-1.481,4.493,4.493,0,0,1,1.415-.94,4.3,4.3,0,0,1,1.7-.343,3.74,3.74,0,0,1,2.76,1.09L9.145-9h1.749ZM7.95-2.694A2.487,2.487,0,0,0,8.609-4.5,2.518,2.518,0,0,0,7.95-6.315,2.211,2.211,0,0,0,6.28-7a2.2,2.2,0,0,0-1.67.686A2.534,2.534,0,0,0,3.959-4.5a2.5,2.5,0,0,0,.65,1.811,2.214,2.214,0,0,0,1.67.677A2.225,2.225,0,0,0,7.95-2.694Z" transform="translate(11.799 11.522)" fill="#707070"/>
</svg>
