<svg xmlns="http://www.w3.org/2000/svg" xmlns:xlink="http://www.w3.org/1999/xlink" width="21.344" height="22.337" viewBox="0 0 21.344 22.337"><defs><linearGradient id="a" x1="0.5" x2="0.5" y2="1" gradientUnits="objectBoundingBox"><stop offset="0" stop-color="#ffd500"/><stop offset="1" stop-color="#fab600"/></linearGradient></defs><g transform="translate(-2 0)"><path d="M21.635,7.482C19.67,2.91,16.508-.572,14.908.079c-2.717,1.1,1.618,6.407-11.723,11.831-1.152.468-1.444,2.343-.962,3.464s2.058,2.236,3.211,1.768c.2-.081.932-.316.932-.316.823,1.1,1.684.449,1.99,1.151.367.843,1.166,2.677,1.437,3.3s.888,1.2,1.334,1.031l2.544-.968a.84.84,0,0,0,.542-1.146c-.191-.44-.976-.569-1.2-1.082s-.955-2.158-1.165-2.677c-.286-.705.321-1.279,1.2-1.37,6.072-.633,7.208,3.117,9.275,2.277C23.925,16.689,23.6,12.054,21.635,7.482ZM20.951,14.9c-.355.144-2.745-1.741-4.273-5.295s-1.335-6.8-.98-6.946,2.686,2.129,4.213,5.683S21.306,14.754,20.951,14.9Z" transform="translate(0 0)" fill="url(#a)"/></g></svg>