<svg xmlns="http://www.w3.org/2000/svg" xmlns:xlink="http://www.w3.org/1999/xlink" width="29.317" height="20.659" viewBox="0 0 29.317 20.659">
  <defs>
    <clipPath id="clip-path">
      <rect id="Retângulo_409" data-name="Retângulo 409" width="29.317" height="20.659" fill="#fff"/>
    </clipPath>
  </defs>
  <g id="Grupo_2129" data-name="Grupo 2129" clip-path="url(#clip-path)">
    <path id="Caminho_731" data-name="Caminho 731" d="M0,13.5l2.469-.876L17.659,2.375,22.6,15.908l-8.1.876.156.906a3.235,3.235,0,0,1,.031.5c0,1.719-1.844,2.469-3.751,2.469-1.75,0-2.844-.718-3-2.406L7.876,17.5l-3.5.376-2.438.874Zm3.97,3.282L2.844,13.721l-1.281.438,1.124,3.063Zm1.25-.313,15.6-1.656L17.034,4.344,4,13.1Zm5.657,2.906c1.25,0,2.5-.188,2.5-1.313a2.977,2.977,0,0,0-.032-.5l-.124-.656-4.063.438L9.22,18c.094,1.063.688,1.375,1.656,1.375M21.691,5l-.969-.844L24,0l1,.813ZM22.5,9.033l-.438-1.219L27.036,6l.437,1.219ZM29,13.689l-5.22-1.063.281-1.281,5.251,1.094Z" transform="translate(0 0)" fill="#fff"/>
  </g>
</svg>
