<svg xmlns="http://www.w3.org/2000/svg" width="26.249" height="22.323" viewBox="0 0 26.249 22.323">
  <g id="Grupo_2147" data-name="Grupo 2147" transform="translate(0.125 0.125)">
    <g id="Grupo_2148" data-name="Grupo 2148" transform="translate(0 0)">
      <path id="Caminho_741" data-name="Caminho 741" d="M7.635,18.9a27.411,27.411,0,0,1-3.775,3.15l-.88-.425a24.417,24.417,0,0,1,.17-2.725H1.76C.539,18.9,0,18.393,0,17.173V5.28C0,4.059.539,3.548,1.76,3.548h13c1.22,0,1.731.511,1.731,1.732V17.173c0,1.22-.511,1.731-1.731,1.731ZM4.144,20.493A34.272,34.272,0,0,0,7.153,17.74h7.579c.4,0,.6-.2.6-.624V5.308c0-.426-.2-.624-.6-.624H1.788a.545.545,0,0,0-.624.624V17.144a.545.545,0,0,0,.624.625h2.64c-.142.937-.228,1.731-.284,2.725M3.548,8.26h9.4V9.4h-9.4Zm0,2.385h9.4V11.78h-9.4Zm0,2.384h9.4v1.136h-9.4Zm14.107,1.164h1.192a34.172,34.172,0,0,0,3.008,2.753c-.057-.993-.142-1.787-.284-2.724h2.64a.545.545,0,0,0,.624-.625V1.76a.545.545,0,0,0-.624-.625H11.268c-.4,0-.6.2-.6.625v.624H9.509V1.732C9.509.511,10.019,0,11.24,0h13C25.46,0,26,.511,26,1.732V13.625c0,1.22-.539,1.731-1.759,1.731H22.849a24.4,24.4,0,0,1,.17,2.725l-.88.426a27.489,27.489,0,0,1-3.775-3.15h-.709Z" transform="translate(0 0)" stroke="#000" stroke-width="0.25"/>
    </g>
  </g>
</svg>
