<svg xmlns="http://www.w3.org/2000/svg" width="19.896" height="20.669" viewBox="0 0 19.896 20.669">
  <g id="Grupo_2643" data-name="Grupo 2643" transform="translate(-0.001)">
    <g id="Grupo_2647" data-name="Grupo 2647" transform="translate(0.001)">
      <path id="Caminho_859" data-name="Caminho 859" d="M3.273,5.369H1.729A26.51,26.51,0,0,1,0,2.758l1.25-.772c.405.662.809,1.287,1.25,1.949A41.817,41.817,0,0,0,4.745,0L6.031.7C4.928,2.721,4.3,3.788,3.273,5.369m0,7.65H1.729A26.509,26.509,0,0,1,0,10.408l1.25-.772c.405.662.809,1.287,1.25,1.949A41.817,41.817,0,0,0,4.745,7.65l1.286.7c-1.1,2.023-1.728,3.09-2.758,4.671m0,7.65H1.729A26.51,26.51,0,0,1,0,18.058l1.25-.773c.405.663.809,1.288,1.25,1.95A41.818,41.818,0,0,0,4.745,15.3l1.286.7c-1.1,2.023-1.728,3.089-2.758,4.67" transform="translate(-0.001)" fill="#efdf00"/>
      <rect id="Retângulo_733" data-name="Retângulo 733" width="12.284" height="1.508" transform="translate(7.612 3.861)" fill="#fff"/>
      <rect id="Retângulo_734" data-name="Retângulo 734" width="12.284" height="1.508" transform="translate(7.612 11.511)" fill="#fff"/>
      <rect id="Retângulo_735" data-name="Retângulo 735" width="12.284" height="1.508" transform="translate(7.612 19.161)" fill="#fff"/>
    </g>
  </g>
</svg>
