<svg xmlns="http://www.w3.org/2000/svg" width="14.031" height="14.031" viewBox="0 0 14.031 14.031"><g transform="translate(-279.825 -222.644)"><g transform="translate(280 222.819)"><path d="M481.9,275.169h-13.1a.292.292,0,0,0-.291.291v13.1a.292.292,0,0,0,.291.292h13.1a.292.292,0,0,0,.291-.292v-13.1A.292.292,0,0,0,481.9,275.169Zm-.292,3.989v9.109H469.1V284.79l4.506-3.351,3.181,2.42a.291.291,0,0,0,.387-.031Zm0-.8a.285.285,0,0,0-.109.072l-4.573,4.809-3.148-2.394a.292.292,0,0,0-.35,0l-4.335,3.223v-8.312h12.515Z" transform="translate(-468.515 -275.169)" fill="#fff" stroke="#fff" stroke-width="0.35"/><path d="M478.8,288.411a1.351,1.351,0,1,0-1.351-1.352A1.353,1.353,0,0,0,478.8,288.411Zm-.769-1.352a.769.769,0,1,1,.769.769A.77.77,0,0,1,478.03,287.059Z" transform="translate(-475.661 -283.601)" fill="#fff" stroke="#fff" stroke-width="0.35"/></g></g></svg>