<svg xmlns="http://www.w3.org/2000/svg" xmlns:xlink="http://www.w3.org/1999/xlink" width="40" height="40" viewBox="0 0 40 40">
  <defs>
    <clipPath id="clip-path">
      <rect id="Retângulo_788" data-name="Retângulo 788" width="40" height="40" fill="none"/>
    </clipPath>
  </defs>
  <g id="Grupo_2661" data-name="Grupo 2661" clip-path="url(#clip-path)">
    <path id="Caminho_920" data-name="Caminho 920" d="M20,40h0A20,20,0,1,1,40,20,20,20,0,0,1,20,40" transform="translate(0 0)"/>
    <g id="Grupo_3031" data-name="Grupo 3031">
      <path id="Caminho_921" data-name="Caminho 921" d="M6.727,13.519a9.672,9.672,0,0,1,1.055-3.332,7.015,7.015,0,0,1,6.252-3.3q5.278-.129,10.563,0A7.053,7.053,0,0,1,30.57,9.809a7.731,7.731,0,0,1,1.31,4.438c.051,3.382.076,6.768,0,10.151-.062,2.725-1.009,5.049-3.561,6.434a8.056,8.056,0,0,1-3.787.933c-3.476.04-6.953.074-10.427-.005a7.061,7.061,0,0,1-6.321-3.3,9.649,9.649,0,0,1-1.055-3.332Zm12.61-4.244c-1.728,0-3.455-.033-5.181.008-2.695.063-4.353,1.327-4.843,3.648a7.485,7.485,0,0,0-.184,1.5c-.017,3.269-.061,6.538.007,9.806.066,3.252,1.71,4.991,4.847,5.106,3.542.131,7.091.12,10.634,0,2.614-.087,4.167-1.344,4.666-3.6a5.976,5.976,0,0,0,.176-1.228c.02-3.727.222-7.458-.113-11.178A4.21,4.21,0,0,0,25.473,9.4a52.63,52.63,0,0,0-6.136-.123" transform="translate(0.673 0.683)" fill="#fff"/>
      <path id="Caminho_922" data-name="Caminho 922" d="M25.281,18.818a6.53,6.53,0,1,1-6.488-6.525,6.546,6.546,0,0,1,6.488,6.525m-2.421-.032a4.109,4.109,0,1,0-4.118,4.058,4.105,4.105,0,0,0,4.118-4.058" transform="translate(1.222 1.229)" fill="#fff"/>
      <path id="Caminho_923" data-name="Caminho 923" d="M24.4,10.744a1.582,1.582,0,0,1,1.594,1.56,1.587,1.587,0,0,1-3.172.014A1.567,1.567,0,0,1,24.4,10.744" transform="translate(2.282 1.074)" fill="#fff"/>
    </g>
  </g>
</svg>
