<svg id="Grupo_2689" data-name="Grupo 2689" xmlns="http://www.w3.org/2000/svg" xmlns:xlink="http://www.w3.org/1999/xlink" width="21.63" height="23.6" viewBox="0 0 21.63 23.6">
  <defs>
    <clipPath id="clip-path">
      <rect id="Retângulo_817" data-name="Retângulo 817" width="21.63" height="23.6" transform="translate(0 0)" fill="#fff"/>
    </clipPath>
  </defs>
  <g id="Grupo_2688" data-name="Grupo 2688" transform="translate(0 0)" clip-path="url(#clip-path)">
    <path id="Caminho_936" data-name="Caminho 936" d="M17.668,58.794a.806.806,0,1,0,.837.8.814.814,0,0,0-.837-.8" transform="translate(-13.178 -45.99)" fill="#fff"/>
    <path id="Caminho_937" data-name="Caminho 937" d="M52.015,59.6a.829.829,0,1,0-.837.805.812.812,0,0,0,.837-.805" transform="translate(-39.391 -45.99)" fill="#fff"/>
    <path id="Caminho_938" data-name="Caminho 938" d="M19.172,40.654H14.017c-1.065,0-1.507.874-1.916,1.951H10.8v.811l.707.307a2.2,2.2,0,0,0-.675,1.559V48.82a.671.671,0,0,0,.662.678H13.08a.7.7,0,0,0,.694-.678V48.2h5.641v.623a.7.7,0,0,0,.694.678h1.586a.671.671,0,0,0,.662-.678V45.282a2.2,2.2,0,0,0-.675-1.559l.707-.307v-.811h-1.3c-.408-1.077-.851-1.951-1.915-1.951m-6.285,2.665c.382-1.33.669-1.722,1.224-1.722h4.966c.556,0,.842.392,1.224,1.722Zm-.073,3.934v1.3H11.791V45.282a1.668,1.668,0,0,1,.6-1.035H20.8a1.668,1.668,0,0,1,.6,1.035v3.273H20.374v-1.3Z" transform="translate(-8.448 -31.8)" fill="#fff"/>
    <path id="Caminho_939" data-name="Caminho 939" d="M14.269,23.233H2.151A2.027,2.027,0,0,0,0,25.353V37.471a2.019,2.019,0,0,0,2.151,2.151H6.089a14.717,14.717,0,0,0,1.424,2.151H8.846a14.735,14.735,0,0,0,1.424-2.151h3.938a2.007,2.007,0,0,0,2.212-2.151V25.384a1.909,1.909,0,0,0-2.151-2.151m.908,14.117a.99.99,0,0,1-1.121,1.061H9.421a15.045,15.045,0,0,1-1.242,2.3,15.065,15.065,0,0,1-1.242-2.3H2.3A1,1,0,0,1,1.242,37.35V25.474A.978.978,0,0,1,2.3,24.445H14.087a.967.967,0,0,1,1.09,1.06Z" transform="translate(0 -18.173)" fill="#fff"/>
    <path id="Caminho_940" data-name="Caminho 940" d="M42.11,0H28.932V1.212h13a.967.967,0,0,1,1.091,1.061V15.118h1.242V2.151A1.909,1.909,0,0,0,42.11,0" transform="translate(-22.631 0)" fill="#fff"/>
    <path id="Caminho_941" data-name="Caminho 941" d="M30.473,11.687H17.386V12.9H30.292a.968.968,0,0,1,1.091,1.06V26.8h1.242V13.838a1.909,1.909,0,0,0-2.151-2.151" transform="translate(-13.6 -9.142)" fill="#fff"/>
  </g>
</svg>
