<svg xmlns="http://www.w3.org/2000/svg" width="17.83" height="18" viewBox="0 0 17.83 18">
  <g id="Grupo_2871" data-name="Grupo 2871" transform="translate(-2.572 0)">
    <g id="Grupo_2872" data-name="Grupo 2872" transform="translate(2.572)">
      <path id="Caminho_994" data-name="Caminho 994" d="M.372,18c-.413-.176-.485-.486-.2-.847A49.169,49.169,0,0,1,4.326,12.5c.707-.693,1.4-1.4,2.117-2.111-.05-.053-.091-.1-.135-.143L3.524,7.463a.5.5,0,0,1,.013-.837A2.184,2.184,0,0,1,6.36,6.507l.12.093,5.248-4.5a1.667,1.667,0,0,1-.179-1.023,1.613,1.613,0,0,1,.5-.959.454.454,0,0,1,.569-.026.958.958,0,0,1,.118.1q2.45,2.448,4.9,4.9a.485.485,0,0,1,.173.5.562.562,0,0,1-.122.226,1.631,1.631,0,0,1-1.815.353c-.087-.038-.143-.06-.221.032q-2.181,2.552-4.371,5.1c-.015.017-.026.038-.045.065a2.2,2.2,0,0,1-.112,3.021.475.475,0,0,1-.715-.035Q9.085,13.026,7.763,11.7a1.648,1.648,0,0,1-.126-.165c-.077.073-.127.118-.176.166-1.471,1.454-2.889,2.963-4.452,4.321-.721.626-1.467,1.223-2.2,1.829A1.748,1.748,0,0,1,.548,18Z" transform="translate(0 0)" fill="#888b8d"/>
    </g>
  </g>
</svg>
