<svg xmlns="http://www.w3.org/2000/svg" xmlns:xlink="http://www.w3.org/1999/xlink" width="13.812" height="17.268" viewBox="0 0 13.812 17.268"><defs><clipPath id="a"><rect width="13.812" height="17.268" fill="#fff"/></clipPath></defs><g clip-path="url(#a)"><path d="M13.691,8.169C13.44,7.646,12.66,6.11,12,4.911c-.907-1.644-2.526-4.35-2.71-4.6A.518.518,0,0,0,8.838.042l-.025,0C8.568.012,7.53,0,6.906,0,6.371,0,5.236.014,4.971.04a.542.542,0,0,0-.459.287c-.2.255-1.841,3.038-2.7,4.584C1.194,6.029.212,7.961.121,8.169A1.177,1.177,0,0,0,0,8.634,1.11,1.11,0,0,0,.121,9.1c.206.446.826,1.682,1.693,3.258.9,1.644,2.536,4.36,2.71,4.6a.528.528,0,0,0,.468.275c.251.022,1.335.039,1.915.039.626,0,1.759-.025,1.915-.039a.535.535,0,0,0,.468-.275c.164-.228,1.921-3.155,2.71-4.6.756-1.382,1.6-3.042,1.693-3.258a1.07,1.07,0,0,0,.121-.465,1.1,1.1,0,0,0-.121-.465m-9.328.46h0a1.341,1.341,0,0,1,.178-.5c.884-1.9,2.942-5.8,3.8-7.246.085-.14.183-.217.248-.221s.1.01.116.028C8.417,1.252,7.694,2.685,7.173,4,7.946,5.434,8.621,6.771,9.265,8.14a1.284,1.284,0,0,1,.175.495h0a1.342,1.342,0,0,1-.178.5c-.884,1.9-2.942,5.8-3.8,7.246-.085.14-.183.217-.248.221s-.1-.01-.116-.028c.291-.562,1.014-1.994,1.535-3.312-.774-1.432-1.448-2.769-2.093-4.138a1.284,1.284,0,0,1-.175-.495Z" fill="#fff"/></g></svg>