<svg xmlns="http://www.w3.org/2000/svg" xmlns:xlink="http://www.w3.org/1999/xlink" width="40" height="40" viewBox="0 0 40 40">
  <defs>
    <clipPath id="clip-path">
      <rect id="Retângulo_787" data-name="Retângulo 787" width="40" height="40" fill="none"/>
    </clipPath>
  </defs>
  <g id="Grupo_2659" data-name="Grupo 2659" clip-path="url(#clip-path)">
    <path id="Caminho_918" data-name="Caminho 918" d="M20,40h0A20,20,0,1,1,40,20,20,20,0,0,1,20,40" transform="translate(0 0)"/>
    <path id="Caminho_919" data-name="Caminho 919" d="M7.005,26.851a10.418,10.418,0,0,0,7.264-1.974c-.474-.12-.877-.2-1.266-.324a4.985,4.985,0,0,1-3.124-2.819c-.2-.428-.153-.462.313-.454a3.757,3.757,0,0,0,1.545-.139,5.174,5.174,0,0,1-2.174-1.195,4.9,4.9,0,0,1-1.618-3.293c-.041-.529.028-.566.5-.351a3.592,3.592,0,0,0,1.518.352,14.273,14.273,0,0,1-1.03-1.12,5.011,5.011,0,0,1-.531-5.1c.2-.478.285-.5.629-.109a14.455,14.455,0,0,0,6.129,4.134,14.379,14.379,0,0,0,3.272.724c.573.058.623,0,.557-.565a5.174,5.174,0,0,1,2.733-5.051,5.1,5.1,0,0,1,5.691.683.894.894,0,0,0,.935.223A10.979,10.979,0,0,0,30.6,9.6c.11-.058.208-.179.417-.1a5.519,5.519,0,0,1-1.88,2.593,9.912,9.912,0,0,0,2.454-.663.783.783,0,0,1-.265.576A8.857,8.857,0,0,1,29.6,13.752a.948.948,0,0,0-.411.871,14.291,14.291,0,0,1-3.044,9.035,13.545,13.545,0,0,1-9.534,5.425,14.444,14.444,0,0,1-9.139-1.849c-.1-.059-.2-.125-.3-.194a1.552,1.552,0,0,1-.164-.19" transform="translate(0.7 0.9)" fill="#fff"/>
  </g>
</svg>
