<svg xmlns="http://www.w3.org/2000/svg" width="36.265" height="36.439" viewBox="0 0 36.265 36.439"><path d="M535.586,938.736a18.061,18.061,0,0,0-28.419,21.787L504.6,969.88l9.572-2.511a18.039,18.039,0,0,0,8.629,2.2h.007a18.064,18.064,0,0,0,12.773-30.831Zm-12.773,27.781h-.006a14.982,14.982,0,0,1-7.638-2.092l-.548-.325-5.68,1.49,1.516-5.538-.357-.568a15.008,15.008,0,1,1,12.714,7.033Zm8.232-11.24c-.451-.226-2.669-1.317-3.083-1.468s-.715-.225-1.015.226-1.165,1.468-1.429,1.769-.526.339-.978.113a12.328,12.328,0,0,1-3.628-2.24,13.608,13.608,0,0,1-2.51-3.125c-.263-.452,0-.672.2-.921a12.79,12.79,0,0,0,1.128-1.543.83.83,0,0,0-.038-.79c-.112-.226-1.015-2.447-1.391-3.351-.367-.879-.738-.76-1.016-.774s-.564-.016-.864-.016a1.658,1.658,0,0,0-1.2.565,5.062,5.062,0,0,0-1.579,3.764,8.782,8.782,0,0,0,1.842,4.668c.225.3,3.182,4.858,7.707,6.812a25.785,25.785,0,0,0,2.572.951,6.18,6.18,0,0,0,2.842.179c.867-.13,2.669-1.092,3.045-2.145a3.759,3.759,0,0,0,.263-2.146C531.8,955.616,531.5,955.5,531.045,955.277Z" transform="translate(-504.605 -933.441)" fill="#fff" fill-rule="evenodd"/></svg>