<svg xmlns="http://www.w3.org/2000/svg" width="18.262" height="13" viewBox="0 0 18.262 13"><g transform="translate(-2.5 -11)"><path d="M19.06,11H4.2a1.7,1.7,0,0,0-1.7,1.7v9.6A1.7,1.7,0,0,0,4.2,24H19.06a1.7,1.7,0,0,0,1.7-1.7V12.7A1.7,1.7,0,0,0,19.06,11Zm.774,11.3a.774.774,0,0,1-.774.774H4.2a.774.774,0,0,1-.774-.774V12.7a.774.774,0,0,1,.774-.774H19.06a.774.774,0,0,1,.774.774Zm-.755-9.459a.464.464,0,0,1,0,.657h0l-4.012,4.011,3.863,4.005a.464.464,0,0,1-.669.644l-3.85-3.993L13.271,19.3a2.323,2.323,0,0,1-3.283,0L8.851,18.163,5,22.156a.464.464,0,1,1-.669-.644L8.2,17.506,4.184,13.5a.464.464,0,0,1,.657-.657l5.806,5.807a1.4,1.4,0,0,0,1.97,0l5.806-5.807a.464.464,0,0,1,.657,0Z" transform="translate(0 0)" fill="#656565"/></g></svg>