<svg xmlns="http://www.w3.org/2000/svg" width="16.489" height="19.642" viewBox="0 0 16.489 19.642"><g transform="translate(-16.729 -12.867)"><path d="M30.425,20.7V18.32a5.451,5.451,0,1,0-10.9,0V20.7a3.072,3.072,0,0,0-2.793,3.05v5.679a3.082,3.082,0,0,0,3.078,3.078H30.139a3.082,3.082,0,0,0,3.079-3.078V23.752A3.073,3.073,0,0,0,30.425,20.7Zm-5.45-6.429a4.049,4.049,0,0,1,4.044,4.047v2.354h-8.09V18.32A4.051,4.051,0,0,1,24.974,14.273Zm6.837,15.158A1.674,1.674,0,0,1,30.139,31.1H19.807a1.674,1.674,0,0,1-1.672-1.671V23.752a1.674,1.674,0,0,1,1.672-1.672H30.139a1.674,1.674,0,0,1,1.672,1.672v5.679Z" transform="translate(0 0)" fill="#656565"/><path d="M47.865,58.918a.7.7,0,0,0-.7.7v3.22a.7.7,0,0,0,1.406,0v-3.22A.7.7,0,0,0,47.865,58.918Z" transform="translate(-22.892 -34.64)" fill="#656565"/></g></svg>