<svg id="Grupo_2600" data-name="Grupo 2600" xmlns="http://www.w3.org/2000/svg" xmlns:xlink="http://www.w3.org/1999/xlink" width="114.845" height="151.79" viewBox="0 0 114.845 151.79">
  <defs>
    <clipPath id="clip-path">
      <rect id="Retângulo_1038" data-name="Retângulo 1038" width="91.574" height="122.264" fill="none"/>
    </clipPath>
  </defs>
  <g id="Grupo_2599" data-name="Grupo 2599" transform="translate(23.27)">
    <path id="Caminho_886" data-name="Caminho 886" d="M-286.547,486.86l-21.271,39.774,21.271,39.774h6.075l21.277-39.774-13.677-25.57-3.039,5.682,10.638,19.888-18.234,34.092-18.233-34.092,21.269-39.774Z" transform="translate(307.818 -444.143)" fill="#fff"/>
    <path id="Caminho_887" data-name="Caminho 887" d="M-267.924,486.86-289.2,526.634l13.672,25.57,3.039-5.682-10.638-19.888,18.237-34.092,18.233,34.092-21.271,39.774h6.078l21.272-39.774-21.272-39.774Z" transform="translate(301.349 -444.143)" fill="#fff"/>
    <g id="Grupo_2598" data-name="Grupo 2598" transform="translate(0)">
      <g id="Grupo_3022" data-name="Grupo 3022">
        <g id="Grupo_3021" data-name="Grupo 3021" clip-path="url(#clip-path)">
          <g id="Grupo_2597" data-name="Grupo 2597" transform="translate(25.578 0)">
            <path id="Caminho_888" data-name="Caminho 888" d="M-205.352,487.142a2.531,2.531,0,0,1-2.528-2.528,57.041,57.041,0,0,0-16.839-40.6,57.045,57.045,0,0,0-40.589-16.839h0a2.528,2.528,0,0,1-2.528-2.527,2.528,2.528,0,0,1,2.528-2.528h0a62.559,62.559,0,0,1,62.489,62.489,2.531,2.531,0,0,1-2.528,2.528" transform="translate(268.353 -421.657)" fill="#fff"/>
            <path id="Caminho_889" data-name="Caminho 889" d="M-265.588,422.345a62.091,62.091,0,0,1,62.021,62.021,2.06,2.06,0,0,1-2.1,2.023,2.06,2.06,0,0,1-2.023-2.023,57.964,57.964,0,0,0-57.9-57.9,2.061,2.061,0,0,1-2.1-2.023,2.06,2.06,0,0,1,2.024-2.1h.073m0-.936a3,3,0,0,0-3.039,2.951,3,3,0,0,0,2.951,3.039h.088a57.116,57.116,0,0,1,52.479,34.814,56.462,56.462,0,0,1,4.483,22.152,3,3,0,0,0,2.951,3.039,3,3,0,0,0,3.039-2.951c0-.03,0-.059,0-.089a63.027,63.027,0,0,0-62.953-62.957" transform="translate(268.628 -421.408)" fill="#fff"/>
            <path id="Caminho_890" data-name="Caminho 890" d="M-222.486,496.262a2.528,2.528,0,0,1-2.528-2.528,40.351,40.351,0,0,0-40.3-40.3,2.528,2.528,0,0,1-2.528-2.528,2.528,2.528,0,0,1,2.528-2.528,45.4,45.4,0,0,1,45.36,45.36,2.531,2.531,0,0,1-2.528,2.528" transform="translate(268.355 -430.776)" fill="#fff"/>
            <path id="Caminho_891" data-name="Caminho 891" d="M-265.587,448.595a44.935,44.935,0,0,1,44.89,44.89,2.061,2.061,0,0,1-2.023,2.1,2.06,2.06,0,0,1-2.1-2.024c0-.024,0-.049,0-.073a40.817,40.817,0,0,0-40.77-40.77,2.061,2.061,0,0,1-2.1-2.023,2.06,2.06,0,0,1,2.024-2.1h.073m0-.936h0a3,3,0,0,0-3.039,2.951,3,3,0,0,0,2.951,3.039h.088a39.883,39.883,0,0,1,39.833,39.834,3,3,0,0,0,3,3,3,3,0,0,0,3-3,45.874,45.874,0,0,0-45.825-45.825" transform="translate(268.627 -430.526)" fill="#fff"/>
          </g>
        </g>
      </g>
    </g>
  </g>
  <g id="Grupo_3023" data-name="Grupo 3023" transform="translate(0 141.608)" style="isolation: isolate">
    <path id="Caminho_1037" data-name="Caminho 1037" d="M-336.3,638.381V640.4h-4.982v2.506h4.512v1.927h-4.512v3.571h-2.193V638.381Z" transform="translate(343.473 -638.381)" fill="#fff"/>
    <path id="Caminho_1038" data-name="Caminho 1038" d="M-322.715,638.381v1.989h-5.029v2.021h4.559V644.3h-4.559v2.115h5.029v1.989h-7.222V638.381Z" transform="translate(338.771 -638.381)" fill="#fff"/>
    <path id="Caminho_1039" data-name="Caminho 1039" d="M-308.723,638.381v1.989h-5.029v2.021h4.558V644.3h-4.558v2.115h5.029v1.989h-7.222V638.381Z" transform="translate(333.911 -638.381)" fill="#fff"/>
    <path id="Caminho_1040" data-name="Caminho 1040" d="M-297.677,638.381a4.971,4.971,0,0,1,5.216,5.013,4.962,4.962,0,0,1-5.216,5.012h-4.277V638.381Zm-2.083,2.021v5.984h2.083a2.824,2.824,0,0,0,2.976-2.992,2.824,2.824,0,0,0-2.976-2.992Z" transform="translate(329.052 -638.381)" fill="#fff"/>
  </g>
  <g id="Grupo_3024" data-name="Grupo 3024" transform="translate(41.399 141.608)" style="isolation: isolate">
    <path id="Caminho_1041" data-name="Caminho 1041" d="M-276.063,644.632h-2.773v3.775h-1.206V638.381h3.822c2.366,0,3.807,1.112,3.807,3.117a2.884,2.884,0,0,1-2.4,2.977l2.726,3.932h-1.441Zm-2.773-5.17v4.089h2.632c1.567,0,2.554-.69,2.554-2.036,0-1.363-.987-2.053-2.554-2.053Z" transform="translate(280.042 -638.381)" fill="#fff"/>
    <path id="Caminho_1042" data-name="Caminho 1042" d="M-257.795,638.381v1.1h-5.561v3.305h5.091v1.081h-5.091v3.447h5.561v1.1h-6.768V638.381Z" transform="translate(274.665 -638.381)" fill="#fff"/>
    <path id="Caminho_1043" data-name="Caminho 1043" d="M-249.668,638.381l6.423,8.146v-8.146h1.19v10.025h-1.19l-6.423-8.1v8.1h-1.19V638.381Z" transform="translate(269.905 -638.381)" fill="#fff"/>
    <path id="Caminho_1044" data-name="Caminho 1044" d="M-224.309,648.406h-1.331l-1.253-2.836h-5.123l-1.237,2.836h-1.285l4.48-10.025h1.269Zm-3.054-3.917-2.084-4.762-2.1,4.762Z" transform="translate(264.237 -638.381)" fill="#fff"/>
    <path id="Caminho_1045" data-name="Caminho 1045" d="M-216.994,644.224v-5.843h1.222v5.811c0,2.162,1.112,3.259,3.086,3.259s3.1-1.1,3.1-3.259v-5.811h1.206v5.843a3.956,3.956,0,0,1-4.308,4.339A3.955,3.955,0,0,1-216.994,644.224Z" transform="translate(258.143 -638.381)" fill="#fff"/>
    <path id="Caminho_1046" data-name="Caminho 1046" d="M-198.317,638.381v8.913h5.154v1.112h-6.36V638.381Z" transform="translate(252.074 -638.381)" fill="#fff"/>
    <path id="Caminho_1047" data-name="Caminho 1047" d="M-191.171,638.381h8.788v1.112h-3.791v8.913h-1.206v-8.913h-3.791Z" transform="translate(249.173 -638.381)" fill="#fff"/>
  </g>
</svg>
