<svg xmlns="http://www.w3.org/2000/svg" xmlns:xlink="http://www.w3.org/1999/xlink" width="182.32" height="92.189" viewBox="0 0 182.32 92.189">
  <defs>
    <filter id="logo-nav" x="0" y="0" width="182.32" height="92.189" filterUnits="userSpaceOnUse">
      <feOffset dy="6" input="SourceAlpha"/>
      <feGaussianBlur stdDeviation="10" result="blur"/>
      <feFlood flood-opacity="0.392"/>
      <feComposite operator="in" in2="blur"/>
      <feComposite in="SourceGraphic"/>
    </filter>
  </defs>
  <g transform="matrix(1, 0, 0, 1, 0, 0)" filter="url(#logo-nav)">
    <path id="logo-nav-2" data-name="logo-nav" d="M7.036,32.189a6.845,6.845,0,1,1,0-13.685,6.845,6.845,0,1,1,0,13.685Zm0-11.031A3.9,3.9,0,0,0,3,25.347a3.888,3.888,0,0,0,4.033,4.172,3.871,3.871,0,0,0,4.013-4.172A3.883,3.883,0,0,0,7.036,21.159Zm12.02-2.447,6.737,8.626V18.712h2.836V31.982H25.793l-6.737-8.605v8.605H16.222V18.712Zm21.51,0a6.636,6.636,0,0,1,7,6.635c0,3.794-2.92,6.635-7,6.635H34.832V18.712Zm-2.794,2.675v7.921h2.794a3.763,3.763,0,0,0,3.992-3.961,3.762,3.762,0,0,0-3.992-3.96Zm21.594-2.675v2.634H52.624V24.02h6.113V26.55H52.624v2.8h6.743v2.634H49.683V18.712Zm5.4,4.563-.792,8.708H61.135l1.2-13.271h3.738L69.1,27.277l3-8.564h3.635l1.206,13.269H73.959l-.819-8.957-2.731,7.858H67.531Zm27.764,8.707H89.335l-1.177-2.82H82.3l-1.177,2.82H78.055l5.714-13.271h3.046ZM87.087,26.57l-1.849-4.458L83.37,26.57Zm9.978-7.858,6.736,8.626V18.712h2.835V31.982h-2.828l-6.737-8.605v8.605H94.236V18.712Zm18.254,0a6.636,6.636,0,0,1,7,6.635c0,3.794-2.921,6.635-7,6.635h-5.734V18.712Zm-2.794,2.675v7.921h2.794a3.764,3.764,0,0,0,3.991-3.961,3.763,3.763,0,0,0-3.991-3.96ZM6.254,8.942H3.586v4.329H.646V.005H6.359c3.256,0,5.189,1.658,5.189,4.479a4.081,4.081,0,0,1-2.436,3.94l2.856,4.846H8.586ZM3.586,2.579V6.457H6.443A1.861,1.861,0,0,0,8.565,4.528,1.861,1.861,0,0,0,6.443,2.572ZM23.626.008V2.642H16.889V5.317H23V7.847H16.889v2.8h6.737v2.629H13.942V.005Zm5.189,0,6.737,8.626V.005h2.836V13.271H35.551L28.814,4.665v8.605H25.978V.005ZM54.572,13.278H51.379L50.2,10.458h-5.86l-1.182,2.812H40.088L45.8,0h3.046ZM49.131,7.866,47.282,3.408,45.413,7.866Zm6.323-.228V.005h2.941V7.511c0,2.217,1.092,3.3,3.151,3.3,2.037,0,3.15-1.078,3.15-3.3V.005h2.941v7.63c0,3.773-2.2,5.848-6.091,5.848-3.913,0-6.1-2.074-6.1-5.848ZM73.225.008V10.6h6.428v2.67H70.284V.005Zm5.483,0h12.2V2.682H86.288V13.271h-2.94V2.679H78.706Z" transform="translate(30 24)" fill="#fff"/>
  </g>
</svg>
