<svg xmlns="http://www.w3.org/2000/svg" xmlns:xlink="http://www.w3.org/1999/xlink" width="26.276" height="26" viewBox="0 0 26.276 26">
  <defs>
    <clipPath id="clip-path">
      <rect id="Retângulo_721" data-name="Retângulo 721" width="26.276" height="26" fill="#fff"/>
    </clipPath>
  </defs>
  <g id="Grupo_2578" data-name="Grupo 2578" transform="translate(0 0)">
    <g id="Grupo_2577" data-name="Grupo 2577" transform="translate(0 0)" clip-path="url(#clip-path)">
      <path id="Caminho_880" data-name="Caminho 880" d="M26.217,9.967l-.788-.236c-2.521-.669-3.545-1.654-3.545-3.388A8.629,8.629,0,0,1,22.317,3.9l.2-.748A32.2,32.2,0,0,0,17.235,0l-.473.591a4.732,4.732,0,0,1-3.625,1.97A4.733,4.733,0,0,1,9.514.591L9.041,0A32.237,32.237,0,0,0,3.763,3.151l.2.748a8.654,8.654,0,0,1,.432,2.443c0,1.733-1.024,2.719-3.545,3.388l-.788.236c-.079,2.167-.079,3.94,0,6.067l.788.236c2.521.67,3.545,1.654,3.545,3.388a9.129,9.129,0,0,1-.432,2.481l-.2.709A32.3,32.3,0,0,0,9.041,26l.473-.551a4.665,4.665,0,0,1,3.624-2.009,4.664,4.664,0,0,1,3.625,2.009l.473.551a32.262,32.262,0,0,0,5.278-3.152l-.2-.709a9.1,9.1,0,0,1-.433-2.481c0-1.734,1.024-2.719,3.545-3.388l.788-.236c.079-2.127.079-3.9,0-6.067m-1.576,4.925c-3.231.748-4.373,2.521-4.373,4.767a10.21,10.21,0,0,0,.355,2.481A21.85,21.85,0,0,1,17.51,24.03c-1.575-1.655-2.8-2.167-4.372-2.167s-2.8.512-4.372,2.167a21.889,21.889,0,0,1-3.113-1.892,10.169,10.169,0,0,0,.355-2.481c0-2.246-1.143-4.019-4.372-4.767V11.069c3.229-.788,4.372-2.482,4.372-4.727a9.934,9.934,0,0,0-.355-2.482A17.664,17.664,0,0,1,8.8,1.97c1.576,1.655,2.757,2.167,4.333,2.167,1.536,0,2.758-.512,4.334-2.127a17.353,17.353,0,0,1,3.152,1.851,9.973,9.973,0,0,0-.355,2.482c0,2.245,1.142,3.939,4.373,4.727Z" transform="translate(0 0)" fill="#fff"/>
      <path id="Caminho_881" data-name="Caminho 881" d="M14.924,9.841c-3.112,0-4.964,1.812-4.964,4.924s1.852,4.964,4.964,4.964,4.925-1.852,4.925-4.964-1.813-4.924-4.925-4.924m0,8.312a3.078,3.078,0,0,1-3.348-3.388,3.066,3.066,0,0,1,3.348-3.348,3.037,3.037,0,0,1,3.309,3.348,3.049,3.049,0,0,1-3.309,3.388" transform="translate(-1.787 -1.765)" fill="#fff"/>
    </g>
  </g>
</svg>
