<svg xmlns="http://www.w3.org/2000/svg" xmlns:xlink="http://www.w3.org/1999/xlink" width="19.15" height="33.864" viewBox="0 0 19.15 33.864"><defs><linearGradient id="a" x1="0.5" x2="0.5" y2="1" gradientUnits="objectBoundingBox"><stop offset="0" stop-color="#ffd500"/><stop offset="1" stop-color="#fab600"/></linearGradient></defs><g transform="translate(-241 -377.127)"><g transform="translate(-1974 -1853.873)"><path d="M1350.649,370.357h-13.663a2.747,2.747,0,0,0-2.744,2.744v28.377a2.747,2.747,0,0,0,2.744,2.744h13.663a2.746,2.746,0,0,0,2.744-2.744V373.1A2.746,2.746,0,0,0,1350.649,370.357Zm-13.663,1.5h13.663a1.248,1.248,0,0,1,1.247,1.247v2.022H1335.74V373.1A1.249,1.249,0,0,1,1336.987,371.853Zm14.91,4.766v20.186H1335.74V376.619Zm-1.247,26.105h-13.663a1.249,1.249,0,0,1-1.247-1.247V398.3H1351.9v3.175A1.248,1.248,0,0,1,1350.649,402.725Z" transform="translate(880.757 1860.643)" fill="url(#a)"/><ellipse cx="1.387" cy="1.387" rx="1.387" ry="1.387" transform="translate(2223.188 2259.886)" fill="url(#a)"/><g transform="translate(2217.577 2241.695)"><path d="M1337.44,392.4h12.767a.616.616,0,0,0,.616-.615V381.7a.616.616,0,0,0-.611-.622H1337.44a.615.615,0,0,0-.615.615v10.092A.615.615,0,0,0,1337.44,392.4Zm6.271-4.063,2.228-1.357,3.654,2.3v1.9l-11.539,0v-3.432l2.435-1.755,2.488,2.278A.612.612,0,0,0,1343.712,388.335Zm1.9-2.6-2.149,1.309-2.515-2.3a.619.619,0,0,0-.774-.054l-2.122,1.528v-3.9h11.539v5.51l-3.333-2.087a.625.625,0,0,0-.325-.093A.6.6,0,0,0,1345.615,385.732Zm4.592-4.386Z" transform="translate(-1336.826 -381.077)" fill="url(#a)"/><path d="M1346.661,384.788a1.009,1.009,0,0,0,.279.518,1.02,1.02,0,0,0,.724.3h0a1.022,1.022,0,0,0-.01-2.044h-.008a1.029,1.029,0,0,0-1.013,1.027l.006.2Z" transform="translate(-1336.849 -381.083)" fill="url(#a)"/></g></g></g></svg>