<svg xmlns="http://www.w3.org/2000/svg" width="26.197" height="22.92" viewBox="0 0 26.197 22.92"><g transform="translate(-180.441 -630.243)"><path d="M71.8,426.545a.41.41,0,0,0-.41.41v2.185a1.231,1.231,0,0,1-1.229,1.229H48.306a1.231,1.231,0,0,1-1.229-1.229V413.3a1.231,1.231,0,0,1,1.229-1.229h17.48a.41.41,0,1,0,0-.819H48.306a2.051,2.051,0,0,0-2.048,2.048V429.14a2.051,2.051,0,0,0,2.048,2.048h21.85a2.051,2.051,0,0,0,2.048-2.048v-2.185A.41.41,0,0,0,71.8,426.545Z" transform="translate(134.308 221.85)" fill="#747474" stroke="#747474" stroke-width="0.25"/><path d="M51.668,441.25a.41.41,0,0,0,0,.819H61.5a.41.41,0,0,0,0-.819Z" transform="translate(132.04 208.237)" fill="#747474" stroke="#747474" stroke-width="0.25"/><path d="M67.373,436.66a.41.41,0,0,0-.41-.41h-15.3a.41.41,0,1,0,0,.819h15.3A.41.41,0,0,0,67.373,436.66Z" transform="translate(132.04 210.506)" fill="#747474" stroke="#747474" stroke-width="0.25"/><path d="M66.963,431.25h-15.3a.41.41,0,1,0,0,.819h15.3a.41.41,0,1,0,0-.819Z" transform="translate(132.04 212.775)" fill="#747474" stroke="#747474" stroke-width="0.25"/><path d="M66.963,426.25h-15.3a.41.41,0,0,0,0,.819h15.3a.41.41,0,0,0,0-.819Z" transform="translate(132.04 215.044)" fill="#747474" stroke="#747474" stroke-width="0.25"/><path d="M66.963,416.25h-15.3a.41.41,0,0,0,0,.819h15.3a.41.41,0,0,0,0-.819Z" transform="translate(132.04 219.581)" fill="#747474" stroke="#747474" stroke-width="0.25"/><path d="M66.963,421.25h-15.3a.41.41,0,0,0,0,.819h15.3a.41.41,0,0,0,0-.819Z" transform="translate(132.04 217.312)" fill="#747474" stroke="#747474" stroke-width="0.25"/><path d="M87.945,406.25H85.76a1.583,1.583,0,0,0-1.5,1.5v12.564h0a.418.418,0,0,0,.047.186l2.182,4.362a.41.41,0,0,0,.733,0l2.181-4.362a.391.391,0,0,0,.047-.186h0V407.752A1.582,1.582,0,0,0,87.945,406.25Zm-1.093,17.52-1.521-3.044h3.044Zm1.775-3.864H85.077v-9.559h3.551Zm0-10.379H85.077v-1.775a.774.774,0,0,1,.683-.683h2.185a.774.774,0,0,1,.683.683Z" transform="translate(117.066 224.118)" fill="#747474" stroke="#747474" stroke-width="0.25"/></g></svg>