<svg xmlns="http://www.w3.org/2000/svg" width="26.352" height="27.639" viewBox="0 0 26.352 27.639">
  <g id="Grupo_2575" data-name="Grupo 2575" transform="translate(-69.875 -300.68)">
    <path id="Caminho_877" data-name="Caminho 877" d="M13.051,0C5.22,0,0,5.917,0,13.713S5.22,27.39,13.051,27.39,26.1,21.508,26.1,13.713,20.882,0,13.051,0m0,26.032c-6.926,0-11.624-5.29-11.624-12.32,0-7.065,4.7-12.355,11.624-12.355,6.961,0,11.625,5.29,11.625,12.355,0,7.03-4.663,12.32-11.625,12.32" transform="translate(70 300.805)" fill="#fff" stroke="#fff" stroke-width="0.25"/>
    <path id="Caminho_878" data-name="Caminho 878" d="M12.1,7.9V6.545A15.211,15.211,0,0,1,16.2,5.953c2.854,0,4.7,1.5,4.7,4.35,0,1.636-.7,2.611-2.123,4.073L18.153,15a3.114,3.114,0,0,0-1.08,2.436V18.97h-1.5v-1.6a4.264,4.264,0,0,1,1.531-3.445l.626-.627c1.184-1.253,1.532-1.775,1.532-2.959,0-2.088-1.218-2.958-3.376-2.958A15.7,15.7,0,0,0,12.1,7.9" transform="translate(66.673 299.168)" fill="#fff" stroke="#fff" stroke-width="0.25"/>
    <path id="Caminho_879" data-name="Caminho 879" d="M16.274,29.231c0-.8.417-1.148,1.217-1.148.87,0,1.218.348,1.218,1.148s-.348,1.183-1.218,1.183a1.061,1.061,0,0,1-1.217-1.183" transform="translate(65.525 293.082)" fill="#fff" stroke="#fff" stroke-width="0.25"/>
  </g>
</svg>
