<?xml version="1.0" encoding="UTF-8"?>
<!DOCTYPE svg PUBLIC "-//W3C//DTD SVG 1.1//EN" "http://www.w3.org/Graphics/SVG/1.1/DTD/svg11.dtd">
<!-- Creator: CorelDRAW 2017 -->
<svg xmlns="http://www.w3.org/2000/svg" xml:space="preserve" width="35px" height="35px" version="1.1" style="shape-rendering:geometricPrecision; text-rendering:geometricPrecision; image-rendering:optimizeQuality; fill-rule:evenodd; clip-rule:evenodd"
viewBox="0 0 35 35"
 xmlns:xlink="http://www.w3.org/1999/xlink">
 <defs>
  <style type="text/css">
   <![CDATA[
    .fil0 {fill:#747474;fill-rule:nonzero}
   ]]>
  </style>
 </defs>
 <g id="Layer_x0020_1">
  <metadata id="CorelCorpID_0Corel-Layer"/>
  <path class="fil0" d="M24.19 6.9c-2.39,-0.56 -5,0.48 -6.69,2.64 -1.68,-2.16 -4.29,-3.19 -6.69,-2.64 -2.72,0.64 -4.52,3 -4.57,6.01 -0.15,8.42 10.99,15.28 11.1,15.31 0.05,0.02 0.11,0.03 0.16,0.03 0.06,0 0.11,-0.01 0.16,-0.03 0.12,-0.03 11.25,-6.91 11.1,-15.31 -0.05,-3.01 -1.85,-5.37 -4.57,-6.01zm3.45 6.03c0.12,7.06 -8.78,13.19 -10.14,14.09 -1.36,-0.9 -10.26,-7.03 -10.13,-14.09 0.04,-2.48 1.49,-4.42 3.69,-4.93 0.35,-0.08 0.71,-0.12 1.06,-0.12 1.89,0 3.77,1.12 4.9,2.93 0.1,0.17 0.28,0.26 0.48,0.26 0.2,0 0.38,-0.09 0.48,-0.26 1.37,-2.19 3.77,-3.32 5.96,-2.81 2.2,0.51 3.65,2.45 3.7,4.93z"/>
 </g>
</svg>
