<svg xmlns="http://www.w3.org/2000/svg" width="27.003" height="27.003" viewBox="0 0 27.003 27.003"><g transform="translate(-180.75 -685.202)"><path d="M231.433,489.956H228.7a1.381,1.381,0,0,1-1.38-1.38v-1.167a.891.891,0,0,0-.607-.839,10.351,10.351,0,0,1-1.274-.533.841.841,0,0,0-.97.153l-.852.852a1.382,1.382,0,0,1-.976.4h0a1.382,1.382,0,0,1-.976-.4l-1.935-1.935a1.38,1.38,0,0,1,0-1.95l.863-.863a.841.841,0,0,0,.154-.968,10.139,10.139,0,0,1-.526-1.274.874.874,0,0,0-.826-.6h-1.2a1.381,1.381,0,0,1-1.379-1.38v-2.737a1.381,1.381,0,0,1,1.379-1.379h1.222a.875.875,0,0,0,.824-.6,10.33,10.33,0,0,1,.526-1.251.843.843,0,0,0-.152-.972l-.885-.885a1.378,1.378,0,0,1,0-1.95l1.935-1.936a1.385,1.385,0,0,1,.975-.394h0a1.385,1.385,0,0,1,.976.394l.9.9a.84.84,0,0,0,.968.153,10.347,10.347,0,0,1,1.252-.519.856.856,0,0,0,.587-.809v-1.255a1.381,1.381,0,0,1,1.38-1.379h2.737a1.381,1.381,0,0,1,1.38,1.379v1.255a.856.856,0,0,0,.587.809,10.347,10.347,0,0,1,1.252.519.841.841,0,0,0,.968-.153l.9-.9a1.383,1.383,0,0,1,1.951,0L240.4,468.3a1.379,1.379,0,0,1,0,1.951l-.885.884a.84.84,0,0,0-.151.972,10.378,10.378,0,0,1,.524,1.252.877.877,0,0,0,.824.595h1.222a1.381,1.381,0,0,1,1.38,1.379v2.737a1.381,1.381,0,0,1-1.38,1.38h-1.2a.874.874,0,0,0-.825.6,10.4,10.4,0,0,1-.526,1.273.841.841,0,0,0,.154.968l.863.863a1.382,1.382,0,0,1,0,1.95l-1.935,1.935a1.382,1.382,0,0,1-1.951,0l-.853-.853a.841.841,0,0,0-.97-.153,10.284,10.284,0,0,1-1.273.533.891.891,0,0,0-.607.839v1.167A1.381,1.381,0,0,1,231.433,489.956Zm-6.379-4.845a1.7,1.7,0,0,1,.755.178,9.5,9.5,0,0,0,1.171.491,1.725,1.725,0,0,1,1.173,1.63v1.167a.544.544,0,0,0,.544.544h2.737a.544.544,0,0,0,.544-.544v-1.167a1.727,1.727,0,0,1,1.173-1.631,9.36,9.36,0,0,0,1.171-.49,1.677,1.677,0,0,1,1.934.31l.853.853a.546.546,0,0,0,.769,0l1.935-1.935a.545.545,0,0,0,0-.768l-.863-.863a1.676,1.676,0,0,1-.313-1.929,9.275,9.275,0,0,0,.484-1.171,1.709,1.709,0,0,1,1.617-1.168h1.2a.544.544,0,0,0,.544-.544v-2.737a.544.544,0,0,0-.544-.543h-1.222a1.712,1.712,0,0,1-1.614-1.159,9.472,9.472,0,0,0-.482-1.151,1.677,1.677,0,0,1,.309-1.936l.885-.885a.543.543,0,0,0,0-.768l-1.935-1.935a.544.544,0,0,0-.769,0l-.9.9a1.677,1.677,0,0,1-1.93.312,9.575,9.575,0,0,0-1.151-.478,1.691,1.691,0,0,1-1.154-1.6v-1.255a.544.544,0,0,0-.544-.544H228.7a.544.544,0,0,0-.544.544v1.255a1.691,1.691,0,0,1-1.154,1.6,9.573,9.573,0,0,0-1.151.478,1.679,1.679,0,0,1-1.931-.312l-.895-.9a.54.54,0,0,0-.385-.15h0a.54.54,0,0,0-.384.15l-1.936,1.935a.543.543,0,0,0,0,.768l.885.885a1.677,1.677,0,0,1,.309,1.936,9.446,9.446,0,0,0-.482,1.151,1.712,1.712,0,0,1-1.615,1.159h-1.222a.544.544,0,0,0-.543.543v2.737a.544.544,0,0,0,.543.544h1.2a1.708,1.708,0,0,1,1.617,1.168,9.47,9.47,0,0,0,.485,1.171,1.675,1.675,0,0,1-.313,1.929l-.863.863a.543.543,0,0,0,0,.768l1.935,1.935a.544.544,0,0,0,.385.15h0a.541.541,0,0,0,.384-.15l.853-.852A1.667,1.667,0,0,1,225.054,485.111Zm5.01-1.543a6.864,6.864,0,1,1,6.865-6.864A6.872,6.872,0,0,1,230.064,483.568Zm0-12.893a6.029,6.029,0,1,0,6.028,6.029A6.036,6.036,0,0,0,230.064,470.675Z" transform="translate(-35.813 221.999)" fill="#747474" stroke="#747474" stroke-width="0.5"/></g></svg>