<svg xmlns="http://www.w3.org/2000/svg" width="25.744" height="25.744" viewBox="0 0 25.744 25.744"><g transform="translate(-712.632 -30.375)"><g transform="translate(721.909 32.81)"><path d="M338.761,417.245a4.126,4.126,0,0,1-1.328-.495c-.2-.094-.468-.219-.6-.267-.127.048-.394.173-.6.267a4.126,4.126,0,0,1-1.328.495.589.589,0,0,1-.284-.088c-.278-.2-.249-.56-.112-1.661.027-.221.063-.512.07-.648-.085-.106-.285-.32-.437-.483-.757-.81-.991-1.083-.885-1.409s.455-.408,1.543-.619c.219-.042.506-.1.637-.134.076-.113.217-.37.325-.565.536-.97.722-1.278,1.066-1.278s.53.308,1.066,1.278c.108.2.25.451.325.565.132.037.419.092.638.134,1.089.211,1.438.292,1.543.62s-.128.6-.885,1.409c-.152.163-.352.376-.437.482.006.137.043.428.07.65.136,1.1.166,1.456-.111,1.658a.586.586,0,0,1-.285.088Zm-4.528-3.974c.157.182.365.4.5.55.454.487.575.627.623.776a2.65,2.65,0,0,1-.047,1c-.025.2-.063.5-.082.741.219-.092.5-.222.677-.307a1.4,1.4,0,0,1,1.866,0c.182.085.456.213.678.306-.021-.24-.057-.539-.082-.737a2.692,2.692,0,0,1-.049-1c.049-.15.17-.29.625-.776.136-.147.343-.369.5-.551-.235-.055-.533-.113-.729-.15a2.7,2.7,0,0,1-.964-.262c-.128-.093-.223-.251-.546-.834-.1-.175-.243-.441-.368-.647-.125.206-.272.471-.369.647-.322.583-.418.741-.546.834a2.693,2.693,0,0,1-.962.262C334.765,413.159,334.467,413.216,334.233,413.271Z" transform="translate(-333.242 -410.361)" fill="#fab600" stroke="#fab600" stroke-linecap="round" stroke-linejoin="round" stroke-width="0.5"/></g><g transform="translate(713.945 35.94)"><path d="M340.978,431.928a.4.4,0,0,1-.4-.4V418.243a1.2,1.2,0,0,0-1.2-1.2.4.4,0,0,1,0-.8,2,2,0,0,1,1.993,1.993v13.286A.4.4,0,0,1,340.978,431.928Zm-22.321,0a.4.4,0,0,1-.4-.4V418.243a2,2,0,0,1,1.993-1.993.4.4,0,0,1,0,.8,1.2,1.2,0,0,0-1.2,1.2v13.286A.4.4,0,0,1,318.657,431.928Z" transform="translate(-318.258 -416.25)" fill="#fab600" stroke="#fab600" stroke-linecap="round" stroke-linejoin="round" stroke-width="0.5"/></g><g transform="translate(717.134 30.625)"><path d="M327.314,421.4a.406.406,0,0,1-.166-.036.4.4,0,0,1-.232-.362v-2.79h-.664a2,2,0,0,1-1.993-1.993v-7.972a2,2,0,0,1,1.993-1.993h12.755A2,2,0,0,1,341,408.243v7.972a2,2,0,0,1-1.993,1.993h-7.825l-3.608,3.093A.4.4,0,0,1,327.314,421.4Zm-1.063-14.349a1.2,1.2,0,0,0-1.2,1.2v7.972a1.2,1.2,0,0,0,1.2,1.2h1.063a.4.4,0,0,1,.4.4v2.322l3.062-2.624a.4.4,0,0,1,.259-.1h7.972a1.2,1.2,0,0,0,1.2-1.2v-7.972a1.2,1.2,0,0,0-1.2-1.2Z" transform="translate(-324.258 -406.25)" fill="#fab600" stroke="#fab600" stroke-linecap="round" stroke-linejoin="round" stroke-width="0.5"/></g><g transform="translate(712.882 51.352)"><path d="M340.041,449.767H317.72a1.54,1.54,0,0,1-1.461-1.462v-2.657a.4.4,0,0,1,.4-.4H341.1a.4.4,0,0,1,.4.4v2.657A1.54,1.54,0,0,1,340.041,449.767Zm-22.985-3.72v2.259a.753.753,0,0,0,.664.664h22.321a.753.753,0,0,0,.664-.664v-2.259Z" transform="translate(-316.258 -445.25)" fill="#fab600" stroke="#fab600" stroke-linecap="round" stroke-linejoin="round" stroke-width="0.5"/></g><g transform="translate(722.449 51.352)"><path d="M339.971,447.642h-5.315a.4.4,0,0,1-.4-.4v-1.594a.4.4,0,0,1,.8,0v1.2h4.517v-1.2a.4.4,0,1,1,.8,0v1.594A.4.4,0,0,1,339.971,447.642Z" transform="translate(-334.258 -445.25)" fill="#fab600" stroke="#fab600" stroke-linecap="round" stroke-linejoin="round" stroke-width="0.5"/></g></g></svg>