<?xml version="1.0" encoding="UTF-8"?>
<!DOCTYPE svg PUBLIC "-//W3C//DTD SVG 1.1//EN" "http://www.w3.org/Graphics/SVG/1.1/DTD/svg11.dtd">
<!-- Creator: CorelDRAW 2017 -->
<svg xmlns="http://www.w3.org/2000/svg" xml:space="preserve" width="26px" height="25px" version="1.1" style="shape-rendering:geometricPrecision; text-rendering:geometricPrecision; image-rendering:optimizeQuality; fill-rule:evenodd; clip-rule:evenodd"
viewBox="0 0 26 24.82"
 xmlns:xlink="http://www.w3.org/1999/xlink">
 <defs>
  <style type="text/css">
   <![CDATA[
    .fil0 {fill:#747474}
   ]]>
  </style>
 </defs>
 <g id="Layer_x0020_1">
  <metadata id="CorelCorpID_0Corel-Layer"/>
  <path class="fil0" d="M13 22.88c4.86,-3.28 11.38,-9.46 11.27,-15.74 -0.04,-2.48 -1.44,-4.69 -3.93,-5.27 -2.57,-0.6 -5.08,0.91 -6.41,3.04 -0.2,0.33 -0.55,0.51 -0.93,0.51 -0.38,0 -0.73,-0.18 -0.92,-0.5 -1.13,-1.81 -3.11,-3.18 -5.29,-3.18 -0.38,0 -0.76,0.04 -1.13,0.13 -2.49,0.58 -3.87,2.79 -3.92,5.27 -0.11,6.27 6.4,12.46 11.26,15.74zm7.72 -22.71c-2.76,-0.64 -5.77,0.56 -7.72,3.05 -1.94,-2.49 -4.95,-3.68 -7.72,-3.05 -3.14,0.74 -5.22,3.47 -5.28,6.94 -0.17,9.72 12.69,17.64 12.82,17.67 0.05,0.03 0.12,0.04 0.18,0.04 0.07,0 0.13,-0.01 0.18,-0.04 0.14,-0.03 12.99,-7.97 12.82,-17.67 -0.06,-3.47 -2.14,-6.2 -5.28,-6.94z"/>
 </g>
</svg>
