<svg id="Grupo_2143" data-name="Grupo 2143" xmlns="http://www.w3.org/2000/svg" xmlns:xlink="http://www.w3.org/1999/xlink" width="21" height="31.585" viewBox="0 0 21 31.585">
  <defs>
    <clipPath id="clip-path">
      <rect id="Retângulo_424" data-name="Retângulo 424" width="21" height="31.585" fill="#fff"/>
    </clipPath>
  </defs>
  <g id="Grupo_2142" data-name="Grupo 2142" transform="translate(0 0)" clip-path="url(#clip-path)">
    <path id="Caminho_738" data-name="Caminho 738" d="M10.5,25.956,1.47,31.584,0,31V2.982C0,.966.966,0,2.982,0H18.018C20.035,0,21,.966,21,2.982V31l-1.47.545Zm8.778,3.361v-26c0-1.092-.42-1.555-1.512-1.555H3.235c-1.092,0-1.513.463-1.513,1.555v26L10.5,23.856ZM14.322,18.606c-1.68-.756-2.646-1.26-3.864-1.891-1.176.631-2.227,1.135-3.907,1.891L5.8,18.144a33.544,33.544,0,0,1,.841-4.2c-1.008-.924-1.681-1.638-2.983-3.024l.168-.966c1.807-.336,2.857-.5,4.2-.63.63-1.3,1.218-2.436,2.142-4.074h.715c.924,1.638,1.511,2.772,2.142,4.074,1.3.126,2.31.294,4.116.63l.168.966c-1.26,1.344-2.016,2.1-3.024,3.024a34.468,34.468,0,0,1,.8,4.2ZM7.812,16.254c1.3-.631,1.974-1.05,2.688-1.47a28.967,28.967,0,0,0,2.6,1.427c-.252-1.3-.379-2.057-.546-2.814,1.092-1.007,1.638-1.554,2.309-2.226-1.427-.21-2.226-.336-3.024-.377A29.11,29.11,0,0,0,10.5,8.022c-.377.756-.714,1.428-1.3,2.773-.882.041-1.638.167-3.066.377A25.418,25.418,0,0,0,8.316,13.4c-.168.757-.294,1.512-.5,2.857" transform="translate(0 0)" fill="#fff"/>
  </g>
</svg>
