<svg xmlns="http://www.w3.org/2000/svg" width="15.715" height="15.715" viewBox="0 0 15.715 15.715"><g transform="translate(-458.134 -636.279)"><path d="M465.992,636.454a7.682,7.682,0,1,0,7.682,7.682A7.691,7.691,0,0,0,465.992,636.454Zm7.115,7.682a7.115,7.115,0,1,1-7.115-7.114A7.123,7.123,0,0,1,473.106,644.136Z" transform="translate(0 0)" fill="#747474" stroke="#747474" stroke-linecap="round" stroke-linejoin="round" stroke-width="0.35"/><path d="M494.541,663.674l-5.576-3.261a.284.284,0,0,0-.427.245v6.522a.284.284,0,0,0,.427.245l5.576-3.261a.284.284,0,0,0,0-.49Zm-.706.245-4.73,2.766v-5.532Z" transform="translate(-25 -19.782)" fill="#747474" stroke="#747474" stroke-linecap="round" stroke-linejoin="round" stroke-width="0.35"/></g></svg>