<svg xmlns="http://www.w3.org/2000/svg" xmlns:xlink="http://www.w3.org/1999/xlink" width="15.523" height="14.493" viewBox="0 0 15.523 14.493"><defs><clipPath id="a"><rect width="15.523" height="14.493" fill="#747474"/></clipPath></defs><g clip-path="url(#a)"><path d="M15.016,11.454a5.248,5.248,0,0,0,.508-2.268,5.326,5.326,0,0,0-5.074-5.3A5.323,5.323,0,0,0,0,5.306,5.248,5.248,0,0,0,.508,7.573l-.5,2.494a.455.455,0,0,0,.534.535l2.525-.5a5.23,5.23,0,0,0,2.006.5,5.314,5.314,0,0,0,7.381,3.38c2.765.547,2.549.508,2.613.508a.455.455,0,0,0,.446-.544ZM3.338,9.222a.455.455,0,0,0-.3-.041l-2.008.4L1.43,7.6a.455.455,0,0,0-.041-.3,4.349,4.349,0,0,1-.479-2,4.414,4.414,0,0,1,8.6-1.382A5.312,5.312,0,0,0,4.9,9.681a4.331,4.331,0,0,1-1.567-.458m10.755,2.258.4,1.978-2.008-.4a.455.455,0,0,0-.3.041,4.349,4.349,0,0,1-2,.479,4.4,4.4,0,1,1,4.426-4.4,4.348,4.348,0,0,1-.479,2,.455.455,0,0,0-.041.3" transform="translate(0)" fill="#747474"/></g></svg>