<svg xmlns="http://www.w3.org/2000/svg" width="12.96" height="13.412" viewBox="0 0 12.96 13.412"><g transform="translate(-5855.199 -1561.836)"><path d="M5868.011,1565.772l-2.109-3.628a.545.545,0,0,0-.564-.308h-7.316a.545.545,0,0,0-.564.308l-2.119,3.645a.923.923,0,0,0-.139.5v1.2a1.909,1.909,0,0,0,.422,1.2l.011,4.892a1.7,1.7,0,0,0,1.729,1.677H5866a1.7,1.7,0,0,0,1.729-1.677l.01-4.892a1.909,1.909,0,0,0,.421-1.2v-1.116A.916.916,0,0,0,5868.011,1565.772Zm-1.11,7.8a.886.886,0,0,1-.9.838h-2.912v-4a.488.488,0,0,0-.486-.487h-2.121a.488.488,0,0,0-.487.487v4h-2.631a.886.886,0,0,1-.9-.838c0-2.271,0,.042,0-4.287a9.5,9.5,0,0,1,5.223-.63,9.491,9.491,0,0,1,5.222.63C5866.9,1573.614,5866.9,1571.3,5866.9,1573.572Zm-1.78-6.089-.017-1.327-.577-2.367c-.169-.695-.874-.334-.791,0l.589,2.352-.009,1.343a1.117,1.117,0,0,1-2.234,0l-.007-3.717a.4.4,0,0,0-.791,0l-.007,3.717a1.117,1.117,0,0,1-2.234,0l.011-1.337.589-2.352c.083-.334-.622-.694-.791,0l-.577,2.367-.038,1.321a1.117,1.117,0,0,1-2.234,0l.007-1.3,2-3.51h7.344l1.953,3.353.05,1.455A1.117,1.117,0,0,1,5865.121,1567.483Z" fill="#747474" fill-rule="evenodd"/></g></svg>