<svg xmlns="http://www.w3.org/2000/svg" width="13.879" height="13.391" viewBox="0 0 13.879 13.391"><path d="M12.388,0a1.493,1.493,0,0,0-1.465,1.215A22.137,22.137,0,0,1,3.9,2.386H2.033A2.035,2.035,0,0,0,0,4.419V6.37A2.035,2.035,0,0,0,2.033,8.4H3.574l.718,3.37a2.042,2.042,0,0,0,1.99,1.618,1.094,1.094,0,0,0,1.071-1.318l-.294-1.411A2.586,2.586,0,0,0,8.729,8.953a10.453,10.453,0,0,1,2.194.622A1.491,1.491,0,0,0,13.879,9.3V1.491A1.493,1.493,0,0,0,12.388,0m-3.9,8.088C8.039,8,5.736,7.711,4.31,7.614V3.192A22.448,22.448,0,0,0,10.9,2.1V8.69a12.913,12.913,0,0,0-2.409-.6M.813,6.37V4.419A1.221,1.221,0,0,1,2.033,3.2H3.5V7.59H2.033A1.221,1.221,0,0,1,.813,6.37m5.47,6.208a1.225,1.225,0,0,1-1.195-.973L4.413,8.437c.448.033.918.076,1.38.127l.766,3.676a.281.281,0,0,1-.275.339m.61-2.719-.249-1.2c.423.049.848.1,1.271.16A1.77,1.77,0,0,1,6.893,9.859M13.066,9.3a.678.678,0,0,1-1.355,0V1.491a.678.678,0,1,1,1.355,0Z" fill="#ffffff"/></svg>