<svg xmlns="http://www.w3.org/2000/svg" width="15.646" height="15.65" viewBox="0 0 15.646 15.65"><g transform="translate(-40.648 -91)"><path d="M28.467,14.479a7.823,7.823,0,1,1-7.821-7.825A7.829,7.829,0,0,1,28.467,14.479Z" transform="translate(27.827 84.346)" fill="#747474"/><g transform="translate(43.735 95)"><path d="M13.648,14.924a4.494,4.494,0,0,0,2.147-.37,3.772,3.772,0,0,0,.859-.515,2.123,2.123,0,0,1-.889-.22,2.028,2.028,0,0,1-.982-1.1c-.045-.112-.045-.112.078-.1a1.623,1.623,0,0,0,.754-.049,2.12,2.12,0,0,1-.485-.187,2.071,2.071,0,0,1-1.113-1.751c-.007-.09.019-.1.1-.06a2.148,2.148,0,0,0,.806.22c-.131-.119-.243-.217-.347-.317a2.118,2.118,0,0,1-.325-2.333c.052-.1.071-.1.142-.019a5.826,5.826,0,0,0,3.588,2c.146.026.306.03.455.06.1.015.112-.034.1-.108a2.057,2.057,0,0,1,3.442-1.848.234.234,0,0,0,.228.052,3.934,3.934,0,0,0,1.083-.422.311.311,0,0,0,.09-.056,2.043,2.043,0,0,1-.866,1.135,4.154,4.154,0,0,0,1.105-.291c.007.052-.03.078-.049.116a4.036,4.036,0,0,1-.855.874.181.181,0,0,0-.075.168,5.98,5.98,0,0,1-1.419,4.017,5.545,5.545,0,0,1-3.435,1.923,5.83,5.83,0,0,1-4.092-.8Z" transform="translate(-13.648 -7.656)" fill="#e4e4e4" fill-rule="evenodd"/></g></g></svg>