<svg xmlns="http://www.w3.org/2000/svg" width="16.183" height="15.39" viewBox="0 0 16.183 15.39"><g transform="translate(-3 -3)" fill="none" stroke-linecap="round" stroke-linejoin="round"><path d="M11.091,3l2.5,5.065,5.591.817-4.046,3.94.955,5.567-5-2.63-5,2.63.955-5.567L3,8.882l5.591-.817Z" stroke="none"/><path d="M 11.0912971496582 4.920368194580078 L 9.353286743164063 8.441384315490723 C 9.22957706451416 8.692004203796387 8.990567207336426 8.86579418182373 8.714016914367676 8.906213760375977 L 4.826139450073242 9.474484443664551 L 7.638716697692871 12.21393394470215 C 7.839217185974121 12.40921401977539 7.930727005004883 12.690673828125 7.883417129516602 12.96652412414551 L 7.219832420349121 16.8355712890625 L 10.6956672668457 15.00766372680664 C 10.81950187683105 14.94253921508789 10.95539951324463 14.90997695922852 11.0912971496582 14.90997695922852 C 11.22719478607178 14.90997695922852 11.36309242248535 14.94253921508789 11.4869270324707 15.00766372680664 L 14.96276187896729 16.8355712890625 L 14.2991771697998 12.96652412414551 C 14.25186729431152 12.690673828125 14.34337711334229 12.40921401977539 14.54387664794922 12.21393394470215 L 17.3564567565918 9.474484443664551 L 13.46857738494873 8.906213760375977 C 13.19202709197998 8.86579418182373 12.95301723480225 8.692004203796387 12.82930755615234 8.441384315490723 L 11.0912971496582 4.920368194580078 M 11.0912971496582 3.000003814697266 L 13.59150695800781 8.065154075622559 L 19.18259811401367 8.882373809814453 L 15.13694763183594 12.82283401489258 L 16.09171676635742 18.38964462280273 L 11.0912971496582 15.75997352600098 L 6.090877532958984 18.38964462280273 L 7.045647621154785 12.82283401489258 L 2.999998092651367 8.882373809814453 L 8.591087341308594 8.065154075622559 L 11.0912971496582 3.000003814697266 Z" stroke="none" fill="#747474"/></g></svg>