<svg xmlns="http://www.w3.org/2000/svg" width="17.416" height="17.416" viewBox="0 0 17.416 17.416"><path d="M224.113,211.3l2.833-1.631-2.833-1.631Z" transform="translate(-216.49 -200.962)" fill="#ffffff"/><path d="M8.708,0a8.708,8.708,0,1,0,8.708,8.708A8.709,8.709,0,0,0,8.708,0m5.441,8.717a14.372,14.372,0,0,1-.224,2.618,1.363,1.363,0,0,1-.959.959,33.1,33.1,0,0,1-4.258.224,31.916,31.916,0,0,1-4.258-.233,1.364,1.364,0,0,1-.959-.959,14.309,14.309,0,0,1-.224-2.618,14.363,14.363,0,0,1,.224-2.618,1.391,1.391,0,0,1,.959-.968A33.1,33.1,0,0,1,8.708,4.9a31.844,31.844,0,0,1,4.258.233,1.364,1.364,0,0,1,.959.959,13.638,13.638,0,0,1,.224,2.626" fill="#ffffff"/></svg>