<svg xmlns="http://www.w3.org/2000/svg" width="16.817" height="12.538" viewBox="0 0 16.817 12.538"><path d="M869.178,90.315a.273.273,0,0,0-.007-.028c0-.011-.006-.023-.01-.034s-.008-.018-.013-.026a.307.307,0,0,0-.016-.03.3.3,0,0,0-.02-.026c-.005-.006-.009-.013-.015-.019l0,0c-.007-.008-.016-.014-.024-.021a.271.271,0,0,0-.025-.021l-.023-.014a.3.3,0,0,0-.033-.018l-.025-.009a.358.358,0,0,0-.036-.011l-.028,0c-.01,0-.02,0-.03,0H852.932c-.011,0-.021,0-.031,0l-.027,0a.351.351,0,0,0-.038.012l-.022.008a.309.309,0,0,0-.036.02l-.019.011a.344.344,0,0,0-.03.025l-.02.017-.006.005c-.006.007-.01.014-.016.021s-.013.016-.019.025a.316.316,0,0,0-.015.028.271.271,0,0,0-.014.03c0,.009-.006.018-.009.027a.3.3,0,0,0-.009.035c0,.009,0,.018,0,.028s0,.019,0,.029v11.631a.329.329,0,0,0,.328.328h15.91a.329.329,0,0,0,.328-.328V90.375c0-.008,0-.015,0-.023S869.18,90.327,869.178,90.315Zm-15.9.81,7.4,6.84a.328.328,0,0,0,.446,0l7.4-6.84v10.552H853.274Zm.511-.422h14.23L860.9,97.277Z" transform="translate(-852.492 -89.921)" fill="#ffffff" stroke="#ffffff" stroke-width="0.25"/></svg>