<svg xmlns="http://www.w3.org/2000/svg" width="13.653" height="13.652" viewBox="0 0 13.653 13.652"><g transform="translate(-468.39 -272.044)"><path d="M481.632,272.169H468.8a.286.286,0,0,0-.286.285v12.831a.286.286,0,0,0,.286.286h12.831a.286.286,0,0,0,.286-.286V272.454A.286.286,0,0,0,481.632,272.169Zm-.286,3.907V285h-12.26v-3.407l4.415-3.283,3.116,2.37a.285.285,0,0,0,.38-.03Zm0-.786a.278.278,0,0,0-.107.07l-4.48,4.711-3.084-2.346a.286.286,0,0,0-.343,0l-4.246,3.158V272.74h12.26Z" fill="#747474" stroke="#747474" stroke-width="0.25"/><path d="M478.771,285.356a1.324,1.324,0,1,0-1.324-1.324A1.325,1.325,0,0,0,478.771,285.356Zm-.753-1.324a.753.753,0,1,1,.753.753A.754.754,0,0,1,478.018,284.032Z" transform="translate(-7.182 -8.474)" fill="#747474" stroke="#747474" stroke-width="0.25"/></g></svg>