<svg xmlns="http://www.w3.org/2000/svg" width="14.599" height="13.852" viewBox="0 0 14.599 13.852"><g transform="translate(-697.037 -396)"><path d="M142.794,67.168H139.63a5.166,5.166,0,0,1-1.808-.325l-2.464-.915a.548.548,0,1,1,.382-1.027l2.464.915a4.081,4.081,0,0,0,1.427.256h3.164a.519.519,0,0,0,0-1.038.548.548,0,1,1,0-1.1h.747a.519.519,0,0,0,0-1.038.548.548,0,1,1,0-1.1h.746a.519.519,0,1,0,0-1.038.548.548,0,1,1,0-1.1h.747a.519.519,0,0,0,0-1.038h-5.171a.548.548,0,0,1-.48-.812,3.658,3.658,0,0,0,.336-1.071,2.906,2.906,0,0,0-.453-2.145.448.448,0,0,0-.815.256,3.945,3.945,0,0,1-2.506,3.943.548.548,0,1,1-.428-1.008A2.894,2.894,0,0,0,137,56.516a3.386,3.386,0,0,0,.359-1.643,1.544,1.544,0,0,1,2.818-.882,4.129,4.129,0,0,1,.492,3.549h4.37a1.614,1.614,0,0,1,.715,3.061A1.616,1.616,0,0,1,145,62.734a1.616,1.616,0,0,1-.747,2.133,1.615,1.615,0,0,1-1.46,2.3Z" transform="translate(564.989 342.684)" fill="#9a9a9a"/><path d="M57.813,183.463H54.678a.548.548,0,0,1-.548-.548v-7.508a.548.548,0,0,1,.548-.548h3.135a.548.548,0,0,1,.548.548v7.508a.548.548,0,0,1-.548.548Zm-2.586-1.1h2.039v-6.412h-2.04Z" transform="translate(642.907 225.577)" fill="#9a9a9a"/></g></svg>