<svg xmlns="http://www.w3.org/2000/svg" width="16.321" height="16.324" viewBox="0 0 16.321 16.324"><path d="M16.28,4.8a5.966,5.966,0,0,0-.379-1.98A4.182,4.182,0,0,0,13.512.431a5.98,5.98,0,0,0-1.98-.379C10.658.01,10.38,0,8.164,0S5.67.01,4.8.048a5.966,5.966,0,0,0-1.98.379,3.983,3.983,0,0,0-1.448.944A4.019,4.019,0,0,0,.431,2.816,5.981,5.981,0,0,0,.051,4.8C.01,5.67,0,5.947,0,8.164s.01,2.494.048,3.364a5.964,5.964,0,0,0,.38,1.98,4.026,4.026,0,0,0,.944,1.448,4.018,4.018,0,0,0,1.445.941,5.982,5.982,0,0,0,1.98.379c.87.038,1.148.048,3.364.048s2.494-.009,3.364-.048a5.964,5.964,0,0,0,1.98-.379,4.176,4.176,0,0,0,2.389-2.389,5.983,5.983,0,0,0,.379-1.98c.038-.871.048-1.148.048-3.364s0-2.494-.041-3.364m-1.47,6.665a4.475,4.475,0,0,1-.281,1.515,2.708,2.708,0,0,1-1.55,1.55,4.491,4.491,0,0,1-1.515.281c-.861.038-1.119.048-3.3.048s-2.44-.009-3.3-.048a4.473,4.473,0,0,1-1.515-.281,2.512,2.512,0,0,1-.938-.609,2.538,2.538,0,0,1-.609-.937,4.491,4.491,0,0,1-.281-1.515c-.038-.861-.048-1.119-.048-3.3s.009-2.44.048-3.3a4.472,4.472,0,0,1,.281-1.515,2.481,2.481,0,0,1,.612-.938,2.534,2.534,0,0,1,.938-.609,4.493,4.493,0,0,1,1.515-.281c.861-.038,1.119-.048,3.3-.048s2.44.01,3.3.048a4.474,4.474,0,0,1,1.515.281,2.51,2.51,0,0,1,.937.609,2.537,2.537,0,0,1,.609.938,4.492,4.492,0,0,1,.281,1.515c.038.861.048,1.119.048,3.3s-.01,2.433-.048,3.294" transform="translate(0 0)" fill="#ffffff"/><path d="M128.475,124.281a4.194,4.194,0,1,0,4.194,4.194,4.195,4.195,0,0,0-4.194-4.194m0,6.914a2.72,2.72,0,1,1,2.72-2.72,2.721,2.721,0,0,1-2.72,2.72" transform="translate(-120.311 -120.311)" fill="#ffffff"/><path d="M363.32,89.361a.979.979,0,1,1-.913-.913.979.979,0,0,1,.913.913" transform="translate(-349.819 -85.62)" fill="#ffffff"/></svg>