<svg xmlns="http://www.w3.org/2000/svg" width="11.907" height="13.958" viewBox="0 0 11.907 13.958"><g transform="translate(-5 -2.034)"><path d="M15.353,14.905a.518.518,0,0,1-.518.518H6.553a.518.518,0,0,1-.518-.518V4.035h5.176V3H5V14.905a1.553,1.553,0,0,0,1.553,1.553h8.282a1.553,1.553,0,0,0,1.553-1.553V8.176H15.353Z" transform="translate(0 -0.466)" fill="#9a9a9a"/><path d="M21.756,2.472a1.594,1.594,0,0,0-2.195,0L16.518,5.511,16,8.254l2.718-.544,3.038-3.038a1.553,1.553,0,0,0,0-2.2ZM18.205,6.753l-.911.181.181-.911L19.194,4.3l.735.735Zm2.821-2.816-.368.362-.73-.73.362-.368h0a.52.52,0,1,1,.735.735Z" transform="translate(-5.306)" fill="#9a9a9a"/></g></svg>