<svg xmlns="http://www.w3.org/2000/svg" xmlns:xlink="http://www.w3.org/1999/xlink" width="12.84" height="13.255" viewBox="0 0 12.84 13.255"><defs><clipPath id="a"><rect width="12.84" height="13.255" fill="#ffffff"/></clipPath></defs><g clip-path="url(#a)"><path d="M12.841,11.286c-.042.161-.073.326-.127.484a2.184,2.184,0,0,1-2.044,1.481q-4.252.008-8.5,0A2.19,2.19,0,0,1,0,11.094C0,8.138,0,5.183,0,2.228a.45.45,0,1,1,.9.01Q.905,3.72.9,5.2.9,8.1.9,11a1.319,1.319,0,0,0,1.369,1.371q4.148,0,8.3,0A1.318,1.318,0,0,0,11.939,11q0-4.375,0-8.749a1.317,1.317,0,0,0-1.37-1.37q-3.268,0-6.536,0A1.32,1.32,0,0,0,2.666,2.256q0,4.336,0,8.671a.737.737,0,0,1-.018.192.439.439,0,0,1-.863-.113c0-.677,0-1.355,0-2.032q0-3.372,0-6.743A2.2,2.2,0,0,1,3.581.039C3.639.027,3.7.013,3.755,0h7.118a.432.432,0,0,0,.071.023,2.2,2.2,0,0,1,1.823,1.633c.027.1.049.207.073.311Z" transform="translate(0)" fill="#ffffff"/><path d="M106.165,142.644c0,.354,0,.707,0,1.061a.872.872,0,0,1-.884.915q-.886.018-1.773,0a.875.875,0,0,1-.889-.925q0-1.061,0-2.122a.882.882,0,0,1,.918-.923q.854,0,1.708,0a.881.881,0,0,1,.919.92c0,.358,0,.716,0,1.074m-2.656,1.088h1.764v-2.2h-1.764Z" transform="translate(-99.07 -135.785)" fill="#ffffff"/><path d="M105.087,77.458h-3.324a.444.444,0,1,1,0-.885h6.661a.443.443,0,1,1,0,.885h-3.337Z" transform="translate(-97.786 -73.925)" fill="#ffffff"/><path d="M107.553,281.247h3.287a.442.442,0,0,1,.472.441.45.45,0,0,1-.474.442h-6.56a.444.444,0,0,1-.452-.3.4.4,0,0,1,.134-.476.645.645,0,0,1,.333-.1c1.087-.007,2.174,0,3.261,0Z" transform="translate(-100.209 -271.521)" fill="#ffffff"/><path d="M220.631,218.061c-.427,0-.854,0-1.281,0a.442.442,0,1,1,0-.881h2.6a.448.448,0,0,1,.462.441.44.44,0,0,1-.458.442c-.44,0-.88,0-1.32,0Z" transform="translate(-211.306 -209.668)" fill="#ffffff"/><path d="M220.646,154.293h-1.294a.442.442,0,1,1,0-.881h2.6a.441.441,0,1,1,0,.882c-.436,0-.871,0-1.307,0" transform="translate(-211.308 -148.106)" fill="#ffffff"/></g></svg>