<svg xmlns="http://www.w3.org/2000/svg" xmlns:xlink="http://www.w3.org/1999/xlink" width="28.92" height="21.886" viewBox="0 0 28.92 21.886">
  <defs>
    <clipPath id="clip-path">
      <rect id="Retângulo_755" data-name="Retângulo 755" width="28.92" height="21.886" fill="#888b8d"/>
    </clipPath>
  </defs>
  <g id="Grupo_2614" data-name="Grupo 2614" transform="translate(0 0)">
    <g id="Grupo_2614-2" data-name="Grupo 2614" transform="translate(0 0)" clip-path="url(#clip-path)">
      <path id="Caminho_898" data-name="Caminho 898" d="M0,11.927V10.353C4.019,5.636,9.261,2.927,14.46,2.927a14.313,14.313,0,0,1,2.709.262L15.945,4.762a8.169,8.169,0,0,0-1.485-.131c-3.713,0-5.985,2.49-5.985,6.509a7.973,7.973,0,0,0,.438,2.8l-1.18,1.529a8.051,8.051,0,0,1-1.047-4.324A7.883,7.883,0,0,1,8.388,5.9a21.666,21.666,0,0,0-6.9,5.243A29.687,29.687,0,0,0,7.514,15.9l-1.093,1.31A23.415,23.415,0,0,1,0,11.927M21.886,0l1.354,1.136L7.383,21.886,6.028,20.751ZM14.46,17.649c3.714,0,5.985-2.49,5.985-6.509a8.3,8.3,0,0,0-.48-2.883l1.179-1.53a8.486,8.486,0,0,1,1.092,4.413,8.035,8.035,0,0,1-1.529,5.067,25.294,25.294,0,0,0,6.727-5.067A26.911,26.911,0,0,0,21.45,6.292l.961-1.268a22.589,22.589,0,0,1,6.509,5.329v1.573c-4.02,4.718-9.262,7.426-14.46,7.426a15.139,15.139,0,0,1-2.8-.262l1.223-1.615a6.244,6.244,0,0,0,1.573.174" transform="translate(0 0)" fill="#888b8d"/>
    </g>
  </g>
</svg>
