<svg xmlns="http://www.w3.org/2000/svg" xmlns:xlink="http://www.w3.org/1999/xlink" width="29" height="16.901" viewBox="0 0 29 16.901">
  <defs>
    <clipPath id="clip-path">
      <rect id="Retângulo_754" data-name="Retângulo 754" width="29" height="16.901" fill="#888b8d"/>
    </clipPath>
  </defs>
  <g id="Grupo_2613" data-name="Grupo 2613" transform="translate(0 0)">
    <g id="Grupo_2612" data-name="Grupo 2612" transform="translate(0 0)" clip-path="url(#clip-path)">
      <path id="Caminho_896" data-name="Caminho 896" d="M15.146,16.742a8.165,8.165,0,0,1-8.03-8.275A8.165,8.165,0,0,1,15.146.193a8.165,8.165,0,0,1,8.03,8.275,8.165,8.165,0,0,1-8.03,8.275m0-14.6a6.217,6.217,0,0,0-6.085,6.33,6.218,6.218,0,0,0,6.085,6.33,6.218,6.218,0,0,0,6.086-6.33,6.218,6.218,0,0,0-6.086-6.33" transform="translate(-0.61 -0.017)" fill="#888b8d"/>
      <path id="Caminho_897" data-name="Caminho 897" d="M14.618,16.9C9.69,16.9,4.863,14.34.257,9.275L0,8.993V7.966L.195,7.7C.413,7.406,5.628.459,13.6.021,18.8-.262,23.892,2.295,28.742,7.626L29,7.908V8.936l-.2.264c-.218.3-5.433,7.242-13.4,7.68q-.392.021-.783.021M2.029,8.416c4.319,4.571,8.786,6.759,13.263,6.524,5.976-.322,10.38-4.931,11.679-6.455-4.32-4.57-8.789-6.762-13.263-6.524C7.732,2.283,3.328,6.892,2.029,8.416" transform="translate(0 0)" fill="#888b8d"/>
    </g>
  </g>
</svg>
