<?xml version="1.0" encoding="utf-8"?>
<!-- Generator: Adobe Illustrator 24.1.2, SVG Export Plug-In . SVG Version: 6.00 Build 0)  -->
<svg version="1.1" id="LOGO_1_" xmlns="http://www.w3.org/2000/svg" xmlns:xlink="http://www.w3.org/1999/xlink" x="0px" y="0px"
	 viewBox="0 0 1530.3 510.2" style="enable-background:new 0 0 1530.3 510.2;" xml:space="preserve">
<style type="text/css">
	.st0{fill:url(#SVGID_1_);}
	.st1{filter:url(#Adobe_OpacityMaskFilter);}
	.st2{fill:url(#SVGID_3_);}
	.st3{mask:url(#SVGID_2_);fill:url(#SVGID_4_);}
	.st4{fill:url(#SVGID_5_);}
	.st5{fill:url(#SVGID_6_);}
	.st6{fill:url(#SVGID_7_);}
	.st7{fill:url(#SVGID_8_);}
	.st8{fill:url(#SVGID_9_);}
	.st9{fill:url(#SVGID_10_);}
	.st10{fill:url(#SVGID_11_);}
	.st11{fill:url(#SVGID_12_);}
	.st12{fill:url(#SVGID_13_);}
	.st13{fill:url(#SVGID_14_);}
	.st14{fill:url(#SVGID_15_);}
	.st15{fill:url(#SVGID_16_);}
	.st16{fill:url(#SVGID_17_);}
	.st17{fill:url(#SVGID_18_);}
	.st18{fill:#FFFFFF;}
	.st19{clip-path:url(#SVGID_20_);}
	.st20{filter:url(#Adobe_OpacityMaskFilter_1_);}
	.st21{fill:url(#SVGID_22_);}
	.st22{mask:url(#SVGID_21_);fill:url(#SVGID_23_);}
</style>
<g>
	<g>
		<g>
			<path d="M1416.9,193.2v22.6h-47.1v99.5h-31.8v-99.5H1291v-22.6H1416.9z"/>
			<path d="M1304.5,292.6v22.6h-100.9V193.2h31.7v99.4H1304.5z"/>
			<path d="M693.3,292.6v22.6h-106V193.2h104v22.6H619v26.8h66v21.9h-66v28.1H693.3z"/>
			<g>
				<path d="M530.4,269.9c13.6-7.4,22-21.9,22-37.1c0-12.7-3.7-22.5-11.5-29c-9-7.5-21.4-10.6-42.3-10.6h-72.8l-1.3,7.4
					c0,0,1.3,2.2,2.8,4.8c2.3,3.9,2.1,5,2.1,7.6v102.2h31.8v-39.1c0,0,27.8,0,39.5,0l21.2,39.1h35L530.4,269.9z M514.4,250.1
					c-2.4,2.4-5.3,3.5-9.8,3.5h-43.3v-37.2h34.2c10.2,0,15.6,1.1,19.3,4.1c3.6,2.9,5.3,7.3,5.3,13.7
					C520,240.9,518.3,246.3,514.4,250.1z"/>
			</g>
		</g>
		<path d="M826.2,193.1v81c-7.4-9.3-15.2-18.3-28.3-32.8c-10.7-11.7-33-35.8-44.4-48.2h-30.6l-1.3,7.4c0,0,1.3,2.2,2.8,4.8
			c1.7,2.9,2,4.3,2.1,5.9c0,0.1,0,104,0,104l28.5-0.1v-80.9c5.7,7.6,15.8,19.3,22.6,26.6c13.5,14.6,33.8,37.3,49.6,54.4h27.4V193.2
			L826.2,193.1z"/>
		<path d="M1137.1,193.2v74.6c0,8.3-1.7,13.3-5.7,17.1c-5.1,4.8-13.6,7.1-25.9,7.1c-12.4,0-21.2-2.3-26.3-7.1
			c-4-3.8-5.7-8.8-5.7-17.1v-74.6h-35.3l-1.3,7.4c0,0,1.3,2.2,2.8,4.8c1.6,2.8,2,4.2,2.1,5.7c0,0.2,0,57.9,0,57.9
			c0,31.9,21.6,48.2,63.3,48.2h0.9c41.7,0,62.2-15.8,62.2-48.2v-75.8H1137.1z"/>
		<path d="M971.1,193.2h-39.7c-12,24.9-33,70.7-52.6,122.1h31.9c2.5-6.9,5.2-14,7.9-21.1h65.2c2.7,7.1,5.4,14.2,7.9,21.1h31.9
			C1004.1,263.9,983.1,218,971.1,193.2z M927.8,271.1c8.3-20.8,16.7-40.5,23.5-55.7c6.7,15.3,15.1,34.9,23.5,55.7H927.8z"/>
	</g>
	<g>
		<linearGradient id="SVGID_1_" gradientUnits="userSpaceOnUse" x1="226.7549" y1="391.4727" x2="226.7549" y2="118.7632">
			<stop  offset="0" style="stop-color:#E6E6E6"/>
			<stop  offset="0.6866" style="stop-color:#FFFFFF"/>
			<stop  offset="1" style="stop-color:#919191"/>
		</linearGradient>
		<path class="st0" d="M333.3,249.8c-4.8-10.2-16.2-32.3-27.6-53.2c-16.2-29.4-41.5-71.3-44.1-74.9c-0.7-1-1.3-1.6-1.9-2
			c-0.3-0.2-0.6-0.4-1-0.5c-0.6-0.2-2.1-0.1-3.1,0c-0.6,0.1-1.3,0-1.8,0c-5.4-0.2-16.3-0.5-27-0.5c-13.2,0-29,0.4-31.1,0.6
			c-1.1,0.1-1.5,0.3-1.9,0.5c-0.5,0.3-1.1,0.6-1.9,1.8c-2.5,3.7-27.9,45.5-44.1,74.9c-11.5,20.9-22.8,43-27.6,53.2
			c-1.3,2.7-1.5,4.5-1.5,5.3c0,1.5,0.5,3.3,1.5,5.3c4.8,10.2,16.2,32.3,27.6,53.2c16.2,29.4,41.5,71.3,44.1,74.9
			c0.4,0.6,0.8,1,1.1,1.4c0.6,0.6,1.1,1,1.7,1.2c0.6,0.2,1.9,0.1,3,0c0.6-0.1,1.3,0,1.8,0c6.5,0.2,16.5,0.5,27.1,0.5
			c13.2,0,28.5-0.3,30.8-0.6l0.4,0c0.9-0.1,1.4-0.2,1.6-0.4c0.5-0.2,1-0.6,2.1-2.1c2.6-3.6,27.8-45.3,44-74.7
			c11.5-20.9,22.8-43,27.6-53.2c1.3-2.7,1.5-4.8,1.5-5.7C334.8,253.3,334.3,251.9,333.3,249.8z M258.6,260.6
			c-10.8,24.3-18.5,39.4-29.9,61.3c-0.7,1.3-1.2,2.1-1.9,2.1c-0.8,0-1.3-0.8-1.9-2.1c-11.4-21.9-19.1-37.1-29.9-61.3
			c-0.9-2.1-1.6-3.6-1.6-5.6c0-1.9,0.7-3.4,1.6-5.5c10.8-24.3,18.5-39.4,29.9-61.3c0.7-1.3,1.2-2.1,1.9-2.1c0,0,0,0,0,0c0,0,0,0,0,0
			c0,0,0,0,0,0c0.8,0,1.3,0.8,1.9,2.1c11.4,21.9,19.1,37.1,29.9,61.3c0.9,2.1,1.6,3.6,1.6,5.6C260.2,257.1,259.5,258.6,258.6,260.6z
			"/>
		<defs>
			<filter id="Adobe_OpacityMaskFilter" filterUnits="userSpaceOnUse" x="118.7" y="118.8" width="216" height="272.7">
				
					<feColorMatrix  type="matrix" values="-1 0 0 0 1  0 -1 0 0 1  0 0 -1 0 1  0 0 0 1 0" color-interpolation-filters="sRGB" result="source"/>
				<feFlood  style="flood-color:white;flood-opacity:1" result="back"/>
				<feBlend  in="source" in2="back" mode="normal"/>
			</filter>
		</defs>
		<mask maskUnits="userSpaceOnUse" x="118.7" y="118.8" width="216" height="272.7" id="SVGID_2_">
			<g class="st1">
				<linearGradient id="SVGID_3_" gradientUnits="userSpaceOnUse" x1="223.3291" y1="410.9238" x2="223.3291" y2="257.2129">
					<stop  offset="0.8545" style="stop-color:#FFFFFF"/>
					<stop  offset="1" style="stop-color:#000000"/>
				</linearGradient>
				<rect x="84.6" y="257.2" class="st2" width="277.5" height="153.7"/>
			</g>
		</mask>
		
			<radialGradient id="SVGID_4_" cx="210.5195" cy="189.0953" r="136.4821" gradientTransform="matrix(0.9963 0 0 1 2.919 0)" gradientUnits="userSpaceOnUse">
			<stop  offset="0.401" style="stop-color:#FFFFFF"/>
			<stop  offset="1" style="stop-color:#919191"/>
		</radialGradient>
		<path class="st3" d="M333.3,249.8c-4.8-10.2-16.2-32.3-27.6-53.2c-16.2-29.4-41.5-71.3-44.1-74.9c-0.7-1-1.3-1.6-1.9-2
			c-0.3-0.2-0.6-0.4-1-0.5c-0.6-0.2-2.1-0.1-3.1,0c-0.6,0.1-1.3,0-1.8,0c-5.4-0.2-16.3-0.5-27-0.5c-13.2,0-29,0.4-31.1,0.6
			c-1.1,0.1-1.5,0.3-1.9,0.5c-0.5,0.3-1.1,0.6-1.9,1.8c-2.5,3.7-27.9,45.5-44.1,74.9c-11.5,20.9-22.8,43-27.6,53.2
			c-1.3,2.7-1.5,4.5-1.5,5.3c0,1.5,0.5,3.3,1.5,5.3c4.8,10.2,16.2,32.3,27.6,53.2c16.2,29.4,41.5,71.3,44.1,74.9
			c0.4,0.6,0.8,1,1.1,1.4c0.6,0.6,1.1,1,1.7,1.2c0.6,0.2,1.9,0.1,3,0c0.6-0.1,1.3,0,1.8,0c6.5,0.2,16.5,0.5,27.1,0.5
			c13.2,0,28.5-0.3,30.8-0.6l0.4,0c0.9-0.1,1.4-0.2,1.6-0.4c0.5-0.2,1-0.6,2.1-2.1c2.6-3.6,27.8-45.3,44-74.7
			c11.5-20.9,22.8-43,27.6-53.2c1.3-2.7,1.5-4.8,1.5-5.7C334.8,253.3,334.3,251.9,333.3,249.8z M258.6,260.6
			c-10.8,24.3-18.5,39.4-29.9,61.3c-0.7,1.3-1.2,2.1-1.9,2.1c-0.8,0-1.3-0.8-1.9-2.1c-11.4-21.9-19.1-37.1-29.9-61.3
			c-0.9-2.1-1.6-3.6-1.6-5.6c0-1.9,0.7-3.4,1.6-5.5c10.8-24.3,18.5-39.4,29.9-61.3c0.7-1.3,1.2-2.1,1.9-2.1c0,0,0,0,0,0c0,0,0,0,0,0
			c0,0,0,0,0,0c0.8,0,1.3,0.8,1.9,2.1c11.4,21.9,19.1,37.1,29.9,61.3c0.9,2.1,1.6,3.6,1.6,5.6C260.2,257.1,259.5,258.6,258.6,260.6z
			"/>
		<g>
			<linearGradient id="SVGID_5_" gradientUnits="userSpaceOnUse" x1="172.8329" y1="390.134" x2="172.8329" y2="255.7947">
				<stop  offset="1.042330e-02" style="stop-color:#E6E6E6"/>
				<stop  offset="0.3385" style="stop-color:#A6A6A6"/>
				<stop  offset="0.6941" style="stop-color:#333333"/>
				<stop  offset="0.8452" style="stop-color:#1A1A1A"/>
				<stop  offset="0.948" style="stop-color:#0D0D0D"/>
				<stop  offset="0.9621" style="stop-color:#101010"/>
				<stop  offset="0.9724" style="stop-color:#191919"/>
				<stop  offset="0.9815" style="stop-color:#292929"/>
				<stop  offset="0.9899" style="stop-color:#404040"/>
				<stop  offset="0.9978" style="stop-color:#5C5C5C"/>
				<stop  offset="1" style="stop-color:#666666"/>
			</linearGradient>
			<path class="st4" d="M186.6,264c0,0-3.2-6-3.3-8.3c0-0.3,0-0.4,0-0.7c0.1-0.6-0.2-0.4-0.7,0.1c-0.9,0.9-2.6,1.7-6.6,1.7
				c-3.5,0-33.8,0-48.1,0c-2.1,0-4.9-0.2-4.9,3.2c0,2,1.7,5.9,5.2,12.8c19.1,37.4,40.3,74.7,63.1,111.2c0,0,3.5,5.6,3.8,6
				c0.4,0.4,0.8,0.6,1.6,0.6c0,0,14.4-26.4,26.1-55.2C209.8,311.4,197.8,287.7,186.6,264z"/>
			<linearGradient id="SVGID_6_" gradientUnits="userSpaceOnUse" x1="196.6624" y1="390.5072" x2="196.6624" y2="390.5067">
				<stop  offset="1.042330e-02" style="stop-color:#E6E6E6"/>
				<stop  offset="0.3385" style="stop-color:#A6A6A6"/>
				<stop  offset="0.6941" style="stop-color:#333333"/>
				<stop  offset="0.8452" style="stop-color:#1A1A1A"/>
				<stop  offset="0.948" style="stop-color:#0D0D0D"/>
				<stop  offset="0.9621" style="stop-color:#101010"/>
				<stop  offset="0.9724" style="stop-color:#191919"/>
				<stop  offset="0.9815" style="stop-color:#292929"/>
				<stop  offset="0.9899" style="stop-color:#404040"/>
				<stop  offset="0.9978" style="stop-color:#5C5C5C"/>
				<stop  offset="1" style="stop-color:#666666"/>
			</linearGradient>
			<path class="st5" d="M196.7,390.5C196.7,390.5,196.7,390.5,196.7,390.5C196.7,390.5,196.7,390.5,196.7,390.5z"/>
		</g>
		<linearGradient id="SVGID_7_" gradientUnits="userSpaceOnUse" x1="265.4262" y1="390.1287" x2="265.4262" y2="255.6717">
			<stop  offset="1.042330e-02" style="stop-color:#E6E6E6"/>
			<stop  offset="0.3385" style="stop-color:#A6A6A6"/>
			<stop  offset="0.6941" style="stop-color:#333333"/>
			<stop  offset="0.8452" style="stop-color:#1A1A1A"/>
			<stop  offset="0.9538" style="stop-color:#0D0D0D"/>
			<stop  offset="0.9663" style="stop-color:#101010"/>
			<stop  offset="0.9754" style="stop-color:#191919"/>
			<stop  offset="0.9835" style="stop-color:#292929"/>
			<stop  offset="0.991" style="stop-color:#404040"/>
			<stop  offset="0.998" style="stop-color:#5C5C5C"/>
			<stop  offset="1" style="stop-color:#666666"/>
		</linearGradient>
		<path class="st6" d="M332.1,255.5c-0.5,0.5-2,1.3-5.2,1.3c-1.2,0-28,0-39.7,0c-18.2,0-16.3-0.5-21.1,9.1
			c-2.1,4.3-4.3,9.3-6.5,13.5c-15.9,33.2-54.6,100.1-59.9,108.3c-2,3.1-2.3,3.3-0.8,3.3c0,0,13.1,0.5,27.8,0.5c22.9,0,31-0.6,31-0.6
			c13.3-20.6,44.9-72.9,67.4-118.2c5.2-10.4,7.8-15,7.5-17.2C332.7,255,332.3,255.2,332.1,255.5z"/>
		<linearGradient id="SVGID_8_" gradientUnits="userSpaceOnUse" x1="220.8923" y1="254.2197" x2="220.8923" y2="118.8841">
			<stop  offset="0" style="stop-color:#333333"/>
			<stop  offset="9.080525e-03" style="stop-color:#282828"/>
			<stop  offset="2.380157e-02" style="stop-color:#1D1D1D"/>
			<stop  offset="4.003730e-02" style="stop-color:#1A1A1A"/>
			<stop  offset="0.1234" style="stop-color:#141414"/>
			<stop  offset="0.2278" style="stop-color:#050505"/>
			<stop  offset="0.2521" style="stop-color:#000000"/>
		</linearGradient>
		<path class="st7" d="M256.7,119.7c-1,0-1.7,0.7-3,2.8c-11.2,17.4-49.9,90.3-65.7,124.3c-1.9,4.2-2.9,6.2-2.9,8.2l8.2,0
			c0,0,0,0,0,0c0-1.9,0.7-3.4,1.6-5.5c10.8-24.3,18.5-39.4,29.9-61.3c0.7-1.3,1.2-2.1,1.9-2.1c0,0,0,0,0,0l3.2-9.3
			C241.1,149,256.7,119.7,256.7,119.7z"/>
		<linearGradient id="SVGID_9_" gradientUnits="userSpaceOnUse" x1="247.5748" y1="255.1579" x2="247.5748" y2="176.814">
			<stop  offset="0" style="stop-color:#737373"/>
			<stop  offset="0.1483" style="stop-color:#6D6D6D"/>
			<stop  offset="0.3318" style="stop-color:#5E5E5E"/>
			<stop  offset="0.534" style="stop-color:#454545"/>
			<stop  offset="0.7481" style="stop-color:#222222"/>
			<stop  offset="0.7954" style="stop-color:#1A1A1A"/>
			<stop  offset="0.9207" style="stop-color:#000000"/>
		</linearGradient>
		<path class="st8" d="M268.4,255.2c0-2-0.9-4-2.9-8.1c-10.9-23.2-22.4-45.8-35.6-70.2l-3.2,9.3c0,0,0,0,0,0c0,0,0,0,0,0
			c0.8,0,1.3,0.8,1.9,2.1c11.4,21.9,19.1,37.1,29.9,61.3c0.9,2.1,1.6,3.6,1.6,5.6c0,0,0,0,0,0H268.4z"/>
		<linearGradient id="SVGID_10_" gradientUnits="userSpaceOnUse" x1="205.896" y1="333.5858" x2="205.896" y2="255.2015">
			<stop  offset="0.3571" style="stop-color:#BFBFBF"/>
			<stop  offset="0.4742" style="stop-color:#BABABA"/>
			<stop  offset="0.6093" style="stop-color:#ADADAD"/>
			<stop  offset="0.7533" style="stop-color:#959595"/>
			<stop  offset="0.9026" style="stop-color:#757575"/>
			<stop  offset="0.9631" style="stop-color:#666666"/>
			<stop  offset="1" style="stop-color:#333333"/>
		</linearGradient>
		<path class="st9" d="M226.7,324.1C226.7,324.1,226.7,324.1,226.7,324.1c-0.8,0-1.3-0.8-1.9-2.1c-11.4-21.9-19.1-37.1-29.9-61.3
			c-0.9-2.1-1.6-3.6-1.6-5.6c0,0,0,0,0,0l-8.2,0c0,2,0.9,4.1,2.9,8.2v0c10.9,23.2,22.3,45.8,35.5,70.2L226.7,324.1z"/>
		<linearGradient id="SVGID_11_" gradientUnits="userSpaceOnUse" x1="236.6742" y1="307.0123" x2="165.3726" y2="274.8502">
			<stop  offset="1.320000e-02" style="stop-color:#F2F2F2;stop-opacity:0.8"/>
			<stop  offset="0.1096" style="stop-color:#EDEDED;stop-opacity:0"/>
		</linearGradient>
		<path class="st10" d="M226.7,324.1C226.7,324.1,226.7,324.1,226.7,324.1c-0.8,0-1.3-0.8-1.9-2.1c-11.4-21.9-19.1-37.1-29.9-61.3
			c-0.9-2.1-1.6-3.6-1.6-5.6c0,0,0,0,0,0l-8.2,0c0,2,0.9,4.1,2.9,8.2v0c10.9,23.2,22.3,45.8,35.5,70.2L226.7,324.1z"/>
		<linearGradient id="SVGID_12_" gradientUnits="userSpaceOnUse" x1="232.5313" y1="389.6504" x2="232.5313" y2="254.2896">
			<stop  offset="0" style="stop-color:#FFFFFF"/>
			<stop  offset="0.2169" style="stop-color:#F9F9F9"/>
			<stop  offset="0.5128" style="stop-color:#E7E7E7"/>
			<stop  offset="0.853" style="stop-color:#CBCBCB"/>
			<stop  offset="0.9693" style="stop-color:#BFBFBF"/>
			<stop  offset="0.9913" style="stop-color:#737373"/>
		</linearGradient>
		<path class="st11" d="M196.7,390.5c0.9,0,2-1.1,3.2-3c0.3-0.5,0.8-1.3,1.3-2.2c8.4-14.4,49.2-89.6,64.2-122
			c1.9-4.2,2.9-6.2,2.9-8.3h-8.2c0,0,0,0,0,0c0,2-0.7,3.5-1.6,5.5c-10.8,24.3-18.5,39.4-29.9,61.3c-0.7,1.3-1.2,2.1-1.9,2.1
			l-3.3,9.4C211.7,363,196.7,390.5,196.7,390.5z"/>
		<linearGradient id="SVGID_13_" gradientUnits="userSpaceOnUse" x1="153.2474" y1="395.0029" x2="153.2474" y2="255.1182">
			<stop  offset="0" style="stop-color:#666666"/>
			<stop  offset="0.1931" style="stop-color:#5D5D5D"/>
			<stop  offset="0.5879" style="stop-color:#515151"/>
			<stop  offset="0.9698" style="stop-color:#4D4D4D"/>
			<stop  offset="0.988" style="stop-color:#767676"/>
			<stop  offset="1" style="stop-color:#8C8C8C"/>
		</linearGradient>
		<path class="st12" d="M193.1,389.9c-0.3-0.4-0.7-0.8-1.1-1.4c-2.6-3.6-27.9-45.5-44.1-74.9c-11.5-20.9-22.8-43-27.6-53.2
			c-1-2.1-1.5-3.9-1.5-5.3l-5.3,0c0,1.8,0.4,4.2,2,7.6c3.8,8.2,14.3,28.9,27.8,53.5c14.7,26.8,41.5,71.4,44.5,75.5
			c1.2,1.7,2.3,2.7,3.3,3.3L193.1,389.9z"/>
		<linearGradient id="SVGID_14_" gradientUnits="userSpaceOnUse" x1="199.8983" y1="378.0865" x2="253.7677" y2="409.188">
			<stop  offset="1.931200e-02" style="stop-color:#666666"/>
			<stop  offset="4.004283e-02" style="stop-color:#4B4B4B"/>
			<stop  offset="6.210766e-02" style="stop-color:#373737"/>
			<stop  offset="8.391306e-02" style="stop-color:#2A2A2A"/>
			<stop  offset="0.105" style="stop-color:#262626"/>
		</linearGradient>
		<path class="st13" d="M190.9,395c1.4,0.9,2.8,1,4.4,1.2c4,0.4,21.4,0.6,31.4,0.6c10,0,28.8-0.4,31.4-0.6c1.2-0.1,2.4-0.2,3.5-0.7
			l-2.1-5c-0.3,0.1-0.8,0.3-1.6,0.4l-0.4,0c-2.3,0.3-17.7,0.6-30.8,0.6c-10.6,0-20.6-0.2-27.1-0.5c-0.5,0-1.3,0-1.8,0
			c-1.1,0.1-2.3,0.2-3,0c-0.6-0.2-1.2-0.6-1.7-1.2L190.9,395z"/>
		<linearGradient id="SVGID_15_" gradientUnits="userSpaceOnUse" x1="240.6722" y1="153.2459" x2="360.0759" y2="218.6176">
			<stop  offset="0" style="stop-color:#595959"/>
			<stop  offset="1" style="stop-color:#737373"/>
		</linearGradient>
		<path class="st14" d="M340.1,255.1c0-1.5-0.3-4.1-2-7.6c-4-8.4-16.9-33.8-27.8-53.5c-14.5-26.4-41.4-71.3-44.5-75.5
			c-1.6-2.2-2.9-3.2-4.1-3.8l-2,4.9c0.6,0.4,1.2,1.1,1.9,2c2.6,3.6,27.9,45.5,44.1,74.9c11.5,20.9,22.8,43,27.6,53.2
			c1,2.1,1.5,3.5,1.5,5L340.1,255.1z"/>
		<linearGradient id="SVGID_16_" gradientUnits="userSpaceOnUse" x1="258.4856" y1="126.0963" x2="193.8072" y2="107.55">
			<stop  offset="9.552040e-03" style="stop-color:#595959"/>
			<stop  offset="2.522372e-02" style="stop-color:#757575"/>
			<stop  offset="4.406418e-02" style="stop-color:#909090"/>
			<stop  offset="6.085027e-02" style="stop-color:#A0A0A0"/>
			<stop  offset="7.376030e-02" style="stop-color:#A6A6A6"/>
			<stop  offset="0.5011" style="stop-color:#D0D0CF"/>
			<stop  offset="1" style="stop-color:#BFBFBF"/>
		</linearGradient>
		<path class="st15" d="M191.7,114.8l2.1,5.1c0.4-0.2,0.8-0.4,1.9-0.5c2.1-0.2,17.9-0.6,31.1-0.6c10.7,0,21.6,0.2,27,0.5
			c0.5,0,1.3,0,1.8,0c1.1-0.1,2.5-0.2,3.1,0c0.3,0.1,0.7,0.3,1,0.5l2-4.9c-1.2-0.5-2.3-0.6-3.7-0.7c-4.1-0.4-22-0.6-31.3-0.6
			c-8.2,0-27.3,0.2-31.8,0.7C193.6,114.2,192.6,114.4,191.7,114.8z"/>
		<linearGradient id="SVGID_17_" gradientUnits="userSpaceOnUse" x1="95.316" y1="207.9659" x2="210.6556" y2="163.6912">
			<stop  offset="0" style="stop-color:#8C8C8C"/>
			<stop  offset="0.9868" style="stop-color:#737373"/>
			<stop  offset="1" style="stop-color:#BFBFBF"/>
		</linearGradient>
		<path class="st16" d="M191.7,114.8c-1.7,0.7-2.7,1.9-4.2,4c-3.1,4-29.9,49.2-44.3,75.2c-10.1,18.3-26.3,50-27.8,53.5
			c-1.5,3.5-2,5.8-2,7.6l5.3,0c0-0.8,0.2-2.6,1.5-5.3c4.8-10.2,16.2-32.3,27.6-53.2c16.2-29.4,41.6-71.2,44.1-74.9
			c0.8-1.3,1.4-1.6,1.9-1.8L191.7,114.8z"/>
		<linearGradient id="SVGID_18_" gradientUnits="userSpaceOnUse" x1="299.8464" y1="395.4341" x2="299.8464" y2="254.7793">
			<stop  offset="1.902380e-02" style="stop-color:#262626"/>
			<stop  offset="0.2083" style="stop-color:#2F2F2F"/>
			<stop  offset="0.5954" style="stop-color:#3C3C3C"/>
			<stop  offset="0.9698" style="stop-color:#404040"/>
			<stop  offset="0.9854" style="stop-color:#5C5C5C"/>
			<stop  offset="1" style="stop-color:#737373"/>
		</linearGradient>
		<path class="st17" d="M261.7,395.4c1.3-0.6,2.6-1.6,4.1-3.8c2.9-4,31.7-52.1,44.5-75.5c12.8-23.3,26.3-50.2,27.8-53.5
			c1.8-4.1,2-6.1,2-7.6l-5.3-0.3c0,0.8-0.2,3-1.5,5.7c-4.8,10.2-16.2,32.3-27.6,53.2c-16.2,29.4-41.4,71.1-44,74.7
			c-1.1,1.5-1.5,1.9-2.1,2.1c0,0,0,0,0,0L261.7,395.4z"/>
		<path class="st18" d="M255.6,119.2c0.1,0,0.2,0,0.3,0c0,0-1.3,1-4.8,1c-4.1,0-12.6-0.2-19.4-0.2c-12.6-0.1-27.6,0.2-34.6,0.5
			c-3.7,0.2-3.9,0.6-6.3,3.1l0,0l1.2-1.8c0.8-1.3,1.4-1.6,1.9-1.8c0.4-0.2,0.8-0.4,1.9-0.5c2.1-0.2,17.9-0.6,31.1-0.6
			c10.7,0,21.6,0.2,27,0.5C254.3,119.2,255,119.3,255.6,119.2"/>
		<g>
			<defs>
				<path id="SVGID_19_" d="M340.1,255.1c0-1.3-0.3-4-2-7.6c-4.1-8.6-16.9-33.8-27.8-53.5c-0.8-1.5-1.7-3.1-2.6-4.7
					c-11.7-7.1-25.5-11.2-40.2-11.2c-14.6,0-28.3,4.1-40,11.1c1,1.9,9,17.2,16.3,32.1c6.8,14,12.8,27.4,13.5,28.9
					c0.9,2,1.4,3.3,1.4,4.9c0,1.6-0.5,2.8-1.4,4.8l0,0.1c-0.1,0.1-6.3,14.2-13.5,29c-6.5,13.2-13.5,26.8-16.2,32l-0.1,0.2
					c-0.3,0.5-0.5,0.9-0.6,0.9c-0.1,0-0.3-0.4-0.6-0.9c0-0.1-0.2-0.3-0.4-0.8c-7.6-14.6-12.9-25.2-16-31.5
					c-6.9-14.2-13.1-28-13.5-29l-0.1-0.1c-0.8-1.8-1.4-3.3-1.4-4.8c0-1.5,0.7-3.2,1.5-4.8c0-0.1,0.2-0.4,0.4-0.8
					c4.4-9.9,8.8-19.4,13.1-28.1c6.3-12.7,13.3-26.3,15.6-30.8c-21.5,13.9-35.8,38.2-35.8,65.8c0,43.2,34.9,78.3,78,78.3
					c13.9,0,26.9-3.6,38.2-10c1.7-3,3.3-5.8,4.6-8.3c12.4-22.7,26.2-49.9,27.8-53.5C339.9,258.8,340.1,256.8,340.1,255.1z"/>
			</defs>
			<clipPath id="SVGID_20_">
				<use xlink:href="#SVGID_19_"  style="overflow:visible;"/>
			</clipPath>
			<g class="st19">
				<defs>
					<filter id="Adobe_OpacityMaskFilter_1_" filterUnits="userSpaceOnUse" x="189.8" y="178.1" width="156.5" height="156.5">
						<feColorMatrix  type="matrix" values="1 0 0 0 0  0 1 0 0 0  0 0 1 0 0  0 0 0 1 0"/>
					</filter>
				</defs>
				<mask maskUnits="userSpaceOnUse" x="189.8" y="178.1" width="156.5" height="156.5" id="SVGID_21_">
					<g class="st20">
						<radialGradient id="SVGID_22_" cx="268.3157" cy="256.3221" r="23.3288" gradientUnits="userSpaceOnUse">
							<stop  offset="0.1664" style="stop-color:#FFFFFF"/>
							<stop  offset="0.1876" style="stop-color:#EBEBEB"/>
							<stop  offset="0.2456" style="stop-color:#BABABA"/>
							<stop  offset="0.3083" style="stop-color:#8E8E8E"/>
							<stop  offset="0.3742" style="stop-color:#686868"/>
							<stop  offset="0.4441" style="stop-color:#474747"/>
							<stop  offset="0.5193" style="stop-color:#2D2D2D"/>
							<stop  offset="0.6017" style="stop-color:#191919"/>
							<stop  offset="0.6951" style="stop-color:#0B0B0B"/>
							<stop  offset="0.8088" style="stop-color:#030303"/>
							<stop  offset="1" style="stop-color:#000000"/>
						</radialGradient>
						<path class="st21" d="M291.6,256.3c0-12.9-10.4-23.3-23.3-23.3c-12.9,0-23.3,10.4-23.3,23.3c0,12.9,10.4,23.3,23.3,23.3
							C281.2,279.7,291.6,269.2,291.6,256.3z"/>
					</g>
				</mask>
				<radialGradient id="SVGID_23_" cx="268.0728" cy="256.3221" r="78.2413" gradientUnits="userSpaceOnUse">
					<stop  offset="0" style="stop-color:#FFFFFF"/>
					<stop  offset="0.5897" style="stop-color:#FFFFFF;stop-opacity:0"/>
				</radialGradient>
				<circle class="st22" cx="268.1" cy="256.3" r="78.2"/>
			</g>
		</g>
		<path d="M258.6,249.6c-0.4-1-6.5-14.7-13.5-29c-7.6-15.5-16.1-31.7-16.4-32.4c-0.7-1.3-1.2-2.1-1.9-2.1s-1.2,0.7-1.9,2.1
			c-0.4,0.7-9,17.3-16.5,32.4c-7.4,15-13.1,28.2-13.5,29c-0.8,1.7-1.6,3.6-1.6,5.5s0.7,3.5,1.6,5.6c0.4,1,6.6,14.8,13.5,29.1
			c7.6,15.5,16.1,31.6,16.4,32.3c0.6,1.3,1.2,2.1,1.9,2.1c0.7,0,1.3-0.8,1.9-2.1c0.3-0.7,8.8-16.7,16.4-32.3
			c7-14.2,13.1-28,13.6-29.1c0.9-2.2,1.6-3.6,1.6-5.5C260.2,253.2,259.6,251.7,258.6,249.6z M257.3,259.9l0,0.1
			c-0.1,0.1-6.3,14.2-13.5,29c-6.5,13.2-13.5,26.8-16.2,32l-0.1,0.2c-0.3,0.5-0.5,0.9-0.6,0.9c-0.1,0-0.3-0.4-0.6-0.9
			c0-0.1-0.2-0.3-0.4-0.8c-7.6-14.6-12.9-25.2-16-31.5c-6.9-14.2-13.1-28-13.5-29l-0.1-0.1c-0.8-1.8-1.4-3.3-1.4-4.8
			c0-1.5,0.7-3.2,1.5-4.8c0-0.1,0.2-0.4,0.4-0.8c4.4-9.9,8.8-19.4,13.1-28.1c7.6-15.4,16.4-32.2,16.4-32.3c0.2-0.5,0.5-0.9,0.6-0.9
			s0.4,0.4,0.6,0.9c0.1,0.1,8.6,16.4,16.4,32.3c6.8,14,12.8,27.4,13.5,28.9c0.9,2,1.4,3.3,1.4,4.9
			C258.7,256.7,258.1,257.9,257.3,259.9z"/>
		<path d="M338.1,247.5c-4.1-8.6-16.9-33.8-27.8-53.5c-14.9-27-41.5-71.4-44.5-75.5c-3-4-4.6-4.2-7.4-4.5l-0.4,0
			c-4-0.4-21.1-0.6-31.3-0.6c-8.8,0-27.4,0.2-31.8,0.7c-4.1,0.4-5.2,1.7-7.5,4.7c-3.2,4.2-30.2,49.9-44.3,75.2
			c-10.2,18.4-26.3,50.1-27.8,53.5c-1.4,3.1-2,5.5-2,7.6c0,2.3,0.6,4.7,2,7.6c3.4,7.3,13.6,27.6,27.8,53.5
			c14.8,27,41.6,71.6,44.5,75.5c3,4.1,5,4.3,7.7,4.5c4.1,0.4,21.9,0.6,31.4,0.6c10.3,0,28.9-0.4,31.4-0.6c2.5-0.2,4.7-0.4,7.7-4.5
			c2.7-3.7,31.5-51.8,44.5-75.5c12.4-22.7,26.2-49.9,27.8-53.5c1.7-3.9,2-6,2-7.6C340.1,253.8,339.9,251.1,338.1,247.5z
			 M336.7,262.1c-1.6,3.5-15.3,30.7-27.7,53.4c-12.9,23.6-41.7,71.6-44.4,75.3c-2.5,3.5-4.1,3.7-6.6,3.9c-2.5,0.2-21.1,0.6-31.3,0.6
			c-9.5,0-27.2-0.3-31.3-0.6c-2.6-0.2-4-0.4-6.6-3.9c-2.8-3.9-29.6-48.4-44.4-75.3c-14.2-25.8-24.4-46.1-27.7-53.4
			c-1.3-2.7-1.8-4.9-1.8-7c0-1.9,0.6-4.1,1.9-7c1.5-3.4,17.6-35,27.7-53.4c14.1-25.3,41-70.9,44.2-75.1c2.2-2.9,3-3.8,6.5-4.1
			c4.3-0.4,22.9-0.7,31.6-0.7c10.2,0,27.2,0.2,31.1,0.6l0.4,0c2.6,0.3,3.8,0.4,6.3,3.9c3,4,29.5,48.3,44.4,75.3
			c10.8,19.7,23.6,44.8,27.7,53.4c1.6,3.3,1.8,5.8,1.8,7C338.6,256.6,338.4,258.5,336.7,262.1z"/>
	</g>
</g>
</svg>
